<svg xmlns="http://www.w3.org/2000/svg" version="1.1" xmlns:xlink="http://www.w3.org/1999/xlink" xmlns:svgjs="http://svgjs.dev/svgjs" viewBox="0 0 800 800"><defs><linearGradient x1="50%" y1="0%" x2="50%" y2="100%" id="ccchaos-grad"><stop stop-color="hsl(206, 75%, 49%)" stop-opacity="1" offset="0%"></stop><stop stop-color="hsl(331, 90%, 56%)" stop-opacity="1" offset="100%"></stop></linearGradient></defs><g stroke-width="2" stroke="url(#ccchaos-grad)" fill="none" stroke-linecap="round"><path d="M378.3 104.48C387.66 106.97 396.96 110.24 406.18 114.13 415.42 118.1 424.59 122.46 433.69 127.05 442.83 131.38 451.92 135.77 460.97 140.13 470.09 144.01 479.2 147.8 488.31 151.47 497.53 154.63 506.78 157.72 516.07 160.77 525.51 163.41 535.01 166.15 544.58 169.02 554.31 171.67 564.11 174.61 573.94 177.89 583.92 181.14 593.9 184.84 603.83 189.02 613.82 193.31 623.67 198.15 633.29 203.53 642.82 209.1 651.99 215.22 660.68 221.85 669.06 228.69 676.8 236.02 683.75 243.78 690.19 251.72 695.68 260.05 700.13 268.69 703.87 277.47 706.47 286.52 707.84 295.76 708.47 305.09 707.89 314.58 706.1 324.16 703.7 333.79 700.24 343.47 695.81 353.15 691.09 362.85 685.65 372.53 679.65 382.14 673.81 391.75 667.86 401.05 661.95 410.02 656.6 419 651.5 427.65 646.75 436 642.75 444.36 639.16 452.44 635.97 460.25 633.56 468.13 631.47 475.82 629.65 483.33 628.45 491.01 627.36 498.62 626.29 506.21 625.6 514.08 624.74 522.04 623.62 530.16 622.64 538.66 621.23 547.42 619.35 556.46 617.41 565.96 614.87 575.77 611.72 585.88 608.4 596.37 604.42 607.07 599.78 617.89 594.92 628.84 589.41 639.67 583.3 650.18 576.98 660.39 570.08 669.95 562.67 678.6 555.09 686.44 547.04 693.03 538.58 698.15 530.02 702.08 521.09 704.34 511.85 704.85 502.56 704.15 493 701.81 483.22 697.95 473.42 693.33 463.43 687.65 453.28 681.19 443.13 674.86 432.84 668.41 422.44 662.19 412.04 657.07 401.77 652.82 391.66 649.6 381.54 647.91 371.57 647.29 361.75 647.64 351.92 649.31 342.23 651.62 332.7 654.31 323.14 657.68 313.73 660.93 304.48 663.79 295.19 666.59 286.04 668.55 277.07 669.51 268.06 669.86 259.21 668.96 250.55 666.78 241.86 663.76 233.37 659.46 225.11 653.95 216.84 647.66 208.82 640.31 201.07 632.07 193.36 623.26 185.95 613.77 178.89 603.76 171.9 593.44 165.29 582.78 159.09 571.93 153.02 560.98 147.38 549.95 142.23 538.94 137.23 527.95 132.73 517.04 128.77 506.25 124.97 495.53 121.72 484.94 119.04 474.49 116.52 464.11 114.56 453.86 113.18 443.74 111.94 433.67 111.27 423.69 111.17 413.84 111.16 404 111.7 394.25 112.8 384.6 113.93 374.96 115.55 365.63 117.62 356.65 119.66 347.65 122.11 338.99 124.93 330.67 127.67 322.35 130.75 314.38 134.15 306.78 137.4 299.17 140.96 291.92 144.79 285.05 148.45 278.14 152.38 271.6 156.56 265.39 160.57 259.12 164.83 253.15 169.34 247.46 173.7 241.62 178.32 235.99 183.2 230.54 187.96 224.85 193 219.25 198.31 213.71 203.55 207.83 209.09 201.94 214.92 196.02 220.71 189.71 226.82 183.34 233.23 176.92 239.63 170.15 246.35 163.38 253.36 156.67 260.39 149.75 267.71 143.02 275.32 136.59 282.94 130.2 290.84 124.28 299 118.97 307.16 113.99 315.57 109.81 324.2 106.52 332.83 103.79 341.68 102.08 350.7 101.44 359.73 101.41 368.93 102.43 378.29 104.48" stroke-dasharray="7 3" transform="rotate(0, 400, 400)" opacity="0.29"></path><path d="M379.69 115.21C388.72 117.66 397.72 120.86 406.68 124.68 415.65 128.58 424.6 132.86 433.5 137.4 442.44 141.71 451.36 146.1 460.27 150.49 469.24 154.44 478.23 158.31 487.22 162.09 496.32 165.38 505.46 168.59 514.63 171.77 523.93 174.52 533.28 177.33 542.68 180.25 552.2 182.9 561.77 185.78 571.33 188.95 580.99 192.02 590.61 195.48 600.14 199.36 609.67 203.28 619.03 207.7 628.11 212.6 637.06 217.64 645.62 223.18 653.68 229.21 661.42 235.41 668.51 242.08 674.83 249.17 680.66 256.41 685.58 264.04 689.5 272.01 692.79 280.09 694.99 288.46 696.06 297.06 696.47 305.74 695.77 314.6 693.95 323.59 691.6 332.63 688.27 341.75 684.04 350.92 679.57 360.11 674.43 369.31 668.75 378.5 663.22 387.69 657.55 396.63 651.9 405.31 646.75 414 641.79 422.44 637.11 430.63 633.11 438.86 629.45 446.87 626.14 454.7 623.54 462.61 621.22 470.39 619.14 478.08 617.65 485.93 616.27 493.78 614.92 501.66 613.96 509.81 612.87 518.08 611.57 526.52 610.44 535.3 608.96 544.31 607.07 553.58 605.17 563.21 602.76 573.09 599.8 583.18 596.72 593.53 593.05 603.99 588.78 614.44 584.34 624.9 579.29 635.13 573.68 644.94 567.89 654.37 561.55 663.08 554.7 670.85 547.71 677.82 540.26 683.55 532.39 687.87 524.41 691.1 516.07 692.77 507.4 692.83 498.67 691.83 489.65 689.34 480.39 685.48 471.11 681 461.6 675.56 451.92 669.43 442.22 663.45 432.36 657.36 422.36 651.47 412.36 646.57 402.46 642.45 392.69 639.25 382.9 637.43 373.24 636.57 363.71 636.59 354.17 637.85 344.75 639.71 335.47 641.97 326.17 644.92 317 647.82 307.98 650.44 298.93 653.11 290.02 655.09 281.27 656.23 272.5 656.9 263.89 656.48 255.46 654.92 247.02 652.65 238.78 649.2 230.76 644.62 222.75 639.32 214.99 633 207.5 625.78 200.05 618.01 192.91 609.5 186.11 600.42 179.4 591 173.05 581.16 167.11 571.04 161.29 560.76 155.91 550.33 150.99 539.84 146.22 529.32 141.95 518.8 138.19 508.36 134.59 497.95 131.52 487.62 129 477.42 126.64 467.27 124.83 457.24 123.58 447.34 122.46 437.48 121.89 427.74 121.87 418.12 121.95 408.53 122.56 399.05 123.7 389.71 124.88 380.36 126.52 371.36 128.61 362.7 130.65 354.03 133.1 345.71 135.9 337.74 138.61 329.75 141.66 322.11 145.01 314.82 148.22 307.51 151.72 300.54 155.48 293.91 159.08 287.23 162.94 280.86 167.02 274.8 170.95 268.63 175.12 262.72 179.51 257.05 183.76 251.2 188.26 245.52 192.99 239.97 197.61 234.17 202.48 228.43 207.62 222.72 212.66 216.69 217.99 210.64 223.59 204.56 229.14 198.12 234.98 191.64 241.11 185.15 247.22 178.35 253.62 171.59 260.31 164.93 266.99 158.13 273.96 151.54 281.21 145.28 288.45 139.11 295.97 133.44 303.74 128.38 311.51 123.66 319.53 119.72 327.78 116.66 336.02 114.13 344.48 112.58 353.14 112.06 361.8 112.12 370.65 113.17 379.68 115.21" stroke-dasharray="10 1" transform="rotate(4.04, 400, 400)" opacity="0.29"></path><path d="M381.72 125.94C390.43 128.35 399.15 131.48 407.84 135.21 416.55 139.02 425.26 143.23 433.95 147.7 442.68 151.97 451.42 156.35 460.16 160.75 468.95 164.75 477.78 168.71 486.62 172.58 495.55 175.99 504.52 179.33 513.52 182.62 522.62 185.51 531.77 188.42 540.93 191.4 550.19 194.09 559.45 196.97 568.68 200.06 577.97 203.03 587.18 206.32 596.25 209.96 605.29 213.6 614.12 217.66 622.63 222.16 630.99 226.74 638.93 231.79 646.36 237.28 653.47 242.9 659.93 248.96 665.64 255.43 670.88 262.03 675.27 269.01 678.7 276.33 681.56 283.75 683.42 291.47 684.22 299.44 684.44 307.48 683.63 315.74 681.8 324.15 679.51 332.61 676.31 341.19 672.3 349.86 668.07 358.55 663.21 367.3 657.85 376.08 652.62 384.87 647.24 393.48 641.85 401.9 636.89 410.32 632.08 418.57 627.49 426.64 623.51 434.75 619.81 442.72 616.41 450.57 613.64 458.51 611.12 466.39 608.82 474.24 607.07 482.24 605.42 490.28 603.81 498.4 602.58 506.75 601.26 515.24 599.77 523.9 598.48 532.85 596.89 542 594.96 551.35 593.06 560.98 590.72 570.78 587.9 580.71 585 590.79 581.58 600.87 577.62 610.84 573.52 620.71 568.88 630.27 563.7 639.32 558.39 647.94 552.55 655.79 546.22 662.69 539.77 668.8 532.87 673.72 525.55 677.3 518.14 679.87 510.36 681.02 502.23 680.69 494.05 679.43 485.57 676.83 476.82 673.02 468.05 668.68 459.03 663.49 449.81 657.69 440.58 652.06 431.16 646.32 421.58 640.74 412 636.08 402.48 632.09 393.06 628.91 383.64 626.98 374.3 625.91 365.08 625.64 355.85 626.51 346.73 627.95 337.72 629.78 328.71 632.3 319.81 634.84 311.04 637.19 302.26 639.68 293.61 641.61 285.12 642.84 276.61 643.73 268.26 643.69 260.1 642.65 251.93 641.01 243.96 638.31 236.21 634.56 228.48 630.18 221 624.82 213.79 618.58 206.63 611.81 199.78 604.3 193.26 596.17 186.83 587.67 180.76 578.71 175.09 569.4 169.54 559.89 164.41 550.15 159.74 540.28 155.22 530.33 151.17 520.33 147.62 510.34 144.23 500.34 141.35 490.4 139 480.54 136.8 470.7 135.13 460.97 134 451.35 133 441.77 132.53 432.29 132.6 422.96 132.75 413.64 133.42 404.44 134.6 395.39 135.82 386.34 137.48 377.64 139.57 369.29 141.62 360.92 144.05 352.9 146.83 345.21 149.52 337.51 152.53 330.13 155.83 323.09 159 316.01 162.44 309.25 166.13 302.79 169.67 296.26 173.45 290 177.45 284.01 181.3 277.9 185.38 271.99 189.67 266.28 193.82 260.38 198.2 254.61 202.81 248.94 207.29 243.02 212.02 237.13 216.98 231.27 221.86 225.09 226.99 218.9 232.39 212.69 237.71 206.16 243.32 199.62 249.19 193.08 255.03 186.31 261.14 179.6 267.53 173.03 273.9 166.38 280.54 159.97 287.45 153.92 294.35 148 301.52 142.58 308.93 137.78 316.34 133.33 323.99 129.65 331.88 126.81 339.75 124.49 347.86 123.1 356.17 122.7 364.48 122.83 372.99 123.91 381.71 125.93" stroke-dasharray="1 1" transform="rotate(8.08, 400, 400)" opacity="0.49"></path><path d="M384.32 136.66C392.73 139.03 401.15 142.09 409.58 145.72 418.03 149.44 426.49 153.56 434.96 157.95 443.46 162.17 451.98 166.52 460.52 170.91 469.11 174.96 477.73 178.97 486.38 182.92 495.1 186.45 503.85 189.92 512.63 193.33 521.48 196.34 530.36 199.37 539.23 202.44 548.16 205.21 557.07 208.11 565.92 211.19 574.79 214.11 583.54 217.28 592.12 220.76 600.63 224.18 608.9 227.97 616.83 232.14 624.59 236.35 631.91 240.97 638.71 246 645.2 251.11 651.05 256.64 656.19 262.56 660.88 268.57 664.75 274.95 667.74 281.67 670.21 288.48 671.75 295.59 672.32 302.97 672.37 310.41 671.47 318.08 669.65 325.94 667.42 333.84 664.38 341.9 660.57 350.1 656.58 358.3 652.01 366.62 646.95 375.03 642.01 383.43 636.92 391.73 631.78 399.9 627.03 408.07 622.37 416.14 617.89 424.1 613.95 432.1 610.24 440.03 606.76 447.89 603.87 455.85 601.18 463.79 598.69 471.75 596.69 479.86 594.8 488.04 592.95 496.31 591.47 504.78 589.92 513.39 588.24 522.16 586.77 531.15 585.06 540.3 583.06 549.6 581.12 559.09 578.81 568.69 576.07 578.31 573.31 587.99 570.08 597.59 566.37 606.98 562.56 616.19 558.25 625.01 553.46 633.26 548.55 641.05 543.16 648.05 537.31 654.09 531.35 659.38 524.95 663.53 518.15 666.43 511.27 668.42 504.01 669.09 496.41 668.43 488.76 666.96 480.79 664.3 472.55 660.55 464.28 656.37 455.75 651.45 447 645.97 438.24 640.68 429.28 635.28 420.12 630.02 410.97 625.58 401.86 621.73 392.81 618.58 383.76 616.57 374.78 615.31 365.89 614.77 357 615.28 348.19 616.32 339.49 617.74 330.78 619.84 322.18 622.01 313.7 624.06 305.22 626.32 296.85 628.14 288.64 629.38 280.43 630.41 272.37 630.64 264.48 630 256.62 628.9 248.94 626.83 241.48 623.82 234.06 620.26 226.88 615.78 219.97 610.46 213.12 604.65 206.57 598.09 200.34 590.91 194.21 583.36 188.43 575.3 183.04 566.84 177.78 558.15 172.92 549.18 168.5 540.01 164.23 530.73 160.41 521.33 157.08 511.88 153.9 502.4 151.21 492.92 149.03 483.48 146.99 474.05 145.46 464.69 144.46 455.42 143.58 446.17 143.2 437.02 143.34 428 143.57 418.99 144.29 410.1 145.5 401.35 146.75 392.59 148.43 384.18 150.51 376.11 152.56 368.02 154.97 360.25 157.72 352.82 160.38 345.35 163.35 338.19 166.59 331.34 169.72 324.44 173.11 317.82 176.73 311.47 180.21 305.04 183.92 298.84 187.85 292.87 191.62 286.76 195.61 280.83 199.81 275.04 203.87 269.07 208.14 263.19 212.63 257.39 216.99 251.34 221.58 245.32 226.4 239.31 231.12 233.02 236.08 226.72 241.28 220.41 246.41 213.84 251.8 207.27 257.44 200.74 263.03 194.03 268.88 187.43 275 180.99 281.08 174.52 287.43 168.33 294.03 162.52 300.61 156.86 307.45 151.72 314.53 147.2 321.6 143.02 328.91 139.59 336.46 136.99 343.99 134.87 351.76 133.64 359.74 133.34 367.71 133.55 375.91 134.66 384.31 136.66" stroke-dasharray="8 4" transform="rotate(12.12, 400, 400)" opacity="0.58"></path><path d="M387.42 147.39C395.52 149.7 403.66 152.68 411.82 156.21 419.99 159.84 428.19 163.85 436.42 168.15 444.67 172.31 452.95 176.61 461.26 180.98 469.61 185.05 478 189.1 486.4 193.12 494.86 196.75 503.35 200.32 511.85 203.85 520.4 207 528.95 210.15 537.48 213.32 546.04 216.19 554.55 219.16 562.96 222.26 571.37 225.17 579.63 228.29 587.68 231.66 595.65 234.94 603.34 238.53 610.68 242.44 617.83 246.35 624.54 250.63 630.73 255.28 636.62 259.96 641.89 265.03 646.47 270.46 650.65 275.96 654.05 281.81 656.63 288 658.74 294.24 660 300.8 660.36 307.63 660.27 314.51 659.31 321.64 657.51 328.99 655.36 336.37 652.46 343.94 648.85 351.69 645.1 359.44 640.8 367.35 636.05 375.39 631.4 383.44 626.58 391.43 621.7 399.36 617.15 407.3 612.67 415.19 608.31 423.03 604.43 430.91 600.72 438.77 597.21 446.63 594.21 454.56 591.39 462.53 588.73 470.54 586.53 478.68 584.41 486.91 582.35 495.24 580.63 503.73 578.87 512.35 577 521.1 575.35 530.01 573.5 539.04 571.41 548.15 569.41 557.38 567.09 566.63 564.41 575.83 561.73 585.01 558.64 594.03 555.12 602.75 551.55 611.25 547.52 619.29 543.05 626.72 538.5 633.68 533.49 639.83 528.06 645.06 522.54 649.57 516.61 653.01 510.28 655.28 503.89 656.75 497.12 657.01 490.02 656.08 482.87 654.45 475.4 651.75 467.65 648.1 459.87 644.09 451.83 639.43 443.55 634.28 435.26 629.32 426.75 624.26 418.03 619.29 409.32 615.08 400.62 611.37 391.96 608.28 383.31 606.2 374.7 604.78 366.17 603.99 357.63 604.17 349.17 604.84 340.79 605.87 332.42 607.56 324.14 609.35 315.97 611.08 307.81 613.07 299.77 614.73 291.86 615.92 283.97 617.01 276.22 617.41 268.65 617.08 261.11 616.38 253.75 614.85 246.61 612.46 239.51 609.62 232.65 605.93 226.06 601.45 219.54 596.53 213.3 590.89 207.38 584.61 201.57 577.99 196.09 570.83 190.99 563.24 186.02 555.41 181.44 547.24 177.28 538.82 173.26 530.27 169.68 521.55 166.57 512.72 163.6 503.83 161.1 494.89 159.09 485.95 157.22 477 155.83 468.08 154.95 459.21 154.18 450.36 153.89 441.58 154.11 432.9 154.4 424.23 155.16 415.66 156.4 407.22 157.67 398.78 159.36 390.65 161.43 382.83 163.47 375 165.86 367.47 168.56 360.24 171.2 352.99 174.12 346 177.31 339.3 180.39 332.53 183.72 326.01 187.27 319.73 190.69 313.36 194.33 307.18 198.18 301.19 201.88 295.06 205.79 289.07 209.9 283.2 213.87 277.14 218.05 271.16 222.42 265.23 226.68 259.08 231.14 252.94 235.82 246.82 240.4 240.45 245.2 234.08 250.23 227.72 255.18 221.15 260.37 214.61 265.8 208.14 271.17 201.54 276.79 195.08 282.65 188.82 288.47 182.57 294.55 176.63 300.86 171.08 307.15 165.71 313.69 160.87 320.46 156.63 327.22 152.74 334.22 149.57 341.44 147.19 348.66 145.27 356.1 144.2 363.76 144 371.42 144.28 379.31 145.41 387.41 147.38" stroke-dasharray="3 7" transform="rotate(16.16, 400, 400)" opacity="0.19"></path><path d="M390.91 158.11C398.71 160.37 406.55 163.26 414.43 166.68 422.32 170.2 430.25 174.11 438.21 178.29 446.19 182.38 454.21 186.62 462.25 190.95 470.32 195.01 478.43 199.1 486.55 203.16 494.71 206.87 502.89 210.54 511.06 214.18 519.27 217.46 527.45 220.73 535.58 224.01 543.73 226.99 551.8 230.05 559.74 233.21 567.65 236.15 575.38 239.27 582.89 242.58 590.29 245.78 597.4 249.24 604.15 252.97 610.7 256.66 616.82 260.67 622.42 265.01 627.73 269.35 632.45 274.04 636.51 279.06 640.2 284.12 643.17 289.52 645.38 295.23 647.17 300.98 648.16 307.04 648.35 313.38 648.14 319.75 647.14 326.39 645.37 333.27 643.31 340.17 640.55 347.29 637.16 354.61 633.64 361.93 629.61 369.46 625.15 377.16 620.78 384.86 616.24 392.56 611.61 400.25 607.28 407.95 602.97 415.65 598.74 423.35 594.93 431.09 591.25 438.86 587.73 446.65 584.66 454.52 581.73 462.44 578.94 470.43 576.56 478.53 574.26 486.72 572 495 570.07 503.4 568.1 511.92 566.05 520.51 564.23 529.22 562.24 538 560.04 546.8 557.96 555.64 555.6 564.44 552.94 573.12 550.31 581.71 547.31 590.07 543.95 598.08 540.55 605.82 536.76 613.05 532.56 619.66 528.31 625.79 523.64 631.14 518.58 635.59 513.45 639.38 507.93 642.17 502.04 643.88 496.09 644.87 489.78 644.79 483.15 643.63 476.47 641.88 469.48 639.19 462.21 635.65 454.91 631.84 447.34 627.44 439.52 622.61 431.7 617.97 423.64 613.23 415.38 608.57 407.11 604.57 398.84 601.01 390.59 597.98 382.35 595.85 374.13 594.3 365.97 593.3 357.81 593.18 349.71 593.5 341.69 594.15 333.68 595.45 325.75 596.86 317.92 598.26 310.11 599.97 302.4 601.42 294.83 602.5 287.29 603.56 279.88 604.06 272.65 603.93 265.45 603.55 258.43 602.43 251.63 600.57 244.88 598.33 238.35 595.33 232.09 591.6 225.91 587.48 220.01 582.68 214.41 577.26 208.92 571.52 203.76 565.24 198.96 558.5 194.28 551.53 189.98 544.19 186.09 536.55 182.33 528.77 179 520.76 176.1 512.6 173.35 504.37 171.04 496.03 169.2 487.64 167.49 479.23 166.24 470.8 165.47 462.4 164.81 453.99 164.61 445.62 164.89 437.32 165.24 429.03 166.04 420.81 167.3 412.68 168.59 404.56 170.28 396.71 172.33 389.15 174.35 381.57 176.71 374.26 179.37 367.22 181.96 360.15 184.84 353.31 187.97 346.72 190.99 340.07 194.26 333.62 197.74 327.38 201.11 321.04 204.68 314.86 208.44 308.83 212.08 302.68 215.91 296.63 219.93 290.67 223.82 284.54 227.9 278.46 232.17 272.43 236.32 266.2 240.68 259.99 245.23 253.79 249.68 247.39 254.34 241 259.2 234.65 263.99 228.13 269.01 221.67 274.24 215.31 279.41 208.87 284.81 202.59 290.44 196.55 296.03 190.55 301.85 184.89 307.91 179.63 313.93 174.57 320.19 170.03 326.67 166.08 333.14 162.48 339.84 159.57 346.76 157.41 353.67 155.69 360.81 154.77 368.17 154.68 375.52 155.02 383.1 156.17 390.9 158.11" stroke-dasharray="0 9" transform="rotate(20.200000000000003, 400, 400)" opacity="0.44"></path><path d="M394.68 168.84C402.18 171.04 409.73 173.84 417.31 177.14 424.91 180.55 432.55 184.33 440.21 188.4 447.9 192.39 455.62 196.55 463.36 200.82 471.13 204.86 478.93 208.95 486.72 213.03 494.55 216.81 502.37 220.56 510.17 224.28 517.98 227.68 525.76 231.07 533.46 234.46 541.15 237.57 548.74 240.73 556.18 243.96 563.57 246.97 570.77 250.12 577.71 253.43 584.55 256.59 591.08 259.97 597.23 263.59 603.2 267.13 608.73 270.95 613.76 275.05 620.63 281.32 630.83 295.4 633.99 303.22 635.49 308.55 636.26 314.18 636.3 320.09 635.99 326.02 634.97 332.22 633.25 338.67 631.27 345.13 628.67 351.83 625.48 358.76 622.19 365.69 618.42 372.85 614.25 380.22 610.15 387.59 605.88 395 601.51 402.44 597.39 409.9 593.26 417.39 589.18 424.93 585.46 432.49 581.84 440.11 578.33 447.79 575.22 455.52 572.22 463.33 569.32 471.22 566.8 479.18 564.33 487.23 561.91 495.35 559.79 503.56 557.64 511.85 555.43 520.18 553.43 528.58 551.3 536.98 549 545.36 546.82 553.71 544.41 561.97 541.74 570.04 539.12 577.97 536.19 585.62 532.94 592.87 529.68 599.83 526.07 606.26 522.1 612.06 515.91 619.68 501.62 629.92 493.54 632.23 488 632.82 482.12 632.45 475.92 631.11 469.69 629.29 463.15 626.63 456.33 623.22 449.49 619.61 442.38 615.48 435.02 610.96 427.65 606.64 420.05 602.22 412.24 597.84 404.42 594.07 396.58 590.66 388.75 587.7 380.93 585.54 373.12 583.87 365.35 582.69 357.6 582.3 349.88 582.3 342.24 582.61 334.61 583.53 327.05 584.57 319.58 585.64 312.14 587.04 304.8 588.25 297.6 589.17 290.42 590.15 283.37 590.66 276.5 590.66 269.67 590.48 263.01 589.68 256.56 588.23 250.18 586.49 244.01 584.07 238.1 580.98 232.27 577.58 226.71 573.53 221.45 568.9 216.29 563.97 211.45 558.52 206.96 552.61 202.58 546.47 198.57 539.94 194.95 533.08 191.45 526.08 188.35 518.81 185.68 511.35 183.14 503.8 181.02 496.1 179.35 488.31 177.8 480.49 176.68 472.6 176.03 464.69 175.47 456.77 175.36 448.85 175.69 440.96 176.1 433.07 176.93 425.22 178.21 417.42 179.5 409.63 181.18 402.08 183.2 394.76 185.2 387.44 187.53 380.34 190.14 373.47 192.69 366.57 195.51 359.87 198.57 353.38 201.54 346.82 204.74 340.44 208.15 334.22 211.44 327.91 214.94 321.74 218.63 315.68 222.19 309.5 225.95 303.4 229.88 297.37 233.69 291.2 237.68 285.06 241.85 278.96 245.9 272.7 250.15 266.45 254.57 260.23 258.91 253.85 263.43 247.5 268.15 241.21 272.79 234.79 277.64 228.46 282.69 222.26 287.68 216.03 292.89 209.99 298.3 204.2 303.67 198.49 309.27 193.13 315.08 188.18 320.85 183.44 326.85 179.22 333.07 175.57 339.26 172.26 345.68 169.61 352.32 167.67 358.94 166.15 365.78 165.37 372.84 165.37 379.9 165.78 387.18 166.93 394.67 168.83" stroke-dasharray="3 6" transform="rotate(24.24, 400, 400)" opacity="0.25"></path><path d="M398.62 179.56C405.81 181.7 413.06 184.4 420.33 187.57 427.62 190.86 434.95 194.51 442.3 198.45 449.67 202.33 457.07 206.4 464.48 210.59 471.91 214.59 479.35 218.66 486.79 222.74 494.23 226.56 501.67 230.37 509.06 234.16 516.45 237.66 523.78 241.16 531.01 244.65 538.23 247.88 545.31 251.14 552.23 254.46 559.09 257.56 565.73 260.77 572.11 264.1 578.38 267.28 584.33 270.64 589.91 274.19 595.31 277.64 600.29 281.33 604.78 285.26 610.88 291.22 619.8 304.49 622.47 311.82 624.01 319.43 623.32 336.05 621.14 345.02 619.26 351.09 616.81 357.42 613.82 363.99 610.75 370.55 607.24 377.36 603.35 384.41 599.52 391.45 595.51 398.57 591.39 405.75 587.49 412.95 583.55 420.21 579.63 427.53 576.02 434.88 572.47 442.31 568.99 449.8 565.87 457.33 562.82 464.95 559.85 472.63 557.22 480.37 554.63 488.18 552.06 496.05 549.78 503.96 547.47 511.91 545.11 519.87 542.96 527.84 540.7 535.78 538.29 543.63 536.01 551.42 533.54 559.06 530.85 566.45 528.22 573.69 525.33 580.59 522.16 587.06 519 593.24 515.53 598.88 511.75 603.89 505.89 610.39 492.46 618.73 484.9 620.35 479.73 620.6 474.23 619.99 468.44 618.52 462.62 616.66 456.51 614.06 450.12 610.81 443.72 607.4 437.05 603.54 430.14 599.34 423.23 595.33 416.08 591.21 408.71 587.12 401.35 583.56 393.95 580.31 386.55 577.42 379.16 575.25 371.77 573.5 364.42 572.16 357.07 571.53 349.76 571.24 342.51 571.24 335.28 571.8 328.12 572.49 321.04 573.23 313.99 574.3 307.04 575.25 300.22 575.98 293.42 576.81 286.77 577.28 280.27 577.32 273.82 577.26 267.54 576.68 261.47 575.54 255.46 574.19 249.66 572.24 244.12 569.69 238.65 566.89 233.44 563.51 228.52 559.57 223.7 555.39 219.19 550.7 215.01 545.55 210.94 540.2 207.21 534.45 203.86 528.35 200.63 522.11 197.77 515.58 195.32 508.82 192.99 501.97 191.06 494.93 189.55 487.76 188.15 480.54 187.17 473.22 186.62 465.84 186.17 458.44 186.13 450.99 186.52 443.54 186.97 436.08 187.83 428.62 189.11 421.17 190.41 413.73 192.07 406.48 194.06 399.42 196.03 392.36 198.31 385.47 200.86 378.78 203.36 372.05 206.12 365.49 209.11 359.09 212.02 352.64 215.15 346.33 218.48 340.14 221.71 333.88 225.13 327.71 228.73 321.63 232.22 315.46 235.89 309.34 239.73 303.28 243.46 297.09 247.36 290.94 251.43 284.83 255.4 278.58 259.54 272.35 263.84 266.17 268.06 259.87 272.46 253.61 277.04 247.43 281.55 241.18 286.24 235.03 291.12 229.05 295.94 223.06 300.96 217.29 306.18 211.8 311.35 206.41 316.73 201.37 322.31 196.75 327.85 192.35 333.61 188.44 339.57 185.1 345.51 182.08 351.66 179.69 358.02 177.97 364.36 176.63 370.92 175.99 377.69 176.08 384.45 176.54 391.42 177.7 398.61 179.56" stroke-dasharray="4 7" transform="rotate(28.28, 400, 400)" opacity="0.87"></path><path d="M402.61 190.29C409.49 192.35 416.41 194.95 423.37 198 430.33 201.15 437.33 204.66 444.34 208.46 451.37 212.22 458.42 216.17 465.47 220.27 472.53 224.2 479.6 228.22 486.63 232.28 493.68 236.11 500.69 239.95 507.64 243.79 514.58 247.37 521.44 250.95 528.18 254.54 534.89 257.88 541.46 261.24 547.84 264.65 554.16 267.85 560.25 271.13 566.07 274.52 571.77 277.74 577.16 281.1 582.19 284.63 589.26 289.85 600.86 301.22 605.21 307.45 608.61 313.87 612.08 327.98 612.1 335.69 611.66 340.9 610.64 346.37 609.04 352.11 607.27 357.83 604.97 363.82 602.19 370.05 599.33 376.27 596.07 382.75 592.44 389.48 588.88 396.21 585.13 403.03 581.26 409.93 577.58 416.84 573.83 423.83 570.08 430.9 566.6 437.99 563.13 445.16 559.72 452.4 556.61 459.67 553.55 467.01 550.54 474.4 547.82 481.83 545.14 489.31 542.47 496.82 540.05 504.34 537.61 511.86 535.13 519.35 532.84 526.82 530.45 534.2 527.95 541.46 525.58 548.62 523.04 555.58 520.32 562.26 517.67 568.76 514.79 574.9 511.68 580.61 506.92 588.45 496.02 600.62 489.84 604.66 483.34 607.25 468.83 607.84 460.84 605.89 455.4 604.02 449.69 601.51 443.72 598.42 437.73 595.23 431.49 591.64 425.02 587.74 418.53 584.03 411.83 580.21 404.91 576.39 398 573.05 391.05 569.95 384.08 567.16 377.13 565 370.17 563.18 363.24 561.71 356.32 560.87 349.43 560.33 342.6 560.04 335.78 560.26 329.03 560.62 322.36 561.04 315.72 561.79 309.17 562.46 302.75 562.97 296.36 563.62 290.1 563.98 284 564 275.01 563.76 258.05 560.75 250.17 557.85 242.65 554.14 229.08 543.85 223.12 537.39 219.36 532.76 215.93 527.73 212.84 522.35 209.87 516.84 207.26 511.03 205.02 504.95 202.9 498.79 201.15 492.41 199.8 485.86 198.56 479.26 197.7 472.52 197.26 465.67 196.89 458.81 196.92 451.86 197.36 444.86 197.85 437.85 198.73 430.79 200.01 423.72 201.31 416.64 202.94 409.7 204.89 402.92 206.83 396.12 209.05 389.47 211.54 382.95 213.98 376.42 216.67 370.01 219.58 363.72 222.42 357.39 225.47 351.16 228.72 345.03 231.87 338.83 235.21 332.71 238.72 326.65 242.14 320.51 245.72 314.42 249.47 308.38 253.11 302.23 256.92 296.12 260.89 290.04 264.76 283.87 268.79 277.73 272.99 271.64 277.09 265.47 281.37 259.37 285.82 253.37 290.19 247.33 294.74 241.43 299.46 235.7 304.12 230.01 308.97 224.55 313.99 219.37 318.98 214.32 324.15 209.63 329.51 205.35 334.84 201.29 340.36 197.72 346.08 194.68 351.77 191.95 357.66 189.81 363.75 188.3 369.83 187.14 376.1 186.63 382.58 186.8 389.05 187.31 395.72 188.47 402.6 190.28" stroke-dasharray="5 11" transform="rotate(32.32, 400, 400)" opacity="0.78"></path><path d="M406.51 201.01C413.07 203 419.66 205.49 426.28 208.4 432.9 211.42 439.55 214.78 446.21 218.42 452.87 222.05 459.55 225.87 466.21 229.84 472.88 233.7 479.54 237.65 486.15 241.65 492.77 245.47 499.33 249.31 505.81 253.17 512.28 256.8 518.65 260.45 524.89 264.1 531.09 267.53 537.13 270.99 542.98 274.48 548.75 277.78 554.29 281.14 559.56 284.58 567.14 289.57 580.37 300 585.85 305.54 590.58 311.15 597.27 323.34 599.12 329.98 600.09 336.8 598.98 351.64 596.96 359.67 595.29 365.09 593.15 370.76 590.57 376.67 587.93 382.58 584.91 388.75 581.54 395.15 578.24 401.56 574.74 408.07 571.12 414.67 567.65 421.27 564.11 427.96 560.54 434.72 557.19 441.5 553.84 448.36 550.5 455.28 547.43 462.21 544.38 469.21 541.36 476.23 538.6 483.27 535.85 490.34 533.11 497.4 530.59 504.44 528.04 511.46 525.46 518.4 523.05 525.29 520.56 532.07 517.98 538.67 515.52 545.16 512.92 551.41 510.16 557.37 506.06 565.82 496.89 580.21 491.76 585.86 486.39 590.37 474.36 595.49 467.69 596 460.72 595.27 445.48 590.17 437.23 586.06 431.64 583.09 425.81 579.77 419.76 576.17 413.7 572.74 407.43 569.22 400.96 565.67 394.49 562.54 387.98 559.6 381.46 556.91 374.95 554.77 368.43 552.91 361.93 551.33 355.45 550.32 348.99 549.55 342.58 549 336.19 548.93 329.87 548.97 323.62 549.08 317.4 549.52 311.28 549.91 305.27 550.18 296.38 550.72 279.38 550.53 271.35 549.54 263.61 548.01 249.33 542.48 242.87 538.47 236.81 533.77 226.3 522.04 221.91 515.14 218.01 507.73 212.09 491.36 210.11 482.55 209.01 476.56 208.28 470.4 207.93 464.09 207.65 457.77 207.75 451.32 208.22 444.78 208.75 438.24 209.64 431.61 210.91 424.91 212.19 418.21 213.8 411.61 215.7 405.11 217.59 398.61 219.76 392.2 222.18 385.89 224.55 379.57 227.17 373.33 229.99 367.18 232.75 361 235.72 354.89 238.87 348.85 241.94 342.76 245.19 336.72 248.61 330.73 251.94 324.68 255.43 318.66 259.08 312.69 262.63 306.64 266.34 300.63 270.2 294.66 273.98 288.62 277.9 282.62 281.98 276.7 285.98 270.73 290.13 264.84 294.44 259.08 298.68 253.3 303.09 247.69 307.65 242.26 312.16 236.9 316.84 231.78 321.68 226.96 326.48 222.27 331.46 217.94 336.61 214.01 341.73 210.3 347.03 207.05 352.5 204.32 357.96 201.87 363.6 199.97 369.42 198.67 375.23 197.68 381.22 197.3 387.41 197.55 393.58 198.1 399.95 199.25 406.5 201.01" stroke-dasharray="6 8" transform="rotate(36.36, 400, 400)" opacity="0.78"></path><path d="M410.21 211.74C416.43 213.65 422.69 216.02 428.95 218.79 435.22 221.67 441.5 224.87 447.78 228.34 460.36 235.25 472.91 242.87 485.25 250.86 497.57 258.22 509.6 265.74 521.1 273.32 532.41 280.12 543.01 287.07 552.59 294.22 561.74 300.77 569.61 307.76 575.93 315.28 581.55 322.46 585.41 330.38 587.31 339.07 588.44 347.62 587.64 357.07 584.9 367.4 583.35 372.55 581.36 377.94 578.97 383.56 576.53 389.17 573.75 395.02 570.64 401.1 567.59 407.19 564.34 413.37 560.96 419.63 557.72 425.9 554.38 432.25 550.99 438.67 544.8 451.53 538.53 464.65 532.32 477.83 526.99 490.99 521.6 504.1 516.11 516.84 511.28 529.3 506.09 541.07 500.43 551.7 495.11 561.57 489.08 569.82 482.27 576.02 475.54 580.96 467.89 583.54 459.34 583.58 450.75 582.45 441.22 579.08 430.8 573.74 425.58 570.99 420.14 567.93 414.5 564.62 408.86 561.48 403.01 558.23 396.98 554.94 390.95 552.02 384.88 549.25 378.8 546.67 372.73 544.56 366.65 542.68 360.59 541.03 348.51 539.2 336.55 538.07 324.9 537.38 313.36 537.93 302.19 538.17 291.6 537.71 281.19 537.51 271.44 535.99 262.54 533.01 253.91 529.68 246.22 524.7 239.64 518.17 233.42 511.19 228.37 502.8 224.65 493.23 221.28 483.4 219.24 472.6 218.64 461.07 218.45 455.28 218.6 449.34 219.11 443.26 219.66 437.19 220.56 430.99 221.81 424.69 223.08 418.39 224.65 412.13 226.49 405.94 228.33 399.75 230.43 393.61 232.77 387.54 237.33 375.36 242.77 363.37 248.93 351.61 254.81 339.69 261.39 327.89 268.54 316.27 275.37 304.45 282.81 292.78 290.79 281.42 298.48 269.98 306.78 259 315.65 248.78 324.3 238.87 333.61 230.07 343.52 222.74 353.31 216.24 363.79 211.59 374.91 209.08 380.45 208.26 386.16 207.99 392.05 208.31 397.92 208.89 403.98 210.03 410.2 211.73" stroke-dasharray="3 1" transform="rotate(40.400000000000006, 400, 400)" opacity="0.52"></path><path d="M413.59 222.46C425.35 226.28 437.18 231.67 448.94 238.23 460.72 244.83 472.41 252.15 483.85 259.9 495.24 267.15 506.28 274.62 516.76 282.18 527.04 289.08 536.59 296.14 545.14 303.37 553.3 310.05 560.24 317.09 565.73 324.56 570.62 331.7 573.9 339.45 575.42 347.87 576.3 356.13 575.45 365.18 572.86 375.03 569.9 384.82 565.48 395.47 559.74 406.98 554.18 418.49 547.98 430.35 541.44 442.4 535.54 454.47 529.48 466.71 523.39 478.9 518.06 491.04 512.62 503 507.07 514.47 502.11 525.63 496.82 536.01 491.14 545.22 485.78 553.7 479.82 560.63 473.2 565.65 466.69 569.59 459.39 571.42 451.3 571.02 443.21 569.69 434.27 566.42 424.56 561.45 414.81 556.44 404.29 550.55 393.09 544.22 381.89 539.15 370.57 534.61 359.33 530.8 348.13 528.67 337.06 527.11 326.29 525.93 315.62 525.91 305.32 525.66 295.57 524.89 286 524.47 277.06 522.99 268.92 520.3 261.04 517.41 254.04 513.1 248.08 507.41 242.44 501.39 237.89 494.05 234.58 485.56 231.59 476.85 229.83 467.15 229.4 456.66 229.21 446.09 230.29 434.84 232.71 423.06 235.2 411.27 238.8 399.52 243.31 387.93 247.72 376.3 252.96 364.75 258.89 353.36 264.59 341.87 270.94 330.45 277.84 319.22 284.47 307.86 291.68 296.69 299.38 285.87 306.84 275.08 314.86 264.8 323.4 255.31 331.75 246.19 340.68 238.16 350.17 231.56 359.55 225.74 369.54 221.65 380.12 219.54 390.65 218.45 401.82 219.4 413.58 222.46" stroke-dasharray="1 4" transform="rotate(44.44, 400, 400)" opacity="0.59"></path><path d="M416.54 233.19C427.59 236.81 438.66 241.89 449.61 248.07 460.56 254.33 471.37 261.33 481.87 268.78 492.32 275.85 502.38 283.19 511.84 290.68 521.12 297.61 529.67 304.71 537.24 311.96 544.45 318.73 550.54 325.81 555.27 333.23 559.5 340.34 562.28 347.97 563.47 356.14 564.15 364.16 563.28 372.85 560.85 382.23 558.13 391.55 554.09 401.64 548.84 412.47 543.74 423.3 538 434.4 531.88 445.6 526.3 456.8 520.48 468.08 514.58 479.21 509.3 490.25 503.88 501 498.33 511.18 493.3 521.04 487.96 530.06 482.29 537.91 476.93 545.1 471.05 550.82 464.62 554.79 458.31 557.88 451.33 559.09 443.67 558.36 436.03 556.91 427.66 553.79 418.61 549.2 409.54 544.65 399.78 539.29 389.42 533.49 379.06 528.78 368.61 524.43 358.25 520.63 347.93 518.27 337.74 516.36 327.86 514.74 318.07 514.19 308.64 513.48 299.74 512.36 291 511.67 282.86 510.12 275.48 507.58 268.33 504.98 262.01 501.17 256.66 496.14 251.58 490.9 247.53 484.45 244.61 476.91 241.97 469.2 240.47 460.51 240.2 450.98 240.13 441.4 241.25 431.07 243.61 420.12 246.04 409.16 249.5 398.13 253.82 387.13 258.05 376.13 263.07 365.12 268.75 354.22 274.23 343.26 280.35 332.35 286.98 321.63 293.38 310.87 300.33 300.31 307.74 290.15 314.94 280.1 322.66 270.59 330.85 261.89 338.88 253.59 347.44 246.35 356.49 240.48 365.44 235.33 374.95 231.78 384.97 230.05 394.95 229.22 405.49 230.24 416.54 233.19" stroke-dasharray="4 7" transform="rotate(48.48, 400, 400)" opacity="0.86"></path><path d="M418.97 243.91C429.29 247.33 439.57 252.09 449.68 257.88 459.79 263.78 469.7 270.4 479.27 277.51 488.78 284.34 497.86 291.49 506.34 298.81 514.65 305.69 522.23 312.76 528.88 319.97 535.22 326.78 540.51 333.85 544.58 341.2 548.22 348.26 550.55 355.75 551.47 363.69 551.98 371.47 551.11 379.82 548.86 388.74 546.39 397.61 542.72 407.12 537.94 417.24 533.28 427.37 528 437.66 522.32 447.97 517.07 458.26 511.54 468.51 505.86 478.54 500.7 488.44 495.37 497.97 489.88 506.87 484.84 515.44 479.51 523.17 473.9 529.75 468.57 535.76 462.79 540.41 456.56 543.49 450.45 545.85 443.78 546.57 436.54 545.61 429.33 544.12 421.49 541.19 413.07 536.99 404.64 532.89 395.62 528.05 386.08 522.77 376.54 518.41 366.95 514.27 357.46 510.53 348.01 508 338.71 505.8 329.7 503.82 320.78 502.8 312.22 501.65 304.16 500.19 296.24 499.18 288.89 497.49 282.26 494.99 275.82 492.54 270.15 489.07 265.39 484.55 260.86 479.92 257.28 474.2 254.74 467.48 252.43 460.65 251.17 452.86 251.04 444.24 251.09 435.57 252.23 426.14 254.51 416.03 256.86 405.92 260.16 395.64 264.27 385.33 268.31 375.01 273.1 364.64 278.51 354.34 283.76 344.02 289.6 333.74 295.94 323.66 302.09 313.6 308.75 303.77 315.84 294.37 322.76 285.12 330.15 276.45 337.97 268.58 345.65 261.12 353.81 254.68 362.4 249.52 370.91 245.02 379.91 241.99 389.35 240.61 398.76 240.01 408.65 241.09 418.97 243.91" stroke-dasharray="0 3" transform="rotate(52.52, 400, 400)" opacity="0.76"></path><path d="M420.81 254.64C430.37 257.84 439.84 262.27 449.1 267.65 458.36 273.16 467.37 279.38 476.01 286.1 484.59 292.62 492.73 299.49 500.25 306.58 507.63 313.32 514.3 320.27 520.1 327.37 525.64 334.13 530.21 341.13 533.67 348.35 536.78 355.33 538.74 362.65 539.43 370.33 539.81 377.87 538.97 385.87 536.91 394.32 534.67 402.72 531.36 411.64 527.04 421.04 522.82 430.44 517.99 439.89 512.75 449.26 507.85 458.61 502.64 467.82 497.23 476.72 492.25 485.49 487.06 493.82 481.7 501.47 476.72 508.84 471.47 515.35 465.96 520.79 460.7 525.75 455.07 529.47 449.06 531.79 443.17 533.56 436.8 533.9 429.96 532.8 423.17 531.33 415.85 528.63 408.04 524.83 400.23 521.16 391.93 516.83 383.18 512.04 374.43 508.04 365.68 504.14 357.05 500.49 348.45 497.86 340.02 495.43 331.88 493.17 323.82 491.74 316.1 490.2 308.86 488.41 301.75 487.08 295.17 485.2 289.26 482.67 281.01 478.64 268.72 466.14 264.96 457.56 262.97 451.46 261.93 444.48 261.93 436.69 262.07 428.87 263.22 420.29 265.41 411.03 267.66 401.76 270.8 392.28 274.68 382.71 278.52 373.15 283.05 363.51 288.16 353.91 293.15 344.32 298.7 334.79 304.71 325.46 310.58 316.19 316.92 307.18 323.66 298.61 330.26 290.24 337.3 282.44 344.72 275.43 352.02 268.81 359.75 263.16 367.86 258.7 375.9 254.82 384.37 252.28 393.21 251.22 402.02 250.83 411.24 251.96 420.81 254.64" stroke-dasharray="10 5" transform="rotate(56.56, 400, 400)" opacity="0.82"></path><path d="M421.99 265.36C430.78 268.34 439.43 272.43 447.84 277.39 456.23 282.49 464.35 288.28 472.08 294.55 479.75 300.71 486.96 307.24 493.59 314 500.08 320.52 505.91 327.26 510.92 334.15 515.72 340.78 519.64 347.62 522.57 354.64 525.22 361.47 526.85 368.58 527.37 375.95 527.64 383.21 526.85 390.82 524.98 398.77 522.98 406.68 520.02 414.98 516.14 423.63 512.34 432.28 507.96 440.88 503.16 449.3 498.63 457.7 493.77 465.86 488.68 473.65 483.93 481.32 478.94 488.49 473.78 494.98 468.91 501.23 463.8 506.65 458.46 511.07 453.33 515.11 447.88 518.05 442.12 519.75 436.46 521.05 430.42 521.12 424 519.96 417.61 518.56 410.8 516.11 403.59 512.71 396.39 509.47 388.77 505.62 380.8 501.32 372.83 497.66 364.9 494.01 357.11 490.51 349.35 487.83 341.76 485.26 334.47 482.79 327.24 481.02 320.35 479.14 313.92 477.07 304.67 474.39 289.25 466.75 283.37 461.33 278.51 455.16 273.17 438.78 272.86 428.62 273.09 421.58 274.22 413.82 276.31 405.4 278.46 396.98 281.41 388.32 285.05 379.55 288.65 370.8 292.91 361.96 297.7 353.16 302.41 344.39 307.63 335.68 313.3 327.19 318.84 318.79 324.83 310.67 331.19 303 337.44 295.53 344.08 288.63 351.07 282.49 357.96 276.71 365.24 271.83 372.83 268.03 380.37 264.74 388.27 262.65 396.48 261.89 404.67 261.69 413.2 262.83 421.99 265.36" stroke-dasharray="8 2" transform="rotate(60.599999999999994, 400, 400)" opacity="0.19"></path><path d="M422.48 276.09C430.48 278.84 438.3 282.57 445.85 287.1 453.39 291.77 460.64 297.09 467.48 302.88 474.27 308.62 480.61 314.73 486.38 321.1 492.04 327.3 497.08 333.74 501.38 340.32 505.51 346.72 508.85 353.31 511.31 360.05 513.56 366.65 514.91 373.46 515.29 380.46 515.49 387.38 514.76 394.56 513.08 401.97 511.31 409.35 508.69 417.01 505.23 424.89 501.85 432.77 497.9 440.49 493.56 447.97 489.41 455.42 484.92 462.57 480.19 469.29 475.71 475.91 470.99 482.01 466.08 487.44 461.41 492.67 456.5 497.12 451.39 500.67 443.84 505.07 427.53 508.32 418.68 507.12 412.72 505.83 406.41 503.65 399.79 500.65 393.19 497.82 386.25 494.42 379.03 490.59 371.82 487.29 364.68 483.91 357.71 480.58 350.75 477.91 343.99 475.27 337.52 472.66 331.1 470.64 325 468.51 319.34 466.2 311.2 463.15 297.73 455.31 292.64 450.13 288.44 444.38 283.97 429.5 283.84 420.36 284.13 414.03 285.24 407.05 287.21 399.47 289.23 391.88 291.99 384.06 295.37 376.14 298.73 368.24 302.69 360.26 307.14 352.32 311.53 344.43 316.41 336.62 321.69 329.04 326.88 321.56 332.48 314.37 338.42 307.62 344.27 301.08 350.49 295.08 357 289.79 363.44 284.83 370.22 280.69 377.26 277.52 384.27 274.79 391.58 273.12 399.13 272.61 406.67 272.58 414.48 273.72 422.48 276.09" stroke-dasharray="0 7" transform="rotate(64.64, 400, 400)" opacity="0.53"></path><path d="M422.27 286.81C429.46 289.32 436.45 292.7 443.16 296.79 449.85 301.01 456.23 305.84 462.22 311.11 468.17 316.37 473.67 322.01 478.66 327.91 483.55 333.7 487.86 339.74 491.52 345.93 495.04 351.99 497.87 358.23 499.92 364.59 501.82 370.85 502.93 377.28 503.21 383.84 503.36 390.34 502.7 397.03 501.22 403.85 499.68 410.66 497.38 417.63 494.33 424.72 491.34 431.81 487.84 438.67 483.94 445.22 480.19 451.75 476.1 457.93 471.75 463.66 467.6 469.3 463.19 474.42 458.59 478.9 451.86 485.04 437.55 493.16 429.95 494.9 422.23 495.47 405.6 492.19 396.68 488.65 390.66 486.2 384.39 483.25 377.92 479.87 371.44 476.91 365.08 473.82 358.89 470.7 352.72 468.1 346.76 465.46 341.08 462.79 332.77 459.45 318.09 452.48 311.95 448.52 306.46 444.44 298.54 434.03 296.28 427.52 294.85 420.45 295.74 403.45 298.12 393.56 300 386.79 302.54 379.83 305.65 372.78 308.74 365.76 312.38 358.67 316.48 351.65 320.53 344.68 325.02 337.81 329.89 331.18 334.69 324.64 339.87 318.4 345.35 312.59 350.77 306.97 356.51 301.86 362.51 297.4 368.46 293.22 374.7 289.77 381.16 287.2 387.59 284.97 394.27 283.68 401.14 283.4 408 283.5 415.07 284.62 422.27 286.81" stroke-dasharray="6 5" transform="rotate(68.68, 400, 400)" opacity="0.72"></path><path d="M421.35 297.54C434.12 302.26 445.97 309.84 456.36 319.25 466.6 328.72 475.13 339.54 481.38 351 487.24 362.15 490.63 374 491.14 386.11 491.3 398.08 488.75 410.57 483.43 423.15 478.29 435.72 471.34 447.14 463.35 456.83 455.93 466.27 447.48 473.59 438.4 478.18 429.76 482.21 420.21 483.37 410.02 481.51 399.95 479.56 389 475.3 377.5 469.14 366 464.28 355.05 458.81 345.17 453.17 335.39 448.99 326.86 444.11 320.11 438.38 313.62 433.31 309.07 426.66 306.93 418.35 305.08 410.12 305.66 399.95 309.02 388.02 312.49 376.09 318.26 363.6 325.71 351.39 333.03 339.37 341.97 327.93 351.97 318 361.81 308.7 372.81 301.43 384.5 297.05 396.13 293.81 408.58 293.81 421.35 297.54" stroke-dasharray="6 4" transform="rotate(72.72, 400, 400)" opacity="0.31"></path><path d="M419.77 308.26C430.9 312.43 441.1 319.06 449.93 327.31 458.65 335.69 465.83 345.35 471.01 355.62 475.92 365.74 478.72 376.47 479.1 387.37 479.23 398.18 477.08 409.3 472.53 420.25 468.11 431.21 462.05 440.91 454.98 448.94 448.31 456.8 440.66 462.72 432.43 466.31 424.52 469.55 415.83 470.41 406.65 468.8 397.59 467.21 387.85 463.67 377.78 458.42 367.72 454.15 358.26 449.12 349.82 443.78 341.46 439.53 334.23 434.6 328.6 428.96 323.14 423.89 319.38 417.57 317.71 410 316.24 402.52 316.87 393.53 319.92 383.16 323.05 372.8 328.21 362.11 334.84 351.77 341.39 341.6 349.38 332.06 358.3 323.92 367.13 316.29 376.95 310.46 387.32 307.11 397.66 304.63 408.64 304.88 419.77 308.26" stroke-dasharray="1 5" transform="rotate(76.76, 400, 400)" opacity="0.83"></path><path d="M417.57 318.99C427.06 322.59 435.66 328.26 443.02 335.32 450.3 342.54 456.23 350.92 460.46 359.87 464.51 368.76 466.8 378.21 467.08 387.73 467.22 397.22 465.44 406.87 461.63 416.21 457.92 425.54 452.73 433.64 446.63 440.19 440.79 446.64 434.03 451.39 426.75 454.2 419.69 456.82 411.97 457.5 403.89 456.18 395.9 454.95 387.42 452.08 378.77 447.69 370.11 444.02 362.09 439.53 355.03 434.61 348 430.48 342.01 425.69 337.4 420.31 332.9 415.37 329.86 409.47 328.6 402.66 327.46 395.95 328.12 388.09 330.82 379.26 333.59 370.43 338.1 361.49 343.86 352.99 349.6 344.61 356.57 336.89 364.35 330.42 372.08 324.35 380.64 319.82 389.63 317.37 398.61 315.54 408.07 315.98 417.57 318.99" stroke-dasharray="2 0" transform="rotate(80.80000000000001, 400, 400)" opacity="0.38"></path><path d="M414.81 329.71C422.67 332.73 429.72 337.43 435.69 343.29 441.62 349.3 446.39 356.32 449.78 363.83 453.05 371.36 454.89 379.36 455.11 387.39 455.25 395.42 453.83 403.52 450.73 411.24 447.69 418.96 443.4 425.55 438.28 430.79 433.32 435.98 427.56 439.75 421.32 441.95 415.22 444.08 408.58 444.66 401.68 443.66 394.84 442.77 387.65 440.53 380.42 436.97 373.18 433.89 366.55 430.01 360.79 425.65 355.04 421.82 350.2 417.36 346.52 412.43 342.91 407.8 340.52 402.45 339.6 396.47 338.75 390.57 339.39 383.87 341.72 376.55 344.1 369.22 347.92 361.97 352.8 355.2 357.66 348.53 363.57 342.5 370.14 337.56 376.69 332.9 383.93 329.52 391.49 327.83 399.04 326.57 406.94 327.11 414.81 329.71" stroke-dasharray="10 4" transform="rotate(84.84, 400, 400)" opacity="0.43"></path><path d="M411.59 340.44C424.07 345.52 433.73 355.65 439.02 367.62 444.08 379.74 444.68 393.37 439.83 405.63 435.13 417.88 426.38 426.25 416.09 429.73 406.13 433.14 394.33 432.04 382.68 426.24 371.03 421.67 361.61 414.1 355.94 405.3 350.4 397.28 348.82 386.86 352.62 375.16 356.55 363.46 365.07 352.71 375.7 345.37 386.31 338.72 399.1 336.43 411.59 340.44" stroke-dasharray="10 4" transform="rotate(88.88, 400, 400)" opacity="0.11"></path><path d="M408 351.16C417.29 354.96 424.38 362.45 428.23 371.35 431.98 380.39 432.48 390.59 428.93 399.7 425.47 408.81 418.86 415 411.02 417.63 403.34 420.31 394.28 419.71 385.49 415.52 376.69 412.01 369.73 405.96 365.65 398.89 361.62 392.24 360.57 383.96 363.52 375.19 366.55 366.41 373.02 358.79 381.05 353.87 389.09 349.32 398.71 347.99 408 351.16" stroke-dasharray="1 7" transform="rotate(92.92, 400, 400)" opacity="0.99"></path><path d="M404.17 361.89C416.44 367.15 422.65 381.74 418.03 393.79 413.55 405.83 400.58 410.41 388.75 404.79 376.92 400.36 370.4 388.35 374.42 376.63 378.59 364.89 391.88 357.74 404.17 361.89" stroke-dasharray="3 1" transform="rotate(96.96, 400, 400)" opacity="0.87"></path></g></svg>