<svg xmlns="http://www.w3.org/2000/svg" xmlns:xlink="http://www.w3.org/1999/xlink" width="300" zoomAndPan="magnify" viewBox="0 0 224.87999 149.999998" height="200" preserveAspectRatio="xMidYMid meet" version="1.2"><defs><clipPath id="8f35ef48e8"><path d="M 21 126 L 213.050781 126 L 213.050781 139 L 21 139 Z M 21 126 "/></clipPath><clipPath id="debcb4806c"><path d="M 12.160156 144 L 55 144 L 55 149.960938 L 12.160156 149.960938 Z M 12.160156 144 "/></clipPath><clipPath id="31f03c5d34"><path d="M 63 0.0390625 L 169 0.0390625 L 169 105 L 63 105 Z M 63 0.0390625 "/></clipPath><filter x="0%" y="0%" width="100%" filterUnits="objectBoundingBox" id="955851d032" height="100%"><feColorMatrix values="0 0 0 0 1 0 0 0 0 1 0 0 0 0 1 0 0 0 1 0" type="matrix" in="SourceGraphic"/></filter><clipPath id="227570650f"><path d="M 0.550781 0.3125 L 16 0.3125 L 16 2 L 0.550781 2 Z M 0.550781 0.3125 "/></clipPath><clipPath id="2e1bc5e5e7"><path d="M 17 0.3125 L 25 0.3125 L 25 2 L 17 2 Z M 17 0.3125 "/></clipPath><clipPath id="4b8e739d56"><rect x="0" width="26" y="0" height="3"/></clipPath><clipPath id="0efd4540a0"><path d="M 0.550781 1 L 4 1 L 4 2.429688 L 0.550781 2.429688 Z M 0.550781 1 "/></clipPath><clipPath id="5a19cdcfac"><path d="M 5 1 L 25.5 1 L 25.5 2.429688 L 5 2.429688 Z M 5 1 "/></clipPath><clipPath id="5c09a8b41f"><rect x="0" width="26" y="0" height="3"/></clipPath></defs><g id="4cb769eda3"><g clip-rule="nonzero" clip-path="url(#8f35ef48e8)"><path style=" stroke:none;fill-rule:nonzero;fill:#b9c9fa;fill-opacity:1;" d="M 213.050781 132.222656 C 213.050781 132.324219 213.011719 132.425781 212.9375 132.527344 C 212.859375 132.628906 212.742188 132.730469 212.589844 132.828125 C 212.4375 132.929688 212.242188 133.03125 212.011719 133.128906 C 211.78125 133.230469 211.515625 133.332031 211.207031 133.429688 C 210.902344 133.527344 210.558594 133.628906 210.175781 133.726562 C 209.792969 133.824219 209.375 133.921875 208.917969 134.019531 C 208.460938 134.113281 207.96875 134.210938 207.441406 134.304688 C 206.910156 134.402344 206.347656 134.496094 205.746094 134.589844 C 205.144531 134.683594 204.507812 134.773438 203.835938 134.867188 C 203.164062 134.957031 202.457031 135.046875 201.71875 135.136719 C 200.976562 135.226562 200.203125 135.3125 199.394531 135.402344 C 198.589844 135.488281 197.75 135.574219 196.875 135.65625 C 196.003906 135.742188 195.097656 135.824219 194.164062 135.90625 C 193.226562 135.984375 192.261719 136.066406 191.265625 136.144531 C 190.269531 136.222656 189.242188 136.296875 188.1875 136.375 C 187.132812 136.449219 186.050781 136.523438 184.9375 136.59375 C 183.828125 136.664062 182.691406 136.734375 181.527344 136.800781 C 180.363281 136.871094 179.175781 136.9375 177.960938 137 C 176.746094 137.066406 175.507812 137.128906 174.246094 137.1875 C 172.984375 137.246094 171.699219 137.304688 170.394531 137.363281 C 169.085938 137.417969 167.761719 137.472656 166.414062 137.523438 C 165.066406 137.574219 163.699219 137.625 162.316406 137.671875 C 160.929688 137.722656 159.527344 137.765625 158.105469 137.808594 C 156.6875 137.851562 155.25 137.894531 153.800781 137.933594 C 152.347656 137.972656 150.882812 138.007812 149.402344 138.042969 C 147.925781 138.074219 146.433594 138.109375 144.929688 138.136719 C 143.425781 138.167969 141.914062 138.195312 140.390625 138.21875 C 138.867188 138.242188 137.335938 138.265625 135.792969 138.285156 C 134.253906 138.304688 132.707031 138.320312 131.152344 138.335938 C 129.597656 138.351562 128.039062 138.363281 126.476562 138.375 C 124.914062 138.382812 123.347656 138.390625 121.777344 138.394531 C 120.210938 138.402344 118.640625 138.402344 117.066406 138.402344 C 115.496094 138.402344 113.925781 138.402344 112.359375 138.394531 C 110.789062 138.390625 109.222656 138.382812 107.660156 138.375 C 106.097656 138.363281 104.539062 138.351562 102.984375 138.335938 C 101.429688 138.320312 99.882812 138.304688 98.34375 138.285156 C 96.800781 138.265625 95.269531 138.242188 93.746094 138.21875 C 92.222656 138.195312 90.707031 138.167969 89.207031 138.136719 C 87.703125 138.109375 86.210938 138.074219 84.730469 138.042969 C 83.253906 138.007812 81.789062 137.972656 80.335938 137.933594 C 78.886719 137.894531 77.449219 137.851562 76.03125 137.808594 C 74.609375 137.765625 73.207031 137.722656 71.820312 137.671875 C 70.4375 137.625 69.070312 137.574219 67.722656 137.523438 C 66.375 137.472656 65.046875 137.417969 63.742188 137.363281 C 62.4375 137.304688 61.152344 137.246094 59.890625 137.1875 C 58.628906 137.128906 57.390625 137.066406 56.175781 137 C 54.960938 136.9375 53.773438 136.871094 52.609375 136.800781 C 51.445312 136.734375 50.308594 136.664062 49.199219 136.59375 C 48.085938 136.523438 47.003906 136.449219 45.949219 136.375 C 44.894531 136.300781 43.867188 136.222656 42.871094 136.144531 C 41.875 136.066406 40.910156 135.984375 39.972656 135.90625 C 39.039062 135.824219 38.132812 135.742188 37.261719 135.65625 C 36.386719 135.574219 35.546875 135.488281 34.742188 135.402344 C 33.933594 135.3125 33.160156 135.226562 32.417969 135.136719 C 31.679688 135.046875 30.972656 134.957031 30.300781 134.867188 C 29.628906 134.773438 28.992188 134.683594 28.390625 134.589844 C 27.789062 134.496094 27.226562 134.402344 26.695312 134.304688 C 26.167969 134.210938 25.671875 134.113281 25.21875 134.019531 C 24.761719 133.921875 24.34375 133.824219 23.960938 133.726562 C 23.578125 133.628906 23.234375 133.527344 22.929688 133.429688 C 22.621094 133.332031 22.355469 133.230469 22.125 133.128906 C 21.894531 133.03125 21.699219 132.929688 21.546875 132.828125 C 21.394531 132.730469 21.277344 132.628906 21.199219 132.527344 C 21.125 132.425781 21.085938 132.324219 21.085938 132.222656 C 21.085938 132.121094 21.125 132.023438 21.199219 131.921875 C 21.277344 131.820312 21.394531 131.71875 21.546875 131.617188 C 21.699219 131.519531 21.894531 131.417969 22.125 131.316406 C 22.355469 131.21875 22.621094 131.117188 22.929688 131.019531 C 23.234375 130.917969 23.578125 130.820312 23.960938 130.722656 C 24.34375 130.625 24.761719 130.527344 25.21875 130.429688 C 25.671875 130.332031 26.167969 130.238281 26.695312 130.140625 C 27.226562 130.046875 27.789062 129.953125 28.390625 129.859375 C 28.992188 129.765625 29.628906 129.671875 30.300781 129.582031 C 30.972656 129.492188 31.679688 129.402344 32.417969 129.3125 C 33.160156 129.222656 33.933594 129.132812 34.742188 129.046875 C 35.546875 128.960938 36.386719 128.875 37.261719 128.792969 C 38.132812 128.707031 39.039062 128.625 39.972656 128.542969 C 40.910156 128.460938 41.875 128.382812 42.871094 128.304688 C 43.867188 128.226562 44.894531 128.148438 45.949219 128.074219 C 47.003906 128 48.085938 127.925781 49.199219 127.855469 C 50.308594 127.785156 51.445312 127.714844 52.609375 127.644531 C 53.773438 127.578125 54.960938 127.511719 56.175781 127.449219 C 57.390625 127.382812 58.628906 127.320312 59.890625 127.261719 C 61.152344 127.199219 62.4375 127.140625 63.742188 127.085938 C 65.046875 127.03125 66.375 126.976562 67.722656 126.925781 C 69.070312 126.871094 70.4375 126.824219 71.820312 126.773438 C 73.207031 126.726562 74.609375 126.679688 76.03125 126.636719 C 77.449219 126.59375 78.886719 126.554688 80.335938 126.515625 C 81.789062 126.476562 83.253906 126.441406 84.730469 126.40625 C 86.210938 126.371094 87.703125 126.339844 89.207031 126.3125 C 90.707031 126.28125 92.222656 126.253906 93.746094 126.230469 C 95.269531 126.207031 96.800781 126.183594 98.34375 126.164062 C 99.882812 126.144531 101.429688 126.125 102.984375 126.113281 C 104.539062 126.097656 106.097656 126.085938 107.660156 126.074219 C 109.222656 126.066406 110.789062 126.058594 112.359375 126.050781 C 113.925781 126.046875 115.496094 126.046875 117.066406 126.046875 C 118.640625 126.046875 120.210938 126.046875 121.777344 126.050781 C 123.347656 126.058594 124.914062 126.066406 126.476562 126.074219 C 128.039062 126.085938 129.597656 126.097656 131.152344 126.113281 C 132.707031 126.125 134.253906 126.144531 135.792969 126.164062 C 137.335938 126.183594 138.867188 126.207031 140.390625 126.230469 C 141.914062 126.253906 143.425781 126.28125 144.929688 126.3125 C 146.433594 126.339844 147.925781 126.371094 149.402344 126.40625 C 150.882812 126.441406 152.347656 126.476562 153.800781 126.515625 C 155.25 126.554688 156.6875 126.59375 158.105469 126.636719 C 159.527344 126.679688 160.929688 126.726562 162.316406 126.773438 C 163.699219 126.824219 165.066406 126.871094 166.414062 126.925781 C 167.761719 126.976562 169.085938 127.03125 170.394531 127.085938 C 171.699219 127.140625 172.984375 127.199219 174.246094 127.261719 C 175.507812 127.320312 176.746094 127.382812 177.960938 127.449219 C 179.175781 127.511719 180.363281 127.578125 181.527344 127.644531 C 182.691406 127.714844 183.828125 127.785156 184.9375 127.855469 C 186.050781 127.925781 187.132812 128 188.1875 128.074219 C 189.242188 128.148438 190.269531 128.226562 191.265625 128.304688 C 192.261719 128.382812 193.226562 128.460938 194.164062 128.542969 C 195.097656 128.625 196.003906 128.707031 196.875 128.792969 C 197.75 128.875 198.589844 128.960938 199.394531 129.046875 C 200.203125 129.132812 200.976562 129.222656 201.71875 129.3125 C 202.457031 129.402344 203.164062 129.492188 203.835938 129.582031 C 204.507812 129.671875 205.144531 129.765625 205.746094 129.859375 C 206.347656 129.953125 206.910156 130.046875 207.441406 130.140625 C 207.96875 130.238281 208.460938 130.332031 208.917969 130.429688 C 209.375 130.527344 209.792969 130.625 210.175781 130.722656 C 210.558594 130.820312 210.902344 130.917969 211.207031 131.019531 C 211.515625 131.117188 211.78125 131.21875 212.011719 131.316406 C 212.242188 131.417969 212.4375 131.519531 212.589844 131.617188 C 212.742188 131.71875 212.859375 131.820312 212.9375 131.921875 C 213.011719 132.023438 213.050781 132.121094 213.050781 132.222656 Z M 213.050781 132.222656 "/></g><g clip-rule="nonzero" clip-path="url(#debcb4806c)"><path style=" stroke:none;fill-rule:nonzero;fill:#b9c9fa;fill-opacity:1;" d="M 54.5 147 C 54.5 147.191406 54.363281 147.378906 54.09375 147.566406 C 53.820312 147.753906 53.421875 147.9375 52.886719 148.113281 C 52.355469 148.289062 51.703125 148.457031 50.933594 148.617188 C 50.160156 148.777344 49.28125 148.921875 48.300781 149.058594 C 47.316406 149.195312 46.246094 149.3125 45.089844 149.421875 C 43.933594 149.527344 42.714844 149.617188 41.429688 149.6875 C 40.148438 149.761719 38.824219 149.816406 37.460938 149.855469 C 36.097656 149.890625 34.71875 149.910156 33.328125 149.910156 C 31.9375 149.910156 30.5625 149.890625 29.199219 149.855469 C 27.835938 149.816406 26.511719 149.761719 25.226562 149.6875 C 23.945312 149.617188 22.722656 149.527344 21.566406 149.421875 C 20.410156 149.3125 19.34375 149.195312 18.359375 149.058594 C 17.375 148.921875 16.5 148.777344 15.726562 148.617188 C 14.953125 148.457031 14.300781 148.289062 13.769531 148.113281 C 13.238281 147.9375 12.835938 147.753906 12.566406 147.566406 C 12.292969 147.378906 12.160156 147.191406 12.160156 147 C 12.160156 146.808594 12.292969 146.621094 12.566406 146.433594 C 12.835938 146.246094 13.238281 146.0625 13.769531 145.886719 C 14.300781 145.710938 14.953125 145.542969 15.726562 145.382812 C 16.5 145.222656 17.375 145.078125 18.359375 144.941406 C 19.34375 144.808594 20.410156 144.6875 21.566406 144.582031 C 22.722656 144.472656 23.945312 144.382812 25.226562 144.3125 C 26.511719 144.238281 27.835938 144.183594 29.199219 144.144531 C 30.5625 144.109375 31.9375 144.089844 33.328125 144.089844 C 34.71875 144.089844 36.097656 144.109375 37.460938 144.144531 C 38.824219 144.183594 40.148438 144.238281 41.429688 144.3125 C 42.714844 144.382812 43.933594 144.472656 45.089844 144.582031 C 46.246094 144.6875 47.316406 144.808594 48.300781 144.941406 C 49.28125 145.078125 50.160156 145.222656 50.933594 145.382812 C 51.703125 145.542969 52.355469 145.710938 52.886719 145.886719 C 53.421875 146.0625 53.820312 146.246094 54.09375 146.433594 C 54.363281 146.621094 54.5 146.808594 54.5 147 Z M 54.5 147 "/></g><path style=" stroke:none;fill-rule:nonzero;fill:#b9c9fa;fill-opacity:1;" d="M 200.71875 98.058594 C 200.402344 98.195312 199.28125 95.777344 199.191406 95.507812 C 198.25 93.3125 197.980469 90.804688 198.386719 88.433594 C 198.789062 86.148438 199.640625 83.820312 200.808594 81.984375 C 201.792969 80.460938 203.140625 78.894531 204.800781 78.449219 C 205.742188 78.179688 206.683594 78.449219 207.355469 79.34375 C 207.9375 80.148438 208.207031 81.222656 208.296875 82.253906 C 208.613281 85.476562 207.847656 88.65625 206.816406 91.566406 C 206.054688 93.761719 204.976562 96.132812 203.050781 97.121094 C 202.332031 97.523438 201.523438 97.792969 200.71875 98.058594 Z M 200.71875 98.058594 "/><path style=" stroke:none;fill-rule:nonzero;fill:#1a004d;fill-opacity:1;" d="M 198.476562 116.375 C 198.429688 116.375 198.386719 116.328125 198.386719 116.285156 C 198.566406 113.328125 199.011719 108.402344 199.730469 103.34375 C 200.671875 96.539062 201.882812 91.03125 203.273438 86.957031 C 203.273438 86.910156 203.320312 86.910156 203.363281 86.910156 C 203.410156 86.910156 203.410156 86.957031 203.410156 87 C 202.019531 91.074219 200.808594 96.582031 199.867188 103.34375 C 199.148438 108.402344 198.699219 113.375 198.519531 116.285156 C 198.519531 116.375 198.476562 116.375 198.476562 116.375 Z M 198.476562 116.375 "/><path style=" stroke:none;fill-rule:nonzero;fill:#b9c9fa;fill-opacity:1;" d="M 195.875 98.640625 C 196.097656 98.730469 196.90625 97.164062 196.996094 96.984375 C 197.710938 95.550781 197.9375 93.851562 197.710938 92.238281 C 197.488281 90.671875 196.949219 89.015625 196.144531 87.714844 C 195.46875 86.597656 194.574219 85.476562 193.453125 85.074219 C 192.824219 84.851562 192.152344 84.984375 191.65625 85.523438 C 191.253906 86.015625 191.03125 86.777344 190.941406 87.449219 C 190.671875 89.640625 191.121094 91.835938 191.746094 93.894531 C 192.242188 95.460938 192.914062 97.121094 194.214844 97.925781 C 194.796875 98.195312 195.335938 98.417969 195.875 98.640625 Z M 195.875 98.640625 "/><path style=" stroke:none;fill-rule:nonzero;fill:#b9c9fa;fill-opacity:1;" d="M 191.972656 105.132812 C 192.195312 105.132812 192.464844 103.296875 192.507812 103.121094 C 192.6875 101.460938 192.375 99.804688 191.65625 98.375 C 190.941406 96.984375 189.90625 95.730469 188.785156 94.835938 C 187.84375 94.121094 186.632812 93.449219 185.46875 93.539062 C 184.796875 93.582031 184.210938 94.03125 183.988281 94.746094 C 183.761719 95.417969 183.808594 96.179688 183.941406 96.851562 C 184.390625 99 185.511719 100.835938 186.769531 102.449219 C 187.710938 103.65625 188.875 104.910156 190.355469 105.089844 C 190.804688 105.179688 191.386719 105.132812 191.972656 105.132812 Z M 191.972656 105.132812 "/><path style=" stroke:none;fill-rule:nonzero;fill:#1a004d;fill-opacity:1;" d="M 198.207031 117.222656 C 198.160156 117.222656 198.117188 117.179688 198.117188 117.179688 C 198.117188 117.046875 197.355469 101.730469 193.808594 91.074219 C 193.808594 91.03125 193.808594 90.984375 193.855469 90.984375 C 193.898438 90.984375 193.945312 90.984375 193.945312 91.03125 C 197.488281 101.730469 198.25 117 198.25 117.179688 C 198.296875 117.179688 198.25 117.222656 198.207031 117.222656 Z M 198.207031 117.222656 "/><path style=" stroke:none;fill-rule:nonzero;fill:#b9c9fa;fill-opacity:1;" d="M 202.0625 108.984375 C 201.839844 108.941406 201.929688 107.058594 201.972656 106.878906 C 202.109375 105.222656 202.734375 103.703125 203.722656 102.492188 C 204.664062 101.328125 205.921875 100.386719 207.222656 99.851562 C 208.296875 99.402344 209.597656 99.042969 210.71875 99.492188 C 211.347656 99.714844 211.839844 100.296875 211.929688 101.058594 C 212.019531 101.777344 211.839844 102.492188 211.570312 103.121094 C 210.71875 105.089844 209.285156 106.566406 207.757812 107.820312 C 206.59375 108.761719 205.246094 109.65625 203.765625 109.433594 C 203.183594 109.34375 202.644531 109.121094 202.0625 108.984375 Z M 202.0625 108.984375 "/><path style=" stroke:none;fill-rule:nonzero;fill:#1a004d;fill-opacity:1;" d="M 199.011719 116.460938 C 198.96875 116.460938 198.96875 116.460938 199.011719 116.460938 C 198.96875 116.460938 198.921875 116.417969 198.96875 116.375 C 198.96875 116.328125 199.011719 116.195312 199.058594 116.058594 C 200.988281 109.792969 203.632812 106.386719 205.515625 104.6875 C 205.5625 104.640625 205.605469 104.640625 205.605469 104.6875 C 205.652344 104.730469 205.652344 104.777344 205.605469 104.777344 C 203.765625 106.523438 201.167969 109.878906 199.191406 116.105469 C 199.148438 116.285156 199.101562 116.417969 199.101562 116.460938 C 199.058594 116.460938 199.011719 116.460938 199.011719 116.460938 Z M 199.011719 116.460938 "/><path style=" stroke:none;fill-rule:nonzero;fill:#1a004d;fill-opacity:1;" d="M 197.847656 116.777344 C 197.800781 116.777344 197.800781 116.777344 197.800781 116.730469 C 197.757812 116.640625 193.632812 106.433594 188.472656 100.03125 C 188.429688 99.984375 188.472656 99.941406 188.472656 99.941406 C 188.519531 99.894531 188.5625 99.941406 188.5625 99.941406 C 193.71875 106.34375 197.890625 116.597656 197.890625 116.6875 C 197.9375 116.730469 197.890625 116.730469 197.847656 116.777344 Z M 197.847656 116.777344 "/><path style=" stroke:none;fill-rule:nonzero;fill:#1a004d;fill-opacity:1;" d="M 194.214844 125.148438 L 202.421875 125.148438 L 203.8125 116.285156 L 192.824219 116.285156 Z M 194.214844 125.148438 "/><path style=" stroke:none;fill-rule:nonzero;fill:#1a004d;fill-opacity:1;" d="M 192.867188 117.984375 L 203.8125 117.984375 C 204.035156 117.984375 204.261719 117.804688 204.261719 117.539062 L 204.261719 115.925781 C 204.261719 115.703125 204.082031 115.476562 203.8125 115.476562 L 192.867188 115.476562 C 192.644531 115.476562 192.417969 115.65625 192.417969 115.925781 L 192.417969 117.539062 C 192.417969 117.761719 192.597656 117.984375 192.867188 117.984375 Z M 192.867188 117.984375 "/><g clip-rule="nonzero" clip-path="url(#31f03c5d34)"><path style=" stroke:none;fill-rule:nonzero;fill:#b9c9fa;fill-opacity:1;" d="M 168.378906 52.253906 C 168.378906 53.960938 168.296875 55.667969 168.128906 57.367188 C 167.960938 59.066406 167.707031 60.753906 167.375 62.429688 C 167.042969 64.105469 166.625 65.761719 166.128906 67.394531 C 165.632812 69.03125 165.054688 70.636719 164.402344 72.214844 C 163.746094 73.792969 163.015625 75.335938 162.210938 76.84375 C 161.402344 78.351562 160.523438 79.8125 159.574219 81.234375 C 158.621094 82.65625 157.605469 84.027344 156.519531 85.347656 C 155.433594 86.667969 154.285156 87.929688 153.074219 89.140625 C 151.863281 90.347656 150.597656 91.492188 149.273438 92.578125 C 147.953125 93.660156 146.578125 94.675781 145.15625 95.625 C 143.734375 96.574219 142.265625 97.453125 140.757812 98.257812 C 139.25 99.0625 137.703125 99.792969 136.121094 100.445312 C 134.542969 101.101562 132.933594 101.675781 131.292969 102.171875 C 129.65625 102.667969 128 103.082031 126.320312 103.414062 C 124.640625 103.75 122.949219 104 121.246094 104.167969 C 119.542969 104.335938 117.835938 104.417969 116.125 104.417969 C 114.414062 104.417969 112.707031 104.335938 111.003906 104.167969 C 109.300781 104 107.609375 103.75 105.933594 103.414062 C 104.253906 103.082031 102.597656 102.667969 100.957031 102.171875 C 99.320312 101.675781 97.710938 101.101562 96.128906 100.445312 C 94.550781 99.792969 93.003906 99.0625 91.496094 98.257812 C 89.984375 97.453125 88.519531 96.574219 87.097656 95.625 C 85.671875 94.675781 84.300781 93.660156 82.976562 92.578125 C 81.65625 91.492188 80.386719 90.347656 79.179688 89.140625 C 77.96875 87.929688 76.820312 86.667969 75.734375 85.347656 C 74.648438 84.027344 73.628906 82.65625 72.679688 81.234375 C 71.730469 79.8125 70.851562 78.351562 70.042969 76.84375 C 69.238281 75.335938 68.507812 73.792969 67.851562 72.214844 C 67.195312 70.636719 66.621094 69.03125 66.125 67.394531 C 65.625 65.761719 65.210938 64.105469 64.878906 62.429688 C 64.542969 60.753906 64.292969 59.066406 64.125 57.367188 C 63.957031 55.667969 63.875 53.960938 63.875 52.253906 C 63.875 50.546875 63.957031 48.839844 64.125 47.140625 C 64.292969 45.441406 64.542969 43.753906 64.878906 42.078125 C 65.210938 40.402344 65.625 38.746094 66.125 37.109375 C 66.621094 35.476562 67.195312 33.871094 67.851562 32.292969 C 68.507812 30.710938 69.238281 29.171875 70.042969 27.664062 C 70.851562 26.15625 71.730469 24.691406 72.679688 23.273438 C 73.628906 21.851562 74.648438 20.480469 75.734375 19.160156 C 76.820312 17.839844 77.96875 16.574219 79.179688 15.367188 C 80.386719 14.160156 81.65625 13.015625 82.976562 11.929688 C 84.300781 10.847656 85.671875 9.828125 87.097656 8.878906 C 88.519531 7.929688 89.984375 7.054688 91.496094 6.25 C 93.003906 5.445312 94.550781 4.714844 96.128906 4.058594 C 97.710938 3.40625 99.320312 2.832031 100.957031 2.335938 C 102.597656 1.839844 104.253906 1.425781 105.933594 1.089844 C 107.609375 0.757812 109.300781 0.507812 111.003906 0.339844 C 112.707031 0.171875 114.414062 0.0898438 116.125 0.0898438 C 117.835938 0.0898438 119.542969 0.171875 121.246094 0.339844 C 122.949219 0.507812 124.640625 0.757812 126.320312 1.089844 C 128 1.425781 129.65625 1.839844 131.292969 2.335938 C 132.933594 2.832031 134.542969 3.40625 136.121094 4.058594 C 137.703125 4.714844 139.25 5.445312 140.757812 6.25 C 142.265625 7.054688 143.734375 7.929688 145.15625 8.878906 C 146.578125 9.828125 147.953125 10.847656 149.273438 11.929688 C 150.597656 13.015625 151.863281 14.160156 153.074219 15.367188 C 154.285156 16.574219 155.433594 17.839844 156.519531 19.160156 C 157.605469 20.480469 158.621094 21.851562 159.574219 23.273438 C 160.523438 24.691406 161.402344 26.15625 162.210938 27.664062 C 163.015625 29.171875 163.746094 30.710938 164.402344 32.292969 C 165.054688 33.871094 165.632812 35.476562 166.128906 37.109375 C 166.625 38.746094 167.042969 40.402344 167.375 42.078125 C 167.707031 43.753906 167.960938 45.441406 168.128906 47.140625 C 168.296875 48.839844 168.378906 50.546875 168.378906 52.253906 Z M 168.378906 52.253906 "/></g><path style=" stroke:none;fill-rule:nonzero;fill:#5555c4;fill-opacity:1;" d="M 205.695312 124.878906 L 30.503906 124.878906 L 44.722656 119.640625 L 191.476562 119.640625 Z M 205.695312 124.878906 "/><path style=" stroke:none;fill-rule:nonzero;fill:#1a004d;fill-opacity:1;" d="M 193.183594 30.492188 L 193.183594 118.34375 C 193.183594 119.507812 192.152344 120.449219 190.851562 120.449219 L 45.351562 120.449219 C 44.050781 120.449219 43.015625 119.507812 43.015625 118.34375 L 43.015625 30.492188 C 43.015625 29.328125 44.050781 28.386719 45.351562 28.386719 L 190.851562 28.386719 C 192.105469 28.433594 193.183594 29.328125 193.183594 30.492188 Z M 193.183594 30.492188 "/><path style=" stroke:none;fill-rule:nonzero;fill:#ffffff;fill-opacity:1;" d="M 188.695312 115.476562 L 47.503906 115.476562 L 47.503906 33.402344 L 188.695312 33.402344 Z M 188.695312 115.476562 "/><path style=" stroke:none;fill-rule:nonzero;fill:#1a004d;fill-opacity:1;" d="M 199.640625 132.449219 L 36.515625 132.449219 C 32.835938 132.449219 29.832031 129.449219 29.832031 125.777344 C 29.832031 125.105469 30.367188 124.613281 30.996094 124.613281 L 205.113281 124.613281 C 205.785156 124.613281 206.277344 125.148438 206.277344 125.777344 C 206.324219 129.449219 203.363281 132.449219 199.640625 132.449219 Z M 199.640625 132.449219 "/><path style=" stroke:none;fill-rule:nonzero;fill:#b9c9fa;fill-opacity:1;" d="M 109.816406 75.308594 L 56.394531 75.125 L 56.519531 39.664062 L 109.9375 39.847656 Z M 109.816406 75.308594 "/><path style=" stroke:none;fill-rule:nonzero;fill:#ffffff;fill-opacity:1;" d="M 58.769531 41.917969 L 107.703125 42.085938 L 107.597656 73.113281 L 58.664062 72.945312 Z M 58.769531 41.917969 "/><path style=" stroke:none;fill-rule:nonzero;fill:#5555c4;fill-opacity:1;" d="M 62.125 63.671875 L 65.890625 59.910156 C 68.269531 57.539062 72.082031 57.582031 74.457031 59.957031 L 77.195312 62.6875 C 77.328125 62.820312 77.597656 62.820312 77.734375 62.6875 L 87.734375 52.746094 C 89.351562 51.132812 91.996094 51.132812 93.65625 52.746094 L 104.195312 63.359375 C 104.285156 63.449219 104.285156 63.539062 104.285156 63.625 L 104.285156 69.984375 C 104.285156 70.207031 104.105469 70.34375 103.882812 70.34375 L 62.347656 70.207031 C 62.125 70.207031 61.988281 70.03125 61.988281 69.804688 L 61.988281 63.851562 C 62.035156 63.804688 62.078125 63.714844 62.125 63.671875 Z M 62.125 63.671875 "/><path style=" stroke:none;fill-rule:nonzero;fill:#5555c4;fill-opacity:1;" d="M 72.574219 53.730469 C 72.574219 54.0625 72.511719 54.382812 72.382812 54.691406 C 72.257812 54.996094 72.074219 55.269531 71.839844 55.503906 C 71.605469 55.738281 71.332031 55.921875 71.023438 56.046875 C 70.714844 56.175781 70.394531 56.238281 70.0625 56.238281 C 69.730469 56.238281 69.410156 56.175781 69.101562 56.046875 C 68.792969 55.921875 68.523438 55.738281 68.289062 55.503906 C 68.050781 55.269531 67.871094 54.996094 67.742188 54.691406 C 67.613281 54.382812 67.550781 54.0625 67.550781 53.730469 C 67.550781 53.398438 67.613281 53.078125 67.742188 52.773438 C 67.871094 52.464844 68.050781 52.191406 68.289062 51.957031 C 68.523438 51.722656 68.792969 51.542969 69.101562 51.414062 C 69.410156 51.289062 69.730469 51.222656 70.0625 51.222656 C 70.394531 51.222656 70.714844 51.289062 71.023438 51.414062 C 71.332031 51.542969 71.605469 51.722656 71.839844 51.957031 C 72.074219 52.191406 72.257812 52.464844 72.382812 52.773438 C 72.511719 53.078125 72.574219 53.398438 72.574219 53.730469 Z M 72.574219 53.730469 "/><path style=" stroke:none;fill-rule:nonzero;fill:#b9c9fa;fill-opacity:1;" d="M 56.472656 81.449219 L 108.859375 81.449219 L 108.859375 83.328125 L 56.472656 83.328125 Z M 56.472656 81.449219 "/><path style=" stroke:none;fill-rule:nonzero;fill:#b9c9fa;fill-opacity:1;" d="M 56.472656 89.148438 L 108.859375 89.148438 L 108.859375 91.03125 L 56.472656 91.03125 Z M 56.472656 89.148438 "/><path style=" stroke:none;fill-rule:nonzero;fill:#b9c9fa;fill-opacity:1;" d="M 56.472656 96.804688 L 108.949219 96.804688 L 108.949219 98.6875 L 56.472656 98.6875 Z M 56.472656 96.804688 "/><path style=" stroke:none;fill-rule:nonzero;fill:#b9c9fa;fill-opacity:1;" d="M 56.472656 104.460938 L 108.949219 104.460938 L 108.949219 106.34375 L 56.472656 106.34375 Z M 56.472656 104.460938 "/><path style=" stroke:none;fill-rule:nonzero;fill:#b9c9fa;fill-opacity:1;" d="M 119.085938 41.953125 L 182.640625 41.953125 L 182.640625 44.238281 L 119.085938 44.238281 Z M 119.085938 41.953125 "/><path style=" stroke:none;fill-rule:nonzero;fill:#b9c9fa;fill-opacity:1;" d="M 119.085938 48.804688 L 152.859375 48.804688 L 152.859375 51.089844 L 119.085938 51.089844 Z M 119.085938 48.804688 "/><path style=" stroke:none;fill-rule:nonzero;fill:#b9c9fa;fill-opacity:1;" d="M 149.898438 48.804688 L 182.640625 48.804688 L 182.640625 51.089844 L 149.898438 51.089844 Z M 149.898438 48.804688 "/><path style=" stroke:none;fill-rule:nonzero;fill:#b9c9fa;fill-opacity:1;" d="M 119.085938 55.65625 L 144.203125 55.65625 L 144.203125 57.941406 L 119.085938 57.941406 Z M 119.085938 55.65625 "/><path style=" stroke:none;fill-rule:nonzero;fill:#b9c9fa;fill-opacity:1;" d="M 148.105469 55.65625 L 182.640625 55.65625 L 182.640625 57.941406 L 148.105469 57.941406 Z M 148.105469 55.65625 "/><path style=" stroke:none;fill-rule:nonzero;fill:#b9c9fa;fill-opacity:1;" d="M 119.085938 93 L 182.640625 93 L 182.640625 95.285156 L 119.085938 95.285156 Z M 119.085938 93 "/><path style=" stroke:none;fill-rule:nonzero;fill:#b9c9fa;fill-opacity:1;" d="M 119.085938 99.894531 L 152.859375 99.894531 L 152.859375 102.179688 L 119.085938 102.179688 Z M 119.085938 99.894531 "/><path style=" stroke:none;fill-rule:nonzero;fill:#b9c9fa;fill-opacity:1;" d="M 155.6875 99.894531 L 182.640625 99.894531 L 182.640625 102.179688 L 155.6875 102.179688 Z M 155.6875 99.894531 "/><path style=" stroke:none;fill-rule:nonzero;fill:#b9c9fa;fill-opacity:1;" d="M 119.085938 106.746094 L 144.203125 106.746094 L 144.203125 109.03125 L 119.085938 109.03125 Z M 119.085938 106.746094 "/><path style=" stroke:none;fill-rule:nonzero;fill:#b9c9fa;fill-opacity:1;" d="M 148.105469 106.746094 L 182.640625 106.746094 L 182.640625 109.03125 L 148.105469 109.03125 Z M 148.105469 106.746094 "/><path style=" stroke:none;fill-rule:nonzero;fill:#1a004d;fill-opacity:1;" d="M 180.039062 88.253906 L 121.6875 88.253906 C 120.117188 88.253906 118.863281 87 118.863281 85.433594 L 118.863281 66.941406 C 118.863281 65.375 120.117188 64.121094 121.6875 64.121094 L 180.039062 64.121094 C 181.609375 64.121094 182.867188 65.375 182.867188 66.941406 L 182.867188 85.433594 C 182.867188 87 181.609375 88.253906 180.039062 88.253906 Z M 121.6875 64.523438 C 120.386719 64.523438 119.3125 65.597656 119.3125 66.894531 L 119.3125 85.386719 C 119.3125 86.6875 120.386719 87.761719 121.6875 87.761719 L 180.039062 87.761719 C 181.339844 87.761719 182.417969 86.6875 182.417969 85.386719 L 182.417969 66.941406 C 182.417969 65.640625 181.339844 64.566406 180.039062 64.566406 L 121.6875 64.566406 Z M 121.6875 64.523438 "/><path style=" stroke:none;fill-rule:nonzero;fill:#5555c4;fill-opacity:1;" d="M 127.339844 81 L 127.339844 72.132812 L 131.195312 72.132812 L 131.195312 73.476562 L 129.3125 73.476562 L 129.3125 75.714844 L 130.925781 75.714844 L 130.925781 77.105469 L 129.3125 77.105469 L 129.3125 81.042969 L 127.339844 81.042969 Z M 127.339844 81 "/><path style=" stroke:none;fill-rule:nonzero;fill:#5555c4;fill-opacity:1;" d="M 131.554688 81 L 133.261719 72.132812 L 135.503906 72.132812 L 137.160156 81 L 135.367188 81 L 135.054688 79.121094 L 133.707031 79.121094 L 133.394531 81 Z M 133.886719 77.957031 L 134.828125 77.957031 L 134.335938 74.507812 Z M 133.886719 77.957031 "/><path style=" stroke:none;fill-rule:nonzero;fill:#5555c4;fill-opacity:1;" d="M 138.015625 81 L 138.015625 72.132812 L 139.988281 72.132812 L 139.988281 75.761719 L 141.511719 72.132812 L 143.441406 72.132812 L 141.78125 76.164062 L 143.53125 81.042969 L 141.511719 81.042969 L 140.210938 77.058594 L 140.03125 77.375 L 140.03125 81.042969 L 138.015625 81.042969 Z M 138.015625 81 "/><path style=" stroke:none;fill-rule:nonzero;fill:#5555c4;fill-opacity:1;" d="M 144.25 81 L 144.25 72.132812 L 148.242188 72.132812 L 148.242188 73.476562 L 146.222656 73.476562 L 146.222656 75.671875 L 147.792969 75.671875 L 147.792969 77.058594 L 146.222656 77.058594 L 146.222656 79.703125 L 148.285156 79.703125 L 148.285156 81.042969 L 144.25 81.042969 Z M 144.25 81 "/><path style=" stroke:none;fill-rule:nonzero;fill:#5555c4;fill-opacity:1;" d="M 152.007812 81 L 152.007812 72.132812 L 153.398438 72.132812 L 155.238281 76.386719 L 155.238281 72.132812 L 156.851562 72.132812 L 156.851562 81 L 155.507812 81 L 153.667969 76.386719 L 153.667969 81 Z M 152.007812 81 "/><path style=" stroke:none;fill-rule:nonzero;fill:#5555c4;fill-opacity:1;" d="M 158.152344 81 L 158.152344 72.132812 L 162.144531 72.132812 L 162.144531 73.476562 L 160.125 73.476562 L 160.125 75.671875 L 161.695312 75.671875 L 161.695312 77.058594 L 160.125 77.058594 L 160.125 79.703125 L 162.191406 79.703125 L 162.191406 81.042969 L 158.152344 81.042969 Z M 158.152344 81 "/><path style=" stroke:none;fill-rule:nonzero;fill:#5555c4;fill-opacity:1;" d="M 163.757812 81 L 162.683594 72.132812 L 164.34375 72.132812 L 164.878906 77.285156 L 165.554688 72.132812 L 166.855469 72.132812 L 167.570312 77.285156 L 168.109375 72.132812 L 169.769531 72.132812 L 168.691406 81 L 166.988281 81 L 166.226562 75.625 L 165.507812 81 Z M 163.757812 81 "/><path style=" stroke:none;fill-rule:nonzero;fill:#5555c4;fill-opacity:1;" d="M 173.089844 81.132812 C 172.238281 81.132812 171.609375 80.910156 171.203125 80.460938 C 170.800781 80.015625 170.578125 79.296875 170.53125 78.3125 L 172.238281 78.042969 C 172.238281 78.582031 172.324219 78.984375 172.414062 79.253906 C 172.550781 79.523438 172.730469 79.613281 173 79.613281 C 173.3125 79.613281 173.492188 79.386719 173.492188 78.984375 C 173.492188 78.761719 173.449219 78.539062 173.359375 78.3125 C 173.269531 78.089844 173.179688 77.957031 173.042969 77.777344 C 172.910156 77.597656 172.730469 77.460938 172.503906 77.285156 L 171.699219 76.613281 C 171.519531 76.433594 171.339844 76.296875 171.203125 76.164062 C 171.070312 76.03125 170.9375 75.851562 170.847656 75.671875 C 170.757812 75.492188 170.621094 75.269531 170.578125 75.042969 C 170.53125 74.820312 170.488281 74.550781 170.488281 74.285156 C 170.488281 73.523438 170.710938 72.984375 171.160156 72.582031 C 171.609375 72.179688 172.191406 71.957031 173 71.957031 C 173.269531 71.957031 173.492188 72 173.714844 72.042969 C 173.941406 72.089844 174.121094 72.179688 174.253906 72.269531 C 174.390625 72.359375 174.523438 72.492188 174.660156 72.625 C 174.792969 72.761719 174.882812 72.894531 174.925781 73.03125 C 174.972656 73.164062 175.0625 73.34375 175.105469 73.523438 C 175.152344 73.703125 175.195312 73.878906 175.195312 74.015625 C 175.195312 74.148438 175.242188 74.328125 175.242188 74.507812 L 173.535156 74.730469 C 173.535156 74.597656 173.535156 74.460938 173.535156 74.375 C 173.535156 74.285156 173.535156 74.148438 173.492188 74.058594 C 173.492188 73.96875 173.449219 73.878906 173.449219 73.792969 C 173.402344 73.703125 173.402344 73.65625 173.359375 73.613281 C 173.3125 73.566406 173.269531 73.523438 173.222656 73.476562 C 173.179688 73.433594 173.089844 73.433594 173 73.433594 C 172.820312 73.433594 172.683594 73.523438 172.59375 73.65625 C 172.503906 73.792969 172.460938 73.96875 172.460938 74.148438 C 172.460938 74.328125 172.460938 74.460938 172.503906 74.597656 C 172.550781 74.730469 172.640625 74.867188 172.730469 75 C 172.820312 75.132812 172.910156 75.222656 173 75.269531 C 173.042969 75.3125 173.179688 75.449219 173.3125 75.582031 L 174.074219 76.253906 C 174.300781 76.433594 174.480469 76.613281 174.613281 76.792969 C 174.75 76.96875 174.925781 77.148438 175.0625 77.375 C 175.195312 77.597656 175.285156 77.820312 175.375 78.089844 C 175.464844 78.359375 175.464844 78.625 175.464844 78.941406 C 175.464844 79.566406 175.242188 80.105469 174.835938 80.550781 C 174.34375 80.910156 173.804688 81.132812 173.089844 81.132812 Z M 173.089844 81.132812 "/><path style=" stroke:none;fill-rule:nonzero;fill:#ffffff;fill-opacity:1;" d="M 99.039062 44.957031 C 96.4375 41.417969 95.089844 37.207031 95.089844 32.777344 C 95.089844 21.359375 104.421875 12.042969 115.855469 12.042969 C 127.292969 12.042969 136.625 21.359375 136.625 32.777344 C 136.625 44.195312 127.292969 53.507812 115.8125 53.507812 C 112.71875 53.507812 109.621094 52.789062 106.84375 51.449219 L 97.332031 54.984375 Z M 99.039062 44.957031 "/><path style=" stroke:none;fill-rule:nonzero;fill:#e59e9c;fill-opacity:1;" d="M 115.8125 13.835938 C 105.316406 13.835938 96.839844 22.296875 96.839844 32.777344 C 96.839844 37.207031 98.363281 41.238281 100.921875 44.460938 L 99.621094 52.253906 L 106.933594 49.523438 C 109.578125 50.910156 112.582031 51.714844 115.8125 51.714844 C 126.308594 51.714844 134.785156 43.253906 134.785156 32.777344 C 134.785156 22.296875 126.308594 13.835938 115.8125 13.835938 Z M 115.8125 13.835938 "/><path style=" stroke:none;fill-rule:nonzero;fill:#1a004d;fill-opacity:1;" d="M 117.335938 29.777344 C 117.335938 28.703125 116.394531 27.984375 114.960938 27.984375 C 113.523438 27.984375 112.449219 28.613281 111.730469 29.640625 L 109.039062 28.074219 C 110.25 26.238281 112.3125 25.121094 115.320312 25.121094 C 118.636719 25.121094 120.96875 26.597656 120.96875 29.238281 C 120.96875 32.777344 117.246094 33.179688 117.246094 35.550781 L 113.882812 35.550781 C 113.882812 32.371094 117.335938 31.703125 117.335938 29.777344 Z M 113.433594 39.042969 C 113.433594 37.925781 114.332031 37.074219 115.589844 37.074219 C 116.84375 37.074219 117.742188 37.925781 117.742188 39.042969 C 117.742188 40.164062 116.84375 41.058594 115.589844 41.058594 C 114.332031 41.058594 113.433594 40.164062 113.433594 39.042969 Z M 113.433594 39.042969 "/><path style=" stroke:none;fill-rule:nonzero;fill:#e59e9c;fill-opacity:1;" d="M 34.449219 73.253906 C 34.226562 73.878906 34.40625 74.550781 34.855469 75.042969 C 36.871094 77.148438 43.464844 84.179688 45.082031 82.792969 C 47.007812 81.179688 40.683594 75.492188 38.621094 74.058594 C 36.871094 72.804688 34.988281 71.777344 34.449219 73.253906 Z M 34.449219 73.253906 "/><path style=" stroke:none;fill-rule:nonzero;fill:#e59e9c;fill-opacity:1;" d="M 43.152344 77.867188 L 44.496094 79.03125 L 53.0625 67.074219 L 54.722656 68.550781 C 54.722656 68.550781 47.414062 83.328125 45.171875 83.640625 C 42.925781 83.957031 37.636719 79.613281 37.636719 79.613281 Z M 43.152344 77.867188 "/><path style=" stroke:none;fill-rule:nonzero;fill:#e59e9c;fill-opacity:1;" d="M 21.039062 72.984375 C 20.410156 73.207031 20.054688 73.835938 20.007812 74.460938 C 19.738281 77.375 17.855469 87.851562 20.007812 88.164062 C 22.519531 88.523438 23.820312 79.121094 23.507812 76.613281 C 23.238281 74.507812 22.519531 72.402344 21.039062 72.984375 Z M 21.039062 72.984375 "/><path style=" stroke:none;fill-rule:nonzero;fill:#e59e9c;fill-opacity:1;" d="M 28.394531 103.96875 C 28.304688 110.460938 27.09375 115.703125 25.75 115.65625 C 24.402344 115.65625 23.371094 110.375 23.460938 103.878906 C 23.550781 97.386719 24.761719 92.148438 26.109375 92.195312 C 27.453125 92.195312 28.484375 97.476562 28.394531 103.96875 Z M 28.394531 103.96875 "/><path style=" stroke:none;fill-rule:nonzero;fill:#e59e9c;fill-opacity:1;" d="M 26.644531 113.460938 C 21.847656 110.957031 24.628906 133.03125 26.332031 138.539062 C 28.082031 144.046875 28.484375 138.046875 28.53125 128.910156 C 28.574219 119.820312 28.53125 114.449219 26.644531 113.460938 Z M 26.644531 113.460938 "/><path style=" stroke:none;fill-rule:nonzero;fill:#e59e9c;fill-opacity:1;" d="M 29.246094 109.121094 L 28.484375 138.132812 L 25.660156 138.132812 C 25.660156 138.132812 23.148438 119.328125 23.730469 115.03125 L 22.519531 110.328125 Z M 29.246094 109.121094 "/><path style=" stroke:none;fill-rule:nonzero;fill:#e59e9c;fill-opacity:1;" d="M 37.050781 103.03125 C 38.082031 109.433594 37.816406 114.804688 36.46875 115.03125 C 35.125 115.253906 33.195312 110.238281 32.164062 103.835938 C 31.132812 97.433594 31.402344 92.058594 32.746094 91.835938 C 34.089844 91.613281 36.019531 96.625 37.050781 103.03125 Z M 37.050781 103.03125 "/><path style=" stroke:none;fill-rule:nonzero;fill:#e59e9c;fill-opacity:1;" d="M 37.007812 112.703125 C 31.847656 111.089844 36.738281 135.269531 39.429688 140.375 C 42.121094 145.476562 41.492188 139.476562 39.921875 130.523438 C 38.351562 121.566406 39.070312 113.328125 37.007812 112.703125 Z M 37.007812 112.703125 "/><path style=" stroke:none;fill-rule:nonzero;fill:#e59e9c;fill-opacity:1;" d="M 38.441406 109.210938 L 41.539062 139.164062 L 38.578125 139.476562 C 38.578125 139.476562 34.089844 123.714844 33.867188 115.613281 L 31.265625 106.925781 Z M 38.441406 109.210938 "/><path style=" stroke:none;fill-rule:nonzero;fill:#e59e9c;fill-opacity:1;" d="M 45.125 147.582031 C 43.332031 148.96875 40.238281 146.464844 40.058594 145.882812 C 39.878906 145.296875 39.699219 143.195312 39.292969 142.703125 C 38.890625 142.210938 38.261719 141.3125 38.398438 140.777344 C 38.441406 140.597656 38.488281 140.285156 38.488281 140.015625 C 38.53125 139.476562 38.53125 138.941406 38.53125 138.941406 L 41.449219 138.449219 C 41.449219 138.449219 42.613281 141.222656 43.332031 143.285156 C 43.511719 143.820312 43.871094 144.3125 44.273438 144.714844 C 45.261719 145.835938 46.425781 146.550781 45.125 147.582031 Z M 45.125 147.582031 "/><path style=" stroke:none;fill-rule:nonzero;fill:#1a004d;fill-opacity:1;" d="M 38.578125 141.3125 L 39.25 141.3125 L 39.25 144.402344 L 38.578125 144.402344 Z M 38.578125 141.3125 "/><path style=" stroke:none;fill-rule:nonzero;fill:#1a004d;fill-opacity:1;" d="M 45.125 147.582031 C 43.332031 148.96875 40.238281 146.464844 40.058594 145.882812 C 39.878906 145.296875 39.699219 143.195312 39.292969 142.703125 C 38.890625 142.210938 38.261719 141.3125 38.398438 140.777344 C 38.441406 140.597656 38.488281 140.285156 38.488281 140.015625 C 38.890625 140.640625 39.832031 142.210938 40.058594 142.792969 C 40.371094 143.550781 40.414062 145.792969 42.253906 145.792969 C 43.644531 145.792969 44.226562 145.34375 44.316406 144.671875 C 45.261719 145.835938 46.425781 146.550781 45.125 147.582031 Z M 45.125 147.582031 "/><path style=" stroke:none;fill-rule:nonzero;fill:#e59e9c;fill-opacity:1;" d="M 28.800781 140.957031 C 28.800781 141 28.800781 141.046875 28.753906 141.132812 C 28.621094 142.164062 28.710938 145.65625 28.753906 146.058594 C 28.753906 146.507812 28.171875 147.222656 26.554688 147.222656 C 24.941406 147.222656 24.628906 146.820312 24.582031 145.253906 C 24.539062 144.449219 24.808594 143.464844 25.078125 142.566406 C 25.300781 141.714844 25.480469 140.957031 25.570312 140.375 C 25.703125 139.210938 25.703125 137.957031 25.703125 137.957031 L 28.574219 137.957031 C 28.484375 138.046875 28.890625 139.523438 28.800781 140.957031 Z M 28.800781 140.957031 "/><path style=" stroke:none;fill-rule:nonzero;fill:#1a004d;fill-opacity:1;" d="M 28.753906 146.105469 C 28.753906 146.550781 28.171875 147.269531 26.554688 147.269531 C 24.941406 147.269531 24.628906 146.867188 24.582031 145.296875 C 24.539062 144.492188 24.808594 143.507812 25.078125 142.613281 C 25.078125 142.613281 25.03125 145.835938 26.78125 145.703125 C 28.53125 145.613281 28.800781 141.089844 28.800781 141.089844 C 28.800781 141.089844 28.800781 141.089844 28.800781 141.132812 C 28.664062 142.164062 28.753906 145.65625 28.753906 146.105469 Z M 28.753906 146.105469 "/><path style=" stroke:none;fill-rule:nonzero;fill:#1a004d;fill-opacity:1;" d="M 21.800781 104.820312 C 22.027344 107.730469 22.339844 110.375 22.476562 112.210938 C 22.746094 117.269531 25.523438 137.507812 25.523438 137.507812 L 28.574219 137.464844 L 29.652344 103.296875 L 33.238281 115.523438 C 33.777344 124.613281 38.128906 138.046875 38.128906 138.046875 L 41.449219 137.867188 C 41.449219 137.867188 39.789062 119.375 38.757812 109.746094 C 37.769531 100.074219 35.480469 89.460938 35.480469 89.460938 C 35.480469 89.460938 28.394531 85.65625 24.71875 88.386719 C 24.222656 88.746094 23.777344 89.285156 23.417969 89.910156 C 21.355469 93.804688 21.398438 99.714844 21.800781 104.820312 Z M 21.800781 104.820312 "/><path style=" stroke:none;fill-rule:nonzero;fill:#1a004d;fill-opacity:1;" d="M 33.195312 115.476562 L 30.101562 98.820312 L 29.605469 103.253906 Z M 33.195312 115.476562 "/><path style=" stroke:none;fill-rule:nonzero;fill:#1a004d;fill-opacity:1;" d="M 21.800781 104.820312 C 22.832031 96.3125 25.660156 90.3125 25.660156 90.3125 C 25.660156 90.3125 24.941406 88.878906 24.71875 88.386719 C 24.222656 88.746094 23.777344 89.285156 23.417969 89.910156 C 21.355469 93.804688 21.398438 99.714844 21.800781 104.820312 Z M 21.800781 104.820312 "/><path style=" stroke:none;fill-rule:nonzero;fill:#1a004d;fill-opacity:1;" d="M 28.53125 58.789062 C 28.304688 58.523438 27.945312 58.433594 27.589844 58.476562 C 27.230469 58.523438 26.960938 58.789062 26.824219 59.105469 C 26.511719 59.058594 26.199219 59.015625 25.929688 59.105469 C 25.660156 59.195312 25.390625 59.460938 25.390625 59.777344 C 25.390625 59.867188 25.433594 60 25.34375 60.089844 C 25.300781 60.132812 25.210938 60.132812 25.167969 60.179688 C 24.808594 60.269531 24.449219 60.449219 24.222656 60.761719 C 24 61.074219 24 61.523438 24.269531 61.789062 C 23.910156 61.96875 23.597656 62.238281 23.460938 62.640625 C 23.371094 63 23.550781 63.492188 23.910156 63.582031 C 23.6875 63.671875 23.550781 63.851562 23.417969 64.074219 C 23.28125 64.253906 23.148438 64.476562 23.101562 64.703125 C 23.058594 64.925781 23.191406 65.148438 23.417969 65.238281 C 23.191406 65.417969 22.878906 65.507812 22.789062 65.867188 C 22.746094 66.089844 22.832031 66.3125 22.921875 66.539062 C 23.011719 66.761719 23.101562 66.984375 23.011719 67.207031 C 22.921875 67.386719 22.699219 67.523438 22.609375 67.703125 C 22.566406 67.878906 22.609375 68.015625 22.699219 68.195312 C 22.746094 68.328125 23.011719 68.550781 23.011719 68.6875 C 23.011719 68.820312 22.789062 69.042969 22.746094 69.179688 C 22.566406 69.539062 22.476562 69.941406 22.519531 70.34375 C 22.566406 70.746094 22.789062 71.238281 23.191406 71.285156 C 22.921875 71.730469 22.65625 72.269531 22.921875 72.714844 C 23.011719 72.894531 23.238281 73.03125 23.460938 73.074219 C 24.042969 73.703125 25.121094 73.703125 25.703125 73.074219 C 25.972656 73.566406 26.511719 73.878906 27.050781 73.925781 C 27.589844 73.96875 28.171875 73.746094 28.53125 73.296875 C 28.933594 73.613281 29.335938 73.925781 29.832031 73.925781 C 30.324219 73.96875 30.863281 73.523438 30.726562 73.03125 C 31.132812 73.121094 31.578125 73.164062 31.984375 73.03125 C 32.386719 72.851562 32.65625 72.359375 32.433594 72 C 32.878906 71.957031 33.238281 71.507812 33.238281 71.058594 C 33.238281 70.96875 33.238281 70.925781 33.285156 70.835938 C 33.328125 70.746094 33.417969 70.746094 33.464844 70.703125 C 33.914062 70.476562 34.179688 69.941406 34.046875 69.449219 C 34.046875 69.402344 34.003906 69.3125 34.003906 69.269531 C 34.003906 69.179688 34.089844 69.132812 34.136719 69.089844 C 34.269531 68.957031 34.449219 68.867188 34.585938 68.6875 C 34.71875 68.507812 34.765625 68.285156 34.675781 68.105469 C 34.585938 67.96875 34.449219 67.878906 34.449219 67.746094 C 34.40625 67.613281 34.539062 67.476562 34.585938 67.34375 C 34.71875 67.121094 34.71875 66.804688 34.71875 66.539062 C 34.71875 66.179688 34.71875 65.820312 34.71875 65.417969 C 34.71875 65.285156 34.71875 65.148438 34.628906 65.058594 C 34.585938 64.96875 34.496094 64.96875 34.449219 64.878906 C 34.269531 64.703125 34.40625 64.386719 34.449219 64.164062 C 34.539062 63.625 34.089844 63.132812 33.957031 62.597656 C 33.867188 62.285156 33.867188 62.015625 33.824219 61.703125 C 33.777344 61.386719 33.644531 61.074219 33.375 60.941406 C 33.238281 60.851562 33.058594 60.851562 32.925781 60.714844 C 32.792969 60.582031 32.792969 60.359375 32.792969 60.179688 C 32.703125 59.777344 32.34375 59.417969 31.984375 59.328125 C 31.757812 59.285156 31.578125 59.328125 31.402344 59.328125 C 31.175781 59.328125 31.175781 59.058594 31.042969 58.96875 C 30.816406 58.789062 30.457031 58.789062 30.191406 58.835938 C 29.875 58.878906 29.5625 58.925781 29.246094 58.835938 C 29.113281 58.789062 28.980469 58.746094 28.84375 58.746094 C 28.84375 58.65625 28.484375 58.746094 28.53125 58.789062 Z M 28.53125 58.789062 "/><path style=" stroke:none;fill-rule:nonzero;fill:#5555c4;fill-opacity:1;" d="M 36.289062 78.625 C 36.199219 78.984375 36.066406 80.238281 36.019531 80.640625 C 36.019531 80.777344 35.929688 82.074219 35.839844 83.640625 C 35.660156 86.195312 35.480469 89.375 35.480469 89.375 C 35.480469 89.375 35.347656 89.417969 35.078125 89.460938 C 33.777344 89.6875 29.695312 90.269531 26.289062 90.179688 C 25.257812 90.132812 24.222656 90.042969 23.417969 89.867188 C 23.417969 89.867188 23.417969 89.820312 23.417969 89.730469 C 23.417969 89.597656 23.371094 89.105469 23.371094 88.433594 C 23.328125 85.746094 23.371094 79.96875 23.371094 79.96875 C 23.101562 78.089844 21.667969 76.703125 21.308594 75.269531 C 21.039062 74.238281 20.769531 73.613281 20.457031 73.121094 C 20.457031 73.121094 22.027344 71.867188 24.089844 71.285156 C 24.222656 71.238281 24.402344 71.195312 24.539062 71.148438 C 25.03125 71.015625 25.570312 70.925781 26.109375 70.878906 L 31.222656 70.65625 C 31.222656 70.65625 32.296875 70.792969 33.148438 71.058594 C 33.195312 71.058594 33.195312 71.058594 33.238281 71.105469 C 34.71875 71.507812 36.738281 72.179688 37.230469 72.761719 C 38.082031 73.792969 37.007812 76.296875 36.289062 78.625 Z M 36.289062 78.625 "/><path style=" stroke:none;fill-rule:nonzero;fill:#5555c4;fill-opacity:1;" d="M 20.1875 73.523438 C 19.828125 74.417969 18.933594 76.34375 18.796875 79.878906 L 23.417969 80.015625 C 23.640625 78.894531 21.039062 72.984375 21.039062 72.984375 L 20.996094 72.984375 C 20.636719 72.984375 20.320312 73.207031 20.1875 73.523438 Z M 20.1875 73.523438 "/><path style=" stroke:none;fill-rule:nonzero;fill:#5555c4;fill-opacity:1;" d="M 36.558594 72.269531 C 36.558594 72.269531 38.710938 73.878906 40.238281 75.179688 C 42.253906 76.835938 43.332031 77.730469 43.332031 77.730469 L 40.640625 82.074219 L 35.257812 78.851562 Z M 36.558594 72.269531 "/><path style=" stroke:none;fill-rule:nonzero;fill:#e59e9c;fill-opacity:1;" d="M 33.148438 71.105469 C 32.253906 70.878906 31.132812 70.703125 31.132812 70.703125 L 30.367188 70.746094 L 30.28125 70.121094 L 30.234375 69.804688 L 30.191406 69.582031 L 30.191406 69.449219 L 26.554688 68.910156 L 26.554688 69.042969 L 26.511719 69.582031 L 26.511719 69.894531 L 26.46875 70.96875 L 26.109375 70.96875 C 25.570312 71.015625 25.078125 71.105469 24.539062 71.238281 C 25.257812 72.402344 26.644531 73.878906 28.753906 73.792969 C 31.402344 73.703125 32.703125 72 33.195312 71.148438 C 33.195312 71.105469 33.195312 71.105469 33.148438 71.105469 Z M 33.148438 71.105469 "/><path style=" stroke:none;fill-rule:nonzero;fill:#e59e9c;fill-opacity:1;" d="M 44.632812 82.878906 C 45.394531 82.925781 46.113281 82.476562 46.515625 81.851562 C 48.488281 78.894531 54.8125 69.222656 53.960938 67.925781 C 52.972656 66.449219 43.691406 80.550781 44.003906 81.402344 C 44.273438 82.074219 43.601562 82.835938 44.632812 82.878906 Z M 44.632812 82.878906 "/><path style=" stroke:none;fill-rule:nonzero;fill:#e59e9c;fill-opacity:1;" d="M 52.4375 68.375 L 53.960938 69.714844 C 53.960938 69.714844 55.128906 69.132812 55.710938 68.238281 C 55.890625 68.015625 55.980469 67.746094 56.023438 67.476562 C 56.203125 66.222656 55.351562 66.089844 54.992188 65.597656 C 54.722656 65.195312 56.25 64.207031 55.980469 63.984375 C 55.664062 63.761719 54.320312 64.789062 53.511719 65.550781 C 52.707031 66.359375 52.570312 67.523438 52.617188 67.835938 C 52.660156 68.105469 52.4375 68.375 52.4375 68.375 Z M 52.4375 68.375 "/><path style=" stroke:none;fill-rule:nonzero;fill:#e59e9c;fill-opacity:1;" d="M 19.378906 87.984375 C 19.605469 88.746094 20.277344 89.285156 21.039062 89.460938 C 24.582031 90.359375 35.75 92.867188 36.691406 91.613281 C 37.816406 90.132812 21.175781 85.386719 20.410156 86.015625 C 19.875 86.507812 19.066406 86.957031 19.378906 87.984375 Z M 19.378906 87.984375 "/><path style=" stroke:none;fill-rule:nonzero;fill:#e59e9c;fill-opacity:1;" d="M 18.976562 79.878906 C 18.976562 79.878906 18.394531 87.625 19.46875 88.878906 C 20.546875 90.132812 34.855469 91.96875 34.855469 91.96875 L 35.347656 90.132812 L 22.699219 85.703125 L 23.371094 80.058594 Z M 18.976562 79.878906 "/><path style=" stroke:none;fill-rule:nonzero;fill:#e59e9c;fill-opacity:1;" d="M 34.855469 91.925781 C 34.855469 91.925781 38.082031 93.269531 38.890625 92.640625 C 39.742188 91.96875 40.28125 91.476562 40.058594 91.210938 C 39.832031 90.941406 39.609375 90.984375 39.203125 91.34375 C 38.800781 91.703125 37.320312 91.296875 37.320312 90.984375 C 37.320312 90.671875 38.21875 90.179688 37.992188 89.910156 C 37.816406 89.640625 36.960938 89.820312 36.515625 90.042969 C 36.066406 90.269531 35.214844 90.269531 35.214844 90.269531 Z M 34.855469 91.925781 "/><path style=" stroke:none;fill-rule:nonzero;fill:#b9c9fa;fill-opacity:1;" d="M 27.945312 89.550781 L 32.386719 91.566406 L 40.730469 91.65625 L 40.773438 89.148438 L 27.945312 89.058594 Z M 27.945312 89.550781 "/><path style=" stroke:none;fill-rule:nonzero;fill:#1a004d;fill-opacity:1;" d="M 27.945312 89.597656 L 32.164062 91.566406 L 40.730469 91.65625 L 40.730469 91.03125 L 32.386719 90.941406 L 27.945312 89.058594 Z M 27.945312 89.597656 "/><path style=" stroke:none;fill-rule:nonzero;fill:#ffffff;fill-opacity:1;" d="M 44.09375 91.65625 L 32.164062 91.566406 L 35.617188 83.460938 L 47.546875 83.597656 Z M 44.09375 91.65625 "/><path style=" stroke:none;fill-rule:nonzero;fill:#1a004d;fill-opacity:1;" d="M 44.40625 91.65625 L 32.523438 91.566406 L 35.929688 83.460938 L 47.863281 83.597656 Z M 44.40625 91.65625 "/><path style=" stroke:none;fill-rule:nonzero;fill:#e59e9c;fill-opacity:1;" d="M 37.140625 91.703125 C 37.140625 91.703125 38.128906 90.492188 39.652344 90.582031 C 41.179688 90.671875 39.921875 91.65625 39.921875 91.65625 Z M 37.140625 91.703125 "/><path style=" stroke:none;fill-rule:nonzero;fill:#b9c9fa;fill-opacity:1;" d="M 40.886719 86.75 C 41.058594 86.820312 41.164062 86.976562 41.210938 87.210938 C 41.253906 87.445312 41.222656 87.695312 41.113281 87.957031 C 41.003906 88.222656 40.851562 88.421875 40.652344 88.558594 C 40.453125 88.691406 40.269531 88.726562 40.097656 88.65625 C 39.925781 88.582031 39.816406 88.429688 39.773438 88.195312 C 39.730469 87.957031 39.761719 87.710938 39.871094 87.445312 C 39.976562 87.183594 40.132812 86.984375 40.328125 86.847656 C 40.527344 86.710938 40.714844 86.679688 40.886719 86.75 Z M 40.886719 86.75 "/><path style=" stroke:none;fill-rule:nonzero;fill:#1a004d;fill-opacity:1;" d="M 30.324219 70.074219 C 29.785156 70.34375 29.246094 70.523438 28.664062 70.523438 C 27.945312 70.523438 27.230469 70.296875 26.601562 69.851562 L 26.601562 69.539062 L 26.644531 69 L 30.28125 69.539062 L 30.324219 69.761719 Z M 30.324219 70.074219 "/><path style=" stroke:none;fill-rule:nonzero;fill:#e59e9c;fill-opacity:1;" d="M 33.105469 64.433594 C 33.105469 66.941406 31.085938 70.074219 28.574219 70.074219 C 26.0625 70.074219 24.042969 66.894531 24.042969 64.433594 C 24.042969 61.925781 26.0625 59.910156 28.574219 59.910156 C 31.085938 59.910156 33.105469 61.925781 33.105469 64.433594 Z M 33.105469 64.433594 "/><path style=" stroke:none;fill-rule:nonzero;fill:#1a004d;fill-opacity:1;" d="M 31.175781 65.417969 C 31.175781 65.554688 31.148438 65.671875 31.097656 65.765625 C 31.046875 65.863281 30.980469 65.910156 30.90625 65.910156 C 30.832031 65.910156 30.769531 65.863281 30.71875 65.765625 C 30.664062 65.671875 30.636719 65.554688 30.636719 65.417969 C 30.636719 65.28125 30.664062 65.164062 30.71875 65.070312 C 30.769531 64.972656 30.832031 64.925781 30.90625 64.925781 C 30.980469 64.925781 31.046875 64.972656 31.097656 65.070312 C 31.148438 65.164062 31.175781 65.28125 31.175781 65.417969 Z M 31.175781 65.417969 "/><path style=" stroke:none;fill-rule:nonzero;fill:#1a004d;fill-opacity:1;" d="M 28.035156 65.417969 C 28.035156 65.554688 28.011719 65.671875 27.957031 65.765625 C 27.90625 65.863281 27.84375 65.910156 27.769531 65.910156 C 27.691406 65.910156 27.628906 65.863281 27.578125 65.765625 C 27.523438 65.671875 27.5 65.554688 27.5 65.417969 C 27.5 65.28125 27.523438 65.164062 27.578125 65.070312 C 27.628906 64.972656 27.691406 64.925781 27.769531 64.925781 C 27.84375 64.925781 27.90625 64.972656 27.957031 65.070312 C 28.011719 65.164062 28.035156 65.28125 28.035156 65.417969 Z M 28.035156 65.417969 "/><path style=" stroke:none;fill-rule:nonzero;fill:#1a004d;fill-opacity:1;" d="M 31.492188 64.074219 C 31.445312 64.074219 31.445312 64.074219 31.492188 64.074219 C 31.042969 63.851562 30.59375 63.941406 30.457031 63.941406 C 30.414062 63.941406 30.414062 63.941406 30.414062 63.941406 C 30.367188 63.941406 30.324219 63.894531 30.324219 63.851562 C 30.324219 63.804688 30.367188 63.761719 30.367188 63.761719 C 30.367188 63.761719 30.367188 63.761719 30.414062 63.761719 C 30.59375 63.714844 31.085938 63.625 31.535156 63.894531 C 31.578125 63.894531 31.578125 63.941406 31.578125 63.984375 C 31.535156 64.074219 31.492188 64.074219 31.492188 64.074219 Z M 31.492188 64.074219 "/><path style=" stroke:none;fill-rule:nonzero;fill:#1a004d;fill-opacity:1;" d="M 28.351562 64.074219 C 28.304688 64.074219 28.304688 64.074219 28.351562 64.074219 C 27.902344 63.851562 27.453125 63.941406 27.320312 63.941406 C 27.273438 63.941406 27.273438 63.941406 27.273438 63.941406 C 27.230469 63.941406 27.183594 63.894531 27.183594 63.851562 C 27.183594 63.804688 27.230469 63.761719 27.230469 63.761719 C 27.230469 63.761719 27.230469 63.761719 27.273438 63.761719 C 27.453125 63.714844 27.945312 63.625 28.394531 63.894531 C 28.441406 63.894531 28.441406 63.941406 28.441406 63.984375 C 28.394531 64.074219 28.351562 64.074219 28.351562 64.074219 Z M 28.351562 64.074219 "/><path style=" stroke:none;fill-rule:nonzero;fill:#1a004d;fill-opacity:1;" d="M 29.335938 67.386719 C 29.292969 67.386719 29.292969 67.386719 29.292969 67.34375 C 29.292969 67.296875 29.292969 67.253906 29.335938 67.253906 C 29.382812 67.207031 29.5625 67.121094 29.605469 66.984375 C 29.605469 66.851562 29.472656 66.402344 29.382812 66.132812 C 29.382812 66.089844 29.382812 66.042969 29.425781 66.042969 C 29.472656 66.042969 29.515625 66.042969 29.515625 66.089844 C 29.5625 66.179688 29.742188 66.804688 29.742188 66.984375 C 29.695312 67.207031 29.425781 67.34375 29.335938 67.386719 C 29.382812 67.386719 29.382812 67.386719 29.335938 67.386719 Z M 29.335938 67.386719 "/><path style=" stroke:none;fill-rule:nonzero;fill:#1a004d;fill-opacity:1;" d="M 29.335938 68.550781 C 28.933594 68.550781 28.621094 68.375 28.574219 68.375 C 28.53125 68.375 28.53125 68.328125 28.53125 68.285156 C 28.53125 68.238281 28.574219 68.238281 28.621094 68.238281 C 28.621094 68.238281 29.425781 68.640625 29.921875 68.195312 C 29.964844 68.148438 30.011719 68.148438 30.011719 68.195312 C 30.011719 68.238281 30.054688 68.285156 30.011719 68.285156 C 29.785156 68.507812 29.5625 68.550781 29.335938 68.550781 Z M 29.335938 68.550781 "/><path style=" stroke:none;fill-rule:nonzero;fill:#1a004d;fill-opacity:1;" d="M 26.734375 62.148438 C 26.734375 62.328125 26.824219 62.550781 27.003906 62.640625 C 27.320312 62.820312 27.722656 62.730469 28.035156 62.867188 C 28.171875 62.910156 28.304688 63.042969 28.441406 63.132812 C 28.621094 63.222656 28.84375 63.269531 29.066406 63.222656 C 29.335938 63.179688 29.5625 63 29.785156 63 C 30.011719 63 30.191406 63.132812 30.414062 63.222656 C 30.636719 63.3125 30.90625 63.359375 31.132812 63.359375 C 31.175781 63.359375 31.222656 63.359375 31.265625 63.359375 C 31.3125 63.359375 31.3125 63.402344 31.355469 63.449219 C 31.445312 63.671875 31.535156 63.851562 31.757812 63.984375 C 31.894531 64.074219 32.074219 64.074219 32.164062 64.164062 C 32.296875 64.296875 32.296875 64.476562 32.34375 64.65625 C 32.386719 64.925781 32.476562 65.238281 32.613281 65.507812 C 32.65625 65.597656 32.703125 65.730469 32.703125 65.820312 C 32.703125 65.910156 32.65625 66 32.65625 66.089844 C 32.613281 66.269531 32.566406 66.492188 32.613281 66.671875 C 32.613281 66.804688 32.703125 67.164062 32.835938 67.207031 C 32.96875 67.253906 33.195312 67.074219 33.285156 67.03125 C 33.375 66.984375 33.507812 66.941406 33.597656 66.894531 C 33.597656 66.894531 33.644531 62.777344 33.597656 62.640625 C 33.554688 62.507812 30.546875 59.148438 30.546875 59.148438 L 25.480469 60.132812 L 24.132812 62.867188 L 23.640625 65.597656 C 23.867188 66.492188 24.089844 67.386719 24.359375 68.285156 C 24.449219 68.640625 24.539062 69 24.628906 69.359375 C 24.671875 69.449219 24.671875 69.582031 24.71875 69.671875 C 24.808594 69.941406 25.210938 69.714844 25.390625 69.582031 C 25.523438 69.449219 25.523438 69.222656 25.613281 69.089844 C 25.703125 68.957031 25.972656 68.910156 26.109375 68.820312 C 26.289062 68.6875 26.378906 68.507812 26.378906 68.328125 C 26.421875 68.015625 26.242188 67.703125 26.242188 67.433594 C 26.242188 67.121094 26.378906 66.804688 26.378906 66.539062 C 26.378906 66.3125 26.289062 66.132812 26.289062 65.910156 C 26.289062 65.730469 26.332031 65.597656 26.378906 65.417969 C 26.421875 65.015625 26.109375 64.65625 26.289062 64.296875 C 26.46875 63.894531 26.554688 63.449219 26.46875 63 C 26.46875 62.910156 26.421875 62.820312 26.46875 62.730469 C 26.511719 62.6875 26.554688 62.640625 26.601562 62.597656 C 26.734375 62.460938 26.824219 62.328125 26.871094 62.148438 C 26.734375 62.105469 26.734375 62.105469 26.734375 62.148438 Z M 26.734375 62.148438 "/><path style=" stroke:none;fill-rule:nonzero;fill:#1a004d;fill-opacity:1;" d="M 23.371094 80.105469 C 23.328125 80.105469 23.28125 80.058594 23.28125 80.015625 L 23.371094 76.613281 C 23.371094 76.566406 23.417969 76.523438 23.460938 76.523438 C 23.507812 76.523438 23.550781 76.566406 23.550781 76.613281 L 23.460938 80.015625 C 23.460938 80.058594 23.417969 80.105469 23.371094 80.105469 Z M 23.371094 80.105469 "/><path style=" stroke:none;fill-rule:nonzero;fill:#b9c9fa;fill-opacity:1;" d="M 66.25 23.417969 L 45.125 23.417969 C 44.183594 23.417969 43.464844 22.65625 43.464844 21.761719 L 43.464844 8.953125 C 43.464844 8.015625 44.226562 7.296875 45.125 7.296875 L 66.25 7.296875 C 67.191406 7.296875 67.910156 8.058594 67.910156 8.953125 L 67.910156 21.761719 C 67.910156 22.65625 67.148438 23.417969 66.25 23.417969 Z M 66.25 23.417969 "/><path style=" stroke:none;fill-rule:nonzero;fill:#ffffff;fill-opacity:1;" d="M 59.121094 15.671875 C 59.121094 16.144531 59.027344 16.601562 58.847656 17.042969 C 58.664062 17.480469 58.40625 17.867188 58.066406 18.203125 C 57.730469 18.539062 57.34375 18.800781 56.902344 18.980469 C 56.464844 19.164062 56.007812 19.253906 55.53125 19.253906 C 55.054688 19.253906 54.597656 19.164062 54.15625 18.980469 C 53.71875 18.800781 53.332031 18.539062 52.992188 18.203125 C 52.65625 17.867188 52.398438 17.480469 52.214844 17.042969 C 52.035156 16.601562 51.941406 16.144531 51.941406 15.671875 C 51.941406 15.195312 52.035156 14.738281 52.214844 14.300781 C 52.398438 13.863281 52.65625 13.472656 52.992188 13.136719 C 53.332031 12.800781 53.71875 12.542969 54.15625 12.363281 C 54.597656 12.179688 55.054688 12.089844 55.53125 12.089844 C 56.007812 12.089844 56.464844 12.179688 56.902344 12.363281 C 57.34375 12.542969 57.730469 12.800781 58.066406 13.136719 C 58.40625 13.472656 58.664062 13.863281 58.847656 14.300781 C 59.027344 14.738281 59.121094 15.195312 59.121094 15.671875 Z M 59.121094 15.671875 "/><path style=" stroke:none;fill-rule:nonzero;fill:#b9c9fa;fill-opacity:1;" d="M 57.054688 15.671875 L 54.542969 14.238281 L 54.542969 17.105469 Z M 57.054688 15.671875 "/><g mask="url(#5ecb388f13)" transform="matrix(1,0,0,1,164,11)"><g clip-path="url(#4b8e739d56)"><g clip-rule="nonzero" clip-path="url(#227570650f)"><path style=" stroke:none;fill-rule:nonzero;fill:#b9c9fa;fill-opacity:1;" d="M 0.835938 0.730469 L 15.859375 0.730469 L 15.859375 1.804688 L 0.835938 1.804688 Z M 0.835938 0.730469 "/></g><g clip-rule="nonzero" clip-path="url(#2e1bc5e5e7)"><path style=" stroke:none;fill-rule:nonzero;fill:#b9c9fa;fill-opacity:1;" d="M 17.609375 0.730469 L 24.964844 0.730469 L 24.964844 1.804688 L 17.609375 1.804688 Z M 17.609375 0.730469 "/></g></g><mask id="5ecb388f13"><g filter="url(#955851d032)"><rect x="0" width="224.87999" y="0" height="149.999998" style="fill:#000000;fill-opacity:0.7;stroke:none;"/></g></mask></g><path style=" stroke:none;fill-rule:nonzero;fill:#b9c9fa;fill-opacity:1;" d="M 164.835938 15.449219 L 174.300781 15.449219 L 174.300781 16.523438 L 164.835938 16.523438 Z M 164.835938 15.449219 "/><path style=" stroke:none;fill-rule:nonzero;fill:#b9c9fa;fill-opacity:1;" d="M 175.960938 15.449219 L 188.964844 15.449219 L 188.964844 16.523438 L 175.960938 16.523438 Z M 175.960938 15.449219 "/><g mask="url(#58fbfdd5fc)" transform="matrix(1,0,0,1,164,18)"><g clip-path="url(#5c09a8b41f)"><g clip-rule="nonzero" clip-path="url(#0efd4540a0)"><path style=" stroke:none;fill-rule:nonzero;fill:#b9c9fa;fill-opacity:1;" d="M 0.835938 1.074219 L 3.570312 1.074219 L 3.570312 2.148438 L 0.835938 2.148438 Z M 0.835938 1.074219 "/></g><g clip-rule="nonzero" clip-path="url(#5a19cdcfac)"><path style=" stroke:none;fill-rule:nonzero;fill:#b9c9fa;fill-opacity:1;" d="M 24.875 2.238281 L 5.097656 2.238281 L 5.320312 1.164062 L 25.144531 1.164062 Z M 24.875 2.238281 "/></g></g><mask id="58fbfdd5fc"><g filter="url(#955851d032)"><rect x="0" width="224.87999" y="0" height="149.999998" style="fill:#000000;fill-opacity:0.7;stroke:none;"/></g></mask></g><path style=" stroke:none;fill-rule:nonzero;fill:#ffffff;fill-opacity:1;" d="M 81.277344 110.777344 L 105.855469 110.777344 C 108.230469 110.777344 110.160156 108.851562 110.160156 106.476562 L 110.160156 81.941406 C 110.160156 79.566406 108.230469 77.640625 105.855469 77.640625 L 81.277344 77.640625 C 78.898438 77.640625 76.96875 79.566406 76.96875 81.941406 L 76.96875 106.476562 C 76.96875 108.851562 78.898438 110.777344 81.277344 110.777344 Z M 81.277344 110.777344 "/><path style=" stroke:none;fill-rule:nonzero;fill:#ffffff;fill-opacity:1;" d="M 82.488281 108.449219 C 80.738281 108.449219 79.300781 107.015625 79.300781 105.269531 L 79.300781 83.238281 C 79.300781 81.492188 80.738281 80.058594 82.488281 80.058594 L 104.554688 80.058594 C 106.304688 80.058594 107.738281 81.492188 107.738281 83.238281 L 107.738281 105.269531 C 107.738281 107.015625 106.304688 108.449219 104.554688 108.449219 Z M 82.488281 108.449219 "/><path style=" stroke:none;fill-rule:nonzero;fill:#e59e9c;fill-opacity:1;" d="M 104.597656 80.730469 C 105.988281 80.730469 107.109375 81.851562 107.109375 83.238281 L 107.109375 105.269531 C 107.109375 106.65625 105.988281 107.777344 104.597656 107.777344 L 82.53125 107.777344 C 81.140625 107.777344 80.019531 106.65625 80.019531 105.269531 L 80.019531 83.238281 C 80.019531 81.851562 81.140625 80.730469 82.53125 80.730469 L 104.597656 80.730469 M 104.597656 79.386719 L 82.53125 79.386719 C 80.425781 79.386719 78.675781 81.089844 78.675781 83.238281 L 78.675781 105.269531 C 78.675781 107.375 80.378906 109.121094 82.53125 109.121094 L 104.597656 109.121094 C 106.707031 109.121094 108.457031 107.417969 108.457031 105.269531 L 108.457031 83.238281 C 108.457031 81.089844 106.707031 79.386719 104.597656 79.386719 Z M 104.597656 79.386719 "/><path style=" stroke:none;fill-rule:nonzero;fill:#1a004d;fill-opacity:1;" d="M 89.976562 87.179688 C 90.023438 87.179688 90.066406 87.179688 90.113281 87.132812 C 90.246094 87.042969 90.246094 86.910156 90.203125 86.777344 L 87.421875 82.523438 C 87.332031 82.386719 87.195312 82.386719 87.0625 82.433594 C 86.925781 82.523438 86.925781 82.65625 86.972656 82.792969 L 89.753906 87.042969 C 89.796875 87.132812 89.886719 87.179688 89.976562 87.179688 Z M 89.976562 87.179688 "/><path style=" stroke:none;fill-rule:nonzero;fill:#1a004d;fill-opacity:1;" d="M 86.75 92.375 C 86.882812 92.375 86.972656 92.285156 86.972656 92.148438 C 86.972656 92.015625 86.882812 91.878906 86.75 91.878906 L 81.679688 91.296875 C 81.546875 91.296875 81.410156 91.386719 81.410156 91.523438 C 81.410156 91.65625 81.5 91.792969 81.636719 91.792969 Z M 86.75 92.375 "/><path style=" stroke:none;fill-rule:nonzero;fill:#1a004d;fill-opacity:1;" d="M 88.226562 89.6875 C 88.316406 89.6875 88.40625 89.640625 88.453125 89.550781 C 88.542969 89.417969 88.496094 89.285156 88.363281 89.195312 L 84.730469 86.957031 C 84.59375 86.867188 84.460938 86.910156 84.371094 87.042969 C 84.28125 87.179688 84.324219 87.3125 84.460938 87.402344 L 88.09375 89.640625 C 88.136719 89.6875 88.183594 89.6875 88.226562 89.6875 Z M 88.226562 89.6875 "/><path style=" stroke:none;fill-rule:nonzero;fill:#ffffff;fill-opacity:1;" d="M 94.519531 99.097656 L 98.871094 93.285156 L 104.007812 97.117188 L 99.660156 102.929688 Z M 94.519531 99.097656 "/><path style=" stroke:none;fill-rule:nonzero;fill:#1a004d;fill-opacity:1;" d="M 98.859375 93.3125 L 103.972656 97.164062 L 104.6875 97.703125 C 105.71875 98.460938 105.898438 99.894531 105.136719 100.925781 L 103.566406 103.03125 C 102.804688 104.058594 101.371094 104.238281 100.339844 103.476562 L 99.621094 102.941406 L 94.730469 105.984375 C 94.550781 106.121094 94.328125 106.074219 94.148438 105.941406 L 92.757812 104.910156 C 92.445312 104.6875 92.488281 104.238281 92.804688 104.058594 L 95.585938 102.3125 L 95.585938 102.269531 L 95.226562 102 C 94.910156 101.777344 94.910156 101.285156 95.269531 101.058594 L 96.300781 100.433594 L 94.460938 99.042969 L 91.414062 98.058594 C 90.246094 97.703125 88.992188 97.703125 87.78125 97.746094 C 87.601562 97.746094 87.421875 97.703125 87.285156 97.613281 C 87.0625 97.433594 86.972656 97.074219 87.015625 96.625 C 87.105469 95.640625 87.78125 94.121094 88.8125 92.460938 C 89.125 91.96875 89.4375 91.523438 89.796875 91.03125 C 90.15625 90.539062 90.515625 90.089844 90.875 89.6875 C 92.175781 88.210938 93.476562 87.132812 94.371094 86.777344 C 94.820312 86.597656 95.179688 86.597656 95.40625 86.777344 C 95.539062 86.867188 95.628906 87 95.671875 87.222656 C 95.941406 88.433594 96.300781 89.597656 96.972656 90.625 L 98.859375 93.3125 "/><path style=" stroke:none;fill-rule:nonzero;fill:#ffffff;fill-opacity:1;" d="M 90.292969 91.433594 C 89.976562 91.835938 89.707031 92.238281 89.484375 92.597656 C 88.632812 93.941406 88.09375 95.195312 88.050781 96 C 88.003906 96.402344 88.09375 96.671875 88.273438 96.804688 C 88.542969 97.03125 89.082031 96.894531 89.664062 96.539062 C 90.605469 96 91.773438 94.835938 92.847656 93.402344 C 93.925781 91.925781 94.6875 90.492188 95 89.460938 C 95.179688 88.792969 95.136719 88.253906 94.867188 88.03125 C 94.6875 87.894531 94.375 87.894531 94.015625 88.03125 C 93.25 88.296875 92.21875 89.148438 91.144531 90.359375 C 90.875 90.671875 90.5625 91.03125 90.292969 91.433594 Z M 90.292969 91.433594 "/><path style=" stroke:none;fill-rule:nonzero;fill:#e59e9c;fill-opacity:1;" d="M 79.382812 106.246094 L 105.292969 80.375 L 107.195312 82.277344 L 81.285156 108.144531 Z M 79.382812 106.246094 "/></g></svg>