<svg xmlns="http://www.w3.org/2000/svg" xmlns:xlink="http://www.w3.org/1999/xlink" width="500" zoomAndPan="magnify" viewBox="0 0 375 374.999991" height="500" preserveAspectRatio="xMidYMid meet" version="1.2"><defs><clipPath id="67d0f89a1d"><path d="M 0.0742188 0 L 172.574219 0 L 172.574219 187.496094 L 0.0742188 187.496094 Z M 0.0742188 0 "/></clipPath><filter x="0%" y="0%" width="100%" filterUnits="objectBoundingBox" id="19467931ff" height="100%"><feColorMatrix values="0 0 0 0 1 0 0 0 0 1 0 0 0 0 1 0 0 0 1 0" type="matrix" in="SourceGraphic"/></filter><clipPath id="fb04cc2363"><path d="M 156 102 L 172.574219 102 L 172.574219 125 L 156 125 Z M 156 102 "/></clipPath><clipPath id="62ae4464ff"><path d="M 0.0742188 102 L 132 102 L 132 187.496094 L 0.0742188 187.496094 Z M 0.0742188 102 "/></clipPath><clipPath id="c30c3de0ed"><path d="M 81 0 L 172.574219 0 L 172.574219 153 L 81 153 Z M 81 0 "/></clipPath><clipPath id="b7ddff5406"><rect x="0" width="173" y="0" height="188"/></clipPath><clipPath id="4b12597f40"><path d="M 172.652344 0 L 345.152344 0 L 345.152344 187.496094 L 172.652344 187.496094 Z M 172.652344 0 "/></clipPath><clipPath id="4294de2df0"><path d="M 157 102 L 173.152344 102 L 173.152344 125 L 157 125 Z M 157 102 "/></clipPath><clipPath id="1c24ebdd60"><path d="M 0.652344 102 L 132 102 L 132 187.496094 L 0.652344 187.496094 Z M 0.652344 102 "/></clipPath><clipPath id="a1889848ca"><path d="M 81 0 L 173.152344 0 L 173.152344 153 L 81 153 Z M 81 0 "/></clipPath><clipPath id="ea7b33378f"><rect x="0" width="174" y="0" height="188"/></clipPath><clipPath id="ec76938f73"><path d="M 0.0742188 182.488281 L 172.574219 182.488281 L 172.574219 369.988281 L 0.0742188 369.988281 Z M 0.0742188 182.488281 "/></clipPath><clipPath id="c6da3f805d"><path d="M 156 102 L 172.574219 102 L 172.574219 125 L 156 125 Z M 156 102 "/></clipPath><clipPath id="bab1be4eeb"><path d="M 0.0742188 103 L 132 103 L 132 187.988281 L 0.0742188 187.988281 Z M 0.0742188 103 "/></clipPath><clipPath id="19e6b83525"><path d="M 81 0.488281 L 172.574219 0.488281 L 172.574219 153 L 81 153 Z M 81 0.488281 "/></clipPath><clipPath id="8e57232691"><rect x="0" width="173" y="0" height="188"/></clipPath><clipPath id="0c29cecc56"><path d="M 164.996094 187.496094 L 337.496094 187.496094 L 337.496094 374.996094 L 164.996094 374.996094 Z M 164.996094 187.496094 "/></clipPath><clipPath id="feea93cace"><path d="M 157 102 L 173.496094 102 L 173.496094 125 L 157 125 Z M 157 102 "/></clipPath><clipPath id="307a333cb7"><path d="M 1 103 L 132 103 L 132 187.996094 L 1 187.996094 Z M 1 103 "/></clipPath><clipPath id="dc0c91b9a1"><path d="M 82 0.496094 L 173.496094 0.496094 L 173.496094 153 L 82 153 Z M 82 0.496094 "/></clipPath><clipPath id="94c89a3033"><rect x="0" width="174" y="0" height="188"/></clipPath><clipPath id="41c04b04ec"><path d="M 337.574219 68 L 375 68 L 375 191.789062 L 337.574219 191.789062 Z M 337.574219 68 "/></clipPath><clipPath id="a48408e0d5"><path d="M 8 0.398438 L 38 0.398438 L 38 44 L 8 44 Z M 8 0.398438 "/></clipPath><clipPath id="e0b96e1fc4"><path d="M 0.574219 39 L 38 39 L 38 123.761719 L 0.574219 123.761719 Z M 0.574219 39 "/></clipPath><clipPath id="0be9722ac2"><rect x="0" width="38" y="0" height="124"/></clipPath><clipPath id="96dfa5beb2"><path d="M 337.574219 251 L 375 251 L 375 374.996094 L 337.574219 374.996094 Z M 337.574219 251 "/></clipPath><clipPath id="e6184414a9"><path d="M 8 0.519531 L 38 0.519531 L 38 44 L 8 44 Z M 8 0.519531 "/></clipPath><clipPath id="12ae49f1b5"><path d="M 0.574219 39 L 38 39 L 38 123.996094 L 0.574219 123.996094 Z M 0.574219 39 "/></clipPath><clipPath id="efb6dd0c34"><rect x="0" width="38" y="0" height="124"/></clipPath></defs><g id="0f0668d2f9"><g clip-rule="nonzero" clip-path="url(#67d0f89a1d)"><g mask="url(#e916d1c442)" transform="matrix(1,0,0,1,0,0)"><g clip-path="url(#b7ddff5406)"><path style=" stroke:none;fill-rule:nonzero;fill:#5e17eb;fill-opacity:1;" d="M 45.128906 101.492188 L 50.886719 80.007812 L 35.15625 64.28125 L 13.671875 70.035156 L 7.914062 91.523438 L 23.644531 107.253906 Z M 8.886719 91.261719 L 14.382812 70.75 L 34.894531 65.253906 L 49.910156 80.269531 L 44.414062 100.78125 L 23.90625 106.277344 Z M 8.886719 91.261719 "/><g clip-rule="nonzero" clip-path="url(#fb04cc2363)"><path style=" stroke:none;fill-rule:nonzero;fill:#5e17eb;fill-opacity:1;" d="M 172.574219 122.339844 L 172.574219 121.433594 L 165.234375 123.402344 L 157.804688 115.976562 L 160.515625 105.828125 L 170.652344 103.109375 L 172.574219 105.023438 L 172.574219 103.785156 L 170.929688 102.140625 L 159.8125 105.113281 L 156.839844 116.230469 L 164.980469 124.371094 Z M 172.574219 122.339844 "/></g><g clip-rule="nonzero" clip-path="url(#62ae4464ff)"><path style=" stroke:none;fill-rule:nonzero;fill:#5e17eb;fill-opacity:1;" d="M 65.699219 172.542969 L 92.433594 162.898438 L 100.199219 170.667969 L 110.828125 167.820312 L 119.714844 176.707031 L 118.117188 182.6875 L 122.847656 187.421875 L 129.316406 185.6875 L 131.046875 179.222656 L 126.3125 174.488281 L 120.335938 176.085938 L 111.449219 167.199219 L 114.292969 156.566406 L 106.160156 148.421875 L 95.53125 151.273438 L 83.785156 139.527344 L 89.410156 118.53125 L 73.679688 102.800781 L 52.195312 108.558594 L 46.441406 130.042969 L 62.167969 145.773438 L 83.167969 140.148438 L 94.914062 151.894531 L 92.179688 162.058594 L 65.449219 171.707031 L 57.683594 163.941406 L 47.050781 166.789062 L 23.363281 143.097656 L 26.210938 132.464844 L 18.074219 124.328125 L 6.957031 127.296875 L 3.976562 138.417969 L 11.769531 146.207031 L 7.78125 163.757812 L 1.8125 165.359375 L 0.0820312 171.824219 L 4.8125 176.558594 L 11.28125 174.824219 L 13.015625 168.359375 L 8.628906 163.972656 L 12.613281 146.421875 L 22.75 143.707031 L 46.441406 167.398438 L 43.59375 178.03125 L 51.734375 186.167969 L 62.851562 183.199219 Z M 126.054688 175.457031 L 130.074219 179.476562 L 128.601562 184.96875 L 123.109375 186.441406 L 119.089844 182.421875 L 120.5625 176.929688 Z M 62.425781 144.800781 L 47.410156 129.789062 L 52.90625 109.277344 L 73.417969 103.78125 L 88.433594 118.796875 L 82.933594 139.308594 Z M 95.75 152.121094 L 105.886719 149.402344 L 113.328125 156.824219 L 110.609375 166.960938 L 100.464844 169.679688 L 93.039062 162.253906 Z M 12.035156 168.632812 L 10.5625 174.125 L 5.074219 175.59375 L 1.054688 171.574219 L 2.519531 166.078125 L 8.015625 164.605469 Z M 12.375 145.59375 L 4.949219 138.160156 L 7.667969 128.023438 L 17.804688 125.308594 L 25.242188 132.726562 L 22.523438 142.863281 Z M 44.5625 177.78125 L 47.28125 167.644531 L 57.417969 164.925781 L 64.84375 172.351562 L 62.125 182.488281 L 51.988281 185.207031 Z M 44.5625 177.78125 "/></g><g clip-rule="nonzero" clip-path="url(#c30c3de0ed)"><path style=" stroke:none;fill-rule:nonzero;fill:#5e17eb;fill-opacity:1;" d="M 131.1875 150.734375 L 132.921875 144.269531 L 128.53125 139.878906 L 131.152344 127.429688 L 141.769531 124.585938 L 144.738281 113.464844 L 136.964844 105.691406 L 142.558594 87.898438 L 163.582031 82.265625 L 169.21875 61.234375 L 172.574219 59.863281 L 172.574219 58.917969 L 168.953125 60.398438 L 153.613281 45.054688 L 132.613281 50.683594 L 118.664062 36.730469 L 124.289062 15.734375 L 108.558594 0.00390625 L 87.070312 5.769531 L 81.316406 27.257812 L 97.042969 42.984375 L 118.046875 37.347656 L 131.996094 51.300781 L 126.488281 71.855469 L 106.492188 81.105469 L 102.152344 76.765625 L 95.683594 78.5 L 93.953125 84.964844 L 98.6875 89.699219 L 105.152344 87.964844 L 106.765625 81.941406 L 126.761719 72.691406 L 141.730469 87.652344 L 136.136719 105.445312 L 125.492188 108.296875 L 122.523438 119.417969 L 130.316406 127.210938 L 127.695312 139.660156 L 121.730469 141.257812 L 119.996094 147.726562 L 124.730469 152.457031 Z M 97.308594 42 L 82.292969 26.984375 L 87.789062 6.472656 L 108.296875 0.976562 L 123.316406 15.996094 L 117.816406 36.507812 Z M 104.4375 87.25 L 98.945312 88.722656 L 94.925781 84.703125 L 96.398438 79.210938 L 101.890625 77.742188 L 105.910156 81.761719 Z M 127.335938 72.035156 L 132.832031 51.523438 L 153.347656 46.027344 L 168.363281 61.042969 L 162.867188 81.554688 L 142.359375 87.050781 Z M 123.480469 119.164062 L 126.195312 109.027344 L 136.34375 106.308594 L 143.769531 113.734375 L 141.046875 123.871094 L 130.910156 126.585938 Z M 120.953125 147.476562 L 122.425781 141.984375 L 127.917969 140.511719 L 131.9375 144.535156 L 130.464844 150.027344 L 124.972656 151.496094 Z M 157.160156 26.90625 L 165.300781 35.046875 L 172.574219 33.097656 L 172.574219 32.195312 L 165.5625 34.070312 L 158.136719 26.644531 L 160.855469 16.507812 L 171 13.78125 L 172.574219 15.355469 L 172.574219 14.121094 L 171.261719 12.804688 L 160.140625 15.777344 Z M 157.160156 26.90625 "/></g></g><mask id="e916d1c442"><g filter="url(#19467931ff)"><rect x="0" width="375" y="0" height="374.999991" style="fill:#000000;fill-opacity:0.31;stroke:none;"/></g></mask></g></g><path style=" stroke:none;fill-rule:nonzero;fill:#5e17eb;fill-opacity:1;" d="M 130.28125 47.441406 L 133.257812 36.320312 L 125.121094 28.183594 L 114 31.152344 L 111.03125 42.273438 L 119.167969 50.425781 Z M 111.996094 42.023438 L 114.714844 31.886719 L 124.851562 29.167969 L 132.277344 36.59375 L 129.558594 46.730469 L 119.421875 49.449219 Z M 111.996094 42.023438 "/><path style=" stroke:none;fill-rule:nonzero;fill:#5e17eb;fill-opacity:1;" d="M 44.007812 134.09375 L 35.867188 125.953125 L 24.746094 128.921875 L 21.777344 140.042969 L 29.914062 148.179688 L 41.035156 145.210938 Z M 22.742188 139.789062 L 25.460938 129.652344 L 35.597656 126.933594 L 43.023438 134.363281 L 40.308594 144.5 L 30.171875 147.21875 Z M 22.742188 139.789062 "/><path style=" stroke:none;fill-rule:nonzero;fill:#5e17eb;fill-opacity:1;" d="M 67.175781 141.910156 L 73.640625 140.179688 L 75.371094 133.710938 L 70.636719 128.976562 L 64.171875 130.710938 L 62.441406 137.175781 Z M 64.886719 131.425781 L 70.378906 129.945312 L 74.398438 133.964844 L 72.925781 139.457031 L 67.433594 140.929688 L 63.414062 136.910156 Z M 64.886719 131.425781 "/><path style=" stroke:none;fill-rule:nonzero;fill:#5e17eb;fill-opacity:1;" d="M 151.152344 43.730469 L 155.886719 48.464844 L 162.351562 46.734375 L 164.082031 40.269531 L 159.347656 35.535156 L 152.882812 37.265625 Z M 163.109375 40.527344 L 161.636719 46.019531 L 156.144531 47.492188 L 152.125 43.472656 L 153.597656 37.980469 L 159.089844 36.507812 Z M 163.109375 40.527344 "/><path style=" stroke:none;fill-rule:nonzero;fill:#5e17eb;fill-opacity:1;" d="M 150.695312 168.921875 L 155.429688 173.65625 L 161.894531 171.921875 L 163.628906 165.457031 L 158.894531 160.722656 L 152.429688 162.457031 Z M 162.652344 165.71875 L 161.183594 171.207031 L 155.691406 172.679688 L 151.667969 168.660156 L 153.140625 163.167969 L 158.632812 161.695312 Z M 162.652344 165.71875 "/><path style=" stroke:none;fill-rule:nonzero;fill:#5e17eb;fill-opacity:1;" d="M 31.707031 163.894531 L 26.976562 159.160156 L 20.507812 160.890625 L 18.773438 167.359375 L 23.507812 172.09375 L 29.976562 170.359375 Z M 19.75 167.097656 L 21.222656 161.605469 L 26.714844 160.132812 L 30.734375 164.152344 L 29.261719 169.644531 L 23.769531 171.117188 Z M 19.75 167.097656 "/><path style=" stroke:none;fill-rule:nonzero;fill:#5e17eb;fill-opacity:1;" d="M 75.371094 165.457031 L 70.636719 160.722656 L 64.171875 162.457031 L 62.441406 168.925781 L 67.175781 173.660156 L 73.640625 171.925781 Z M 63.414062 168.664062 L 64.886719 163.171875 L 70.378906 161.699219 L 74.398438 165.71875 L 72.925781 171.210938 L 67.433594 172.683594 Z M 63.414062 168.664062 "/><path style=" stroke:none;fill-rule:nonzero;fill:#5e17eb;fill-opacity:1;" d="M 129.359375 141.011719 L 136.046875 147.703125 L 145.183594 145.253906 L 147.628906 136.121094 L 140.941406 129.421875 L 131.804688 131.871094 Z M 146.660156 136.378906 L 144.472656 144.539062 L 136.308594 146.726562 L 130.332031 140.75 L 132.519531 132.589844 L 140.679688 130.402344 Z M 146.660156 136.378906 "/><path style=" stroke:none;fill-rule:nonzero;fill:#5e17eb;fill-opacity:1;" d="M 100.820312 161.28125 L 99.386719 166.632812 L 103.304688 170.550781 L 108.65625 169.117188 L 110.089844 163.765625 L 106.511719 160.191406 L 108.625 150.15625 L 117.257812 147.84375 L 119.703125 138.710938 L 113.390625 132.394531 L 117.914062 118.007812 L 135.007812 113.429688 L 139.59375 96.3125 L 152.351562 91.085938 L 158.65625 97.386719 L 167.792969 94.941406 L 170.238281 85.804688 L 163.550781 79.117188 L 154.902344 81.433594 L 145.582031 72.097656 L 147.898438 63.449219 L 141.210938 56.761719 L 132.074219 59.207031 L 129.628906 68.34375 L 136.3125 75.03125 L 144.960938 72.714844 L 154.289062 82.046875 L 152.09375 90.242188 L 139.335938 95.46875 L 126.855469 82.992188 L 109.777344 87.570312 L 98.492188 76.292969 L 103.070312 59.210938 L 90.207031 46.351562 L 72.640625 51.054688 L 67.929688 68.625 L 80.792969 81.484375 L 97.875 76.910156 L 109.15625 88.191406 L 104.695312 104.832031 L 88.507812 112.3125 L 84.984375 108.789062 L 79.632812 110.222656 L 78.199219 115.574219 L 82.117188 119.492188 L 87.476562 118.0625 L 88.792969 113.152344 L 104.972656 105.667969 L 117.074219 117.769531 L 112.550781 132.152344 L 103.890625 134.46875 L 101.441406 143.605469 L 107.785156 149.949219 L 105.667969 159.984375 Z M 109.117188 164.027344 L 107.945312 168.394531 L 103.574219 169.566406 L 100.367188 166.363281 L 101.542969 161.992188 L 105.917969 160.820312 Z M 136.570312 74.058594 L 130.601562 68.078125 L 132.789062 59.917969 L 140.941406 57.738281 L 146.925781 63.707031 L 144.738281 71.867188 Z M 155.132812 82.273438 L 163.292969 80.089844 L 169.265625 86.0625 L 167.078125 94.222656 L 158.925781 96.40625 L 152.949219 90.433594 Z M 81.046875 80.507812 L 68.902344 68.363281 L 73.347656 51.769531 L 89.949219 47.320312 L 102.097656 59.46875 L 97.652344 76.0625 Z M 86.761719 117.34375 L 82.390625 118.515625 L 79.1875 115.3125 L 80.359375 110.941406 L 84.730469 109.769531 L 87.933594 112.972656 Z M 105.550781 105.007812 L 110.003906 88.414062 L 126.609375 83.96875 L 138.753906 96.113281 L 134.300781 112.710938 L 117.695312 117.15625 Z M 102.414062 143.34375 L 104.605469 135.191406 L 112.765625 133.003906 L 118.746094 138.96875 L 116.558594 147.132812 L 108.394531 149.320312 Z M 102.414062 143.34375 "/><g clip-rule="nonzero" clip-path="url(#4b12597f40)"><g mask="url(#2d1ace20e1)" transform="matrix(1,0,0,1,172,0)"><g clip-path="url(#ea7b33378f)"><path style=" stroke:none;fill-rule:nonzero;fill:#5e17eb;fill-opacity:1;" d="M 45.707031 101.492188 L 51.464844 80.007812 L 35.734375 64.28125 L 14.25 70.035156 L 8.492188 91.523438 L 24.222656 107.253906 Z M 9.464844 91.261719 L 14.960938 70.75 L 35.472656 65.253906 L 50.488281 80.269531 L 44.992188 100.78125 L 24.484375 106.277344 Z M 9.464844 91.261719 "/><g clip-rule="nonzero" clip-path="url(#4294de2df0)"><path style=" stroke:none;fill-rule:nonzero;fill:#5e17eb;fill-opacity:1;" d="M 173.152344 122.339844 L 173.152344 121.433594 L 165.8125 123.402344 L 158.382812 115.976562 L 161.09375 105.828125 L 171.230469 103.109375 L 173.152344 105.023438 L 173.152344 103.785156 L 171.507812 102.140625 L 160.390625 105.113281 L 157.417969 116.230469 L 165.558594 124.371094 Z M 173.152344 122.339844 "/></g><g clip-rule="nonzero" clip-path="url(#1c24ebdd60)"><path style=" stroke:none;fill-rule:nonzero;fill:#5e17eb;fill-opacity:1;" d="M 66.277344 172.542969 L 93.011719 162.898438 L 100.777344 170.667969 L 111.40625 167.820312 L 120.292969 176.707031 L 118.695312 182.6875 L 123.425781 187.421875 L 129.894531 185.6875 L 131.625 179.222656 L 126.890625 174.488281 L 120.914062 176.085938 L 112.027344 167.199219 L 114.871094 156.566406 L 106.738281 148.421875 L 96.109375 151.273438 L 84.363281 139.527344 L 89.988281 118.53125 L 74.257812 102.800781 L 52.773438 108.558594 L 47.019531 130.042969 L 62.746094 145.773438 L 83.746094 140.148438 L 95.492188 151.894531 L 92.757812 162.058594 L 66.027344 171.707031 L 58.261719 163.941406 L 47.628906 166.789062 L 23.941406 143.097656 L 26.789062 132.464844 L 18.652344 124.328125 L 7.535156 127.296875 L 4.554688 138.417969 L 12.347656 146.207031 L 8.359375 163.757812 L 2.390625 165.359375 L 0.660156 171.824219 L 5.390625 176.558594 L 11.859375 174.824219 L 13.59375 168.359375 L 9.207031 163.972656 L 13.191406 146.421875 L 23.328125 143.707031 L 47.019531 167.398438 L 44.171875 178.03125 L 52.3125 186.167969 L 63.429688 183.199219 Z M 126.632812 175.457031 L 130.652344 179.476562 L 129.179688 184.96875 L 123.6875 186.441406 L 119.667969 182.421875 L 121.140625 176.929688 Z M 63.003906 144.800781 L 47.988281 129.789062 L 53.484375 109.277344 L 73.996094 103.78125 L 89.011719 118.796875 L 83.511719 139.308594 Z M 96.328125 152.121094 L 106.464844 149.402344 L 113.90625 156.824219 L 111.1875 166.960938 L 101.042969 169.679688 L 93.617188 162.253906 Z M 12.613281 168.632812 L 11.140625 174.125 L 5.652344 175.59375 L 1.632812 171.574219 L 3.097656 166.078125 L 8.59375 164.605469 Z M 12.953125 145.59375 L 5.527344 138.160156 L 8.246094 128.023438 L 18.382812 125.308594 L 25.820312 132.726562 L 23.101562 142.863281 Z M 45.140625 177.78125 L 47.859375 167.644531 L 57.996094 164.925781 L 65.421875 172.351562 L 62.703125 182.488281 L 52.566406 185.207031 Z M 45.140625 177.78125 "/></g><g clip-rule="nonzero" clip-path="url(#a1889848ca)"><path style=" stroke:none;fill-rule:nonzero;fill:#5e17eb;fill-opacity:1;" d="M 131.765625 150.734375 L 133.5 144.269531 L 129.109375 139.878906 L 131.730469 127.429688 L 142.347656 124.585938 L 145.316406 113.464844 L 137.542969 105.691406 L 143.136719 87.898438 L 164.160156 82.265625 L 169.796875 61.234375 L 173.152344 59.863281 L 173.152344 58.917969 L 169.53125 60.398438 L 154.191406 45.054688 L 133.191406 50.683594 L 119.242188 36.730469 L 124.867188 15.734375 L 109.136719 0.00390625 L 87.648438 5.769531 L 81.894531 27.257812 L 97.621094 42.984375 L 118.625 37.347656 L 132.574219 51.300781 L 127.066406 71.855469 L 107.070312 81.105469 L 102.730469 76.765625 L 96.261719 78.5 L 94.53125 84.964844 L 99.265625 89.699219 L 105.730469 87.964844 L 107.34375 81.941406 L 127.339844 72.691406 L 142.308594 87.652344 L 136.714844 105.445312 L 126.070312 108.296875 L 123.101562 119.417969 L 130.894531 127.210938 L 128.273438 139.660156 L 122.308594 141.257812 L 120.574219 147.726562 L 125.308594 152.457031 Z M 97.886719 42 L 82.871094 26.984375 L 88.367188 6.472656 L 108.875 0.976562 L 123.894531 15.996094 L 118.394531 36.507812 Z M 105.015625 87.25 L 99.523438 88.722656 L 95.503906 84.703125 L 96.976562 79.210938 L 102.46875 77.742188 L 106.488281 81.761719 Z M 127.914062 72.035156 L 133.410156 51.523438 L 153.925781 46.027344 L 168.941406 61.042969 L 163.445312 81.554688 L 142.9375 87.050781 Z M 124.058594 119.164062 L 126.773438 109.027344 L 136.921875 106.308594 L 144.347656 113.734375 L 141.625 123.871094 L 131.488281 126.585938 Z M 121.53125 147.476562 L 123.003906 141.984375 L 128.496094 140.511719 L 132.515625 144.535156 L 131.042969 150.027344 L 125.550781 151.496094 Z M 157.738281 26.90625 L 165.878906 35.046875 L 173.152344 33.097656 L 173.152344 32.195312 L 166.140625 34.070312 L 158.714844 26.644531 L 161.433594 16.507812 L 171.578125 13.78125 L 173.152344 15.355469 L 173.152344 14.121094 L 171.839844 12.804688 L 160.71875 15.777344 Z M 157.738281 26.90625 "/></g></g><mask id="2d1ace20e1"><g filter="url(#19467931ff)"><rect x="0" width="375" y="0" height="374.999991" style="fill:#000000;fill-opacity:0.31;stroke:none;"/></g></mask></g></g><path style=" stroke:none;fill-rule:nonzero;fill:#5e17eb;fill-opacity:1;" d="M 302.859375 47.441406 L 305.835938 36.320312 L 297.699219 28.183594 L 286.578125 31.152344 L 283.609375 42.273438 L 291.746094 50.425781 Z M 284.574219 42.023438 L 287.292969 31.886719 L 297.429688 29.167969 L 304.855469 36.59375 L 302.136719 46.730469 L 292 49.449219 Z M 284.574219 42.023438 "/><path style=" stroke:none;fill-rule:nonzero;fill:#5e17eb;fill-opacity:1;" d="M 216.585938 134.09375 L 208.445312 125.953125 L 197.324219 128.921875 L 194.355469 140.042969 L 202.492188 148.179688 L 213.613281 145.210938 Z M 195.320312 139.789062 L 198.039062 129.652344 L 208.175781 126.933594 L 215.601562 134.363281 L 212.886719 144.5 L 202.75 147.21875 Z M 195.320312 139.789062 "/><path style=" stroke:none;fill-rule:nonzero;fill:#5e17eb;fill-opacity:1;" d="M 239.753906 141.910156 L 246.21875 140.179688 L 247.949219 133.710938 L 243.214844 128.976562 L 236.75 130.710938 L 235.019531 137.175781 Z M 237.464844 131.425781 L 242.957031 129.945312 L 246.976562 133.964844 L 245.503906 139.457031 L 240.011719 140.929688 L 235.992188 136.910156 Z M 237.464844 131.425781 "/><path style=" stroke:none;fill-rule:nonzero;fill:#5e17eb;fill-opacity:1;" d="M 323.730469 43.730469 L 328.464844 48.464844 L 334.929688 46.734375 L 336.660156 40.269531 L 331.925781 35.535156 L 325.460938 37.265625 Z M 335.6875 40.527344 L 334.214844 46.019531 L 328.722656 47.492188 L 324.703125 43.472656 L 326.175781 37.980469 L 331.667969 36.507812 Z M 335.6875 40.527344 "/><path style=" stroke:none;fill-rule:nonzero;fill:#5e17eb;fill-opacity:1;" d="M 323.273438 168.921875 L 328.007812 173.65625 L 334.472656 171.921875 L 336.207031 165.457031 L 331.472656 160.722656 L 325.007812 162.457031 Z M 335.230469 165.71875 L 333.761719 171.207031 L 328.269531 172.679688 L 324.246094 168.660156 L 325.71875 163.167969 L 331.210938 161.695312 Z M 335.230469 165.71875 "/><path style=" stroke:none;fill-rule:nonzero;fill:#5e17eb;fill-opacity:1;" d="M 204.285156 163.894531 L 199.554688 159.160156 L 193.085938 160.890625 L 191.351562 167.359375 L 196.085938 172.09375 L 202.554688 170.359375 Z M 192.328125 167.097656 L 193.800781 161.605469 L 199.292969 160.132812 L 203.3125 164.152344 L 201.839844 169.644531 L 196.347656 171.117188 Z M 192.328125 167.097656 "/><path style=" stroke:none;fill-rule:nonzero;fill:#5e17eb;fill-opacity:1;" d="M 247.949219 165.457031 L 243.214844 160.722656 L 236.75 162.457031 L 235.019531 168.925781 L 239.753906 173.660156 L 246.21875 171.925781 Z M 235.992188 168.664062 L 237.464844 163.171875 L 242.957031 161.699219 L 246.976562 165.71875 L 245.503906 171.210938 L 240.011719 172.683594 Z M 235.992188 168.664062 "/><path style=" stroke:none;fill-rule:nonzero;fill:#5e17eb;fill-opacity:1;" d="M 301.9375 141.011719 L 308.625 147.703125 L 317.761719 145.253906 L 320.207031 136.121094 L 313.519531 129.421875 L 304.382812 131.871094 Z M 319.238281 136.378906 L 317.050781 144.539062 L 308.886719 146.726562 L 302.910156 140.75 L 305.097656 132.589844 L 313.257812 130.402344 Z M 319.238281 136.378906 "/><path style=" stroke:none;fill-rule:nonzero;fill:#5e17eb;fill-opacity:1;" d="M 273.398438 161.28125 L 271.964844 166.632812 L 275.882812 170.550781 L 281.234375 169.117188 L 282.667969 163.765625 L 279.089844 160.191406 L 281.203125 150.15625 L 289.835938 147.84375 L 292.28125 138.710938 L 285.96875 132.394531 L 290.492188 118.007812 L 307.585938 113.429688 L 312.171875 96.3125 L 324.929688 91.085938 L 331.234375 97.386719 L 340.371094 94.941406 L 342.816406 85.804688 L 336.128906 79.117188 L 327.480469 81.433594 L 318.160156 72.097656 L 320.476562 63.449219 L 313.789062 56.761719 L 304.652344 59.207031 L 302.207031 68.34375 L 308.890625 75.03125 L 317.539062 72.714844 L 326.867188 82.046875 L 324.671875 90.242188 L 311.914062 95.46875 L 299.433594 82.992188 L 282.355469 87.570312 L 271.070312 76.292969 L 275.648438 59.210938 L 262.785156 46.351562 L 245.21875 51.054688 L 240.507812 68.625 L 253.371094 81.484375 L 270.453125 76.910156 L 281.734375 88.191406 L 277.273438 104.832031 L 261.085938 112.3125 L 257.5625 108.789062 L 252.210938 110.222656 L 250.777344 115.574219 L 254.695312 119.492188 L 260.054688 118.0625 L 261.371094 113.152344 L 277.550781 105.667969 L 289.652344 117.769531 L 285.128906 132.152344 L 276.46875 134.46875 L 274.019531 143.605469 L 280.363281 149.949219 L 278.246094 159.984375 Z M 281.695312 164.027344 L 280.523438 168.394531 L 276.152344 169.566406 L 272.945312 166.363281 L 274.121094 161.992188 L 278.496094 160.820312 Z M 309.148438 74.058594 L 303.179688 68.078125 L 305.367188 59.917969 L 313.519531 57.738281 L 319.503906 63.707031 L 317.316406 71.867188 Z M 327.710938 82.273438 L 335.871094 80.089844 L 341.84375 86.0625 L 339.65625 94.222656 L 331.503906 96.40625 L 325.527344 90.433594 Z M 253.625 80.507812 L 241.480469 68.363281 L 245.925781 51.769531 L 262.527344 47.320312 L 274.675781 59.46875 L 270.230469 76.0625 Z M 259.339844 117.34375 L 254.96875 118.515625 L 251.765625 115.3125 L 252.9375 110.941406 L 257.308594 109.769531 L 260.511719 112.972656 Z M 278.128906 105.007812 L 282.582031 88.414062 L 299.1875 83.96875 L 311.332031 96.113281 L 306.878906 112.710938 L 290.273438 117.15625 Z M 274.992188 143.34375 L 277.183594 135.191406 L 285.34375 133.003906 L 291.324219 138.96875 L 289.136719 147.132812 L 280.972656 149.320312 Z M 274.992188 143.34375 "/><g clip-rule="nonzero" clip-path="url(#ec76938f73)"><g mask="url(#23f20fd082)" transform="matrix(1,0,0,1,0,182)"><g clip-path="url(#8e57232691)"><path style=" stroke:none;fill-rule:nonzero;fill:#5e17eb;fill-opacity:1;" d="M 45.128906 101.984375 L 50.886719 80.5 L 35.15625 64.769531 L 13.671875 70.527344 L 7.914062 92.015625 L 23.644531 107.742188 Z M 8.886719 91.753906 L 14.382812 71.242188 L 34.894531 65.746094 L 49.910156 80.761719 L 44.414062 101.273438 L 23.90625 106.765625 Z M 8.886719 91.753906 "/><g clip-rule="nonzero" clip-path="url(#c6da3f805d)"><path style=" stroke:none;fill-rule:nonzero;fill:#5e17eb;fill-opacity:1;" d="M 172.574219 122.832031 L 172.574219 121.925781 L 165.234375 123.894531 L 157.804688 116.46875 L 160.515625 106.320312 L 170.652344 103.601562 L 172.574219 105.511719 L 172.574219 104.277344 L 170.929688 102.632812 L 159.8125 105.601562 L 156.839844 116.722656 L 164.980469 124.863281 Z M 172.574219 122.832031 "/></g><g clip-rule="nonzero" clip-path="url(#bab1be4eeb)"><path style=" stroke:none;fill-rule:nonzero;fill:#5e17eb;fill-opacity:1;" d="M 65.699219 173.03125 L 92.433594 163.386719 L 100.199219 171.160156 L 110.828125 168.3125 L 119.714844 177.199219 L 118.117188 183.179688 L 122.847656 187.910156 L 129.316406 186.179688 L 131.046875 179.714844 L 126.3125 174.976562 L 120.335938 176.578125 L 111.449219 167.691406 L 114.292969 157.058594 L 106.160156 148.914062 L 95.53125 151.761719 L 83.785156 140.019531 L 89.410156 119.023438 L 73.679688 103.292969 L 52.195312 109.050781 L 46.441406 130.535156 L 62.167969 146.265625 L 83.167969 140.640625 L 94.914062 152.382812 L 92.179688 162.546875 L 65.449219 172.195312 L 57.683594 164.429688 L 47.050781 167.28125 L 23.363281 143.585938 L 26.210938 132.957031 L 18.074219 124.816406 L 6.957031 127.789062 L 3.976562 138.90625 L 11.769531 146.699219 L 7.78125 164.25 L 1.8125 165.847656 L 0.0820312 172.316406 L 4.8125 177.050781 L 11.28125 175.316406 L 13.015625 168.847656 L 8.628906 164.464844 L 12.613281 146.914062 L 22.75 144.199219 L 46.441406 167.890625 L 43.59375 178.519531 L 51.734375 186.660156 L 62.851562 183.6875 Z M 126.054688 175.945312 L 130.074219 179.964844 L 128.601562 185.460938 L 123.109375 186.929688 L 119.089844 182.910156 L 120.5625 177.421875 Z M 62.425781 145.292969 L 47.410156 130.277344 L 52.90625 109.769531 L 73.417969 104.273438 L 88.433594 119.289062 L 82.933594 139.796875 Z M 95.75 152.613281 L 105.886719 149.894531 L 113.328125 157.316406 L 110.609375 167.453125 L 100.464844 170.171875 L 93.039062 162.746094 Z M 12.035156 169.125 L 10.5625 174.613281 L 5.074219 176.085938 L 1.054688 172.066406 L 2.519531 166.570312 L 8.015625 165.097656 Z M 12.375 146.085938 L 4.949219 138.652344 L 7.667969 128.515625 L 17.804688 125.796875 L 25.242188 133.214844 L 22.523438 143.351562 Z M 44.5625 178.273438 L 47.28125 168.136719 L 57.417969 165.417969 L 64.84375 172.84375 L 62.125 182.980469 L 51.988281 185.695312 Z M 44.5625 178.273438 "/></g><g clip-rule="nonzero" clip-path="url(#19e6b83525)"><path style=" stroke:none;fill-rule:nonzero;fill:#5e17eb;fill-opacity:1;" d="M 131.1875 151.226562 L 132.921875 144.757812 L 128.53125 140.371094 L 131.152344 127.917969 L 141.769531 125.074219 L 144.738281 113.957031 L 136.964844 106.183594 L 142.558594 88.386719 L 163.582031 82.757812 L 169.21875 61.726562 L 172.574219 60.355469 L 172.574219 59.410156 L 168.953125 60.890625 L 153.613281 45.546875 L 132.613281 51.171875 L 118.664062 37.222656 L 124.289062 16.222656 L 108.558594 0.496094 L 87.070312 6.261719 L 81.316406 27.746094 L 97.042969 43.476562 L 118.046875 37.839844 L 131.996094 51.789062 L 126.488281 72.347656 L 106.492188 81.597656 L 102.152344 77.257812 L 95.683594 78.988281 L 93.953125 85.457031 L 98.6875 90.191406 L 105.152344 88.457031 L 106.765625 82.433594 L 126.761719 73.183594 L 141.730469 88.144531 L 136.136719 105.9375 L 125.492188 108.789062 L 122.523438 119.90625 L 130.316406 127.703125 L 127.695312 140.152344 L 121.730469 141.75 L 119.996094 148.214844 L 124.730469 152.949219 Z M 97.308594 42.492188 L 82.292969 27.472656 L 87.789062 6.964844 L 108.296875 1.46875 L 123.316406 16.488281 L 117.816406 36.996094 Z M 104.4375 87.742188 L 98.945312 89.214844 L 94.925781 85.195312 L 96.398438 79.703125 L 101.890625 78.230469 L 105.910156 82.25 Z M 127.335938 72.523438 L 132.832031 52.015625 L 153.347656 46.519531 L 168.363281 61.535156 L 162.867188 82.046875 L 142.359375 87.539062 Z M 123.480469 119.65625 L 126.195312 109.519531 L 136.34375 106.796875 L 143.769531 114.222656 L 141.046875 124.359375 L 130.910156 127.078125 Z M 120.953125 147.96875 L 122.425781 142.476562 L 127.917969 141.003906 L 131.9375 145.023438 L 130.464844 150.515625 L 124.972656 151.988281 Z M 157.160156 27.398438 L 165.300781 35.535156 L 172.574219 33.589844 L 172.574219 32.683594 L 165.5625 34.5625 L 158.136719 27.136719 L 160.855469 17 L 171 14.273438 L 172.574219 15.847656 L 172.574219 14.609375 L 171.261719 13.296875 L 160.140625 16.269531 Z M 157.160156 27.398438 "/></g></g><mask id="23f20fd082"><g filter="url(#19467931ff)"><rect x="0" width="375" y="0" height="374.999991" style="fill:#000000;fill-opacity:0.31;stroke:none;"/></g></mask></g></g><path style=" stroke:none;fill-rule:nonzero;fill:#5e17eb;fill-opacity:1;" d="M 130.28125 229.929688 L 133.257812 218.8125 L 125.121094 210.671875 L 114 213.644531 L 111.03125 224.761719 L 119.167969 232.917969 Z M 111.996094 224.511719 L 114.714844 214.375 L 124.851562 211.660156 L 132.277344 219.085938 L 129.558594 229.222656 L 119.421875 231.941406 Z M 111.996094 224.511719 "/><path style=" stroke:none;fill-rule:nonzero;fill:#5e17eb;fill-opacity:1;" d="M 44.007812 316.582031 L 35.867188 308.441406 L 24.746094 311.414062 L 21.777344 322.53125 L 29.914062 330.671875 L 41.035156 327.699219 Z M 22.742188 322.28125 L 25.460938 312.144531 L 35.597656 309.425781 L 43.023438 316.851562 L 40.308594 326.988281 L 30.171875 329.707031 Z M 22.742188 322.28125 "/><path style=" stroke:none;fill-rule:nonzero;fill:#5e17eb;fill-opacity:1;" d="M 67.175781 324.402344 L 73.640625 322.667969 L 75.371094 316.203125 L 70.636719 311.46875 L 64.171875 313.203125 L 62.441406 319.667969 Z M 64.886719 313.917969 L 70.378906 312.4375 L 74.398438 316.457031 L 72.925781 321.949219 L 67.433594 323.421875 L 63.414062 319.402344 Z M 64.886719 313.917969 "/><path style=" stroke:none;fill-rule:nonzero;fill:#5e17eb;fill-opacity:1;" d="M 151.152344 226.222656 L 155.886719 230.957031 L 162.351562 229.226562 L 164.082031 222.757812 L 159.347656 218.023438 L 152.882812 219.757812 Z M 163.109375 223.019531 L 161.636719 228.511719 L 156.144531 229.980469 L 152.125 225.960938 L 153.597656 220.472656 L 159.089844 219 Z M 163.109375 223.019531 "/><path style=" stroke:none;fill-rule:nonzero;fill:#5e17eb;fill-opacity:1;" d="M 150.695312 351.410156 L 155.429688 356.148438 L 161.894531 354.414062 L 163.628906 347.945312 L 158.894531 343.214844 L 152.429688 344.949219 Z M 162.652344 348.207031 L 161.183594 353.699219 L 155.691406 355.171875 L 151.667969 351.152344 L 153.140625 345.660156 L 158.632812 344.1875 Z M 162.652344 348.207031 "/><path style=" stroke:none;fill-rule:nonzero;fill:#5e17eb;fill-opacity:1;" d="M 31.707031 346.382812 L 26.976562 341.652344 L 20.507812 343.382812 L 18.773438 349.847656 L 23.507812 354.585938 L 29.976562 352.851562 Z M 19.75 349.589844 L 21.222656 344.097656 L 26.714844 342.625 L 30.734375 346.644531 L 29.261719 352.136719 L 23.769531 353.605469 Z M 19.75 349.589844 "/><path style=" stroke:none;fill-rule:nonzero;fill:#5e17eb;fill-opacity:1;" d="M 75.371094 347.949219 L 70.636719 343.214844 L 64.171875 344.949219 L 62.441406 351.414062 L 67.175781 356.148438 L 73.640625 354.417969 Z M 63.414062 351.15625 L 64.886719 345.660156 L 70.378906 344.191406 L 74.398438 348.210938 L 72.925781 353.703125 L 67.433594 355.171875 Z M 63.414062 351.15625 "/><path style=" stroke:none;fill-rule:nonzero;fill:#5e17eb;fill-opacity:1;" d="M 129.359375 323.503906 L 136.046875 330.191406 L 145.183594 327.746094 L 147.628906 318.609375 L 140.941406 311.914062 L 131.804688 314.359375 Z M 146.660156 318.871094 L 144.472656 327.03125 L 136.308594 329.214844 L 130.332031 323.242188 L 132.519531 315.082031 L 140.679688 312.894531 Z M 146.660156 318.871094 "/><path style=" stroke:none;fill-rule:nonzero;fill:#5e17eb;fill-opacity:1;" d="M 100.820312 343.773438 L 99.386719 349.125 L 103.304688 353.039062 L 108.65625 351.609375 L 110.089844 346.257812 L 106.511719 342.683594 L 108.625 332.648438 L 117.257812 330.335938 L 119.703125 321.199219 L 113.390625 314.882812 L 117.914062 300.5 L 135.007812 295.921875 L 139.59375 278.804688 L 152.351562 273.578125 L 158.65625 279.878906 L 167.792969 277.433594 L 170.238281 268.296875 L 163.550781 261.609375 L 154.902344 263.925781 L 145.582031 254.589844 L 147.898438 245.941406 L 141.210938 239.253906 L 132.074219 241.699219 L 129.628906 250.835938 L 136.3125 257.519531 L 144.960938 255.207031 L 154.289062 264.539062 L 152.09375 272.734375 L 139.335938 277.960938 L 126.855469 265.484375 L 109.777344 270.0625 L 98.492188 258.78125 L 103.070312 241.699219 L 90.207031 228.839844 L 72.640625 233.546875 L 67.929688 251.117188 L 80.792969 263.976562 L 97.875 259.398438 L 109.15625 270.679688 L 104.695312 287.320312 L 88.507812 294.800781 L 84.984375 291.277344 L 79.632812 292.714844 L 78.199219 298.066406 L 82.117188 301.980469 L 87.476562 300.554688 L 88.792969 295.640625 L 104.972656 288.160156 L 117.074219 300.257812 L 112.550781 314.644531 L 103.890625 316.960938 L 101.441406 326.097656 L 107.785156 332.4375 L 105.667969 342.472656 Z M 109.117188 346.515625 L 107.945312 350.886719 L 103.574219 352.058594 L 100.367188 348.851562 L 101.542969 344.484375 L 105.917969 343.3125 Z M 136.570312 256.550781 L 130.601562 250.570312 L 132.789062 242.410156 L 140.941406 240.230469 L 146.925781 246.199219 L 144.738281 254.359375 Z M 155.132812 264.765625 L 163.292969 262.578125 L 169.265625 268.550781 L 167.078125 276.714844 L 158.925781 278.898438 L 152.949219 272.921875 Z M 81.046875 263 L 68.902344 250.851562 L 73.347656 234.257812 L 89.949219 229.8125 L 102.097656 241.960938 L 97.652344 258.554688 Z M 86.761719 299.835938 L 82.390625 301.007812 L 79.1875 297.800781 L 80.359375 293.433594 L 84.730469 292.261719 L 87.933594 295.464844 Z M 105.550781 287.496094 L 110.003906 270.90625 L 126.609375 266.457031 L 138.753906 278.605469 L 134.300781 295.199219 L 117.695312 299.644531 Z M 102.414062 325.835938 L 104.605469 317.679688 L 112.765625 315.496094 L 118.746094 321.460938 L 116.558594 329.625 L 108.394531 331.808594 Z M 102.414062 325.835938 "/><g clip-rule="nonzero" clip-path="url(#0c29cecc56)"><g mask="url(#fe4e69d488)" transform="matrix(1,0,0,1,164,187)"><g clip-path="url(#94c89a3033)"><path style=" stroke:none;fill-rule:nonzero;fill:#5e17eb;fill-opacity:1;" d="M 46.050781 101.992188 L 51.808594 80.507812 L 36.078125 64.78125 L 14.59375 70.535156 L 8.835938 92.023438 L 24.566406 107.753906 Z M 9.808594 91.761719 L 15.304688 71.25 L 35.816406 65.753906 L 50.832031 80.769531 L 45.335938 101.28125 L 24.828125 106.777344 Z M 9.808594 91.761719 "/><g clip-rule="nonzero" clip-path="url(#feea93cace)"><path style=" stroke:none;fill-rule:nonzero;fill:#5e17eb;fill-opacity:1;" d="M 173.496094 122.839844 L 173.496094 121.933594 L 166.15625 123.902344 L 158.726562 116.476562 L 161.4375 106.328125 L 171.574219 103.609375 L 173.496094 105.523438 L 173.496094 104.285156 L 171.851562 102.640625 L 160.734375 105.613281 L 157.761719 116.730469 L 165.902344 124.871094 Z M 173.496094 122.839844 "/></g><g clip-rule="nonzero" clip-path="url(#307a333cb7)"><path style=" stroke:none;fill-rule:nonzero;fill:#5e17eb;fill-opacity:1;" d="M 66.621094 173.042969 L 93.355469 163.398438 L 101.121094 171.167969 L 111.75 168.320312 L 120.636719 177.207031 L 119.039062 183.1875 L 123.769531 187.921875 L 130.238281 186.1875 L 131.96875 179.722656 L 127.234375 174.988281 L 121.257812 176.585938 L 112.371094 167.699219 L 115.214844 157.066406 L 107.082031 148.921875 L 96.453125 151.773438 L 84.707031 140.027344 L 90.332031 119.03125 L 74.601562 103.300781 L 53.117188 109.058594 L 47.363281 130.542969 L 63.089844 146.273438 L 84.089844 140.648438 L 95.835938 152.394531 L 93.101562 162.558594 L 66.371094 172.207031 L 58.605469 164.441406 L 47.972656 167.289062 L 24.285156 143.597656 L 27.132812 132.964844 L 18.996094 124.828125 L 7.878906 127.796875 L 4.898438 138.917969 L 12.691406 146.707031 L 8.703125 164.257812 L 2.734375 165.855469 L 1.003906 172.324219 L 5.734375 177.058594 L 12.203125 175.324219 L 13.9375 168.859375 L 9.550781 164.472656 L 13.535156 146.921875 L 23.671875 144.207031 L 47.363281 167.898438 L 44.515625 178.53125 L 52.65625 186.667969 L 63.773438 183.699219 Z M 126.976562 175.957031 L 130.996094 179.976562 L 129.523438 185.46875 L 124.03125 186.941406 L 120.011719 182.921875 L 121.484375 177.429688 Z M 63.347656 145.300781 L 48.332031 130.289062 L 53.828125 109.777344 L 74.339844 104.28125 L 89.355469 119.296875 L 83.855469 139.808594 Z M 96.671875 152.621094 L 106.808594 149.902344 L 114.25 157.324219 L 111.53125 167.460938 L 101.386719 170.179688 L 93.960938 162.753906 Z M 12.957031 169.132812 L 11.484375 174.625 L 5.996094 176.09375 L 1.976562 172.074219 L 3.441406 166.578125 L 8.9375 165.105469 Z M 13.296875 146.09375 L 5.871094 138.660156 L 8.589844 128.523438 L 18.726562 125.808594 L 26.164062 133.226562 L 23.445312 143.363281 Z M 45.484375 178.28125 L 48.203125 168.144531 L 58.339844 165.425781 L 65.765625 172.851562 L 63.046875 182.988281 L 52.910156 185.707031 Z M 45.484375 178.28125 "/></g><g clip-rule="nonzero" clip-path="url(#dc0c91b9a1)"><path style=" stroke:none;fill-rule:nonzero;fill:#5e17eb;fill-opacity:1;" d="M 132.109375 151.234375 L 133.84375 144.769531 L 129.453125 140.378906 L 132.074219 127.929688 L 142.691406 125.085938 L 145.660156 113.964844 L 137.886719 106.191406 L 143.480469 88.398438 L 164.503906 82.765625 L 170.140625 61.734375 L 173.496094 60.363281 L 173.496094 59.417969 L 169.875 60.898438 L 154.535156 45.554688 L 133.535156 51.183594 L 119.585938 37.230469 L 125.210938 16.234375 L 109.480469 0.503906 L 87.992188 6.269531 L 82.238281 27.757812 L 97.964844 43.484375 L 118.96875 37.847656 L 132.917969 51.800781 L 127.410156 72.355469 L 107.414062 81.605469 L 103.074219 77.265625 L 96.605469 79 L 94.875 85.464844 L 99.609375 90.199219 L 106.074219 88.464844 L 107.6875 82.441406 L 127.683594 73.191406 L 142.652344 88.152344 L 137.058594 105.945312 L 126.414062 108.796875 L 123.445312 119.917969 L 131.238281 127.710938 L 128.617188 140.160156 L 122.652344 141.757812 L 120.917969 148.226562 L 125.652344 152.957031 Z M 98.230469 42.5 L 83.214844 27.484375 L 88.710938 6.972656 L 109.21875 1.476562 L 124.238281 16.496094 L 118.738281 37.007812 Z M 105.359375 87.75 L 99.867188 89.222656 L 95.847656 85.203125 L 97.320312 79.710938 L 102.8125 78.242188 L 106.832031 82.261719 Z M 128.257812 72.535156 L 133.753906 52.023438 L 154.269531 46.527344 L 169.285156 61.542969 L 163.789062 82.054688 L 143.28125 87.550781 Z M 124.402344 119.664062 L 127.117188 109.527344 L 137.265625 106.808594 L 144.691406 114.234375 L 141.972656 124.371094 L 131.832031 127.085938 Z M 121.875 147.976562 L 123.347656 142.484375 L 128.839844 141.011719 L 132.859375 145.035156 L 131.386719 150.527344 L 125.894531 151.996094 Z M 158.082031 27.40625 L 166.222656 35.546875 L 173.496094 33.597656 L 173.496094 32.691406 L 166.484375 34.570312 L 159.058594 27.144531 L 161.777344 17.007812 L 171.921875 14.28125 L 173.496094 15.855469 L 173.496094 14.621094 L 172.183594 13.304688 L 161.0625 16.277344 Z M 158.082031 27.40625 "/></g></g><mask id="fe4e69d488"><g filter="url(#19467931ff)"><rect x="0" width="375" y="0" height="374.999991" style="fill:#000000;fill-opacity:0.31;stroke:none;"/></g></mask></g></g><path style=" stroke:none;fill-rule:nonzero;fill:#5e17eb;fill-opacity:1;" d="M 295.203125 234.941406 L 298.179688 223.820312 L 290.042969 215.683594 L 278.921875 218.652344 L 275.953125 229.773438 L 284.089844 237.925781 Z M 276.917969 229.523438 L 279.636719 219.386719 L 289.773438 216.667969 L 297.199219 224.09375 L 294.480469 234.230469 L 284.34375 236.949219 Z M 276.917969 229.523438 "/><path style=" stroke:none;fill-rule:nonzero;fill:#5e17eb;fill-opacity:1;" d="M 208.929688 321.59375 L 200.789062 313.453125 L 189.667969 316.421875 L 186.699219 327.542969 L 194.835938 335.679688 L 205.957031 332.710938 Z M 187.664062 327.289062 L 190.382812 317.152344 L 200.519531 314.433594 L 207.945312 321.863281 L 205.230469 332 L 195.09375 334.71875 Z M 187.664062 327.289062 "/><path style=" stroke:none;fill-rule:nonzero;fill:#5e17eb;fill-opacity:1;" d="M 232.097656 329.410156 L 238.5625 327.679688 L 240.292969 321.210938 L 235.558594 316.476562 L 229.09375 318.210938 L 227.363281 324.675781 Z M 229.808594 318.925781 L 235.300781 317.445312 L 239.320312 321.464844 L 237.847656 326.957031 L 232.355469 328.429688 L 228.335938 324.410156 Z M 229.808594 318.925781 "/><path style=" stroke:none;fill-rule:nonzero;fill:#5e17eb;fill-opacity:1;" d="M 316.074219 231.230469 L 320.808594 235.964844 L 327.273438 234.234375 L 329.003906 227.769531 L 324.269531 223.035156 L 317.804688 224.765625 Z M 328.03125 228.027344 L 326.558594 233.519531 L 321.066406 234.992188 L 317.046875 230.972656 L 318.519531 225.480469 L 324.011719 224.007812 Z M 328.03125 228.027344 "/><path style=" stroke:none;fill-rule:nonzero;fill:#5e17eb;fill-opacity:1;" d="M 315.617188 356.421875 L 320.351562 361.15625 L 326.816406 359.421875 L 328.550781 352.957031 L 323.816406 348.222656 L 317.351562 349.957031 Z M 327.574219 353.21875 L 326.105469 358.707031 L 320.613281 360.179688 L 316.589844 356.160156 L 318.0625 350.667969 L 323.554688 349.195312 Z M 327.574219 353.21875 "/><path style=" stroke:none;fill-rule:nonzero;fill:#5e17eb;fill-opacity:1;" d="M 196.628906 351.394531 L 191.898438 346.660156 L 185.429688 348.390625 L 183.695312 354.859375 L 188.429688 359.59375 L 194.898438 357.859375 Z M 184.671875 354.597656 L 186.144531 349.105469 L 191.636719 347.632812 L 195.65625 351.652344 L 194.183594 357.144531 L 188.691406 358.617188 Z M 184.671875 354.597656 "/><path style=" stroke:none;fill-rule:nonzero;fill:#5e17eb;fill-opacity:1;" d="M 240.292969 352.957031 L 235.558594 348.222656 L 229.09375 349.957031 L 227.363281 356.425781 L 232.097656 361.160156 L 238.5625 359.425781 Z M 228.335938 356.164062 L 229.808594 350.671875 L 235.300781 349.199219 L 239.320312 353.21875 L 237.847656 358.710938 L 232.355469 360.183594 Z M 228.335938 356.164062 "/><path style=" stroke:none;fill-rule:nonzero;fill:#5e17eb;fill-opacity:1;" d="M 294.28125 328.511719 L 300.96875 335.203125 L 310.105469 332.753906 L 312.550781 323.621094 L 305.863281 316.921875 L 296.726562 319.371094 Z M 311.582031 323.878906 L 309.394531 332.039062 L 301.230469 334.226562 L 295.253906 328.25 L 297.441406 320.089844 L 305.601562 317.902344 Z M 311.582031 323.878906 "/><path style=" stroke:none;fill-rule:nonzero;fill:#5e17eb;fill-opacity:1;" d="M 265.742188 348.78125 L 264.308594 354.132812 L 268.226562 358.050781 L 273.578125 356.617188 L 275.011719 351.265625 L 271.433594 347.691406 L 273.546875 337.65625 L 282.179688 335.34375 L 284.625 326.210938 L 278.3125 319.894531 L 282.835938 305.507812 L 299.929688 300.929688 L 304.515625 283.8125 L 317.273438 278.585938 L 323.578125 284.886719 L 332.714844 282.441406 L 335.160156 273.304688 L 328.472656 266.617188 L 319.824219 268.933594 L 310.503906 259.597656 L 312.820312 250.949219 L 306.132812 244.261719 L 296.996094 246.707031 L 294.550781 255.84375 L 301.234375 262.53125 L 309.882812 260.214844 L 319.210938 269.546875 L 317.015625 277.742188 L 304.257812 282.96875 L 291.777344 270.492188 L 274.699219 275.070312 L 263.414062 263.792969 L 267.992188 246.710938 L 255.128906 233.851562 L 237.5625 238.554688 L 232.851562 256.125 L 245.714844 268.984375 L 262.796875 264.410156 L 274.078125 275.691406 L 269.617188 292.332031 L 253.429688 299.8125 L 249.90625 296.289062 L 244.554688 297.722656 L 243.121094 303.074219 L 247.039062 306.988281 L 252.398438 305.5625 L 253.714844 300.652344 L 269.894531 293.167969 L 281.996094 305.269531 L 277.472656 319.652344 L 268.8125 321.96875 L 266.363281 331.105469 L 272.707031 337.449219 L 270.589844 347.484375 Z M 274.039062 351.527344 L 272.867188 355.894531 L 268.496094 357.066406 L 265.289062 353.863281 L 266.464844 349.492188 L 270.839844 348.320312 Z M 301.492188 261.558594 L 295.523438 255.578125 L 297.710938 247.417969 L 305.863281 245.238281 L 311.847656 251.207031 L 309.660156 259.367188 Z M 320.054688 269.773438 L 328.214844 267.585938 L 334.1875 273.5625 L 332 281.722656 L 323.847656 283.90625 L 317.871094 277.933594 Z M 245.96875 268.007812 L 233.824219 255.863281 L 238.269531 239.269531 L 254.871094 234.820312 L 267.019531 246.96875 L 262.574219 263.5625 Z M 251.683594 304.84375 L 247.3125 306.015625 L 244.109375 302.8125 L 245.28125 298.441406 L 249.652344 297.269531 L 252.855469 300.472656 Z M 270.472656 292.507812 L 274.925781 275.914062 L 291.53125 271.46875 L 303.675781 283.613281 L 299.222656 300.210938 L 282.617188 304.65625 Z M 267.335938 330.84375 L 269.527344 322.691406 L 277.6875 320.503906 L 283.667969 326.46875 L 281.480469 334.632812 L 273.316406 336.820312 Z M 267.335938 330.84375 "/><g clip-rule="nonzero" clip-path="url(#41c04b04ec)"><g mask="url(#7f9259b5b3)" transform="matrix(1,0,0,1,337,68)"><g clip-path="url(#0be9722ac2)"><g clip-rule="nonzero" clip-path="url(#a48408e0d5)"><path style=" stroke:none;fill-rule:nonzero;fill:#5e17eb;fill-opacity:1;" d="M 45.628906 37.789062 L 51.386719 16.304688 L 35.65625 0.574219 L 14.171875 6.332031 L 8.414062 27.816406 L 24.144531 43.546875 Z M 9.386719 27.554688 L 14.882812 7.046875 L 35.394531 1.546875 L 50.410156 16.5625 L 44.914062 37.074219 L 24.40625 42.570312 Z M 9.386719 27.554688 "/></g><g clip-rule="nonzero" clip-path="url(#e0b96e1fc4)"><path style=" stroke:none;fill-rule:nonzero;fill:#5e17eb;fill-opacity:1;" d="M 66.199219 108.835938 L 92.933594 99.191406 L 100.699219 106.960938 L 111.328125 104.113281 L 120.214844 113 L 118.617188 118.980469 L 123.347656 123.714844 L 129.816406 121.980469 L 131.546875 115.515625 L 126.8125 110.78125 L 120.835938 112.378906 L 111.949219 103.492188 L 114.792969 92.863281 L 106.660156 84.71875 L 96.03125 87.566406 L 84.285156 75.820312 L 89.910156 54.824219 L 74.179688 39.09375 L 52.695312 44.851562 L 46.941406 66.339844 L 62.667969 82.066406 L 83.667969 76.441406 L 95.414062 88.1875 L 92.679688 98.351562 L 65.949219 108 L 58.183594 100.234375 L 47.550781 103.082031 L 23.863281 79.390625 L 26.710938 68.757812 L 18.574219 60.621094 L 7.457031 63.589844 L 4.476562 74.710938 L 12.269531 82.5 L 8.28125 100.050781 L 2.3125 101.652344 L 0.582031 108.117188 L 5.3125 112.851562 L 11.78125 111.117188 L 13.515625 104.652344 L 9.128906 100.265625 L 13.113281 82.714844 L 23.25 80 L 46.941406 103.691406 L 44.09375 114.324219 L 52.234375 122.460938 L 63.351562 119.492188 Z M 126.554688 111.75 L 130.574219 115.769531 L 129.101562 121.261719 L 123.609375 122.734375 L 119.589844 118.714844 L 121.0625 113.222656 Z M 62.925781 81.097656 L 47.910156 66.082031 L 53.40625 45.570312 L 73.917969 40.074219 L 88.933594 55.089844 L 83.433594 75.601562 Z M 96.25 88.414062 L 106.386719 85.699219 L 113.828125 93.117188 L 111.109375 103.253906 L 100.964844 105.972656 L 93.539062 98.546875 Z M 12.535156 104.925781 L 11.0625 110.417969 L 5.574219 111.890625 L 1.554688 107.871094 L 3.019531 102.371094 L 8.515625 100.898438 Z M 12.875 81.886719 L 5.449219 74.453125 L 8.167969 64.316406 L 18.304688 61.601562 L 25.742188 69.019531 L 23.023438 79.15625 Z M 45.0625 114.074219 L 47.78125 103.9375 L 57.917969 101.21875 L 65.34375 108.644531 L 62.625 118.78125 L 52.488281 121.5 Z M 45.0625 114.074219 "/></g></g><mask id="7f9259b5b3"><g filter="url(#19467931ff)"><rect x="0" width="375" y="0" height="374.999991" style="fill:#000000;fill-opacity:0.31;stroke:none;"/></g></mask></g></g><path style=" stroke:none;fill-rule:nonzero;fill:#5e17eb;fill-opacity:1;" d="M 381.507812 138.386719 L 373.367188 130.246094 L 362.246094 133.214844 L 359.277344 144.335938 L 367.414062 152.472656 L 378.535156 149.503906 Z M 360.242188 144.082031 L 362.960938 133.945312 L 373.097656 131.230469 L 380.523438 138.65625 L 377.808594 148.792969 L 367.671875 151.511719 Z M 360.242188 144.082031 "/><path style=" stroke:none;fill-rule:nonzero;fill:#5e17eb;fill-opacity:1;" d="M 369.207031 168.1875 L 364.476562 163.453125 L 358.007812 165.183594 L 356.273438 171.652344 L 361.007812 176.386719 L 367.476562 174.652344 Z M 357.25 171.390625 L 358.722656 165.898438 L 364.214844 164.425781 L 368.234375 168.445312 L 366.761719 173.9375 L 361.269531 175.410156 Z M 357.25 171.390625 "/><g clip-rule="nonzero" clip-path="url(#96dfa5beb2)"><g mask="url(#45e0814155)" transform="matrix(1,0,0,1,337,251)"><g clip-path="url(#efb6dd0c34)"><g clip-rule="nonzero" clip-path="url(#e6184414a9)"><path style=" stroke:none;fill-rule:nonzero;fill:#5e17eb;fill-opacity:1;" d="M 45.628906 37.992188 L 51.386719 16.507812 L 35.65625 0.78125 L 14.171875 6.535156 L 8.414062 28.023438 L 24.144531 43.753906 Z M 9.386719 27.761719 L 14.882812 7.25 L 35.394531 1.753906 L 50.410156 16.769531 L 44.914062 37.28125 L 24.40625 42.777344 Z M 9.386719 27.761719 "/></g><g clip-rule="nonzero" clip-path="url(#12ae49f1b5)"><path style=" stroke:none;fill-rule:nonzero;fill:#5e17eb;fill-opacity:1;" d="M 66.199219 109.042969 L 92.933594 99.398438 L 100.699219 107.167969 L 111.328125 104.320312 L 120.214844 113.207031 L 118.617188 119.1875 L 123.347656 123.921875 L 129.816406 122.1875 L 131.546875 115.722656 L 126.8125 110.988281 L 120.835938 112.585938 L 111.949219 103.699219 L 114.792969 93.066406 L 106.660156 84.921875 L 96.03125 87.773438 L 84.285156 76.027344 L 89.910156 55.03125 L 74.179688 39.300781 L 52.695312 45.058594 L 46.941406 66.542969 L 62.667969 82.273438 L 83.667969 76.648438 L 95.414062 88.394531 L 92.679688 98.558594 L 65.949219 108.207031 L 58.183594 100.441406 L 47.550781 103.289062 L 23.863281 79.597656 L 26.710938 68.964844 L 18.574219 60.828125 L 7.457031 63.796875 L 4.476562 74.917969 L 12.269531 82.707031 L 8.28125 100.257812 L 2.3125 101.855469 L 0.582031 108.324219 L 5.3125 113.058594 L 11.78125 111.324219 L 13.515625 104.859375 L 9.128906 100.472656 L 13.113281 82.921875 L 23.25 80.207031 L 46.941406 103.898438 L 44.09375 114.53125 L 52.234375 122.667969 L 63.351562 119.699219 Z M 126.554688 111.957031 L 130.574219 115.976562 L 129.101562 121.46875 L 123.609375 122.941406 L 119.589844 118.921875 L 121.0625 113.429688 Z M 62.925781 81.300781 L 47.910156 66.289062 L 53.40625 45.777344 L 73.917969 40.28125 L 88.933594 55.296875 L 83.433594 75.808594 Z M 96.25 88.621094 L 106.386719 85.902344 L 113.828125 93.324219 L 111.109375 103.460938 L 100.964844 106.179688 L 93.539062 98.753906 Z M 12.535156 105.132812 L 11.0625 110.625 L 5.574219 112.09375 L 1.554688 108.074219 L 3.019531 102.578125 L 8.515625 101.105469 Z M 12.875 82.09375 L 5.449219 74.660156 L 8.167969 64.523438 L 18.304688 61.808594 L 25.742188 69.226562 L 23.023438 79.363281 Z M 45.0625 114.28125 L 47.78125 104.144531 L 57.917969 101.425781 L 65.34375 108.851562 L 62.625 118.988281 L 52.488281 121.707031 Z M 45.0625 114.28125 "/></g></g><mask id="45e0814155"><g filter="url(#19467931ff)"><rect x="0" width="375" y="0" height="374.999991" style="fill:#000000;fill-opacity:0.31;stroke:none;"/></g></mask></g></g><path style=" stroke:none;fill-rule:nonzero;fill:#5e17eb;fill-opacity:1;" d="M 381.507812 321.59375 L 373.367188 313.453125 L 362.246094 316.421875 L 359.277344 327.542969 L 367.414062 335.679688 L 378.535156 332.710938 Z M 360.242188 327.289062 L 362.960938 317.152344 L 373.097656 314.433594 L 380.523438 321.863281 L 377.808594 332 L 367.671875 334.71875 Z M 360.242188 327.289062 "/><path style=" stroke:none;fill-rule:nonzero;fill:#5e17eb;fill-opacity:1;" d="M 369.207031 351.394531 L 364.476562 346.660156 L 358.007812 348.390625 L 356.273438 354.859375 L 361.007812 359.59375 L 367.476562 357.859375 Z M 357.25 354.597656 L 358.722656 349.105469 L 364.214844 347.632812 L 368.234375 351.652344 L 366.761719 357.144531 L 361.269531 358.617188 Z M 357.25 354.597656 "/></g></svg>