<svg xmlns="http://www.w3.org/2000/svg" xmlns:xlink="http://www.w3.org/1999/xlink" width="300" zoomAndPan="magnify" viewBox="0 0 224.87999 149.999998" height="200" preserveAspectRatio="xMidYMid meet" version="1.2"><defs><clipPath id="96d0292ef2"><path d="M 0 0.0390625 L 47 0.0390625 L 47 66 L 0 66 Z M 0 0.0390625 "/></clipPath><clipPath id="c8d862defb"><path d="M 56 0.0390625 L 103 0.0390625 L 103 66 L 56 66 Z M 56 0.0390625 "/></clipPath><clipPath id="0eb8365913"><path d="M 112 0.0390625 L 159 0.0390625 L 159 66 L 112 66 Z M 112 0.0390625 "/></clipPath><clipPath id="d0e3bbdfcc"><path d="M 144 97 L 205 97 L 205 149.960938 L 144 149.960938 Z M 144 97 "/></clipPath><clipPath id="e9623fc8c6"><path d="M 156 120 L 165 120 L 165 149.960938 L 156 149.960938 Z M 156 120 "/></clipPath><clipPath id="71b0eaee49"><path d="M 173 0.0390625 L 196 0.0390625 L 196 16 L 173 16 Z M 173 0.0390625 "/></clipPath><clipPath id="8bc862726e"><path d="M 75 131 L 115 131 L 115 149.960938 L 75 149.960938 Z M 75 131 "/></clipPath><clipPath id="3d6d6e26f6"><path d="M 48 124 L 79 124 L 79 149.960938 L 48 149.960938 Z M 48 124 "/></clipPath><clipPath id="179ca9722c"><path d="M 124 100 L 147 100 L 147 149.960938 L 124 149.960938 Z M 124 100 "/></clipPath><clipPath id="721bcf8f12"><path d="M 216 95 L 224.128906 95 L 224.128906 104 L 216 104 Z M 216 95 "/></clipPath><clipPath id="186221a9d1"><path d="M 216 108 L 224.128906 108 L 224.128906 117 L 216 117 Z M 216 108 "/></clipPath><clipPath id="1bdf83d885"><path d="M 216 120 L 224.128906 120 L 224.128906 129 L 216 129 Z M 216 120 "/></clipPath><clipPath id="10703a7e0d"><path d="M 32 126 L 34 126 L 34 149.960938 L 32 149.960938 Z M 32 126 "/></clipPath><clipPath id="d77f520d4b"><path d="M 3 126 L 6 126 L 6 149.960938 L 3 149.960938 Z M 3 126 "/></clipPath></defs><g id="bbecc137a6"><g clip-rule="nonzero" clip-path="url(#96d0292ef2)"><path style=" stroke:none;fill-rule:nonzero;fill:#ffffff;fill-opacity:1;" d="M 0.226562 0.515625 L 46.527344 0.515625 L 46.527344 65.582031 L 0.226562 65.582031 Z M 0.226562 0.515625 "/><path style=" stroke:none;fill-rule:nonzero;fill:#e2eaff;fill-opacity:1;" d="M 46.527344 65.761719 L 0.226562 65.761719 C 0.128906 65.761719 0.046875 65.679688 0.046875 65.582031 L 0.046875 0.515625 C 0.046875 0.417969 0.128906 0.335938 0.226562 0.335938 L 46.527344 0.335938 C 46.628906 0.335938 46.707031 0.417969 46.707031 0.515625 L 46.707031 65.582031 C 46.707031 65.679688 46.628906 65.761719 46.527344 65.761719 Z M 0.40625 65.402344 L 46.347656 65.402344 L 46.347656 0.695312 L 0.40625 0.695312 Z M 0.40625 65.402344 "/></g><path style=" stroke:none;fill-rule:nonzero;fill:#e2eaff;fill-opacity:1;" d="M 42.554688 4.492188 L 42.554688 61.597656 L 4.203125 61.597656 L 4.203125 4.492188 Z M 42.554688 4.492188 "/><g clip-rule="nonzero" clip-path="url(#c8d862defb)"><path style=" stroke:none;fill-rule:nonzero;fill:#ffffff;fill-opacity:1;" d="M 56.351562 0.515625 L 102.652344 0.515625 L 102.652344 65.582031 L 56.351562 65.582031 Z M 56.351562 0.515625 "/><path style=" stroke:none;fill-rule:nonzero;fill:#e2eaff;fill-opacity:1;" d="M 102.660156 65.761719 L 56.351562 65.761719 C 56.25 65.761719 56.171875 65.679688 56.171875 65.582031 L 56.171875 0.515625 C 56.171875 0.417969 56.25 0.335938 56.351562 0.335938 L 102.652344 0.335938 C 102.75 0.335938 102.832031 0.417969 102.832031 0.515625 L 102.832031 65.582031 C 102.839844 65.679688 102.757812 65.761719 102.660156 65.761719 Z M 56.53125 65.402344 L 102.472656 65.402344 L 102.472656 0.695312 L 56.53125 0.695312 Z M 56.53125 65.402344 "/></g><path style=" stroke:none;fill-rule:nonzero;fill:#e2eaff;fill-opacity:1;" d="M 98.6875 4.496094 L 98.6875 61.597656 L 60.335938 61.597656 L 60.335938 4.496094 Z M 98.6875 4.496094 "/><g clip-rule="nonzero" clip-path="url(#0eb8365913)"><path style=" stroke:none;fill-rule:nonzero;fill:#ffffff;fill-opacity:1;" d="M 112.480469 0.515625 L 158.785156 0.515625 L 158.785156 65.582031 L 112.480469 65.582031 Z M 112.480469 0.515625 "/><path style=" stroke:none;fill-rule:nonzero;fill:#e2eaff;fill-opacity:1;" d="M 158.792969 65.761719 L 112.488281 65.761719 C 112.390625 65.761719 112.308594 65.679688 112.308594 65.582031 L 112.308594 0.515625 C 112.308594 0.417969 112.390625 0.335938 112.488281 0.335938 L 158.792969 0.335938 C 158.890625 0.335938 158.972656 0.417969 158.972656 0.515625 L 158.972656 65.582031 C 158.972656 65.679688 158.890625 65.761719 158.792969 65.761719 Z M 112.660156 65.402344 L 158.605469 65.402344 L 158.605469 0.695312 L 112.660156 0.695312 Z M 112.660156 65.402344 "/></g><path style=" stroke:none;fill-rule:nonzero;fill:#e2eaff;fill-opacity:1;" d="M 154.816406 4.496094 L 154.816406 61.601562 L 116.464844 61.601562 L 116.464844 4.496094 Z M 154.816406 4.496094 "/><path style=" stroke:none;fill-rule:nonzero;fill:#ffffff;fill-opacity:1;" d="M 31.582031 61.855469 C 31.410156 58.542969 31.410156 55.222656 31.492188 51.914062 C 31.558594 51.644531 31.613281 51.375 31.671875 51.101562 C 32.023438 49.402344 32.308594 47.6875 32.535156 45.96875 C 32.976562 42.527344 33.148438 39.054688 33.042969 35.585938 C 32.984375 33.632812 32.839844 31.679688 32.609375 29.742188 L 17.246094 29.742188 C 16.929688 31.753906 17.402344 34.050781 17.925781 35.980469 C 18.503906 38.121094 19.199219 40.425781 18.585938 42.640625 C 18.257812 43.84375 17.558594 44.898438 16.863281 45.910156 C 16.175781 46.925781 15.523438 47.941406 15.035156 49.058594 C 14.105469 51.175781 13.65625 53.5 13.6875 55.8125 C 13.71875 57.890625 14.144531 59.957031 14.960938 61.863281 L 31.582031 61.863281 Z M 31.582031 61.855469 "/><path style=" stroke:none;fill-rule:nonzero;fill:#ffffff;fill-opacity:1;" d="M 17.246094 29.734375 C 17.246094 29.734375 17.214844 20.917969 19.972656 17.339844 C 22.734375 13.757812 27.605469 15.222656 29.066406 16.039062 C 30.527344 16.847656 32.742188 27.15625 32.609375 29.734375 C 32.472656 32.308594 17.246094 29.734375 17.246094 29.734375 Z M 17.246094 29.734375 "/><path style=" stroke:none;fill-rule:nonzero;fill:#ffffff;fill-opacity:1;" d="M 22.734375 15.882812 L 24.683594 11.003906 L 29.386719 13.601562 L 27.925781 18.320312 Z M 22.734375 15.882812 "/><path style=" stroke:none;fill-rule:nonzero;fill:#ffffff;fill-opacity:1;" d="M 22.226562 4.4375 C 22.226562 4.4375 21.34375 7.773438 23.761719 7.773438 C 23.761719 7.773438 23.214844 10.4375 25.191406 11.910156 C 27.164062 13.375 29.917969 15.105469 32.113281 13.242188 C 34.308594 11.378906 34.421875 4.175781 34.421875 4.175781 Z M 22.226562 4.4375 "/><path style=" stroke:none;fill-rule:nonzero;fill:#ffffff;fill-opacity:1;" d="M 69.050781 61.855469 L 87.519531 61.855469 C 88.007812 60.488281 88.621094 58.855469 89.003906 58.191406 C 90.203125 56.125 91.582031 54.085938 92.105469 51.707031 C 92.359375 50.554688 92.34375 49.417969 92.089844 48.265625 C 91.949219 47.636719 91.828125 47.023438 91.835938 46.371094 C 91.84375 45.722656 91.859375 45.085938 91.910156 44.449219 C 92.316406 38.292969 89.917969 31.996094 89.320312 29.734375 L 69.550781 29.734375 C 70.007812 32.609375 71.492188 36.347656 72.292969 38.773438 C 72.765625 40.230469 73.003906 41.839844 72.421875 43.296875 C 72.03125 44.277344 70.433594 47.847656 68.824219 49.34375 C 67.933594 50.171875 67.296875 51.191406 66.996094 52.371094 C 66.652344 53.726562 66.675781 55.183594 66.890625 56.566406 C 67.175781 58.476562 67.910156 60.316406 69.050781 61.855469 Z M 69.050781 61.855469 "/><path style=" stroke:none;fill-rule:nonzero;fill:#ffffff;fill-opacity:1;" d="M 69.550781 29.734375 C 69.550781 29.734375 68.367188 23.363281 69.507812 18.484375 C 70.644531 13.601562 74.546875 12.792969 77.304688 13.4375 C 80.066406 14.09375 86.234375 18.964844 87.050781 21.574219 C 87.859375 24.171875 89.328125 29.734375 89.328125 29.734375 L 77.46875 32.472656 Z M 69.550781 29.734375 "/><path style=" stroke:none;fill-rule:nonzero;fill:#ffffff;fill-opacity:1;" d="M 74.539062 14.257812 L 76.488281 9.375 L 83.632812 12.628906 L 82.171875 17.347656 Z M 74.539062 14.257812 "/><path style=" stroke:none;fill-rule:nonzero;fill:#ffffff;fill-opacity:1;" d="M 74.007812 3.808594 C 74.007812 3.808594 73.035156 6.859375 75.714844 6.859375 C 75.714844 6.859375 75.101562 9.292969 77.296875 10.644531 C 79.492188 11.984375 82.539062 13.570312 84.972656 11.863281 C 87.402344 10.152344 87.527344 3.5625 87.527344 3.5625 Z M 74.007812 3.808594 "/><path style=" stroke:none;fill-rule:nonzero;fill:#ffffff;fill-opacity:1;" d="M 119.878906 61.855469 L 145.019531 61.855469 C 145.019531 61.222656 145.027344 60.59375 145.027344 59.972656 C 146.597656 60.488281 148.441406 59.828125 149.714844 58.820312 C 151.332031 57.546875 152.320312 55.609375 152.839844 53.652344 C 153.976562 49.4375 153.152344 44.726562 151.144531 40.902344 C 150.710938 40.082031 150.222656 39.304688 149.683594 38.5625 C 149.855469 36.550781 149.953125 34.441406 149.207031 32.527344 C 148.792969 31.464844 148.082031 30.640625 147.421875 29.734375 L 121.871094 29.734375 C 121.671875 31.621094 122.015625 33.558594 122.875 35.269531 C 123.136719 35.800781 123.476562 36.273438 123.78125 36.78125 C 124.148438 37.394531 124.238281 37.941406 124.082031 38.644531 C 123.796875 39.917969 123.648438 41.179688 123.796875 42.488281 C 123.871094 43.101562 124.074219 43.730469 124.074219 44.351562 C 124.074219 45.039062 123.558594 45.40625 123.085938 45.8125 C 122.171875 46.597656 121.3125 47.441406 120.554688 48.382812 C 119.054688 50.253906 117.976562 52.507812 117.910156 54.945312 C 117.878906 56.320312 118.246094 57.601562 118.765625 58.863281 C 119.175781 59.84375 119.632812 60.824219 119.878906 61.855469 Z M 119.878906 61.855469 "/><path style=" stroke:none;fill-rule:nonzero;fill:#ffffff;fill-opacity:1;" d="M 148.058594 30.617188 C 148.058594 30.617188 144.523438 22.203125 142.546875 18.820312 C 140.570312 15.433594 133.820312 8.402344 125.917969 13.269531 C 123.601562 14.699219 121.773438 26.921875 121.871094 29.734375 C 121.976562 32.554688 148.058594 30.617188 148.058594 30.617188 Z M 148.058594 30.617188 "/><path style=" stroke:none;fill-rule:nonzero;fill:#ffffff;fill-opacity:1;" d="M 130.734375 13.121094 L 132.679688 8.238281 L 141.78125 11.492188 L 140.3125 16.210938 Z M 130.734375 13.121094 "/><path style=" stroke:none;fill-rule:nonzero;fill:#ffffff;fill-opacity:1;" d="M 130.335938 3.867188 C 130.335938 3.867188 129.460938 6.269531 132.082031 6.703125 C 132.082031 6.703125 131.324219 7.796875 132.734375 9.105469 C 134.15625 10.414062 138.050781 12.835938 141.78125 11.492188 C 145.519531 10.152344 145.632812 3.808594 145.632812 3.808594 Z M 130.335938 3.867188 "/><path style=" stroke:none;fill-rule:nonzero;fill:#ffffff;fill-opacity:1;" d="M 123.871094 91.882812 L 128.554688 79.167969 C 128.554688 79.167969 134.75 79.105469 137.535156 80.339844 C 138.882812 80.933594 139.894531 81.582031 140.605469 81.957031 C 142.71875 83.0625 143.707031 84.320312 143.199219 84.933594 C 142.597656 85.660156 141.8125 85.441406 140.074219 85.1875 C 139.355469 85.082031 137.871094 85.34375 137.871094 85.34375 C 137.871094 85.34375 136.980469 88.335938 136.523438 89.25 C 136.066406 90.171875 133.566406 92.714844 133.566406 92.714844 Z M 123.871094 91.882812 "/><path style=" stroke:none;fill-rule:nonzero;fill:#000000;fill-opacity:1;" d="M 133.566406 92.894531 C 133.558594 92.894531 133.558594 92.894531 133.550781 92.894531 L 123.851562 92.0625 C 123.796875 92.054688 123.746094 92.027344 123.714844 91.980469 C 123.683594 91.929688 123.683594 91.875 123.699219 91.824219 L 128.382812 79.113281 C 128.410156 79.039062 128.472656 78.996094 128.546875 78.996094 C 128.800781 78.996094 134.808594 78.941406 137.601562 80.183594 C 138.546875 80.601562 139.324219 81.042969 139.941406 81.402344 C 140.222656 81.554688 140.464844 81.695312 140.679688 81.808594 C 142.277344 82.644531 143.324219 83.609375 143.476562 84.378906 C 143.527344 84.640625 143.476562 84.875 143.324219 85.054688 C 142.71875 85.773438 141.96875 85.660156 140.597656 85.457031 C 140.425781 85.433594 140.238281 85.398438 140.042969 85.375 C 139.46875 85.292969 138.359375 85.457031 138.007812 85.511719 C 137.84375 86.070312 137.101562 88.503906 136.6875 89.347656 C 136.222656 90.28125 133.796875 92.75 133.699219 92.855469 C 133.664062 92.878906 133.617188 92.894531 133.566406 92.894531 Z M 124.121094 91.71875 L 133.503906 92.527344 C 133.878906 92.136719 135.96875 89.976562 136.367188 89.167969 C 136.816406 88.269531 137.699219 85.316406 137.707031 85.285156 C 137.722656 85.21875 137.78125 85.171875 137.84375 85.160156 C 137.910156 85.152344 139.363281 84.898438 140.105469 85.007812 C 140.300781 85.03125 140.492188 85.0625 140.667969 85.089844 C 141.992188 85.285156 142.597656 85.382812 143.070312 84.808594 C 143.152344 84.710938 143.175781 84.582031 143.152344 84.433594 C 143.054688 83.945312 142.3125 83.042969 140.539062 82.113281 C 140.320312 82 140.074219 81.859375 139.796875 81.695312 C 139.175781 81.34375 138.410156 80.910156 137.484375 80.492188 C 134.996094 79.390625 129.664062 79.339844 128.726562 79.339844 C 128.71875 79.339844 128.71875 79.339844 128.710938 79.339844 Z M 124.121094 91.71875 "/><path style=" stroke:none;fill-rule:nonzero;fill:#e2eaff;fill-opacity:1;" d="M 146.769531 86.011719 C 146.769531 86.011719 140.425781 86.101562 136.464844 87.304688 C 134.964844 87.761719 133.984375 123.128906 133.707031 124.050781 L 130.300781 124.140625 C 130.300781 124.140625 132.328125 88.128906 134.808594 86.289062 C 137.289062 84.449219 150.53125 84.351562 150.53125 84.351562 Z M 146.769531 86.011719 "/><path style=" stroke:none;fill-rule:nonzero;fill:#000000;fill-opacity:1;" d="M 133.707031 95.21875 C 133.699219 95.21875 133.691406 95.21875 133.683594 95.21875 L 132.957031 95.113281 C 132.859375 95.09375 132.792969 95.003906 132.800781 94.90625 C 132.816406 94.808594 132.90625 94.742188 133.003906 94.75 L 133.730469 94.859375 C 133.828125 94.875 133.894531 94.964844 133.886719 95.0625 C 133.871094 95.160156 133.789062 95.21875 133.707031 95.21875 Z M 133.707031 95.21875 "/><path style=" stroke:none;fill-rule:nonzero;fill:#000000;fill-opacity:1;" d="M 131.960938 113.703125 C 131.953125 113.703125 131.941406 113.703125 131.933594 113.703125 L 131.207031 113.597656 C 131.109375 113.578125 131.046875 113.488281 131.054688 113.390625 C 131.070312 113.292969 131.160156 113.226562 131.257812 113.234375 L 131.984375 113.34375 C 132.082031 113.359375 132.148438 113.449219 132.140625 113.546875 C 132.121094 113.636719 132.042969 113.703125 131.960938 113.703125 Z M 131.960938 113.703125 "/><path style=" stroke:none;fill-rule:nonzero;fill:#000000;fill-opacity:1;" d="M 131.460938 120.824219 C 131.453125 120.824219 131.445312 120.824219 131.4375 120.824219 L 130.710938 120.714844 C 130.613281 120.699219 130.546875 120.609375 130.554688 120.511719 C 130.570312 120.414062 130.660156 120.347656 130.757812 120.355469 L 131.484375 120.464844 C 131.582031 120.480469 131.648438 120.570312 131.640625 120.667969 C 131.632812 120.757812 131.550781 120.824219 131.460938 120.824219 Z M 131.460938 120.824219 "/><path style=" stroke:none;fill-rule:nonzero;fill:#ffffff;fill-opacity:1;" d="M 140.605469 81.957031 C 140.082031 81.6875 139.289062 81.253906 138.402344 80.753906 C 138.195312 81.5 138.097656 82.257812 138.121094 83.027344 C 138.148438 83.796875 138.320312 84.550781 138.628906 85.234375 C 139.101562 85.179688 139.699219 85.136719 140.074219 85.1875 C 141.8125 85.433594 142.589844 85.660156 143.199219 84.933594 C 143.714844 84.320312 142.71875 83.0625 140.605469 81.957031 Z M 140.605469 81.957031 "/><path style=" stroke:none;fill-rule:nonzero;fill:#000000;fill-opacity:1;" d="M 142.03125 85.601562 C 141.640625 85.601562 141.175781 85.53125 140.605469 85.449219 C 140.433594 85.421875 140.246094 85.390625 140.050781 85.367188 C 139.753906 85.324219 139.273438 85.34375 138.652344 85.414062 C 138.554688 85.421875 138.464844 85.359375 138.457031 85.261719 C 138.449219 85.160156 138.515625 85.070312 138.613281 85.0625 C 139.273438 84.992188 139.78125 84.972656 140.105469 85.015625 C 140.300781 85.039062 140.492188 85.070312 140.667969 85.097656 C 141.992188 85.292969 142.597656 85.390625 143.070312 84.820312 C 143.152344 84.71875 143.175781 84.589844 143.152344 84.441406 C 143.054688 83.953125 142.3125 83.050781 140.539062 82.121094 C 140.058594 81.867188 139.316406 81.464844 138.335938 80.917969 C 138.246094 80.871094 138.222656 80.761719 138.261719 80.671875 C 138.3125 80.582031 138.417969 80.550781 138.507812 80.601562 C 139.484375 81.148438 140.230469 81.546875 140.703125 81.800781 C 142.300781 82.636719 143.347656 83.601562 143.503906 84.367188 C 143.550781 84.628906 143.503906 84.867188 143.347656 85.046875 C 142.988281 85.472656 142.582031 85.601562 142.03125 85.601562 Z M 142.03125 85.601562 "/><path style=" stroke:none;fill-rule:nonzero;fill:#ffffff;fill-opacity:1;" d="M 139.753906 88.21875 C 139.878906 88.210938 140.839844 88.726562 141.535156 87.820312 C 142.328125 86.773438 139.675781 84.890625 138.082031 84.613281 C 136.488281 84.335938 136.839844 85.914062 137.265625 86.4375 C 137.265625 86.4375 134.957031 85.308594 134.34375 86.25 C 133.730469 87.199219 134.742188 88.253906 134.742188 88.253906 C 134.742188 88.253906 133.566406 88.316406 133.273438 89.0625 C 132.980469 89.804688 134.546875 90.910156 134.546875 90.910156 C 134.546875 90.910156 134 91.351562 134.066406 91.972656 C 134.132812 92.59375 136.082031 93.523438 136.792969 93.109375 C 137.503906 92.691406 137.117188 91.539062 137.117188 91.539062 C 137.117188 91.539062 138.023438 91.488281 138.171875 90.941406 C 138.320312 90.394531 138.050781 89.804688 138.050781 89.804688 C 138.050781 89.804688 138.726562 89.847656 139.28125 89.503906 C 139.960938 89.078125 139.753906 88.21875 139.753906 88.21875 Z M 139.753906 88.21875 "/><path style=" stroke:none;fill-rule:nonzero;fill:#000000;fill-opacity:1;" d="M 136.320312 93.386719 C 135.863281 93.386719 135.324219 93.207031 134.914062 93.003906 C 134.6875 92.886719 133.925781 92.472656 133.878906 91.988281 C 133.828125 91.515625 134.082031 91.128906 134.261719 90.925781 C 133.828125 90.589844 132.816406 89.707031 133.101562 88.996094 C 133.332031 88.414062 133.992188 88.195312 134.398438 88.121094 C 134.113281 87.722656 133.699219 86.917969 134.1875 86.160156 C 134.703125 85.367188 136.097656 85.765625 136.859375 86.070312 C 136.710938 85.675781 136.660156 85.1875 136.867188 84.835938 C 137.011719 84.582031 137.355469 84.3125 138.113281 84.441406 C 139.40625 84.671875 141.347656 85.882812 141.78125 86.976562 C 141.917969 87.335938 141.886719 87.671875 141.683594 87.933594 C 141.101562 88.695312 140.359375 88.570312 139.96875 88.472656 C 139.976562 88.800781 139.902344 89.339844 139.371094 89.667969 C 138.988281 89.902344 138.5625 89.96875 138.292969 89.992188 C 138.367188 90.238281 138.433594 90.632812 138.335938 91 C 138.210938 91.480469 137.648438 91.644531 137.339844 91.703125 C 137.421875 92.085938 137.511719 92.894531 136.882812 93.273438 C 136.71875 93.34375 136.53125 93.386719 136.320312 93.386719 Z M 135.214844 86.054688 C 134.898438 86.054688 134.628906 86.136719 134.488281 86.347656 C 133.96875 87.164062 134.859375 88.121094 134.867188 88.128906 C 134.914062 88.179688 134.929688 88.253906 134.90625 88.316406 C 134.882812 88.382812 134.816406 88.425781 134.75 88.433594 C 134.742188 88.433594 133.683594 88.503906 133.4375 89.128906 C 133.242188 89.625 134.269531 90.492188 134.644531 90.761719 C 134.695312 90.792969 134.71875 90.84375 134.71875 90.902344 C 134.71875 90.957031 134.695312 91.015625 134.652344 91.046875 C 134.644531 91.046875 134.1875 91.441406 134.238281 91.949219 C 134.253906 92.109375 134.546875 92.40625 135.078125 92.675781 C 135.722656 93.003906 136.398438 93.117188 136.695312 92.945312 C 137.273438 92.601562 136.9375 91.605469 136.9375 91.585938 C 136.921875 91.53125 136.929688 91.472656 136.964844 91.433594 C 136.996094 91.382812 137.046875 91.359375 137.101562 91.351562 C 137.324219 91.335938 137.902344 91.226562 137.992188 90.894531 C 138.113281 90.417969 137.886719 89.878906 137.878906 89.871094 C 137.851562 89.8125 137.863281 89.75 137.894531 89.699219 C 137.925781 89.648438 137.992188 89.617188 138.050781 89.617188 C 138.058594 89.617188 138.679688 89.648438 139.175781 89.339844 C 139.746094 88.988281 139.574219 88.261719 139.574219 88.261719 C 139.558594 88.210938 139.574219 88.152344 139.609375 88.113281 C 139.640625 88.074219 139.691406 88.039062 139.738281 88.039062 C 139.796875 88.039062 139.84375 88.046875 139.933594 88.082031 C 140.246094 88.171875 140.890625 88.367188 141.394531 87.710938 C 141.519531 87.550781 141.535156 87.34375 141.445312 87.097656 C 141.078125 86.152344 139.226562 85 138.058594 84.792969 C 137.609375 84.710938 137.316406 84.785156 137.175781 85.015625 C 136.964844 85.375 137.175781 86.035156 137.40625 86.324219 C 137.460938 86.386719 137.460938 86.488281 137.40625 86.550781 C 137.355469 86.617188 137.257812 86.640625 137.183594 86.601562 C 136.769531 86.394531 135.878906 86.054688 135.214844 86.054688 Z M 135.214844 86.054688 "/><g clip-rule="nonzero" clip-path="url(#d0e3bbdfcc)"><path style=" stroke:none;fill-rule:nonzero;fill:#ffffff;fill-opacity:1;" d="M 144.480469 104.808594 C 144.480469 104.808594 145.039062 108.386719 147.265625 113.824219 C 149.496094 119.253906 153.945312 122.835938 154.6875 124.878906 C 156.695312 130.40625 159.976562 149.796875 159.976562 149.796875 L 200.441406 149.796875 C 200.441406 149.796875 204.058594 104.601562 204.335938 99.027344 C 204.613281 93.453125 144.480469 104.808594 144.480469 104.808594 Z M 144.480469 104.808594 "/><path style=" stroke:none;fill-rule:nonzero;fill:#000000;fill-opacity:1;" d="M 159.96875 149.925781 C 159.878906 149.925781 159.804688 149.863281 159.789062 149.78125 C 159.757812 149.582031 156.480469 130.386719 154.507812 124.941406 C 154.230469 124.175781 153.378906 123.152344 152.3125 121.859375 C 150.6875 119.90625 148.457031 117.226562 147.09375 113.898438 C 144.890625 108.511719 144.3125 104.882812 144.300781 104.839844 C 144.285156 104.742188 144.351562 104.652344 144.449219 104.636719 C 146.703125 104.210938 199.601562 94.277344 204.15625 98.257812 C 204.410156 98.480469 204.53125 98.742188 204.515625 99.035156 C 204.238281 104.546875 200.6875 149.257812 200.648438 149.707031 C 200.636719 149.804688 200.558594 149.878906 200.449219 149.871094 C 200.351562 149.863281 200.277344 149.773438 200.289062 149.675781 C 200.320312 149.222656 203.878906 104.519531 204.15625 99.011719 C 204.164062 98.832031 204.089844 98.667969 203.921875 98.519531 C 199.617188 94.761719 148.113281 104.308594 144.6875 104.945312 C 144.824219 105.722656 145.503906 109.066406 147.429688 113.75 C 148.769531 117.019531 150.890625 119.570312 152.589844 121.625 C 153.683594 122.941406 154.546875 123.980469 154.851562 124.8125 C 156.839844 130.289062 160.113281 149.519531 160.148438 149.714844 C 160.164062 149.8125 160.097656 149.902344 160 149.917969 C 159.992188 149.925781 159.976562 149.925781 159.96875 149.925781 Z M 159.96875 149.925781 "/></g><g clip-rule="nonzero" clip-path="url(#e9623fc8c6)"><path style=" stroke:none;fill-rule:nonzero;fill:#000000;fill-opacity:1;" d="M 163.992188 149.871094 C 163.902344 149.871094 163.828125 149.804688 163.8125 149.714844 C 162.449219 141.300781 159.648438 125.082031 158.792969 123.855469 C 157.699219 122.300781 156.230469 120.734375 156.214844 120.714844 C 156.148438 120.644531 156.148438 120.527344 156.222656 120.464844 C 156.292969 120.398438 156.410156 120.398438 156.472656 120.472656 C 156.492188 120.488281 157.976562 122.074219 159.085938 123.652344 C 160.214844 125.246094 164.007812 148.660156 164.171875 149.65625 C 164.1875 149.753906 164.125 149.84375 164.027344 149.863281 C 164.015625 149.871094 164 149.871094 163.992188 149.871094 Z M 163.992188 149.871094 "/></g><path style=" stroke:none;fill-rule:nonzero;fill:#5479f7;fill-opacity:1;" d="M 199.550781 22.839844 C 199.550781 22.839844 204.367188 23.019531 207.429688 29.421875 C 210.492188 35.832031 211.210938 60.675781 211.210938 60.675781 L 210.214844 75.941406 L 207.984375 94.605469 L 208.101562 100.433594 C 208.101562 100.433594 191.847656 104.429688 175.722656 105.46875 C 145.070312 107.441406 144.292969 105.191406 144.292969 105.191406 C 144.292969 105.191406 141.511719 87.640625 146.800781 75.941406 C 152.089844 64.242188 164.882812 57.277344 166.546875 54.210938 C 168.214844 51.144531 165.714844 50.03125 168.777344 44.179688 C 171.835938 38.324219 184.074219 26.914062 188.246094 24.125 C 192.410156 21.34375 199.550781 22.839844 199.550781 22.839844 Z M 199.550781 22.839844 "/><path style=" stroke:none;fill-rule:nonzero;fill:#000000;fill-opacity:1;" d="M 187.953125 63.578125 C 187.863281 63.578125 187.789062 63.511719 187.773438 63.421875 C 187.765625 63.332031 186.589844 54.054688 185.878906 46.320312 C 185.871094 46.222656 185.945312 46.132812 186.042969 46.125 C 186.140625 46.117188 186.230469 46.191406 186.238281 46.289062 C 186.957031 54.023438 188.125 63.292969 188.132812 63.382812 C 188.148438 63.480469 188.074219 63.570312 187.976562 63.585938 C 187.96875 63.578125 187.960938 63.578125 187.953125 63.578125 Z M 187.953125 63.578125 "/><path style=" stroke:none;fill-rule:nonzero;fill:#e2eaff;fill-opacity:1;" d="M 143.886719 100.042969 C 143.886719 100.042969 159.289062 99.519531 176.375 98.078125 C 187.871094 97.113281 205.25 94.074219 205.25 94.074219 L 204.515625 97.523438 C 204.515625 97.523438 195.503906 99.730469 174.53125 101.390625 C 153.558594 103.050781 143.945312 102.691406 143.945312 102.691406 Z M 143.886719 100.042969 "/><path style=" stroke:none;fill-rule:nonzero;fill:#000000;fill-opacity:1;" d="M 185.757812 98.03125 C 185.667969 98.03125 185.59375 97.964844 185.578125 97.875 L 185.460938 97.148438 C 185.445312 97.050781 185.511719 96.960938 185.609375 96.941406 C 185.707031 96.925781 185.796875 96.992188 185.8125 97.089844 L 185.929688 97.816406 C 185.945312 97.914062 185.878906 98.003906 185.78125 98.023438 C 185.773438 98.03125 185.765625 98.03125 185.757812 98.03125 Z M 185.757812 98.03125 "/><path style=" stroke:none;fill-rule:nonzero;fill:#000000;fill-opacity:1;" d="M 178.636719 98.921875 C 178.546875 98.921875 178.476562 98.855469 178.457031 98.765625 L 178.34375 98.039062 C 178.328125 97.941406 178.394531 97.851562 178.492188 97.832031 C 178.589844 97.816406 178.679688 97.882812 178.695312 97.980469 L 178.808594 98.707031 C 178.824219 98.808594 178.761719 98.898438 178.664062 98.914062 C 178.664062 98.921875 178.652344 98.921875 178.636719 98.921875 Z M 178.636719 98.921875 "/><path style=" stroke:none;fill-rule:nonzero;fill:#000000;fill-opacity:1;" d="M 171.46875 99.542969 C 171.378906 99.542969 171.308594 99.476562 171.289062 99.386719 L 171.175781 98.660156 C 171.160156 98.5625 171.226562 98.472656 171.324219 98.457031 C 171.421875 98.4375 171.511719 98.503906 171.527344 98.601562 L 171.640625 99.328125 C 171.660156 99.429688 171.59375 99.519531 171.496094 99.535156 C 171.488281 99.542969 171.480469 99.542969 171.46875 99.542969 Z M 171.46875 99.542969 "/><path style=" stroke:none;fill-rule:nonzero;fill:#000000;fill-opacity:1;" d="M 164.304688 100.050781 C 164.214844 100.050781 164.140625 99.984375 164.125 99.894531 L 164.007812 99.167969 C 163.992188 99.066406 164.058594 98.976562 164.15625 98.960938 C 164.253906 98.945312 164.34375 99.011719 164.359375 99.109375 L 164.472656 99.835938 C 164.492188 99.933594 164.425781 100.023438 164.328125 100.042969 C 164.320312 100.050781 164.3125 100.050781 164.304688 100.050781 Z M 164.304688 100.050781 "/><path style=" stroke:none;fill-rule:nonzero;fill:#000000;fill-opacity:1;" d="M 157.046875 100.472656 C 156.957031 100.472656 156.882812 100.410156 156.867188 100.320312 L 156.75 99.589844 C 156.734375 99.492188 156.800781 99.402344 156.898438 99.386719 C 156.996094 99.371094 157.085938 99.4375 157.101562 99.535156 L 157.21875 100.261719 C 157.234375 100.359375 157.167969 100.449219 157.070312 100.464844 C 157.0625 100.472656 157.054688 100.472656 157.046875 100.472656 Z M 157.046875 100.472656 "/><path style=" stroke:none;fill-rule:nonzero;fill:#000000;fill-opacity:1;" d="M 149.84375 100.84375 C 149.753906 100.84375 149.683594 100.777344 149.664062 100.6875 L 149.550781 99.960938 C 149.535156 99.859375 149.601562 99.769531 149.699219 99.753906 C 149.796875 99.738281 149.886719 99.804688 149.902344 99.902344 L 150.015625 100.628906 C 150.035156 100.726562 149.96875 100.816406 149.871094 100.835938 C 149.863281 100.84375 149.855469 100.84375 149.84375 100.84375 Z M 149.84375 100.84375 "/><path style=" stroke:none;fill-rule:nonzero;fill:#ffffff;fill-opacity:1;" d="M 188.117188 63.644531 C 188.117188 63.644531 193.742188 60.53125 201.144531 59.492188 C 208.546875 58.453125 211.210938 60.675781 211.210938 60.675781 C 211.210938 60.675781 211.210938 74.609375 211.210938 77.722656 C 211.210938 80.835938 209.429688 99.664062 206.769531 111.226562 C 204.109375 122.785156 202.441406 133.339844 200.835938 135.398438 C 199.226562 137.460938 197.488281 137.011719 197.488281 137.011719 C 197.488281 137.011719 196.066406 139.714844 194.394531 139.203125 C 194.394531 139.203125 193.496094 140.558594 192.328125 140.363281 C 191.167969 140.164062 190.65625 138.6875 190.65625 138.6875 C 190.65625 138.6875 189.167969 139.460938 187.886719 137.261719 C 186.597656 135.074219 185.183594 127.582031 185.183594 126.039062 C 185.183594 124.492188 183.382812 123.265625 184.285156 119.457031 C 185.191406 115.648438 189.480469 81.605469 189.730469 80.574219 Z M 188.117188 63.644531 "/><path style=" stroke:none;fill-rule:nonzero;fill:#000000;fill-opacity:1;" d="M 192.554688 140.574219 C 192.476562 140.574219 192.386719 140.566406 192.296875 140.550781 C 191.273438 140.378906 190.726562 139.339844 190.546875 138.921875 C 190.082031 139.0625 188.816406 139.226562 187.722656 137.363281 C 186.441406 135.1875 184.988281 127.664062 184.988281 126.039062 C 184.988281 125.546875 184.792969 125.082031 184.554688 124.535156 C 184.074219 123.398438 183.480469 121.992188 184.089844 119.417969 C 184.394531 118.148438 185.113281 113.335938 186.277344 104.699219 C 186.296875 104.601562 186.386719 104.53125 186.484375 104.546875 C 186.582031 104.5625 186.65625 104.652344 186.636719 104.75 C 185.460938 113.390625 184.746094 118.214844 184.441406 119.5 C 183.863281 121.960938 184.433594 123.308594 184.890625 124.394531 C 185.136719 124.976562 185.347656 125.476562 185.347656 126.039062 C 185.347656 127.640625 186.777344 135.039062 188.027344 137.171875 C 189.210938 139.183594 190.507812 138.554688 190.554688 138.523438 C 190.605469 138.5 190.65625 138.5 190.703125 138.515625 C 190.753906 138.53125 190.792969 138.570312 190.808594 138.621094 C 190.816406 138.636719 191.308594 140.011719 192.34375 140.183594 C 193.382812 140.355469 194.222656 139.109375 194.230469 139.09375 C 194.269531 139.03125 194.359375 138.996094 194.433594 139.019531 C 195.953125 139.488281 197.300781 136.945312 197.316406 136.910156 C 197.355469 136.839844 197.4375 136.796875 197.519531 136.820312 C 197.585938 136.839844 199.167969 137.214844 200.679688 135.269531 C 201.757812 133.886719 202.890625 128.441406 204.335938 121.550781 C 204.996094 118.386719 205.75 114.804688 206.582031 111.160156 C 209.300781 99.363281 211.015625 80.542969 211.015625 77.699219 L 211.015625 60.652344 C 211.015625 60.554688 211.097656 60.472656 211.195312 60.472656 C 211.292969 60.472656 211.375 60.554688 211.375 60.652344 L 211.375 77.699219 C 211.375 80.550781 209.652344 99.417969 206.925781 111.242188 C 206.082031 114.878906 205.339844 118.460938 204.679688 121.625 C 203.175781 128.835938 202.082031 134.042969 200.957031 135.488281 C 199.535156 137.304688 198.027344 137.253906 197.5625 137.191406 C 197.257812 137.714844 196 139.742188 194.449219 139.390625 C 194.230469 139.722656 193.503906 140.574219 192.554688 140.574219 Z M 192.554688 140.574219 "/><path style=" stroke:none;fill-rule:nonzero;fill:#000000;fill-opacity:1;" d="M 185.21875 125.941406 C 185.121094 125.941406 185.039062 125.859375 185.039062 125.761719 C 185.039062 125.546875 185.234375 122.441406 185.371094 121.167969 C 185.382812 121.066406 185.472656 120.996094 185.570312 121.003906 C 185.667969 121.011719 185.738281 121.101562 185.730469 121.199219 C 185.59375 122.484375 185.40625 125.597656 185.40625 125.761719 C 185.398438 125.859375 185.316406 125.941406 185.21875 125.941406 Z M 185.21875 125.941406 "/><path style=" stroke:none;fill-rule:nonzero;fill:#000000;fill-opacity:1;" d="M 190.65625 138.914062 C 190.574219 138.914062 190.492188 138.859375 190.476562 138.769531 C 190.464844 138.703125 189.347656 132.59375 189.144531 130.625 C 188.949219 128.648438 189.011719 126.121094 189.011719 126.089844 C 189.011719 125.988281 189.09375 125.90625 189.203125 125.917969 C 189.300781 125.917969 189.382812 125.996094 189.371094 126.105469 C 189.371094 126.128906 189.308594 128.636719 189.503906 130.59375 C 189.699219 132.554688 190.816406 138.644531 190.824219 138.710938 C 190.84375 138.808594 190.777344 138.898438 190.679688 138.921875 C 190.671875 138.914062 190.664062 138.914062 190.65625 138.914062 Z M 190.65625 138.914062 "/><path style=" stroke:none;fill-rule:nonzero;fill:#000000;fill-opacity:1;" d="M 194.351562 139.382812 C 194.253906 139.382812 194.171875 139.308594 194.171875 139.210938 C 194.171875 139.175781 194.050781 136.085938 194.050781 133.722656 C 194.050781 131.359375 193.984375 124.902344 193.984375 124.835938 C 193.984375 124.738281 194.066406 124.65625 194.164062 124.65625 C 194.261719 124.65625 194.34375 124.738281 194.34375 124.835938 C 194.34375 124.902344 194.410156 131.371094 194.410156 133.730469 C 194.410156 136.085938 194.53125 139.175781 194.53125 139.210938 C 194.539062 139.292969 194.457031 139.371094 194.351562 139.382812 C 194.359375 139.382812 194.359375 139.382812 194.351562 139.382812 Z M 194.351562 139.382812 "/><path style=" stroke:none;fill-rule:nonzero;fill:#000000;fill-opacity:1;" d="M 197.472656 137.140625 C 197.453125 137.140625 197.4375 137.140625 197.421875 137.132812 C 197.324219 137.109375 197.273438 137.003906 197.300781 136.910156 C 197.414062 136.527344 197.992188 134.453125 198.296875 131.125 C 198.558594 128.238281 198.957031 123.609375 198.957031 123.5625 C 198.964844 123.464844 199.046875 123.390625 199.152344 123.398438 C 199.25 123.40625 199.324219 123.496094 199.316406 123.59375 C 199.316406 123.644531 198.914062 128.269531 198.65625 131.15625 C 198.351562 134.523438 197.765625 136.625 197.640625 137.019531 C 197.617188 137.082031 197.542969 137.140625 197.472656 137.140625 Z M 197.472656 137.140625 "/><path style=" stroke:none;fill-rule:nonzero;fill:#ffffff;fill-opacity:1;" d="M 185.011719 28.492188 C 185.011719 28.492188 181.542969 33.101562 183.070312 34.15625 C 185.265625 35.675781 186.1875 30.492188 191.519531 26.535156 C 194.980469 23.96875 198.785156 23.488281 198.785156 23.488281 L 194.050781 14.175781 L 184.34375 18.320312 L 186.359375 26.707031 Z M 185.011719 28.492188 "/><path style=" stroke:none;fill-rule:nonzero;fill:#000000;fill-opacity:1;" d="M 186.179688 26.128906 C 186.097656 26.128906 186.027344 26.070312 186.007812 25.988281 L 184.171875 18.359375 C 184.148438 18.277344 184.195312 18.1875 184.277344 18.15625 L 193.984375 14.027344 C 194.074219 13.988281 194.171875 14.027344 194.214844 14.109375 L 198.949219 23.421875 C 198.996094 23.511719 198.957031 23.617188 198.867188 23.667969 C 198.777344 23.714844 198.671875 23.675781 198.621094 23.585938 L 193.96875 14.429688 L 184.554688 18.433594 L 186.359375 25.914062 C 186.386719 26.011719 186.328125 26.109375 186.230469 26.136719 C 186.214844 26.128906 186.199219 26.128906 186.179688 26.128906 Z M 186.179688 26.128906 "/><path style=" stroke:none;fill-rule:nonzero;fill:#ffffff;fill-opacity:1;" d="M 176.824219 12.859375 C 176.824219 12.859375 177.847656 20.207031 183.21875 21.425781 C 184.164062 21.640625 186.269531 21.410156 188.066406 20.429688 C 189.757812 19.503906 191.03125 17.609375 191.28125 15.605469 C 191.585938 13.257812 187.871094 6.554688 187.871094 6.554688 L 179.347656 8.933594 L 176.359375 10.519531 Z M 176.824219 12.859375 "/><path style=" stroke:none;fill-rule:nonzero;fill:#000000;fill-opacity:1;" d="M 184.019531 21.6875 C 183.683594 21.6875 183.398438 21.664062 183.183594 21.613281 C 177.820312 20.398438 176.6875 13.136719 176.652344 12.898438 L 176.1875 10.554688 C 176.171875 10.472656 176.214844 10.398438 176.277344 10.355469 L 179.265625 8.769531 C 179.273438 8.761719 179.292969 8.761719 179.300781 8.753906 L 187.820312 6.375 C 187.902344 6.351562 187.984375 6.390625 188.027344 6.464844 C 188.179688 6.742188 191.765625 13.25 191.453125 15.628906 C 191.191406 17.683594 189.886719 19.628906 188.140625 20.585938 C 186.695312 21.394531 185.09375 21.6875 184.019531 21.6875 Z M 176.574219 10.617188 L 177.003906 12.828125 C 177.003906 12.828125 177.003906 12.835938 177.003906 12.835938 C 177.011719 12.90625 178.074219 20.078125 183.257812 21.253906 C 184.089844 21.441406 186.171875 21.261719 187.976562 20.273438 C 189.625 19.367188 190.859375 17.527344 191.105469 15.589844 C 191.371094 13.496094 188.289062 7.699219 187.78125 6.777344 L 179.414062 9.105469 Z M 176.574219 10.617188 "/><g clip-rule="nonzero" clip-path="url(#71b0eaee49)"><path style=" stroke:none;fill-rule:nonzero;fill:#000000;fill-opacity:1;" d="M 185.421875 12.171875 C 185.152344 11.304688 185.390625 10.339844 186.082031 9.761719 C 186.386719 9.507812 186.792969 9.300781 187.324219 9.253906 C 189.183594 9.066406 190.117188 11.683594 189.75 12.890625 C 189.371094 14.101562 188.441406 14.945312 187.699219 14.945312 C 187.699219 14.945312 187.96875 15.5 189.839844 15.589844 C 191.707031 15.679688 191.160156 15.148438 192.125 15.261719 C 193.105469 15.386719 195.078125 16.429688 194.890625 15.320312 C 194.523438 13.167969 195.5625 12.351562 194.785156 7.480469 C 194 2.550781 190.746094 2.640625 190.746094 2.640625 C 190.746094 2.640625 189.765625 0.0390625 186.230469 0.417969 C 182.6875 0.792969 182.238281 2.027344 180.753906 2.492188 C 179.265625 2.957031 176.007812 2.492188 174.007812 5.09375 C 172.214844 7.421875 172.753906 11.25 176.621094 11.683594 L 176.53125 10.503906 C 176.53125 10.503906 177.609375 10.046875 179.9375 9.761719 C 182.15625 12.582031 183.609375 11.304688 183.886719 12.148438 C 183.992188 12.476562 184.089844 12.792969 184.164062 13.054688 C 184.261719 13.390625 184.65625 13.539062 184.949219 13.347656 L 185.660156 12.890625 Z M 185.421875 12.171875 "/></g><path style=" stroke:none;fill-rule:nonzero;fill:#000000;fill-opacity:1;" d="M 186.898438 13.285156 C 186.824219 13.285156 186.753906 13.234375 186.726562 13.160156 C 186.710938 13.121094 186.386719 12.058594 186.859375 11.4375 C 187.078125 11.140625 187.4375 11.003906 187.917969 11.019531 C 188.019531 11.019531 188.097656 11.109375 188.089844 11.207031 C 188.089844 11.304688 188 11.386719 187.902344 11.378906 C 187.542969 11.363281 187.300781 11.460938 187.144531 11.65625 C 186.785156 12.132812 187.070312 13.046875 187.070312 13.054688 C 187.101562 13.152344 187.046875 13.25 186.957031 13.285156 C 186.933594 13.285156 186.914062 13.285156 186.898438 13.285156 Z M 186.898438 13.285156 "/><path style=" stroke:none;fill-rule:nonzero;fill:#000000;fill-opacity:1;" d="M 127.601562 116.6875 C 127.59375 116.6875 127.582031 116.6875 127.574219 116.6875 L 126.839844 116.605469 C 126.742188 116.597656 126.667969 116.507812 126.6875 116.410156 C 126.695312 116.308594 126.785156 116.238281 126.882812 116.253906 L 127.617188 116.335938 C 127.714844 116.34375 127.789062 116.433594 127.773438 116.53125 C 127.773438 116.621094 127.691406 116.6875 127.601562 116.6875 Z M 127.601562 116.6875 "/><g clip-rule="nonzero" clip-path="url(#8bc862726e)"><path style=" stroke:none;fill-rule:nonzero;fill:#ffffff;fill-opacity:1;" d="M 114.203125 149.765625 L 109.242188 138.667969 L 99.84375 133.535156 L 75.738281 131.539062 L 84.015625 149.765625 Z M 114.203125 149.765625 "/><path style=" stroke:none;fill-rule:nonzero;fill:#000000;fill-opacity:1;" d="M 114.203125 149.945312 C 114.140625 149.945312 114.074219 149.902344 114.039062 149.835938 L 109.101562 138.792969 L 99.796875 133.707031 L 76.03125 131.738281 L 84.1875 149.683594 C 84.226562 149.773438 84.1875 149.878906 84.097656 149.917969 C 84.007812 149.960938 83.902344 149.917969 83.859375 149.828125 L 75.582031 131.605469 C 75.558594 131.550781 75.566406 131.484375 75.597656 131.425781 C 75.640625 131.378906 75.695312 131.34375 75.761719 131.351562 L 99.867188 133.347656 C 99.894531 133.347656 99.917969 133.355469 99.941406 133.371094 L 109.339844 138.5 C 109.371094 138.515625 109.402344 138.546875 109.421875 138.578125 L 114.382812 149.675781 C 114.425781 149.765625 114.382812 149.871094 114.292969 149.910156 C 114.253906 149.933594 114.226562 149.945312 114.203125 149.945312 Z M 114.203125 149.945312 "/></g><g clip-rule="nonzero" clip-path="url(#3d6d6e26f6)"><path style=" stroke:none;fill-rule:nonzero;fill:#ffffff;fill-opacity:1;" d="M 78.421875 149.765625 L 77.25 126.144531 L 48.40625 124.796875 L 48.40625 149.765625 Z M 78.421875 149.765625 "/><path style=" stroke:none;fill-rule:nonzero;fill:#000000;fill-opacity:1;" d="M 78.421875 149.945312 C 78.324219 149.945312 78.253906 149.871094 78.242188 149.773438 L 77.085938 126.316406 L 48.585938 124.984375 L 48.585938 149.765625 C 48.585938 149.863281 48.503906 149.945312 48.40625 149.945312 C 48.308594 149.945312 48.226562 149.863281 48.226562 149.765625 L 48.226562 124.796875 C 48.226562 124.746094 48.242188 124.699219 48.285156 124.664062 C 48.316406 124.632812 48.367188 124.617188 48.414062 124.617188 L 77.265625 125.964844 C 77.355469 125.972656 77.429688 126.046875 77.4375 126.136719 L 78.601562 149.753906 C 78.613281 149.855469 78.53125 149.945312 78.433594 149.945312 C 78.433594 149.945312 78.421875 149.945312 78.421875 149.945312 Z M 78.421875 149.945312 "/></g><path style=" stroke:none;fill-rule:nonzero;fill:#ffffff;fill-opacity:1;" d="M 130.398438 78.816406 L 110.90625 75.320312 L 99.339844 58.222656 L 98.703125 57.40625 C 96.523438 55.257812 93.207031 53.5 90.515625 52.679688 C 85.378906 51.128906 79.8125 52.035156 75.410156 55.101562 C 75.410156 55.101562 54.683594 75.507812 50.914062 82.226562 C 47.132812 88.945312 46.4375 97.777344 46.152344 103.238281 C 45.140625 122.972656 45.035156 137.140625 45.492188 142.09375 C 45.941406 142.25 62.144531 143.058594 83.207031 142.472656 C 83.175781 142.226562 83.328125 138.898438 83.328125 138.898438 C 83.328125 138.898438 85.011719 141.074219 85.867188 142.390625 C 94.082031 142.121094 102.9375 141.628906 111.828125 140.8125 L 83.339844 85.234375 L 91.519531 79.242188 C 91.519531 79.242188 92.269531 78.539062 93.347656 77.363281 L 98.695312 89.019531 C 102.023438 92.011719 106.757812 93.304688 110.890625 91.5625 L 127.242188 94.074219 C 127.511719 92.789062 130.398438 78.816406 130.398438 78.816406 Z M 130.398438 78.816406 "/><path style=" stroke:none;fill-rule:nonzero;fill:#5479f7;fill-opacity:1;" d="M 67.804688 142.863281 C 54.699219 142.863281 45.8125 142.398438 45.425781 142.265625 C 45.363281 142.242188 45.3125 142.183594 45.304688 142.113281 C 44.90625 137.84375 44.839844 125.105469 45.964844 103.230469 C 46.292969 96.789062 47.140625 88.5625 50.742188 82.136719 C 54.488281 75.464844 75.058594 55.175781 75.273438 54.96875 C 75.28125 54.960938 75.289062 54.953125 75.296875 54.953125 C 79.785156 51.824219 85.355469 50.933594 90.554688 52.507812 C 93.558594 53.417969 96.800781 55.289062 98.816406 57.285156 C 98.824219 57.292969 98.824219 57.292969 98.832031 57.300781 L 99.46875 58.117188 L 111.003906 75.164062 L 130.425781 78.644531 C 130.472656 78.65625 130.515625 78.679688 130.539062 78.71875 C 130.5625 78.761719 130.578125 78.808594 130.5625 78.859375 C 130.53125 78.996094 127.671875 92.847656 127.40625 94.121094 C 127.386719 94.210938 127.296875 94.277344 127.199219 94.261719 L 110.898438 91.757812 C 106.972656 93.394531 102.136719 92.371094 98.5625 89.167969 C 98.546875 89.152344 98.53125 89.136719 98.523438 89.109375 L 93.289062 77.699219 C 92.316406 78.746094 91.648438 79.382812 91.640625 79.390625 C 91.632812 79.398438 91.632812 79.398438 91.625 79.40625 L 83.566406 85.300781 L 111.984375 140.738281 C 112.007812 140.796875 112.007812 140.851562 111.984375 140.910156 C 111.949219 140.957031 111.902344 141 111.84375 141 C 103.746094 141.742188 95.011719 142.285156 85.878906 142.578125 C 85.8125 142.578125 85.753906 142.546875 85.722656 142.496094 C 85.09375 141.539062 84.015625 140.101562 83.492188 139.414062 C 83.4375 140.671875 83.371094 142.308594 83.394531 142.464844 C 83.402344 142.511719 83.386719 142.5625 83.355469 142.601562 C 83.320312 142.644531 83.273438 142.660156 83.222656 142.667969 C 77.671875 142.804688 72.472656 142.863281 67.804688 142.863281 Z M 45.65625 141.941406 C 47.15625 142.113281 62.449219 142.863281 83.019531 142.292969 C 83.027344 141.5625 83.132812 139.183594 83.140625 138.890625 C 83.140625 138.816406 83.199219 138.75 83.265625 138.726562 C 83.339844 138.703125 83.410156 138.726562 83.460938 138.792969 C 83.476562 138.816406 85.085938 140.902344 85.949219 142.210938 C 94.945312 141.90625 103.542969 141.390625 111.535156 140.65625 L 83.167969 85.324219 C 83.125 85.242188 83.148438 85.152344 83.222656 85.097656 L 91.394531 79.113281 C 91.476562 79.03125 92.203125 78.34375 93.199219 77.25 C 93.242188 77.207031 93.296875 77.183594 93.363281 77.191406 C 93.417969 77.199219 93.476562 77.238281 93.5 77.296875 L 98.832031 88.921875 C 102.316406 92.039062 107.011719 93.011719 110.808594 91.40625 C 110.839844 91.390625 110.875 91.390625 110.90625 91.398438 L 127.09375 93.886719 C 127.484375 92.003906 129.851562 80.558594 130.179688 78.972656 L 110.863281 75.507812 C 110.816406 75.5 110.773438 75.472656 110.75 75.433594 L 99.183594 58.339844 L 98.5625 57.546875 C 96.585938 55.601562 93.402344 53.761719 90.457031 52.871094 C 85.363281 51.324219 79.917969 52.199219 75.515625 55.257812 C 74.945312 55.820312 54.75 75.769531 51.058594 82.332031 C 47.492188 88.695312 46.652344 96.859375 46.324219 103.261719 C 45.222656 124.878906 45.273438 137.558594 45.65625 141.941406 Z M 45.65625 141.941406 "/><path style=" stroke:none;fill-rule:nonzero;fill:#5479f7;fill-opacity:1;" d="M 83.214844 138.441406 C 83.125 138.441406 83.050781 138.375 83.035156 138.292969 C 81.363281 128.089844 79.925781 120.496094 78.53125 113.15625 C 77.140625 105.8125 75.695312 98.210938 74.023438 88.007812 C 74.007812 87.910156 74.074219 87.820312 74.171875 87.800781 C 74.269531 87.785156 74.359375 87.851562 74.375 87.949219 C 76.046875 98.152344 77.484375 105.746094 78.882812 113.089844 C 80.269531 120.429688 81.714844 128.035156 83.386719 138.238281 C 83.402344 138.335938 83.339844 138.425781 83.238281 138.441406 C 83.230469 138.441406 83.222656 138.441406 83.214844 138.441406 Z M 83.214844 138.441406 "/><path style=" stroke:none;fill-rule:nonzero;fill:#000000;fill-opacity:1;" d="M 120.308594 35.496094 C 119.46875 33.820312 117.378906 32.9375 115.429688 32.660156 C 110.628906 31.972656 107.484375 34.140625 106.457031 34.851562 C 106.359375 33.148438 105.730469 31.949219 105.535156 31.328125 C 105.371094 30.8125 105.160156 30.3125 104.882812 29.847656 C 103.8125 28.058594 101.941406 26.789062 99.917969 26.339844 C 98.898438 26.109375 97.828125 26.085938 96.808594 26.316406 C 95.632812 26.570312 94.554688 27.164062 93.625 27.910156 C 93.117188 28.308594 92.652344 28.769531 92.21875 29.25 C 91.789062 29.734375 91.417969 30.265625 90.988281 30.746094 C 90.515625 31.269531 89.964844 31.613281 89.28125 31.785156 C 88.578125 31.964844 87.851562 32.054688 87.152344 32.210938 C 85.804688 32.503906 84.433594 32.855469 83.175781 33.429688 C 82.066406 33.933594 81.070312 34.710938 80.5625 35.855469 C 80.066406 37 80.066406 38.292969 80.226562 39.511719 C 80.382812 40.648438 80.644531 41.792969 81.101562 42.847656 C 81.519531 43.792969 82.128906 44.726562 83.050781 45.25 C 84.113281 45.855469 85.3125 45.683594 86.480469 45.640625 C 87.078125 45.625 87.707031 45.652344 88.234375 45.945312 C 88.824219 46.273438 89.152344 46.886719 89.625 47.34375 C 90.414062 48.101562 91.453125 48.550781 92.53125 48.699219 C 93.625 48.847656 94.757812 48.707031 95.777344 48.273438 C 96.855469 47.816406 97.789062 47.046875 98.503906 46.132812 C 99.242188 45.191406 99.777344 44.097656 100.105469 42.945312 C 100.277344 42.339844 100.359375 41.710938 100.488281 41.097656 C 100.613281 40.5 101.894531 34.726562 104.890625 36.460938 C 100.644531 42.078125 102.171875 45.585938 104.171875 46.753906 C 106.90625 48.347656 108.21875 50.410156 111.042969 48.953125 C 113.355469 47.757812 113.492188 48.601562 114.300781 46.386719 C 115.132812 44.113281 118.605469 43.441406 120.21875 41.710938 C 121.527344 40.296875 121.152344 37.171875 120.308594 35.496094 Z M 120.308594 35.496094 "/><path style=" stroke:none;fill-rule:nonzero;fill:#ffffff;fill-opacity:1;" d="M 90.757812 54.683594 L 105.019531 44.503906 L 111.949219 48.519531 L 98.382812 59.703125 Z M 90.757812 54.683594 "/><path style=" stroke:none;fill-rule:nonzero;fill:#000000;fill-opacity:1;" d="M 98.382812 59.882812 C 98.351562 59.882812 98.316406 59.875 98.285156 59.851562 L 90.660156 54.824219 C 90.613281 54.789062 90.578125 54.734375 90.578125 54.675781 C 90.578125 54.617188 90.605469 54.5625 90.652344 54.527344 L 104.90625 44.351562 C 104.964844 44.308594 105.035156 44.308594 105.101562 44.34375 L 112.03125 48.363281 C 112.082031 48.398438 112.113281 48.445312 112.121094 48.503906 C 112.128906 48.5625 112.105469 48.617188 112.058594 48.660156 L 98.488281 59.84375 C 98.464844 59.875 98.425781 59.882812 98.382812 59.882812 Z M 91.078125 54.675781 L 98.367188 59.484375 L 111.632812 48.550781 L 105.027344 44.71875 Z M 91.078125 54.675781 "/><path style=" stroke:none;fill-rule:nonzero;fill:#ffffff;fill-opacity:1;" d="M 87.402344 53.824219 L 94.871094 50.203125 L 99.617188 57.929688 L 103.207031 56.898438 L 101.984375 62.269531 Z M 87.402344 53.824219 "/><path style=" stroke:none;fill-rule:nonzero;fill:#5479f7;fill-opacity:1;" d="M 101.984375 62.457031 C 101.96875 62.457031 101.957031 62.457031 101.941406 62.449219 C 101.84375 62.425781 101.789062 62.328125 101.804688 62.238281 L 102.964844 57.160156 L 99.65625 58.101562 C 99.574219 58.125 99.492188 58.09375 99.453125 58.019531 L 94.800781 50.433594 L 87.484375 53.988281 C 87.394531 54.03125 87.289062 53.996094 87.25 53.90625 C 87.207031 53.816406 87.238281 53.710938 87.328125 53.671875 L 94.792969 50.039062 C 94.871094 50 94.972656 50.03125 95.019531 50.105469 L 99.6875 57.71875 L 103.160156 56.726562 C 103.214844 56.710938 103.289062 56.726562 103.332031 56.769531 C 103.378906 56.808594 103.394531 56.875 103.378906 56.941406 L 102.148438 62.3125 C 102.136719 62.402344 102.066406 62.457031 101.984375 62.457031 Z M 101.984375 62.457031 "/><path style=" stroke:none;fill-rule:nonzero;fill:#ffffff;fill-opacity:1;" d="M 108.742188 51.765625 C 110.515625 52.378906 112.246094 51.789062 113.257812 51.039062 C 115.933594 49.035156 117.789062 45.894531 117.949219 42.550781 C 115.648438 42.601562 113.347656 41.636719 111.761719 39.960938 C 111.324219 40.648438 110.875 41.34375 110.238281 41.855469 C 109.601562 42.363281 108.734375 42.660156 107.960938 42.414062 C 107.257812 42.191406 106.734375 41.570312 106.023438 41.351562 C 105.109375 41.070312 104.058594 41.59375 103.617188 42.445312 C 103.175781 43.296875 103.289062 44.375 103.789062 45.191406 C 104.03125 45.59375 104.367188 45.945312 104.75 46.222656 C 105.019531 46.425781 105.753906 46.613281 105.925781 46.859375 C 106.136719 47.171875 105.691406 50.710938 108.742188 51.765625 Z M 108.742188 51.765625 "/><path style=" stroke:none;fill-rule:nonzero;fill:#000000;fill-opacity:1;" d="M 110.277344 52.207031 C 109.761719 52.207031 109.234375 52.125 108.683594 51.9375 C 106.136719 51.054688 105.917969 48.511719 105.828125 47.425781 C 105.8125 47.226562 105.796875 47.015625 105.769531 46.964844 C 105.707031 46.875 105.402344 46.746094 105.183594 46.648438 C 104.972656 46.558594 104.765625 46.46875 104.636719 46.371094 C 104.21875 46.058594 103.878906 45.691406 103.632812 45.289062 C 103.070312 44.375 103.003906 43.230469 103.453125 42.371094 C 103.957031 41.40625 105.109375 40.890625 106.074219 41.1875 C 106.457031 41.300781 106.785156 41.53125 107.09375 41.742188 C 107.394531 41.945312 107.679688 42.144531 108.007812 42.25 C 108.652344 42.453125 109.460938 42.25 110.121094 41.726562 C 110.742188 41.226562 111.183594 40.539062 111.609375 39.878906 C 111.640625 39.828125 111.691406 39.804688 111.738281 39.796875 C 111.796875 39.789062 111.84375 39.8125 111.886719 39.855469 C 113.429688 41.480469 115.699219 42.429688 117.941406 42.386719 C 117.992188 42.386719 118.039062 42.40625 118.074219 42.445312 C 118.105469 42.476562 118.128906 42.527344 118.121094 42.578125 C 117.960938 45.863281 116.179688 49.085938 113.355469 51.203125 C 112.621094 51.734375 111.519531 52.207031 110.277344 52.207031 Z M 105.511719 41.457031 C 104.824219 41.457031 104.105469 41.875 103.761719 42.527344 C 103.371094 43.28125 103.4375 44.285156 103.933594 45.09375 C 104.15625 45.460938 104.464844 45.789062 104.847656 46.074219 C 104.945312 46.148438 105.132812 46.230469 105.320312 46.3125 C 105.640625 46.453125 105.933594 46.574219 106.066406 46.753906 C 106.136719 46.851562 106.15625 47.007812 106.1875 47.382812 C 106.285156 48.488281 106.480469 50.785156 108.808594 51.585938 C 110.523438 52.183594 112.179688 51.609375 113.152344 50.882812 C 115.835938 48.878906 117.542969 45.839844 117.761719 42.722656 C 115.558594 42.714844 113.355469 41.800781 111.796875 40.238281 C 111.386719 40.867188 110.953125 41.496094 110.351562 41.988281 C 109.582031 42.601562 108.675781 42.820312 107.910156 42.578125 C 107.535156 42.460938 107.214844 42.242188 106.90625 42.027344 C 106.59375 41.816406 106.308594 41.621094 105.984375 41.523438 C 105.820312 41.480469 105.664062 41.457031 105.511719 41.457031 Z M 105.511719 41.457031 "/><path style=" stroke:none;fill-rule:nonzero;fill:#000000;fill-opacity:1;" d="M 106.914062 45.453125 C 106.839844 45.453125 106.765625 45.40625 106.742188 45.332031 C 106.496094 44.644531 105.910156 44.097656 105.207031 43.910156 C 105.109375 43.882812 105.054688 43.785156 105.085938 43.6875 C 105.109375 43.589844 105.207031 43.53125 105.304688 43.566406 C 106.121094 43.785156 106.800781 44.425781 107.085938 45.21875 C 107.117188 45.308594 107.070312 45.414062 106.980469 45.445312 C 106.953125 45.445312 106.929688 45.453125 106.914062 45.453125 Z M 106.914062 45.453125 "/><path style=" stroke:none;fill-rule:nonzero;fill:#ffffff;fill-opacity:1;" d="M 128.726562 97.246094 L 123.152344 113.066406 L 90.359375 102.339844 C 86.300781 100.964844 83.070312 97.851562 81.535156 93.84375 L 69.769531 63.023438 C 69.769531 63.023438 79.632812 48.667969 87.296875 57.0625 L 97.789062 86.085938 Z M 128.726562 97.246094 "/><g clip-rule="nonzero" clip-path="url(#179ca9722c)"><path style=" stroke:none;fill-rule:nonzero;fill:#e2eaff;fill-opacity:1;" d="M 143.886719 100.042969 C 143.886719 100.042969 140.5625 100.171875 137.566406 102.070312 C 135.4375 103.417969 128.246094 110.660156 127.265625 112.753906 C 126.285156 114.839844 124.195312 149.78125 124.195312 149.78125 L 127.753906 149.78125 C 127.753906 149.78125 128.921875 122.703125 129.355469 117.734375 C 129.789062 112.761719 130.089844 112.761719 130.089844 112.761719 C 130.089844 112.761719 136.957031 105.085938 139.101562 104.414062 C 141.25 103.738281 143.273438 102.886719 143.273438 102.886719 L 146.808594 102.714844 Z M 143.886719 100.042969 "/></g><path style=" stroke:none;fill-rule:nonzero;fill:#000000;fill-opacity:1;" d="M 142.644531 101.292969 C 142.554688 101.292969 142.480469 101.226562 142.464844 101.136719 L 142.351562 100.410156 C 142.335938 100.3125 142.402344 100.222656 142.5 100.203125 C 142.597656 100.1875 142.6875 100.253906 142.703125 100.351562 L 142.816406 101.078125 C 142.832031 101.175781 142.769531 101.265625 142.667969 101.285156 C 142.667969 101.292969 142.652344 101.292969 142.644531 101.292969 Z M 142.644531 101.292969 "/><path style=" stroke:none;fill-rule:nonzero;fill:#000000;fill-opacity:1;" d="M 127.027344 123.113281 C 127.019531 123.113281 127.011719 123.113281 127.003906 123.113281 L 126.269531 123.03125 C 126.171875 123.023438 126.097656 122.933594 126.113281 122.835938 C 126.121094 122.734375 126.210938 122.664062 126.308594 122.679688 L 127.046875 122.761719 C 127.144531 122.769531 127.214844 122.859375 127.199219 122.957031 C 127.191406 123.046875 127.117188 123.113281 127.027344 123.113281 Z M 127.027344 123.113281 "/><path style=" stroke:none;fill-rule:nonzero;fill:#000000;fill-opacity:1;" d="M 126.539062 129.5625 C 126.53125 129.5625 126.523438 129.5625 126.515625 129.5625 L 125.78125 129.480469 C 125.683594 129.472656 125.609375 129.382812 125.625 129.285156 C 125.632812 129.1875 125.722656 129.113281 125.820312 129.128906 L 126.554688 129.210938 C 126.652344 129.21875 126.726562 129.308594 126.710938 129.40625 C 126.703125 129.496094 126.628906 129.5625 126.539062 129.5625 Z M 126.539062 129.5625 "/><path style=" stroke:none;fill-rule:nonzero;fill:#000000;fill-opacity:1;" d="M 126.140625 135.949219 C 126.128906 135.949219 126.121094 135.949219 126.113281 135.949219 L 125.378906 135.867188 C 125.28125 135.859375 125.207031 135.765625 125.226562 135.667969 C 125.234375 135.570312 125.324219 135.496094 125.421875 135.515625 L 126.15625 135.597656 C 126.253906 135.605469 126.328125 135.695312 126.308594 135.792969 C 126.308594 135.882812 126.230469 135.949219 126.140625 135.949219 Z M 126.140625 135.949219 "/><path style=" stroke:none;fill-rule:nonzero;fill:#000000;fill-opacity:1;" d="M 125.738281 142.488281 C 125.730469 142.488281 125.722656 142.488281 125.714844 142.488281 L 124.980469 142.40625 C 124.882812 142.398438 124.808594 142.308594 124.824219 142.210938 C 124.832031 142.113281 124.921875 142.039062 125.019531 142.054688 L 125.753906 142.136719 C 125.851562 142.144531 125.925781 142.234375 125.910156 142.332031 C 125.910156 142.421875 125.828125 142.488281 125.738281 142.488281 Z M 125.738281 142.488281 "/><path style=" stroke:none;fill-rule:nonzero;fill:#ffffff;fill-opacity:1;" d="M 127.625 97.546875 C 127.625 97.546875 129.617188 98.203125 131.707031 98.308594 C 137.394531 98.601562 139.699219 96.6875 140.621094 97.734375 C 142.023438 99.328125 139.960938 100.777344 138.53125 101.539062 C 138.53125 101.539062 139.765625 102.394531 140.808594 102.773438 C 141.855469 103.148438 143.371094 102.992188 143.371094 102.992188 C 143.371094 102.992188 143.84375 104.578125 143.085938 105.429688 C 142.328125 106.289062 140.074219 106.269531 140.074219 106.269531 C 140.074219 106.269531 139.804688 108.355469 137.445312 108.519531 C 137.445312 108.519531 137.886719 110.433594 134.660156 110.683594 C 134.660156 110.683594 134.660156 111.535156 133.234375 112.296875 C 131.804688 113.054688 126 112.558594 122.585938 111.992188 C 119.175781 111.421875 117.371094 110.757812 117.371094 110.757812 Z M 127.625 97.546875 "/><path style=" stroke:none;fill-rule:nonzero;fill:#000000;fill-opacity:1;" d="M 130.230469 112.859375 C 127.851562 112.859375 124.742188 112.53125 122.5625 112.164062 C 119.167969 111.601562 117.332031 110.929688 117.3125 110.921875 C 117.257812 110.90625 117.214844 110.855469 117.199219 110.800781 C 117.183594 110.742188 117.191406 110.683594 117.234375 110.636719 L 127.476562 97.433594 C 127.527344 97.375 127.601562 97.351562 127.671875 97.375 C 127.691406 97.382812 129.664062 98.023438 131.707031 98.128906 C 134.6875 98.285156 136.757812 97.816406 138.132812 97.515625 C 139.445312 97.21875 140.238281 97.039062 140.75 97.621094 C 141.167969 98.09375 141.332031 98.59375 141.242188 99.109375 C 141.09375 99.933594 140.300781 100.761719 138.875 101.5625 C 139.28125 101.824219 140.132812 102.347656 140.867188 102.617188 C 141.855469 102.976562 143.339844 102.828125 143.347656 102.828125 C 143.429688 102.820312 143.511719 102.871094 143.535156 102.960938 C 143.558594 103.023438 144.023438 104.652344 143.207031 105.566406 C 142.515625 106.351562 140.734375 106.449219 140.210938 106.46875 C 140.089844 106.957031 139.566406 108.46875 137.640625 108.699219 C 137.648438 108.945312 137.609375 109.359375 137.304688 109.777344 C 136.859375 110.382812 136.023438 110.75 134.816406 110.867188 C 134.742188 111.175781 134.457031 111.863281 133.316406 112.46875 C 132.777344 112.746094 131.632812 112.859375 130.230469 112.859375 Z M 117.671875 110.667969 C 118.261719 110.867188 119.960938 111.371094 122.621094 111.8125 C 126.179688 112.410156 131.820312 112.851562 133.152344 112.140625 C 134.441406 111.453125 134.480469 110.695312 134.480469 110.683594 C 134.480469 110.59375 134.554688 110.515625 134.644531 110.503906 C 135.804688 110.414062 136.621094 110.089844 137.019531 109.550781 C 137.378906 109.058594 137.273438 108.558594 137.273438 108.558594 C 137.265625 108.511719 137.273438 108.453125 137.304688 108.414062 C 137.339844 108.371094 137.386719 108.347656 137.4375 108.339844 C 139.609375 108.183594 139.886719 106.328125 139.894531 106.246094 C 139.902344 106.15625 139.984375 106.089844 140.074219 106.089844 C 140.074219 106.089844 140.074219 106.089844 140.082031 106.089844 C 140.195312 106.089844 142.269531 106.082031 142.957031 105.3125 C 143.519531 104.683594 143.332031 103.582031 143.242188 103.1875 C 142.816406 103.222656 141.632812 103.269531 140.75 102.945312 C 139.699219 102.558594 138.480469 101.726562 138.433594 101.683594 C 138.382812 101.652344 138.351562 101.585938 138.359375 101.527344 C 138.359375 101.464844 138.402344 101.40625 138.457031 101.382812 C 139.476562 100.835938 140.726562 99.992188 140.898438 99.042969 C 140.972656 98.636719 140.839844 98.25 140.488281 97.859375 C 140.121094 97.441406 139.445312 97.597656 138.222656 97.867188 C 136.832031 98.175781 134.726562 98.644531 131.699219 98.488281 C 129.902344 98.398438 128.164062 97.898438 127.691406 97.761719 Z M 117.671875 110.667969 "/><path style=" stroke:none;fill-rule:nonzero;fill:#000000;fill-opacity:1;" d="M 140.074219 106.449219 C 140.058594 106.449219 140.050781 106.449219 140.03125 106.449219 C 140.023438 106.449219 139.257812 106.289062 138.335938 106.066406 C 138.238281 106.042969 138.179688 105.945312 138.203125 105.84375 C 138.230469 105.746094 138.328125 105.691406 138.425781 105.714844 C 139.339844 105.925781 140.105469 106.097656 140.113281 106.097656 C 140.210938 106.125 140.277344 106.214844 140.253906 106.3125 C 140.238281 106.394531 140.15625 106.449219 140.074219 106.449219 Z M 140.074219 106.449219 "/><path style=" stroke:none;fill-rule:nonzero;fill:#000000;fill-opacity:1;" d="M 137.453125 108.699219 C 137.445312 108.699219 137.445312 108.699219 137.4375 108.699219 L 136.238281 108.59375 C 136.140625 108.585938 136.066406 108.496094 136.074219 108.394531 C 136.082031 108.296875 136.171875 108.226562 136.269531 108.234375 L 137.46875 108.339844 C 137.566406 108.347656 137.640625 108.4375 137.632812 108.535156 C 137.625 108.625 137.542969 108.699219 137.453125 108.699219 Z M 137.453125 108.699219 "/><path style=" stroke:none;fill-rule:nonzero;fill:#000000;fill-opacity:1;" d="M 134.667969 110.867188 C 134.660156 110.867188 134.652344 110.867188 134.636719 110.867188 L 133.753906 110.726562 C 133.65625 110.710938 133.59375 110.621094 133.609375 110.523438 C 133.625 110.425781 133.714844 110.359375 133.8125 110.375 L 134.695312 110.515625 C 134.792969 110.53125 134.859375 110.621094 134.839844 110.71875 C 134.832031 110.800781 134.75 110.867188 134.667969 110.867188 Z M 134.667969 110.867188 "/><path style=" stroke:none;fill-rule:nonzero;fill:#ffffff;fill-opacity:1;" d="M 80.082031 54.660156 C 81.371094 54.339844 82.703125 54.324219 84.015625 54.78125 C 85.835938 55.421875 87.230469 56.898438 87.886719 58.714844 L 97.777344 86.078125 L 128.742188 97.148438 L 123.289062 113.121094 L 90.351562 102.339844 C 86.292969 100.964844 83.058594 97.851562 81.527344 93.84375 L 74.269531 74.835938 Z M 80.082031 54.660156 "/><path style=" stroke:none;fill-rule:nonzero;fill:#5479f7;fill-opacity:1;" d="M 123.289062 113.308594 C 123.273438 113.308594 123.25 113.308594 123.234375 113.300781 L 90.292969 102.519531 C 86.171875 101.121094 82.914062 97.988281 81.363281 93.917969 L 74.105469 74.910156 C 74.074219 74.820312 74.113281 74.714844 74.210938 74.679688 C 74.300781 74.648438 74.40625 74.6875 74.441406 74.789062 L 81.695312 93.796875 C 83.214844 97.769531 86.390625 100.816406 90.40625 102.183594 L 123.175781 112.910156 L 128.515625 97.269531 L 97.722656 86.257812 C 97.671875 86.242188 97.632812 86.199219 97.617188 86.152344 L 87.722656 58.789062 C 87.0625 56.964844 85.6875 55.574219 83.957031 54.96875 C 82.765625 54.554688 81.476562 54.511719 80.121094 54.847656 C 80.023438 54.871094 79.925781 54.816406 79.902344 54.71875 C 79.875 54.617188 79.933594 54.519531 80.03125 54.496094 C 81.453125 54.144531 82.808594 54.183594 84.074219 54.628906 C 85.910156 55.265625 87.363281 56.734375 88.054688 58.664062 L 97.917969 85.953125 L 128.800781 96.992188 C 128.890625 97.023438 128.9375 97.121094 128.90625 97.21875 L 123.453125 113.195312 C 123.4375 113.261719 123.363281 113.308594 123.289062 113.308594 Z M 123.289062 113.308594 "/><path style=" stroke:none;fill-rule:nonzero;fill:#000000;fill-opacity:1;" d="M 220.222656 92.5625 C 220.125 92.5625 220.042969 92.480469 220.042969 92.378906 L 220.042969 36.011719 L 211.765625 36.011719 C 211.667969 36.011719 211.585938 35.929688 211.585938 35.832031 C 211.585938 35.734375 211.667969 35.652344 211.765625 35.652344 L 220.222656 35.652344 C 220.320312 35.652344 220.402344 35.734375 220.402344 35.832031 L 220.402344 92.378906 C 220.402344 92.480469 220.320312 92.5625 220.222656 92.5625 Z M 220.222656 92.5625 "/><g clip-rule="nonzero" clip-path="url(#721bcf8f12)"><path style=" stroke:none;fill-rule:nonzero;fill:#e2eaff;fill-opacity:1;" d="M 224.101562 99.933594 C 224.101562 100.457031 224 100.960938 223.800781 101.441406 C 223.601562 101.925781 223.316406 102.351562 222.949219 102.722656 C 222.578125 103.089844 222.152344 103.375 221.671875 103.574219 C 221.1875 103.777344 220.6875 103.875 220.164062 103.875 C 219.644531 103.875 219.140625 103.777344 218.660156 103.574219 C 218.175781 103.375 217.75 103.089844 217.382812 102.722656 C 217.015625 102.351562 216.730469 101.925781 216.53125 101.441406 C 216.332031 100.960938 216.230469 100.457031 216.230469 99.933594 C 216.230469 99.414062 216.332031 98.910156 216.53125 98.425781 C 216.730469 97.945312 217.015625 97.519531 217.382812 97.148438 C 217.75 96.777344 218.175781 96.496094 218.660156 96.292969 C 219.140625 96.09375 219.644531 95.996094 220.164062 95.996094 C 220.6875 95.996094 221.1875 96.09375 221.671875 96.292969 C 222.152344 96.496094 222.578125 96.777344 222.949219 97.148438 C 223.316406 97.519531 223.601562 97.945312 223.800781 98.425781 C 224 98.910156 224.101562 99.414062 224.101562 99.933594 Z M 224.101562 99.933594 "/></g><g clip-rule="nonzero" clip-path="url(#186221a9d1)"><path style=" stroke:none;fill-rule:nonzero;fill:#e2eaff;fill-opacity:1;" d="M 224.101562 112.089844 C 224.101562 112.613281 224 113.117188 223.800781 113.601562 C 223.601562 114.082031 223.316406 114.507812 222.949219 114.878906 C 222.578125 115.246094 222.152344 115.53125 221.671875 115.730469 C 221.1875 115.933594 220.6875 116.03125 220.164062 116.03125 C 219.644531 116.03125 219.140625 115.933594 218.660156 115.730469 C 218.175781 115.53125 217.75 115.246094 217.382812 114.878906 C 217.015625 114.507812 216.730469 114.082031 216.53125 113.601562 C 216.332031 113.117188 216.230469 112.613281 216.230469 112.089844 C 216.230469 111.570312 216.332031 111.066406 216.53125 110.582031 C 216.730469 110.101562 217.015625 109.675781 217.382812 109.304688 C 217.75 108.9375 218.175781 108.652344 218.660156 108.449219 C 219.140625 108.25 219.644531 108.152344 220.164062 108.152344 C 220.6875 108.152344 221.1875 108.25 221.671875 108.449219 C 222.152344 108.652344 222.578125 108.9375 222.949219 109.304688 C 223.316406 109.675781 223.601562 110.101562 223.800781 110.582031 C 224 111.066406 224.101562 111.570312 224.101562 112.089844 Z M 224.101562 112.089844 "/></g><g clip-rule="nonzero" clip-path="url(#1bdf83d885)"><path style=" stroke:none;fill-rule:nonzero;fill:#e2eaff;fill-opacity:1;" d="M 224.101562 124.25 C 224.101562 124.769531 224 125.273438 223.800781 125.757812 C 223.601562 126.238281 223.316406 126.664062 222.949219 127.035156 C 222.578125 127.402344 222.152344 127.6875 221.671875 127.890625 C 221.1875 128.089844 220.6875 128.1875 220.164062 128.1875 C 219.644531 128.1875 219.140625 128.089844 218.660156 127.890625 C 218.175781 127.6875 217.75 127.402344 217.382812 127.035156 C 217.015625 126.664062 216.730469 126.238281 216.53125 125.757812 C 216.332031 125.273438 216.230469 124.769531 216.230469 124.25 C 216.230469 123.726562 216.332031 123.222656 216.53125 122.742188 C 216.730469 122.257812 217.015625 121.832031 217.382812 121.460938 C 217.75 121.09375 218.175781 120.808594 218.660156 120.609375 C 219.140625 120.40625 219.644531 120.308594 220.164062 120.308594 C 220.6875 120.308594 221.1875 120.40625 221.671875 120.609375 C 222.152344 120.808594 222.578125 121.09375 222.949219 121.460938 C 223.316406 121.832031 223.601562 122.257812 223.800781 122.742188 C 224 123.222656 224.101562 123.726562 224.101562 124.25 Z M 224.101562 124.25 "/></g><path style=" stroke:none;fill-rule:nonzero;fill:#000000;fill-opacity:1;" d="M 36.984375 126.945312 L 0.210938 126.945312 C 0.113281 126.945312 0.03125 126.863281 0.03125 126.765625 C 0.03125 126.667969 0.113281 126.585938 0.210938 126.585938 L 36.984375 126.585938 C 37.085938 126.585938 37.164062 126.667969 37.164062 126.765625 C 37.164062 126.863281 37.09375 126.945312 36.984375 126.945312 Z M 36.984375 126.945312 "/><g clip-rule="nonzero" clip-path="url(#10703a7e0d)"><path style=" stroke:none;fill-rule:nonzero;fill:#000000;fill-opacity:1;" d="M 33.417969 149.902344 C 33.320312 149.902344 33.246094 149.828125 33.238281 149.730469 L 32.210938 126.972656 C 32.203125 126.871094 32.285156 126.789062 32.382812 126.78125 C 32.480469 126.773438 32.5625 126.855469 32.570312 126.953125 L 33.597656 149.714844 C 33.605469 149.8125 33.523438 149.894531 33.425781 149.902344 C 33.425781 149.902344 33.417969 149.902344 33.417969 149.902344 Z M 33.417969 149.902344 "/></g><g clip-rule="nonzero" clip-path="url(#d77f520d4b)"><path style=" stroke:none;fill-rule:nonzero;fill:#000000;fill-opacity:1;" d="M 4.070312 149.902344 C 4.070312 149.902344 4.0625 149.902344 4.0625 149.902344 C 3.964844 149.894531 3.882812 149.8125 3.890625 149.714844 L 4.921875 126.953125 C 4.929688 126.855469 5.011719 126.773438 5.109375 126.78125 C 5.207031 126.789062 5.289062 126.871094 5.28125 126.972656 L 4.25 149.730469 C 4.242188 149.828125 4.160156 149.902344 4.070312 149.902344 Z M 4.070312 149.902344 "/></g><path style=" stroke:none;fill-rule:nonzero;fill:#ffffff;fill-opacity:1;" d="M 25.550781 126.757812 L 11.71875 126.757812 L 9.988281 106.3125 L 27.28125 106.3125 Z M 25.550781 126.757812 "/><path style=" stroke:none;fill-rule:nonzero;fill:#000000;fill-opacity:1;" d="M 25.550781 126.9375 L 11.71875 126.9375 C 11.628906 126.9375 11.550781 126.863281 11.539062 126.773438 L 9.808594 106.328125 C 9.800781 106.277344 9.828125 106.230469 9.859375 106.1875 C 9.890625 106.148438 9.941406 106.132812 9.988281 106.132812 L 27.28125 106.132812 C 27.328125 106.132812 27.378906 106.15625 27.410156 106.1875 C 27.441406 106.230469 27.460938 106.277344 27.460938 106.328125 L 25.730469 126.773438 C 25.71875 126.863281 25.648438 126.9375 25.550781 126.9375 Z M 11.882812 126.578125 L 25.386719 126.578125 L 27.082031 106.492188 L 10.1875 106.492188 Z M 11.882812 126.578125 "/><path style=" stroke:none;fill-rule:nonzero;fill:#ffffff;fill-opacity:1;" d="M 12.105469 106.3125 L 25.46875 106.3125 C 25.46875 106.3125 29.890625 101.398438 30.675781 96.066406 C 30.675781 96.066406 27.402344 97.128906 25.191406 99.347656 C 25.191406 99.347656 24.839844 91.636719 22.625 85.875 C 22.625 85.875 19.792969 89.683594 18.992188 93.050781 C 18.992188 93.050781 17.664062 85.421875 12.976562 80.460938 C 12.976562 80.460938 11.476562 90.746094 12.625 97.753906 C 12.625 97.753906 10.234375 92.878906 6.691406 90.746094 C 6.691406 90.746094 6.707031 99.214844 12.105469 106.3125 Z M 12.105469 106.3125 "/><path style=" stroke:none;fill-rule:nonzero;fill:#000000;fill-opacity:1;" d="M 25.46875 106.492188 L 12.105469 106.492188 C 12.046875 106.492188 11.996094 106.46875 11.957031 106.417969 C 6.585938 99.363281 6.503906 90.828125 6.503906 90.746094 C 6.503906 90.679688 6.535156 90.625 6.59375 90.589844 C 6.652344 90.558594 6.714844 90.558594 6.773438 90.589844 C 9.425781 92.183594 11.417969 95.25 12.292969 96.769531 C 11.433594 89.878906 12.773438 80.535156 12.789062 80.4375 C 12.796875 80.371094 12.847656 80.3125 12.914062 80.289062 C 12.976562 80.265625 13.050781 80.289062 13.101562 80.339844 C 16.929688 84.386719 18.546875 90.246094 19.011719 92.289062 C 20 89.117188 22.445312 85.800781 22.472656 85.765625 C 22.511719 85.71875 22.578125 85.683594 22.644531 85.691406 C 22.707031 85.703125 22.765625 85.742188 22.789062 85.808594 C 24.699219 90.792969 25.238281 97.292969 25.34375 98.945312 C 27.542969 96.910156 30.488281 95.9375 30.617188 95.894531 C 30.675781 95.878906 30.742188 95.886719 30.789062 95.929688 C 30.839844 95.96875 30.863281 96.035156 30.855469 96.09375 C 30.070312 101.414062 25.648438 106.386719 25.597656 106.433594 C 25.574219 106.46875 25.523438 106.492188 25.46875 106.492188 Z M 12.195312 106.132812 L 25.394531 106.132812 C 25.882812 105.566406 29.632812 101.128906 30.464844 96.335938 C 29.632812 96.648438 27.109375 97.6875 25.328125 99.476562 C 25.28125 99.527344 25.207031 99.542969 25.132812 99.519531 C 25.066406 99.492188 25.019531 99.429688 25.019531 99.355469 C 25.019531 99.28125 24.652344 91.882812 22.578125 86.25 C 21.925781 87.171875 19.835938 90.3125 19.171875 93.09375 C 19.15625 93.175781 19.082031 93.230469 18.992188 93.230469 C 18.914062 93.230469 18.839844 93.164062 18.824219 93.082031 C 18.804688 93.011719 17.5 85.734375 13.109375 80.871094 C 12.855469 82.78125 11.792969 91.578125 12.804688 97.726562 C 12.824219 97.816406 12.765625 97.898438 12.683594 97.933594 C 12.601562 97.957031 12.503906 97.921875 12.464844 97.84375 C 12.4375 97.792969 10.1875 93.246094 6.886719 91.089844 C 6.953125 92.699219 7.539062 99.96875 12.195312 106.132812 Z M 12.195312 106.132812 "/><path style=" stroke:none;fill-rule:nonzero;fill:#000000;fill-opacity:1;" d="M 18.464844 103.867188 C 18.375 103.867188 18.300781 103.800781 18.285156 103.71875 C 17.402344 98.511719 18.804688 93.074219 18.824219 93.019531 C 18.847656 92.921875 18.945312 92.863281 19.042969 92.886719 C 19.140625 92.914062 19.199219 93.011719 19.171875 93.109375 C 19.15625 93.164062 17.769531 98.527344 18.644531 103.65625 C 18.660156 103.753906 18.59375 103.84375 18.496094 103.859375 C 18.488281 103.867188 18.472656 103.867188 18.464844 103.867188 Z M 18.464844 103.867188 "/><path style=" stroke:none;fill-rule:nonzero;fill:#000000;fill-opacity:1;" d="M 23.335938 106.082031 C 23.3125 106.082031 23.289062 106.074219 23.261719 106.066406 C 23.171875 106.027344 23.132812 105.917969 23.171875 105.828125 C 24.480469 102.871094 25.011719 99.347656 25.019531 99.3125 C 25.035156 99.214844 25.125 99.148438 25.222656 99.160156 C 25.320312 99.175781 25.386719 99.265625 25.378906 99.363281 C 25.371094 99.394531 24.832031 102.96875 23.507812 105.96875 C 23.46875 106.042969 23.402344 106.082031 23.335938 106.082031 Z M 23.335938 106.082031 "/><path style=" stroke:none;fill-rule:nonzero;fill:#000000;fill-opacity:1;" d="M 15.898438 105.550781 C 15.84375 105.550781 15.785156 105.519531 15.746094 105.46875 C 13.011719 101.234375 12.445312 97.808594 12.445312 97.777344 C 12.429688 97.679688 12.496094 97.589844 12.59375 97.570312 C 12.691406 97.554688 12.78125 97.621094 12.796875 97.71875 C 12.804688 97.753906 13.359375 101.105469 16.046875 105.273438 C 16.105469 105.355469 16.078125 105.46875 15.988281 105.527344 C 15.964844 105.542969 15.933594 105.550781 15.898438 105.550781 Z M 15.898438 105.550781 "/><path style=" stroke:none;fill-rule:nonzero;fill:#ffffff;fill-opacity:1;" d="M 12.992188 110.023438 C 14.375 110.023438 14.375 110.742188 15.761719 110.742188 C 17.148438 110.742188 17.148438 110.023438 18.527344 110.023438 C 19.917969 110.023438 19.917969 110.742188 21.296875 110.742188 C 22.683594 110.742188 22.683594 110.023438 24.0625 110.023438 C 25.453125 110.023438 25.453125 110.742188 26.832031 110.742188 Z M 12.992188 110.023438 "/><path style=" stroke:none;fill-rule:nonzero;fill:#000000;fill-opacity:1;" d="M 26.839844 110.921875 C 26.105469 110.921875 25.730469 110.726562 25.371094 110.539062 C 25.035156 110.367188 24.714844 110.195312 24.070312 110.195312 C 23.425781 110.195312 23.109375 110.359375 22.773438 110.539062 C 22.414062 110.726562 22.039062 110.921875 21.304688 110.921875 C 20.570312 110.921875 20.195312 110.726562 19.835938 110.539062 C 19.5 110.367188 19.183594 110.195312 18.535156 110.195312 C 17.890625 110.195312 17.574219 110.359375 17.238281 110.539062 C 16.878906 110.726562 16.503906 110.921875 15.769531 110.921875 C 15.035156 110.921875 14.660156 110.726562 14.300781 110.539062 C 13.964844 110.367188 13.648438 110.195312 13.003906 110.195312 C 12.902344 110.195312 12.824219 110.113281 12.824219 110.015625 C 12.824219 109.917969 12.902344 109.835938 13.003906 109.835938 C 13.738281 109.835938 14.113281 110.03125 14.472656 110.21875 C 14.804688 110.390625 15.125 110.5625 15.769531 110.5625 C 16.414062 110.5625 16.734375 110.398438 17.066406 110.21875 C 17.425781 110.03125 17.800781 109.835938 18.535156 109.835938 C 19.273438 109.835938 19.648438 110.03125 20.007812 110.21875 C 20.339844 110.390625 20.660156 110.5625 21.304688 110.5625 C 21.949219 110.5625 22.265625 110.398438 22.601562 110.21875 C 22.960938 110.03125 23.335938 109.835938 24.070312 109.835938 C 24.804688 109.835938 25.183594 110.03125 25.542969 110.21875 C 25.875 110.390625 26.195312 110.5625 26.839844 110.5625 C 26.9375 110.5625 27.019531 110.644531 27.019531 110.742188 C 27.019531 110.839844 26.9375 110.921875 26.839844 110.921875 Z M 26.839844 110.921875 "/></g></svg>