<svg xmlns="http://www.w3.org/2000/svg" version="1.1" xmlns:xlink="http://www.w3.org/1999/xlink" xmlns:svgjs="http://svgjs.dev/svgjs" viewBox="0 0 800 800"><circle r="17" cx="588" cy="504" fill="hsl(304, 75%, 70%)" opacity="0.43"></circle><circle r="14.5" cx="19" cy="256" fill="hsl(285, 75%, 70%)" opacity="0.38"></circle><circle r="10.5" cx="694" cy="61" fill="hsl(312, 75%, 70%)" opacity="0.20"></circle><circle r="14" cx="587" cy="458" fill="hsl(300, 75%, 70%)" opacity="0.84"></circle><circle r="7" cx="221" cy="342" fill="hsl(112, 75%, 70%)" opacity="0.43"></circle><circle r="9.5" cx="551" cy="585" fill="hsl(290, 75%, 70%)" opacity="0.13"></circle><circle r="12" cx="434" cy="490" fill="hsl(248, 75%, 70%)" opacity="0.18"></circle><circle r="12" cx="669" cy="339" fill="hsl(303, 75%, 70%)" opacity="0.82"></circle><circle r="15.5" cx="382" cy="746" fill="hsl(225, 75%, 70%)" opacity="0.82"></circle><circle r="17.5" cx="107" cy="715" fill="hsl(181, 75%, 70%)" opacity="0.73"></circle><circle r="13.5" cx="642" cy="296" fill="hsl(311, 75%, 70%)" opacity="0.55"></circle><circle r="9.5" cx="294" cy="757" fill="hsl(152, 75%, 70%)" opacity="0.91"></circle><circle r="11.5" cx="326" cy="526" fill="hsl(185, 75%, 70%)" opacity="0.43"></circle><circle r="13" cx="173" cy="701" fill="hsl(123, 75%, 70%)" opacity="0.30"></circle><circle r="8" cx="787" cy="82" fill="hsl(286, 75%, 70%)" opacity="0.19"></circle><circle r="9" cx="110" cy="34" fill="hsl(100, 75%, 70%)" opacity="0.26"></circle><circle r="10.5" cx="117" cy="143" fill="hsl(176, 75%, 70%)" opacity="0.25"></circle><circle r="6.5" cx="227" cy="718" fill="hsl(115, 75%, 70%)" opacity="0.36"></circle><circle r="8" cx="784" cy="434" fill="hsl(180, 75%, 70%)" opacity="0.24"></circle><circle r="10" cx="103" cy="606" fill="hsl(181, 75%, 70%)" opacity="0.80"></circle><circle r="9" cx="211" cy="97" fill="hsl(133, 75%, 70%)" opacity="0.52"></circle><circle r="15.5" cx="480" cy="676" fill="hsl(263, 75%, 70%)" opacity="0.45"></circle><circle r="6.5" cx="209" cy="201" fill="hsl(112, 75%, 70%)" opacity="0.48"></circle><circle r="10" cx="519" cy="298" fill="hsl(276, 75%, 70%)" opacity="0.83"></circle><circle r="13.5" cx="345" cy="259" fill="hsl(196, 75%, 70%)" opacity="0.28"></circle><circle r="6.5" cx="131" cy="263" fill="hsl(153, 75%, 70%)" opacity="0.26"></circle><circle r="12" cx="63" cy="251" fill="hsl(227, 75%, 70%)" opacity="0.30"></circle><circle r="7" cx="446" cy="47" fill="hsl(185, 75%, 70%)" opacity="0.52"></circle><circle r="12" cx="686" cy="742" fill="hsl(297, 75%, 70%)" opacity="0.90"></circle><circle r="10.5" cx="45" cy="479" fill="hsl(258, 75%, 70%)" opacity="0.81"></circle><circle r="9" cx="293" cy="498" fill="hsl(152, 75%, 70%)" opacity="0.61"></circle><circle r="8.5" cx="432" cy="349" fill="hsl(248, 75%, 70%)" opacity="0.47"></circle><circle r="7.5" cx="141" cy="294" fill="hsl(141, 75%, 70%)" opacity="0.91"></circle><circle r="9.5" cx="434" cy="77" fill="hsl(199, 75%, 70%)" opacity="0.86"></circle><circle r="11" cx="417" cy="452" fill="hsl(244, 75%, 70%)" opacity="0.72"></circle><circle r="7.5" cx="194" cy="528" fill="hsl(114, 75%, 70%)" opacity="0.80"></circle><circle r="7" cx="198" cy="408" fill="hsl(114, 75%, 70%)" opacity="0.52"></circle><circle r="8.5" cx="263" cy="699" fill="hsl(133, 75%, 70%)" opacity="0.70"></circle><circle r="8.5" cx="172" cy="88" fill="hsl(130, 75%, 70%)" opacity="0.55"></circle><circle r="11" cx="517" cy="212" fill="hsl(276, 75%, 70%)" opacity="0.88"></circle><circle r="8.5" cx="289" cy="589" fill="hsl(152, 75%, 70%)" opacity="0.93"></circle><circle r="11.5" cx="567" cy="763" fill="hsl(296, 75%, 70%)" opacity="0.61"></circle><circle r="9" cx="247" cy="198" fill="hsl(119, 75%, 70%)" opacity="0.87"></circle><circle r="7" cx="786" cy="723" fill="hsl(180, 75%, 70%)" opacity="0.66"></circle><circle r="10.5" cx="55" cy="761" fill="hsl(243, 75%, 70%)" opacity="0.73"></circle><circle r="12" cx="117" cy="95" fill="hsl(155, 75%, 70%)" opacity="0.40"></circle><circle r="14.5" cx="57" cy="159" fill="hsl(248, 75%, 70%)" opacity="0.43"></circle><circle r="5" cx="748" cy="720" fill="hsl(232, 75%, 70%)" opacity="0.34"></circle><circle r="8" cx="35" cy="288" fill="hsl(272, 75%, 70%)" opacity="0.92"></circle><circle r="14.5" cx="503" cy="632" fill="hsl(271, 75%, 70%)" opacity="0.42"></circle><circle r="10.5" cx="273" cy="159" fill="hsl(147, 75%, 70%)" opacity="0.13"></circle><circle r="13.5" cx="678" cy="503" fill="hsl(297, 75%, 70%)" opacity="0.13"></circle><circle r="6.5" cx="288" cy="80" fill="hsl(194, 75%, 70%)" opacity="0.81"></circle><circle r="10" cx="444" cy="665" fill="hsl(252, 75%, 70%)" opacity="0.92"></circle><circle r="10.5" cx="33" cy="398" fill="hsl(272, 75%, 70%)" opacity="0.40"></circle><circle r="7" cx="209" cy="750" fill="hsl(112, 75%, 70%)" opacity="0.90"></circle><circle r="14" cx="529" cy="685" fill="hsl(280, 75%, 70%)" opacity="0.73"></circle><circle r="8" cx="618" cy="39" fill="hsl(233, 75%, 70%)" opacity="0.33"></circle><circle r="8" cx="784" cy="539" fill="hsl(180, 75%, 70%)" opacity="0.59"></circle><circle r="16.5" cx="641" cy="483" fill="hsl(311, 75%, 70%)" opacity="0.48"></circle><circle r="7.5" cx="400" cy="81" fill="hsl(209, 75%, 70%)" opacity="0.41"></circle><circle r="11.5" cx="716" cy="294" fill="hsl(263, 75%, 70%)" opacity="0.30"></circle><circle r="7.5" cx="172" cy="188" fill="hsl(123, 75%, 70%)" opacity="0.92"></circle><circle r="8" cx="256" cy="462" fill="hsl(126, 75%, 70%)" opacity="0.54"></circle><circle r="13.5" cx="52" cy="710" fill="hsl(243, 75%, 70%)" opacity="0.45"></circle><circle r="11" cx="619" cy="390" fill="hsl(310, 75%, 70%)" opacity="0.85"></circle><circle r="13.5" cx="561" cy="714" fill="hsl(290, 75%, 70%)" opacity="0.67"></circle><circle r="15" cx="385" cy="614" fill="hsl(225, 75%, 70%)" opacity="0.56"></circle><circle r="15" cx="655" cy="208" fill="hsl(308, 75%, 70%)" opacity="0.99"></circle><circle r="12" cx="615" cy="428" fill="hsl(310, 75%, 70%)" opacity="0.96"></circle><circle r="7.5" cx="510" cy="461" fill="hsl(271, 75%, 70%)" opacity="0.94"></circle><circle r="9" cx="778" cy="391" fill="hsl(180, 75%, 70%)" opacity="0.85"></circle><circle r="11" cx="576" cy="419" fill="hsl(300, 75%, 70%)" opacity="0.30"></circle><circle r="9" cx="539" cy="429" fill="hsl(285, 75%, 70%)" opacity="0.63"></circle><circle r="10.5" cx="335" cy="725" fill="hsl(185, 75%, 70%)" opacity="0.63"></circle><circle r="11.5" cx="559" cy="659" fill="hsl(290, 75%, 70%)" opacity="0.68"></circle><circle r="6.5" cx="14" cy="20" fill="hsl(180, 75%, 70%)" opacity="0.45"></circle><circle r="11" cx="345" cy="339" fill="hsl(196, 75%, 70%)" opacity="0.57"></circle><circle r="15.5" cx="586" cy="571" fill="hsl(300, 75%, 70%)" opacity="0.22"></circle><circle r="6.5" cx="743" cy="695" fill="hsl(232, 75%, 70%)" opacity="0.91"></circle><circle r="11.5" cx="434" cy="630" fill="hsl(248, 75%, 70%)" opacity="0.14"></circle><circle r="13" cx="422" cy="226" fill="hsl(244, 75%, 70%)" opacity="0.46"></circle><circle r="8" cx="302" cy="709" fill="hsl(163, 75%, 70%)" opacity="0.75"></circle><circle r="9" cx="336" cy="111" fill="hsl(202, 75%, 70%)" opacity="0.95"></circle><circle r="7.5" cx="265" cy="62" fill="hsl(186, 75%, 70%)" opacity="0.19"></circle><circle r="10" cx="258" cy="27" fill="hsl(183, 75%, 70%)" opacity="0.59"></circle><circle r="2" cx="163" cy="6" fill="hsl(83, 75%, 70%)" opacity="0.44"></circle><circle r="15" cx="641" cy="251" fill="hsl(311, 75%, 70%)" opacity="0.88"></circle><circle r="9.5" cx="691" cy="313" fill="hsl(287, 75%, 70%)" opacity="0.83"></circle><circle r="11" cx="246" cy="289" fill="hsl(119, 75%, 70%)" opacity="0.47"></circle><circle r="16" cx="483" cy="241" fill="hsl(263, 75%, 70%)" opacity="0.79"></circle><circle r="5.5" cx="386" cy="99" fill="hsl(214, 75%, 70%)" opacity="0.12"></circle><circle r="11" cx="568" cy="622" fill="hsl(296, 75%, 70%)" opacity="0.30"></circle><circle r="8.5" cx="645" cy="787" fill="hsl(311, 75%, 70%)" opacity="0.37"></circle><circle r="12.5" cx="483" cy="724" fill="hsl(263, 75%, 70%)" opacity="0.95"></circle><circle r="8.5" cx="381" cy="166" fill="hsl(219, 75%, 70%)" opacity="0.50"></circle><circle r="8" cx="766" cy="233" fill="hsl(197, 75%, 70%)" opacity="0.94"></circle><circle r="13.5" cx="625" cy="337" fill="hsl(310, 75%, 70%)" opacity="0.95"></circle><circle r="12" cx="513" cy="551" fill="hsl(276, 75%, 70%)" opacity="0.14"></circle><circle r="13.5" cx="94" cy="489" fill="hsl(196, 75%, 70%)" opacity="0.48"></circle><circle r="12.5" cx="535" cy="329" fill="hsl(280, 75%, 70%)" opacity="0.47"></circle><circle r="11.5" cx="28" cy="363" fill="hsl(272, 75%, 70%)" opacity="0.62"></circle><circle r="10.5" cx="755" cy="453" fill="hsl(215, 75%, 70%)" opacity="0.49"></circle><circle r="12" cx="701" cy="92" fill="hsl(334, 75%, 70%)" opacity="0.71"></circle><circle r="12" cx="334" cy="463" fill="hsl(185, 75%, 70%)" opacity="0.40"></circle><circle r="8.5" cx="133" cy="193" fill="hsl(153, 75%, 70%)" opacity="0.30"></circle><circle r="14.5" cx="149" cy="767" fill="hsl(141, 75%, 70%)" opacity="0.66"></circle><circle r="11.5" cx="725" cy="349" fill="hsl(248, 75%, 70%)" opacity="0.78"></circle><circle r="11" cx="302" cy="276" fill="hsl(163, 75%, 70%)" opacity="0.63"></circle><circle r="10" cx="320" cy="52" fill="hsl(220, 75%, 70%)" opacity="0.75"></circle><circle r="16.5" cx="691" cy="180" fill="hsl(301, 75%, 70%)" opacity="0.47"></circle><circle r="10" cx="341" cy="781" fill="hsl(196, 75%, 70%)" opacity="0.69"></circle><circle r="8.5" cx="722" cy="752" fill="hsl(263, 75%, 70%)" opacity="0.92"></circle><circle r="12" cx="71" cy="558" fill="hsl(227, 75%, 70%)" opacity="0.23"></circle><circle r="6.5" cx="576" cy="790" fill="hsl(300, 75%, 70%)" opacity="0.90"></circle><circle r="8.5" cx="177" cy="441" fill="hsl(117, 75%, 70%)" opacity="0.33"></circle><circle r="8" cx="187" cy="322" fill="hsl(117, 75%, 70%)" opacity="0.23"></circle><circle r="10" cx="349" cy="202" fill="hsl(196, 75%, 70%)" opacity="0.76"></circle><circle r="19.5" cx="629" cy="143" fill="hsl(328, 75%, 70%)" opacity="0.53"></circle><circle r="11" cx="646" cy="557" fill="hsl(311, 75%, 70%)" opacity="0.62"></circle><circle r="8.5" cx="395" cy="193" fill="hsl(232, 75%, 70%)" opacity="0.90"></circle><circle r="9" cx="90" cy="216" fill="hsl(196, 75%, 70%)" opacity="0.58"></circle><circle r="10.5" cx="153" cy="481" fill="hsl(131, 75%, 70%)" opacity="0.93"></circle><circle r="18" cx="39" cy="107" fill="hsl(245, 75%, 70%)" opacity="0.25"></circle><circle r="12.5" cx="696" cy="20" fill="hsl(278, 75%, 70%)" opacity="0.17"></circle><circle r="6.5" cx="204" cy="373" fill="hsl(112, 75%, 70%)" opacity="0.33"></circle><circle r="13.5" cx="370" cy="416" fill="hsl(216, 75%, 70%)" opacity="0.65"></circle><circle r="8.5" cx="257" cy="345" fill="hsl(126, 75%, 70%)" opacity="0.27"></circle><circle r="9.5" cx="551" cy="274" fill="hsl(290, 75%, 70%)" opacity="0.74"></circle><circle r="9.5" cx="687" cy="537" fill="hsl(297, 75%, 70%)" opacity="0.52"></circle><circle r="14.5" cx="720" cy="496" fill="hsl(263, 75%, 70%)" opacity="0.33"></circle><circle r="15" cx="476" cy="572" fill="hsl(263, 75%, 70%)" opacity="0.77"></circle><circle r="10.5" cx="362" cy="23" fill="hsl(242, 75%, 70%)" opacity="0.24"></circle><circle r="10.5" cx="377" cy="313" fill="hsl(225, 75%, 70%)" opacity="0.67"></circle><circle r="10" cx="342" cy="659" fill="hsl(196, 75%, 70%)" opacity="0.26"></circle><circle r="10.5" cx="528" cy="495" fill="hsl(280, 75%, 70%)" opacity="0.62"></circle><circle r="15.5" cx="731" cy="202" fill="hsl(248, 75%, 70%)" opacity="0.91"></circle><circle r="7" cx="193" cy="285" fill="hsl(114, 75%, 70%)" opacity="0.38"></circle><circle r="8.5" cx="781" cy="204" fill="hsl(180, 75%, 70%)" opacity="0.54"></circle><circle r="6.5" cx="29" cy="506" fill="hsl(272, 75%, 70%)" opacity="0.43"></circle><circle r="12" cx="467" cy="447" fill="hsl(259, 75%, 70%)" opacity="0.86"></circle><circle r="8.5" cx="118" cy="570" fill="hsl(166, 75%, 70%)" opacity="0.32"></circle><circle r="9" cx="294" cy="669" fill="hsl(152, 75%, 70%)" opacity="0.96"></circle><circle r="6.5" cx="627" cy="12" fill="hsl(193, 75%, 70%)" opacity="0.39"></circle><circle r="11.5" cx="251" cy="109" fill="hsl(157, 75%, 70%)" opacity="0.29"></circle><circle r="3" cx="156" cy="20" fill="hsl(83, 75%, 70%)" opacity="0.37"></circle><circle r="10" cx="767" cy="355" fill="hsl(197, 75%, 70%)" opacity="0.65"></circle><circle r="12" cx="655" cy="97" fill="hsl(325, 75%, 70%)" opacity="0.63"></circle><circle r="11.5" cx="15" cy="437" fill="hsl(285, 75%, 70%)" opacity="0.80"></circle><circle r="12.5" cx="520" cy="741" fill="hsl(276, 75%, 70%)" opacity="0.88"></circle><circle r="12" cx="15" cy="744" fill="hsl(285, 75%, 70%)" opacity="0.24"></circle><circle r="9.5" cx="312" cy="205" fill="hsl(163, 75%, 70%)" opacity="0.58"></circle><circle r="13.5" cx="61" cy="437" fill="hsl(243, 75%, 70%)" opacity="0.33"></circle><circle r="12" cx="437" cy="120" fill="hsl(211, 75%, 70%)" opacity="0.26"></circle><circle r="12" cx="480" cy="293" fill="hsl(263, 75%, 70%)" opacity="0.61"></circle><circle r="12.5" cx="466" cy="191" fill="hsl(259, 75%, 70%)" opacity="0.21"></circle><circle r="9.5" cx="528" cy="604" fill="hsl(280, 75%, 70%)" opacity="0.71"></circle><circle r="10.5" cx="279" cy="231" fill="hsl(142, 75%, 70%)" opacity="0.51"></circle><circle r="9.5" cx="536" cy="776" fill="hsl(280, 75%, 70%)" opacity="0.32"></circle><circle r="8" cx="489" cy="474" fill="hsl(267, 75%, 70%)" opacity="0.11"></circle><circle r="9" cx="325" cy="622" fill="hsl(185, 75%, 70%)" opacity="0.91"></circle><circle r="13.5" cx="724" cy="254" fill="hsl(263, 75%, 70%)" opacity="0.68"></circle><circle r="7" cx="234" cy="644" fill="hsl(115, 75%, 70%)" opacity="0.71"></circle><circle r="10" cx="300" cy="320" fill="hsl(163, 75%, 70%)" opacity="0.49"></circle><circle r="9.5" cx="719" cy="784" fill="hsl(263, 75%, 70%)" opacity="0.84"></circle><circle r="10" cx="419" cy="416" fill="hsl(244, 75%, 70%)" opacity="0.75"></circle><circle r="9" cx="107" cy="532" fill="hsl(181, 75%, 70%)" opacity="0.77"></circle><circle r="11" cx="451" cy="320" fill="hsl(256, 75%, 70%)" opacity="0.15"></circle><circle r="8.5" cx="296" cy="125" fill="hsl(177, 75%, 70%)" opacity="0.58"></circle><circle r="13.5" cx="491" cy="351" fill="hsl(267, 75%, 70%)" opacity="0.49"></circle><circle r="9" cx="375" cy="56" fill="hsl(224, 75%, 70%)" opacity="0.91"></circle><circle r="12.5" cx="106" cy="654" fill="hsl(181, 75%, 70%)" opacity="0.53"></circle><circle r="7" cx="669" cy="768" fill="hsl(303, 75%, 70%)" opacity="0.67"></circle><circle r="14.5" cx="771" cy="162" fill="hsl(245, 75%, 70%)" opacity="0.18"></circle><circle r="5.5" cx="364" cy="107" fill="hsl(212, 75%, 70%)" opacity="0.10"></circle><circle r="9.5" cx="399" cy="132" fill="hsl(215, 75%, 70%)" opacity="0.69"></circle><circle r="8" cx="518" cy="18" fill="hsl(136, 75%, 70%)" opacity="0.23"></circle><circle r="5.5" cx="182" cy="256" fill="hsl(117, 75%, 70%)" opacity="0.22"></circle><circle r="14.5" cx="113" cy="427" fill="hsl(166, 75%, 70%)" opacity="0.82"></circle><circle r="10.5" cx="67" cy="344" fill="hsl(227, 75%, 70%)" opacity="0.95"></circle><circle r="5.5" cx="335" cy="10" fill="hsl(251, 75%, 70%)" opacity="0.18"></circle><circle r="6" cx="144" cy="227" fill="hsl(141, 75%, 70%)" opacity="0.66"></circle><circle r="11.5" cx="251" cy="413" fill="hsl(126, 75%, 70%)" opacity="0.15"></circle><circle r="9" cx="620" cy="67" fill="hsl(267, 75%, 70%)" opacity="0.62"></circle><circle r="12.5" cx="19" cy="585" fill="hsl(285, 75%, 70%)" opacity="0.30"></circle><circle r="6" cx="788" cy="605" fill="hsl(162, 75%, 70%)" opacity="0.95"></circle><circle r="6.5" cx="206" cy="784" fill="hsl(112, 75%, 70%)" opacity="0.73"></circle><circle r="14" cx="532" cy="127" fill="hsl(242, 75%, 70%)" opacity="0.56"></circle><circle r="9" cx="650" cy="66" fill="hsl(303, 75%, 70%)" opacity="0.42"></circle><circle r="8" cx="485" cy="54" fill="hsl(169, 75%, 70%)" opacity="0.54"></circle><circle r="7.5" cx="290" cy="632" fill="hsl(152, 75%, 70%)" opacity="0.57"></circle><circle r="5" cx="163" cy="56" fill="hsl(111, 75%, 70%)" opacity="0.49"></circle><circle r="9" cx="782" cy="670" fill="hsl(180, 75%, 70%)" opacity="0.68"></circle><circle r="9" cx="149" cy="594" fill="hsl(141, 75%, 70%)" opacity="0.67"></circle><circle r="15" cx="579" cy="136" fill="hsl(285, 75%, 70%)" opacity="0.73"></circle><circle r="9.5" cx="570" cy="21" fill="hsl(150, 75%, 70%)" opacity="0.41"></circle><circle r="7" cx="675" cy="789" fill="hsl(297, 75%, 70%)" opacity="0.15"></circle><circle r="12" cx="397" cy="279" fill="hsl(232, 75%, 70%)" opacity="0.95"></circle><circle r="7" cx="263" cy="784" fill="hsl(133, 75%, 70%)" opacity="0.41"></circle><circle r="11.5" cx="548" cy="369" fill="hsl(285, 75%, 70%)" opacity="0.60"></circle><circle r="10.5" cx="505" cy="177" fill="hsl(264, 75%, 70%)" opacity="0.20"></circle><circle r="11.5" cx="485" cy="96" fill="hsl(192, 75%, 70%)" opacity="0.20"></circle><circle r="7.5" cx="520" cy="376" fill="hsl(276, 75%, 70%)" opacity="0.98"></circle><circle r="9.5" cx="99" cy="287" fill="hsl(196, 75%, 70%)" opacity="0.80"></circle><circle r="10.5" cx="521" cy="257" fill="hsl(276, 75%, 70%)" opacity="0.94"></circle><circle r="12" cx="380" cy="674" fill="hsl(225, 75%, 70%)" opacity="0.24"></circle><circle r="12" cx="580" cy="179" fill="hsl(301, 75%, 70%)" opacity="0.63"></circle><circle r="7" cx="25" cy="552" fill="hsl(272, 75%, 70%)" opacity="0.14"></circle><circle r="8" cx="251" cy="746" fill="hsl(126, 75%, 70%)" opacity="0.25"></circle><circle r="16.5" cx="679" cy="133" fill="hsl(339, 75%, 70%)" opacity="0.13"></circle><circle r="10" cx="589" cy="352" fill="hsl(304, 75%, 70%)" opacity="0.73"></circle><circle r="13" cx="596" cy="655" fill="hsl(304, 75%, 70%)" opacity="0.52"></circle><circle r="9.5" cx="215" cy="47" fill="hsl(139, 75%, 70%)" opacity="0.86"></circle><circle r="8" cx="279" cy="540" fill="hsl(142, 75%, 70%)" opacity="0.25"></circle><circle r="9.5" cx="66" cy="28" fill="hsl(133, 75%, 70%)" opacity="0.88"></circle><circle r="13" cx="445" cy="532" fill="hsl(252, 75%, 70%)" opacity="0.49"></circle><circle r="5.5" cx="188" cy="22" fill="hsl(111, 75%, 70%)" opacity="0.37"></circle><circle r="12" cx="738" cy="537" fill="hsl(232, 75%, 70%)" opacity="0.94"></circle><circle r="16" cx="30" cy="203" fill="hsl(272, 75%, 70%)" opacity="0.26"></circle><circle r="7.5" cx="259" cy="570" fill="hsl(126, 75%, 70%)" opacity="0.88"></circle><circle r="13.5" cx="728" cy="405" fill="hsl(248, 75%, 70%)" opacity="0.29"></circle><circle r="16" cx="599" cy="733" fill="hsl(304, 75%, 70%)" opacity="0.76"></circle><circle r="11.5" cx="765" cy="116" fill="hsl(279, 75%, 70%)" opacity="0.94"></circle><circle r="7" cx="258" cy="622" fill="hsl(126, 75%, 70%)" opacity="0.48"></circle><circle r="11" cx="217" cy="151" fill="hsl(127, 75%, 70%)" opacity="0.13"></circle><circle r="7.5" cx="250" cy="501" fill="hsl(119, 75%, 70%)" opacity="0.95"></circle><circle r="14.5" cx="720" cy="584" fill="hsl(263, 75%, 70%)" opacity="0.56"></circle><circle r="8" cx="403" cy="38" fill="hsl(210, 75%, 70%)" opacity="0.89"></circle><circle r="8.5" cx="502" cy="398" fill="hsl(271, 75%, 70%)" opacity="0.11"></circle><circle r="10.5" cx="568" cy="68" fill="hsl(212, 75%, 70%)" opacity="0.53"></circle><circle r="8" cx="784" cy="260" fill="hsl(180, 75%, 70%)" opacity="1.00"></circle><circle r="8.5" cx="398" cy="381" fill="hsl(232, 75%, 70%)" opacity="0.66"></circle><circle r="14" cx="744" cy="75" fill="hsl(315, 75%, 70%)" opacity="0.40"></circle><circle r="11" cx="30" cy="54" fill="hsl(213, 75%, 70%)" opacity="0.33"></circle><circle r="10.5" cx="402" cy="346" fill="hsl(239, 75%, 70%)" opacity="0.42"></circle><circle r="8" cx="9" cy="486" fill="hsl(296, 75%, 70%)" opacity="0.15"></circle><circle r="5" cx="472" cy="11" fill="hsl(157, 75%, 70%)" opacity="0.32"></circle><circle r="9" cx="83" cy="784" fill="hsl(212, 75%, 70%)" opacity="0.24"></circle><circle r="13.5" cx="615" cy="778" fill="hsl(310, 75%, 70%)" opacity="0.44"></circle><circle r="5.5" cx="145" cy="549" fill="hsl(141, 75%, 70%)" opacity="0.64"></circle><circle r="5" cx="225" cy="11" fill="hsl(158, 75%, 70%)" opacity="0.34"></circle><circle r="7" cx="421" cy="13" fill="hsl(204, 75%, 70%)" opacity="0.56"></circle><circle r="11.5" cx="756" cy="627" fill="hsl(215, 75%, 70%)" opacity="0.81"></circle><circle r="10" cx="679" cy="566" fill="hsl(297, 75%, 70%)" opacity="0.30"></circle><circle r="16" cx="583" cy="311" fill="hsl(300, 75%, 70%)" opacity="0.12"></circle><circle r="11.5" cx="443" cy="722" fill="hsl(252, 75%, 70%)" opacity="0.86"></circle><circle r="11.5" cx="775" cy="776" fill="hsl(180, 75%, 70%)" opacity="0.51"></circle><circle r="12" cx="401" cy="534" fill="hsl(239, 75%, 70%)" opacity="0.77"></circle><circle r="15" cx="645" cy="738" fill="hsl(311, 75%, 70%)" opacity="0.89"></circle><circle r="7.5" cx="36" cy="528" fill="hsl(272, 75%, 70%)" opacity="0.27"></circle><circle r="10.5" cx="141" cy="335" fill="hsl(141, 75%, 70%)" opacity="0.37"></circle><circle r="10" cx="154" cy="389" fill="hsl(131, 75%, 70%)" opacity="0.49"></circle><circle r="5" cx="465" cy="30" fill="hsl(164, 75%, 70%)" opacity="0.45"></circle><circle r="4.5" cx="196" cy="234" fill="hsl(114, 75%, 70%)" opacity="0.54"></circle><circle r="10" cx="378" cy="228" fill="hsl(225, 75%, 70%)" opacity="0.32"></circle><circle r="9.5" cx="100" cy="182" fill="hsl(200, 75%, 70%)" opacity="0.38"></circle><circle r="11.5" cx="736" cy="663" fill="hsl(248, 75%, 70%)" opacity="0.39"></circle><circle r="9.5" cx="764" cy="577" fill="hsl(197, 75%, 70%)" opacity="0.91"></circle><circle r="13.5" cx="102" cy="369" fill="hsl(181, 75%, 70%)" opacity="0.41"></circle><circle r="6.5" cx="72" cy="311" fill="hsl(227, 75%, 70%)" opacity="0.54"></circle><circle r="11.5" cx="433" cy="169" fill="hsl(235, 75%, 70%)" opacity="0.92"></circle><circle r="11" cx="302" cy="19" fill="hsl(235, 75%, 70%)" opacity="0.79"></circle><circle r="8.5" cx="227" cy="590" fill="hsl(115, 75%, 70%)" opacity="0.99"></circle><circle r="9.5" cx="329" cy="582" fill="hsl(185, 75%, 70%)" opacity="0.54"></circle><circle r="7.5" cx="502" cy="788" fill="hsl(271, 75%, 70%)" opacity="0.34"></circle><circle r="18" cx="758" cy="26" fill="hsl(308, 75%, 70%)" opacity="0.66"></circle><circle r="11" cx="677" cy="428" fill="hsl(297, 75%, 70%)" opacity="0.99"></circle><circle r="17" cx="625" cy="613" fill="hsl(310, 75%, 70%)" opacity="0.93"></circle><circle r="9.5" cx="17" cy="786" fill="hsl(285, 75%, 70%)" opacity="0.91"></circle><circle r="10.5" cx="719" cy="713" fill="hsl(263, 75%, 70%)" opacity="0.78"></circle><circle r="12.5" cx="364" cy="561" fill="hsl(216, 75%, 70%)" opacity="0.98"></circle><circle r="3.5" cx="166" cy="228" fill="hsl(123, 75%, 70%)" opacity="0.37"></circle><circle r="16" cx="375" cy="492" fill="hsl(225, 75%, 70%)" opacity="0.64"></circle><circle r="13" cx="651" cy="380" fill="hsl(308, 75%, 70%)" opacity="0.90"></circle><circle r="4.5" cx="158" cy="259" fill="hsl(131, 75%, 70%)" opacity="0.38"></circle><circle r="12.5" cx="481" cy="140" fill="hsl(229, 75%, 70%)" opacity="0.18"></circle><circle r="8.5" cx="751" cy="744" fill="hsl(215, 75%, 70%)" opacity="0.91"></circle><circle r="8.5" cx="541" cy="190" fill="hsl(285, 75%, 70%)" opacity="0.44"></circle><circle r="13.5" cx="422" cy="578" fill="hsl(244, 75%, 70%)" opacity="0.95"></circle><circle r="13.5" cx="433" cy="777" fill="hsl(248, 75%, 70%)" opacity="0.58"></circle><circle r="13.5" cx="690" cy="381" fill="hsl(287, 75%, 70%)" opacity="0.21"></circle><circle r="13" cx="673" cy="601" fill="hsl(303, 75%, 70%)" opacity="0.60"></circle><circle r="11.5" cx="60" cy="605" fill="hsl(243, 75%, 70%)" opacity="0.86"></circle><circle r="9" cx="212" cy="473" fill="hsl(112, 75%, 70%)" opacity="0.45"></circle><circle r="8" cx="111" cy="241" fill="hsl(181, 75%, 70%)" opacity="0.93"></circle><circle r="9.5" cx="501" cy="428" fill="hsl(271, 75%, 70%)" opacity="0.80"></circle><circle r="15" cx="36" cy="641" fill="hsl(272, 75%, 70%)" opacity="0.92"></circle><circle r="11.5" cx="328" cy="156" fill="hsl(189, 75%, 70%)" opacity="0.81"></circle><circle r="9.5" cx="348" cy="77" fill="hsl(215, 75%, 70%)" opacity="0.83"></circle><circle r="11.5" cx="773" cy="493" fill="hsl(197, 75%, 70%)" opacity="0.30"></circle><circle r="8" cx="310" cy="94" fill="hsl(196, 75%, 70%)" opacity="0.22"></circle><circle r="9" cx="190" cy="578" fill="hsl(114, 75%, 70%)" opacity="0.38"></circle><circle r="12.5" cx="19" cy="685" fill="hsl(285, 75%, 70%)" opacity="0.80"></circle><circle r="12.5" cx="621" cy="536" fill="hsl(310, 75%, 70%)" opacity="0.44"></circle><circle r="12" cx="463" cy="403" fill="hsl(259, 75%, 70%)" opacity="0.59"></circle><circle r="9.5" cx="293" cy="445" fill="hsl(152, 75%, 70%)" opacity="0.15"></circle><circle r="10.5" cx="541" cy="460" fill="hsl(285, 75%, 70%)" opacity="0.63"></circle><circle r="8.5" cx="227" cy="246" fill="hsl(115, 75%, 70%)" opacity="0.55"></circle><circle r="9.5" cx="451" cy="370" fill="hsl(256, 75%, 70%)" opacity="0.22"></circle><circle r="14.5" cx="548" cy="530" fill="hsl(285, 75%, 70%)" opacity="0.71"></circle><circle r="8" cx="193" cy="638" fill="hsl(114, 75%, 70%)" opacity="0.21"></circle><circle r="12.5" cx="326" cy="400" fill="hsl(185, 75%, 70%)" opacity="0.44"></circle><circle r="4" cx="180" cy="218" fill="hsl(117, 75%, 70%)" opacity="0.22"></circle><circle r="15" cx="586" cy="258" fill="hsl(300, 75%, 70%)" opacity="0.90"></circle><circle r="4.5" cx="144" cy="39" fill="hsl(100, 75%, 70%)" opacity="0.66"></circle><circle r="8" cx="230" cy="533" fill="hsl(115, 75%, 70%)" opacity="0.37"></circle><circle r="8.5" cx="551" cy="403" fill="hsl(290, 75%, 70%)" opacity="0.89"></circle><circle r="8" cx="38" cy="320" fill="hsl(258, 75%, 70%)" opacity="0.81"></circle><circle r="6.5" cx="70" cy="286" fill="hsl(227, 75%, 70%)" opacity="0.49"></circle><circle r="10.5" cx="584" cy="383" fill="hsl(300, 75%, 70%)" opacity="0.89"></circle><circle r="5.5" cx="766" cy="703" fill="hsl(197, 75%, 70%)" opacity="0.67"></circle><circle r="15" cx="684" cy="642" fill="hsl(297, 75%, 70%)" opacity="0.20"></circle><circle r="14.5" cx="708" cy="450" fill="hsl(276, 75%, 70%)" opacity="0.91"></circle><circle r="10.5" cx="526" cy="64" fill="hsl(183, 75%, 70%)" opacity="0.72"></circle><circle r="11.5" cx="410" cy="703" fill="hsl(239, 75%, 70%)" opacity="0.83"></circle><circle r="9" cx="661" cy="32" fill="hsl(256, 75%, 70%)" opacity="0.28"></circle><circle r="13.5" cx="598" cy="94" fill="hsl(267, 75%, 70%)" opacity="0.81"></circle><circle r="13" cx="441" cy="269" fill="hsl(252, 75%, 70%)" opacity="0.17"></circle><circle r="21" cx="633" cy="685" fill="hsl(311, 75%, 70%)" opacity="0.84"></circle><circle r="10" cx="648" cy="436" fill="hsl(311, 75%, 70%)" opacity="0.40"></circle><circle r="8" cx="223" cy="682" fill="hsl(112, 75%, 70%)" opacity="0.93"></circle><circle r="9" cx="361" cy="137" fill="hsl(206, 75%, 70%)" opacity="0.47"></circle><circle r="11" cx="481" cy="764" fill="hsl(263, 75%, 70%)" opacity="0.39"></circle><circle r="9.5" cx="11" cy="312" fill="hsl(296, 75%, 70%)" opacity="0.66"></circle><circle r="14" cx="772" cy="305" fill="hsl(197, 75%, 70%)" opacity="0.20"></circle><circle r="11.5" cx="480" cy="503" fill="hsl(263, 75%, 70%)" opacity="0.79"></circle><circle r="14.5" cx="690" cy="691" fill="hsl(287, 75%, 70%)" opacity="0.27"></circle><circle r="10.5" cx="170" cy="143" fill="hsl(138, 75%, 70%)" opacity="0.94"></circle><circle r="8.5" cx="154" cy="642" fill="hsl(131, 75%, 70%)" opacity="0.36"></circle><circle r="15.5" cx="725" cy="133" fill="hsl(311, 75%, 70%)" opacity="0.60"></circle><circle r="11" cx="572" cy="219" fill="hsl(296, 75%, 70%)" opacity="0.92"></circle><circle r="10" cx="292" cy="370" fill="hsl(152, 75%, 70%)" opacity="0.82"></circle><circle r="7.5" cx="157" cy="524" fill="hsl(131, 75%, 70%)" opacity="0.81"></circle></svg>