<svg xmlns="http://www.w3.org/2000/svg" xmlns:xlink="http://www.w3.org/1999/xlink" width="128" zoomAndPan="magnify" viewBox="0 0 96 95.999999" height="128" preserveAspectRatio="xMidYMid meet" version="1.2"><defs><clipPath id="3ddb976794"><path d="M 10.414062 83 L 85.414062 83 L 85.414062 86.101562 L 10.414062 86.101562 Z M 10.414062 83 "/></clipPath><clipPath id="7d056da033"><path d="M 36 9.601562 L 62 9.601562 L 62 35 L 36 35 Z M 36 9.601562 "/></clipPath><clipPath id="e790e1aa27"><path d="M 47 9.601562 L 62 9.601562 L 62 24 L 47 24 Z M 47 9.601562 "/></clipPath></defs><g id="8a40a864a9"><path style=" stroke:none;fill-rule:evenodd;fill:#7dd63e;fill-opacity:1;" d="M 79.265625 80.539062 L 72.039062 80.539062 C 71.324219 80.539062 70.695312 79.957031 70.695312 79.195312 L 70.695312 40.074219 C 70.695312 39.359375 71.324219 38.730469 72.039062 38.730469 L 79.265625 38.730469 C 80.03125 38.730469 80.613281 39.359375 80.613281 40.074219 L 80.613281 79.195312 C 80.613281 79.957031 80.03125 80.539062 79.265625 80.539062 Z M 79.265625 80.539062 "/><path style=" stroke:none;fill-rule:evenodd;fill:#ffa721;fill-opacity:1;" d="M 65.398438 80.539062 L 58.171875 80.539062 C 57.410156 80.539062 56.824219 79.957031 56.824219 79.195312 L 56.824219 49.484375 C 56.824219 48.769531 57.410156 48.140625 58.171875 48.140625 L 65.398438 48.140625 C 66.117188 48.140625 66.746094 48.769531 66.746094 49.484375 L 66.746094 79.195312 C 66.746094 79.957031 66.117188 80.539062 65.398438 80.539062 Z M 65.398438 80.539062 "/><path style=" stroke:none;fill-rule:evenodd;fill:#ff3e1a;fill-opacity:1;" d="M 51.527344 80.539062 L 44.304688 80.539062 C 43.539062 80.539062 42.957031 79.957031 42.957031 79.195312 L 42.957031 58.894531 C 42.957031 58.179688 43.539062 57.550781 44.304688 57.550781 L 51.527344 57.550781 C 52.246094 57.550781 52.875 58.179688 52.875 58.894531 L 52.875 79.195312 C 52.875 79.957031 52.246094 80.539062 51.527344 80.539062 Z M 51.527344 80.539062 "/><path style=" stroke:none;fill-rule:evenodd;fill:#1d81ce;fill-opacity:1;" d="M 37.660156 80.539062 L 30.433594 80.539062 C 29.671875 80.539062 29.085938 79.957031 29.085938 79.195312 L 29.085938 46.753906 C 29.085938 46.035156 29.671875 45.453125 30.433594 45.453125 L 37.660156 45.453125 C 38.378906 45.453125 39.007812 46.035156 39.007812 46.753906 L 39.007812 79.195312 C 39.007812 79.957031 38.378906 80.539062 37.660156 80.539062 Z M 37.660156 80.539062 "/><path style=" stroke:none;fill-rule:evenodd;fill:#ffa721;fill-opacity:1;" d="M 23.792969 80.539062 L 16.566406 80.539062 C 15.800781 80.539062 15.21875 79.957031 15.21875 79.195312 L 15.21875 54.996094 C 15.21875 54.28125 15.800781 53.699219 16.566406 53.699219 L 23.792969 53.699219 C 24.507812 53.699219 25.136719 54.28125 25.136719 54.996094 L 25.136719 79.195312 C 25.136719 79.957031 24.507812 80.539062 23.792969 80.539062 Z M 23.792969 80.539062 "/><g clip-rule="nonzero" clip-path="url(#3ddb976794)"><path style=" stroke:none;fill-rule:evenodd;fill:#333333;fill-opacity:1;" d="M 84.070312 86.09375 L 11.761719 86.09375 C 11 86.09375 10.414062 85.46875 10.414062 84.75 C 10.414062 83.988281 11 83.40625 11.761719 83.40625 L 84.070312 83.40625 C 84.832031 83.40625 85.414062 83.988281 85.414062 84.75 C 85.414062 85.46875 84.832031 86.09375 84.070312 86.09375 Z M 84.070312 86.09375 "/></g><path style=" stroke:none;fill-rule:evenodd;fill:#333333;fill-opacity:1;" d="M 50.632812 46.304688 C 50.226562 46.304688 49.777344 46.078125 49.554688 45.675781 C 49.105469 45.09375 49.285156 44.242188 49.914062 43.839844 L 58.304688 38.148438 C 58.890625 37.746094 59.742188 37.878906 60.148438 38.507812 C 60.550781 39.089844 60.414062 39.941406 59.789062 40.34375 L 51.394531 46.035156 C 51.171875 46.214844 50.902344 46.304688 50.632812 46.304688 Z M 45.425781 45.945312 C 45.109375 45.945312 44.796875 45.855469 44.527344 45.632812 L 35.640625 37.835938 C 35.101562 37.386719 35.011719 36.535156 35.503906 35.953125 C 36 35.414062 36.851562 35.371094 37.390625 35.863281 L 46.277344 43.617188 C 46.859375 44.109375 46.90625 44.960938 46.414062 45.496094 C 46.144531 45.8125 45.785156 45.945312 45.425781 45.945312 Z M 23.027344 42.539062 C 22.535156 42.539062 22.085938 42.316406 21.859375 41.914062 C 21.457031 41.285156 21.683594 40.433594 22.308594 40.074219 L 30.523438 35.191406 C 31.152344 34.832031 31.960938 35.058594 32.320312 35.683594 C 32.722656 36.3125 32.5 37.117188 31.871094 37.519531 L 23.703125 42.359375 C 23.476562 42.496094 23.253906 42.539062 23.027344 42.539062 Z M 64.5 36.847656 C 64.097656 36.847656 63.691406 36.667969 63.421875 36.265625 C 62.972656 35.683594 63.152344 34.832031 63.78125 34.429688 L 72.175781 28.738281 C 72.757812 28.335938 73.613281 28.46875 74.015625 29.097656 C 74.417969 29.679688 74.285156 30.53125 73.65625 30.933594 L 65.261719 36.625 C 65.039062 36.804688 64.769531 36.847656 64.5 36.847656 Z M 64.5 36.847656 "/><path style=" stroke:none;fill-rule:evenodd;fill:#7ed63f;fill-opacity:1;" d="M 75.675781 32.636719 C 73.074219 32.636719 71.007812 30.53125 71.007812 27.976562 C 71.007812 25.421875 73.074219 23.316406 75.675781 23.316406 C 78.234375 23.316406 80.300781 25.421875 80.300781 27.976562 C 80.300781 30.53125 78.234375 32.636719 75.675781 32.636719 Z M 75.675781 32.636719 "/><path style=" stroke:none;fill-rule:evenodd;fill:#ffa721;fill-opacity:1;" d="M 61.761719 42.046875 C 59.203125 42.046875 57.140625 39.941406 57.140625 37.386719 C 57.140625 34.832031 59.203125 32.726562 61.761719 32.726562 C 64.367188 32.726562 66.429688 34.832031 66.429688 37.386719 C 66.429688 39.941406 64.367188 42.046875 61.761719 42.046875 Z M 61.761719 42.046875 "/><path style=" stroke:none;fill-rule:evenodd;fill:#ff3e1a;fill-opacity:1;" d="M 47.894531 51.457031 C 45.335938 51.457031 43.269531 49.351562 43.269531 46.796875 C 43.269531 44.242188 45.335938 42.179688 47.894531 42.179688 C 50.453125 42.179688 52.5625 44.242188 52.5625 46.796875 C 52.5625 49.351562 50.453125 51.457031 47.894531 51.457031 Z M 47.894531 51.457031 "/><path style=" stroke:none;fill-rule:evenodd;fill:#1d81ce;fill-opacity:1;" d="M 34.023438 39.3125 C 31.464844 39.3125 29.402344 37.207031 29.402344 34.652344 C 29.402344 32.097656 31.464844 30.039062 34.023438 30.039062 C 36.582031 30.039062 38.691406 32.097656 38.691406 34.652344 C 38.691406 37.207031 36.582031 39.3125 34.023438 39.3125 Z M 34.023438 39.3125 "/><path style=" stroke:none;fill-rule:evenodd;fill:#ff700d;fill-opacity:1;" d="M 20.15625 47.558594 C 17.597656 47.558594 15.53125 45.496094 15.53125 42.898438 C 15.53125 40.34375 17.597656 38.28125 20.15625 38.28125 C 22.714844 38.28125 24.824219 40.34375 24.824219 42.898438 C 24.824219 45.496094 22.714844 47.558594 20.15625 47.558594 Z M 20.15625 47.558594 "/><g clip-rule="nonzero" clip-path="url(#7d056da033)"><path style=" stroke:none;fill-rule:evenodd;fill:#7ed63f;fill-opacity:1;" d="M 49.328125 34.339844 C 42.507812 34.339844 36.941406 28.785156 36.941406 21.972656 C 36.941406 15.160156 42.507812 9.605469 49.328125 9.605469 C 56.152344 9.605469 61.71875 15.160156 61.71875 21.972656 C 61.71875 28.785156 56.152344 34.339844 49.328125 34.339844 Z M 49.328125 34.339844 "/></g><path style=" stroke:none;fill-rule:evenodd;fill:#ff3e1a;fill-opacity:1;" d="M 49.328125 34.339844 C 55.703125 34.339844 60.953125 29.5 61.628906 23.316406 L 49.328125 23.316406 C 48.566406 23.316406 47.984375 22.734375 47.984375 21.972656 L 47.984375 34.25 C 48.433594 34.296875 48.882812 34.339844 49.328125 34.339844 Z M 49.328125 34.339844 "/><g clip-rule="nonzero" clip-path="url(#e790e1aa27)"><path style=" stroke:none;fill-rule:evenodd;fill:#1d81ce;fill-opacity:1;" d="M 47.984375 9.695312 C 48.433594 9.648438 48.882812 9.605469 49.328125 9.605469 C 56.152344 9.605469 61.71875 15.160156 61.71875 21.972656 C 61.71875 22.421875 61.671875 22.867188 61.628906 23.316406 C 57.09375 23.316406 52.5625 23.316406 47.984375 23.316406 C 47.984375 18.746094 47.984375 14.21875 47.984375 9.695312 Z M 47.984375 9.695312 "/></g></g></svg>