<svg xmlns="http://www.w3.org/2000/svg" xmlns:xlink="http://www.w3.org/1999/xlink" width="128" zoomAndPan="magnify" viewBox="0 0 96 95.999999" height="128" preserveAspectRatio="xMidYMid meet" version="1.2"><defs><clipPath id="7cc768b48e"><path d="M 19 26.425781 L 86 26.425781 L 86 69.925781 L 19 69.925781 Z M 19 26.425781 "/></clipPath><clipPath id="3495bb6b4b"><path d="M 46 27 L 53 27 L 53 34 L 46 34 Z M 46 27 "/></clipPath><clipPath id="fcf6be2081"><path d="M 32.585938 27.097656 L 32.585938 40.890625 L 26.070312 40.890625 L 26.070312 47.789062 L 20.613281 47.789062 L 20.550781 48.390625 C 20.210938 52.144531 20.859375 55.613281 22.347656 58.574219 L 22.847656 59.484375 C 23.144531 60.027344 23.5 60.539062 23.867188 61.039062 C 24.234375 61.539062 24.363281 61.8125 24.597656 62.144531 C 28.535156 66.621094 34.402344 68.777344 41.175781 68.777344 C 56.179688 68.777344 68.914062 62.050781 74.550781 46.933594 C 78.546875 47.351562 82.382812 46.3125 84.128906 42.859375 C 81.34375 41.234375 77.765625 41.753906 75.707031 42.804688 L 81.167969 27.097656 L 59.839844 40.890625 L 53.027344 40.890625 L 53.027344 27.097656 Z M 32.585938 27.097656 "/></clipPath><clipPath id="988c6c2360"><path d="M 47 28 L 52 28 L 52 34 L 47 34 Z M 47 28 "/></clipPath><clipPath id="4cfbc6348c"><path d="M 32.585938 27.097656 L 32.585938 40.890625 L 26.070312 40.890625 L 26.070312 47.789062 L 20.613281 47.789062 L 20.550781 48.390625 C 20.210938 52.144531 20.859375 55.613281 22.347656 58.574219 L 22.847656 59.484375 C 23.144531 60.027344 23.5 60.539062 23.867188 61.039062 C 24.234375 61.539062 24.363281 61.8125 24.597656 62.144531 C 28.535156 66.621094 34.402344 68.777344 41.175781 68.777344 C 56.179688 68.777344 68.914062 62.050781 74.550781 46.933594 C 78.546875 47.351562 82.382812 46.3125 84.128906 42.859375 C 81.34375 41.234375 77.765625 41.753906 75.707031 42.804688 L 81.167969 27.097656 L 59.839844 40.890625 L 53.027344 40.890625 L 53.027344 27.097656 Z M 32.585938 27.097656 "/></clipPath><clipPath id="2ce0c4ff50"><path d="M 47 27 L 53 27 L 53 34 L 47 34 Z M 47 27 "/></clipPath><clipPath id="024924581f"><path d="M 32.585938 27.097656 L 32.585938 40.890625 L 26.070312 40.890625 L 26.070312 47.789062 L 20.613281 47.789062 L 20.550781 48.390625 C 20.210938 52.144531 20.859375 55.613281 22.347656 58.574219 L 22.847656 59.484375 C 23.144531 60.027344 23.5 60.539062 23.867188 61.039062 C 24.234375 61.539062 24.363281 61.8125 24.597656 62.144531 C 28.535156 66.621094 34.402344 68.777344 41.175781 68.777344 C 56.179688 68.777344 68.914062 62.050781 74.550781 46.933594 C 78.546875 47.351562 82.382812 46.3125 84.128906 42.859375 C 81.34375 41.234375 77.765625 41.753906 75.707031 42.804688 L 81.167969 27.097656 L 59.839844 40.890625 L 53.027344 40.890625 L 53.027344 27.097656 Z M 32.585938 27.097656 "/></clipPath><clipPath id="bc11103a65"><path d="M 53 27 L 60 27 L 60 34 L 53 34 Z M 53 27 "/></clipPath><clipPath id="7504eb73d9"><path d="M 32.585938 27.097656 L 32.585938 40.890625 L 26.070312 40.890625 L 26.070312 47.789062 L 20.613281 47.789062 L 20.550781 48.390625 C 20.210938 52.144531 20.859375 55.613281 22.347656 58.574219 L 22.847656 59.484375 C 23.144531 60.027344 23.5 60.539062 23.867188 61.039062 C 24.234375 61.539062 24.363281 61.8125 24.597656 62.144531 C 28.535156 66.621094 34.402344 68.777344 41.175781 68.777344 C 56.179688 68.777344 68.914062 62.050781 74.550781 46.933594 C 78.546875 47.351562 82.382812 46.3125 84.128906 42.859375 C 81.34375 41.234375 77.765625 41.753906 75.707031 42.804688 L 81.167969 27.097656 L 59.839844 40.890625 L 53.027344 40.890625 L 53.027344 27.097656 Z M 32.585938 27.097656 "/></clipPath><clipPath id="e4fec895c2"><path d="M 54 28 L 59 28 L 59 34 L 54 34 Z M 54 28 "/></clipPath><clipPath id="018360a586"><path d="M 32.585938 27.097656 L 32.585938 40.890625 L 26.070312 40.890625 L 26.070312 47.789062 L 20.613281 47.789062 L 20.550781 48.390625 C 20.210938 52.144531 20.859375 55.613281 22.347656 58.574219 L 22.847656 59.484375 C 23.144531 60.027344 23.5 60.539062 23.867188 61.039062 C 24.234375 61.539062 24.363281 61.8125 24.597656 62.144531 C 28.535156 66.621094 34.402344 68.777344 41.175781 68.777344 C 56.179688 68.777344 68.914062 62.050781 74.550781 46.933594 C 78.546875 47.351562 82.382812 46.3125 84.128906 42.859375 C 81.34375 41.234375 77.765625 41.753906 75.707031 42.804688 L 81.167969 27.097656 L 59.839844 40.890625 L 53.027344 40.890625 L 53.027344 27.097656 Z M 32.585938 27.097656 "/></clipPath><clipPath id="300cbc51fc"><path d="M 54 27 L 59 27 L 59 34 L 54 34 Z M 54 27 "/></clipPath><clipPath id="ad40cf212d"><path d="M 32.585938 27.097656 L 32.585938 40.890625 L 26.070312 40.890625 L 26.070312 47.789062 L 20.613281 47.789062 L 20.550781 48.390625 C 20.210938 52.144531 20.859375 55.613281 22.347656 58.574219 L 22.847656 59.484375 C 23.144531 60.027344 23.5 60.539062 23.867188 61.039062 C 24.234375 61.539062 24.363281 61.8125 24.597656 62.144531 C 28.535156 66.621094 34.402344 68.777344 41.175781 68.777344 C 56.179688 68.777344 68.914062 62.050781 74.550781 46.933594 C 78.546875 47.351562 82.382812 46.3125 84.128906 42.859375 C 81.34375 41.234375 77.765625 41.753906 75.707031 42.804688 L 81.167969 27.097656 L 59.839844 40.890625 L 53.027344 40.890625 L 53.027344 27.097656 Z M 32.585938 27.097656 "/></clipPath><clipPath id="c8081be892"><path d="M 20.441406 34 L 26 34 L 26 41 L 20.441406 41 Z M 20.441406 34 "/></clipPath><clipPath id="b57f8d28f8"><path d="M 32.585938 27.097656 L 32.585938 40.890625 L 26.070312 40.890625 L 26.070312 47.789062 L 20.613281 47.789062 L 20.550781 48.390625 C 20.210938 52.144531 20.859375 55.613281 22.347656 58.574219 L 22.847656 59.484375 C 23.144531 60.027344 23.5 60.539062 23.867188 61.039062 C 24.234375 61.539062 24.363281 61.8125 24.597656 62.144531 C 28.535156 66.621094 34.402344 68.777344 41.175781 68.777344 C 56.179688 68.777344 68.914062 62.050781 74.550781 46.933594 C 78.546875 47.351562 82.382812 46.3125 84.128906 42.859375 C 81.34375 41.234375 77.765625 41.753906 75.707031 42.804688 L 81.167969 27.097656 L 59.839844 40.890625 L 53.027344 40.890625 L 53.027344 27.097656 Z M 32.585938 27.097656 "/></clipPath><clipPath id="331fa57b25"><path d="M 20.441406 41 L 26 41 L 26 48 L 20.441406 48 Z M 20.441406 41 "/></clipPath><clipPath id="5ba41aa449"><path d="M 32.585938 27.097656 L 32.585938 40.890625 L 26.070312 40.890625 L 26.070312 47.789062 L 20.613281 47.789062 L 20.550781 48.390625 C 20.210938 52.144531 20.859375 55.613281 22.347656 58.574219 L 22.847656 59.484375 C 23.144531 60.027344 23.5 60.539062 23.867188 61.039062 C 24.234375 61.539062 24.363281 61.8125 24.597656 62.144531 C 28.535156 66.621094 34.402344 68.777344 41.175781 68.777344 C 56.179688 68.777344 68.914062 62.050781 74.550781 46.933594 C 78.546875 47.351562 82.382812 46.3125 84.128906 42.859375 C 81.34375 41.234375 77.765625 41.753906 75.707031 42.804688 L 81.167969 27.097656 L 59.839844 40.890625 L 53.027344 40.890625 L 53.027344 27.097656 Z M 32.585938 27.097656 "/></clipPath><clipPath id="75f2b25f64"><path d="M 20.441406 34 L 25 34 L 25 40 L 20.441406 40 Z M 20.441406 34 "/></clipPath><clipPath id="955c434bc0"><path d="M 32.585938 27.097656 L 32.585938 40.890625 L 26.070312 40.890625 L 26.070312 47.789062 L 20.613281 47.789062 L 20.550781 48.390625 C 20.210938 52.144531 20.859375 55.613281 22.347656 58.574219 L 22.847656 59.484375 C 23.144531 60.027344 23.5 60.539062 23.867188 61.039062 C 24.234375 61.539062 24.363281 61.8125 24.597656 62.144531 C 28.535156 66.621094 34.402344 68.777344 41.175781 68.777344 C 56.179688 68.777344 68.914062 62.050781 74.550781 46.933594 C 78.546875 47.351562 82.382812 46.3125 84.128906 42.859375 C 81.34375 41.234375 77.765625 41.753906 75.707031 42.804688 L 81.167969 27.097656 L 59.839844 40.890625 L 53.027344 40.890625 L 53.027344 27.097656 Z M 32.585938 27.097656 "/></clipPath><clipPath id="d17aa754e0"><path d="M 20.441406 34 L 26 34 L 26 41 L 20.441406 41 Z M 20.441406 34 "/></clipPath><clipPath id="1a8f681b8a"><path d="M 32.585938 27.097656 L 32.585938 40.890625 L 26.070312 40.890625 L 26.070312 47.789062 L 20.613281 47.789062 L 20.550781 48.390625 C 20.210938 52.144531 20.859375 55.613281 22.347656 58.574219 L 22.847656 59.484375 C 23.144531 60.027344 23.5 60.539062 23.867188 61.039062 C 24.234375 61.539062 24.363281 61.8125 24.597656 62.144531 C 28.535156 66.621094 34.402344 68.777344 41.175781 68.777344 C 56.179688 68.777344 68.914062 62.050781 74.550781 46.933594 C 78.546875 47.351562 82.382812 46.3125 84.128906 42.859375 C 81.34375 41.234375 77.765625 41.753906 75.707031 42.804688 L 81.167969 27.097656 L 59.839844 40.890625 L 53.027344 40.890625 L 53.027344 27.097656 Z M 32.585938 27.097656 "/></clipPath><clipPath id="dc20c16c99"><path d="M 20.441406 41 L 25 41 L 25 47 L 20.441406 47 Z M 20.441406 41 "/></clipPath><clipPath id="617065ba58"><path d="M 32.585938 27.097656 L 32.585938 40.890625 L 26.070312 40.890625 L 26.070312 47.789062 L 20.613281 47.789062 L 20.550781 48.390625 C 20.210938 52.144531 20.859375 55.613281 22.347656 58.574219 L 22.847656 59.484375 C 23.144531 60.027344 23.5 60.539062 23.867188 61.039062 C 24.234375 61.539062 24.363281 61.8125 24.597656 62.144531 C 28.535156 66.621094 34.402344 68.777344 41.175781 68.777344 C 56.179688 68.777344 68.914062 62.050781 74.550781 46.933594 C 78.546875 47.351562 82.382812 46.3125 84.128906 42.859375 C 81.34375 41.234375 77.765625 41.753906 75.707031 42.804688 L 81.167969 27.097656 L 59.839844 40.890625 L 53.027344 40.890625 L 53.027344 27.097656 Z M 32.585938 27.097656 "/></clipPath><clipPath id="76b34a0380"><path d="M 20.441406 41 L 26 41 L 26 48 L 20.441406 48 Z M 20.441406 41 "/></clipPath><clipPath id="4934562dfd"><path d="M 32.585938 27.097656 L 32.585938 40.890625 L 26.070312 40.890625 L 26.070312 47.789062 L 20.613281 47.789062 L 20.550781 48.390625 C 20.210938 52.144531 20.859375 55.613281 22.347656 58.574219 L 22.847656 59.484375 C 23.144531 60.027344 23.5 60.539062 23.867188 61.039062 C 24.234375 61.539062 24.363281 61.8125 24.597656 62.144531 C 28.535156 66.621094 34.402344 68.777344 41.175781 68.777344 C 56.179688 68.777344 68.914062 62.050781 74.550781 46.933594 C 78.546875 47.351562 82.382812 46.3125 84.128906 42.859375 C 81.34375 41.234375 77.765625 41.753906 75.707031 42.804688 L 81.167969 27.097656 L 59.839844 40.890625 L 53.027344 40.890625 L 53.027344 27.097656 Z M 32.585938 27.097656 "/></clipPath><clipPath id="e27417d40b"><path d="M 26 41 L 33 41 L 33 48 L 26 48 Z M 26 41 "/></clipPath><clipPath id="f3af012bad"><path d="M 32.585938 27.097656 L 32.585938 40.890625 L 26.070312 40.890625 L 26.070312 47.789062 L 20.613281 47.789062 L 20.550781 48.390625 C 20.210938 52.144531 20.859375 55.613281 22.347656 58.574219 L 22.847656 59.484375 C 23.144531 60.027344 23.5 60.539062 23.867188 61.039062 C 24.234375 61.539062 24.363281 61.8125 24.597656 62.144531 C 28.535156 66.621094 34.402344 68.777344 41.175781 68.777344 C 56.179688 68.777344 68.914062 62.050781 74.550781 46.933594 C 78.546875 47.351562 82.382812 46.3125 84.128906 42.859375 C 81.34375 41.234375 77.765625 41.753906 75.707031 42.804688 L 81.167969 27.097656 L 59.839844 40.890625 L 53.027344 40.890625 L 53.027344 27.097656 Z M 32.585938 27.097656 "/></clipPath><clipPath id="0dc144507d"><path d="M 26 34 L 33 34 L 33 41 L 26 41 Z M 26 34 "/></clipPath><clipPath id="e1106bd7a4"><path d="M 32.585938 27.097656 L 32.585938 40.890625 L 26.070312 40.890625 L 26.070312 47.789062 L 20.613281 47.789062 L 20.550781 48.390625 C 20.210938 52.144531 20.859375 55.613281 22.347656 58.574219 L 22.847656 59.484375 C 23.144531 60.027344 23.5 60.539062 23.867188 61.039062 C 24.234375 61.539062 24.363281 61.8125 24.597656 62.144531 C 28.535156 66.621094 34.402344 68.777344 41.175781 68.777344 C 56.179688 68.777344 68.914062 62.050781 74.550781 46.933594 C 78.546875 47.351562 82.382812 46.3125 84.128906 42.859375 C 81.34375 41.234375 77.765625 41.753906 75.707031 42.804688 L 81.167969 27.097656 L 59.839844 40.890625 L 53.027344 40.890625 L 53.027344 27.097656 Z M 32.585938 27.097656 "/></clipPath><clipPath id="d96b50b64e"><path d="M 27 41 L 32 41 L 32 47 L 27 47 Z M 27 41 "/></clipPath><clipPath id="872e4726f8"><path d="M 32.585938 27.097656 L 32.585938 40.890625 L 26.070312 40.890625 L 26.070312 47.789062 L 20.613281 47.789062 L 20.550781 48.390625 C 20.210938 52.144531 20.859375 55.613281 22.347656 58.574219 L 22.847656 59.484375 C 23.144531 60.027344 23.5 60.539062 23.867188 61.039062 C 24.234375 61.539062 24.363281 61.8125 24.597656 62.144531 C 28.535156 66.621094 34.402344 68.777344 41.175781 68.777344 C 56.179688 68.777344 68.914062 62.050781 74.550781 46.933594 C 78.546875 47.351562 82.382812 46.3125 84.128906 42.859375 C 81.34375 41.234375 77.765625 41.753906 75.707031 42.804688 L 81.167969 27.097656 L 59.839844 40.890625 L 53.027344 40.890625 L 53.027344 27.097656 Z M 32.585938 27.097656 "/></clipPath><clipPath id="0c7e988958"><path d="M 26 41 L 32 41 L 32 48 L 26 48 Z M 26 41 "/></clipPath><clipPath id="c4105b4184"><path d="M 32.585938 27.097656 L 32.585938 40.890625 L 26.070312 40.890625 L 26.070312 47.789062 L 20.613281 47.789062 L 20.550781 48.390625 C 20.210938 52.144531 20.859375 55.613281 22.347656 58.574219 L 22.847656 59.484375 C 23.144531 60.027344 23.5 60.539062 23.867188 61.039062 C 24.234375 61.539062 24.363281 61.8125 24.597656 62.144531 C 28.535156 66.621094 34.402344 68.777344 41.175781 68.777344 C 56.179688 68.777344 68.914062 62.050781 74.550781 46.933594 C 78.546875 47.351562 82.382812 46.3125 84.128906 42.859375 C 81.34375 41.234375 77.765625 41.753906 75.707031 42.804688 L 81.167969 27.097656 L 59.839844 40.890625 L 53.027344 40.890625 L 53.027344 27.097656 Z M 32.585938 27.097656 "/></clipPath><clipPath id="18cae36466"><path d="M 27 34 L 32 34 L 32 40 L 27 40 Z M 27 34 "/></clipPath><clipPath id="8fca8b162d"><path d="M 32.585938 27.097656 L 32.585938 40.890625 L 26.070312 40.890625 L 26.070312 47.789062 L 20.613281 47.789062 L 20.550781 48.390625 C 20.210938 52.144531 20.859375 55.613281 22.347656 58.574219 L 22.847656 59.484375 C 23.144531 60.027344 23.5 60.539062 23.867188 61.039062 C 24.234375 61.539062 24.363281 61.8125 24.597656 62.144531 C 28.535156 66.621094 34.402344 68.777344 41.175781 68.777344 C 56.179688 68.777344 68.914062 62.050781 74.550781 46.933594 C 78.546875 47.351562 82.382812 46.3125 84.128906 42.859375 C 81.34375 41.234375 77.765625 41.753906 75.707031 42.804688 L 81.167969 27.097656 L 59.839844 40.890625 L 53.027344 40.890625 L 53.027344 27.097656 Z M 32.585938 27.097656 "/></clipPath><clipPath id="7f40bb0aff"><path d="M 26 34 L 32 34 L 32 41 L 26 41 Z M 26 34 "/></clipPath><clipPath id="72a67c2a0f"><path d="M 32.585938 27.097656 L 32.585938 40.890625 L 26.070312 40.890625 L 26.070312 47.789062 L 20.613281 47.789062 L 20.550781 48.390625 C 20.210938 52.144531 20.859375 55.613281 22.347656 58.574219 L 22.847656 59.484375 C 23.144531 60.027344 23.5 60.539062 23.867188 61.039062 C 24.234375 61.539062 24.363281 61.8125 24.597656 62.144531 C 28.535156 66.621094 34.402344 68.777344 41.175781 68.777344 C 56.179688 68.777344 68.914062 62.050781 74.550781 46.933594 C 78.546875 47.351562 82.382812 46.3125 84.128906 42.859375 C 81.34375 41.234375 77.765625 41.753906 75.707031 42.804688 L 81.167969 27.097656 L 59.839844 40.890625 L 53.027344 40.890625 L 53.027344 27.097656 Z M 32.585938 27.097656 "/></clipPath><clipPath id="94e2ce4458"><path d="M 33 34 L 40 34 L 40 41 L 33 41 Z M 33 34 "/></clipPath><clipPath id="a3180779a7"><path d="M 32.585938 27.097656 L 32.585938 40.890625 L 26.070312 40.890625 L 26.070312 47.789062 L 20.613281 47.789062 L 20.550781 48.390625 C 20.210938 52.144531 20.859375 55.613281 22.347656 58.574219 L 22.847656 59.484375 C 23.144531 60.027344 23.5 60.539062 23.867188 61.039062 C 24.234375 61.539062 24.363281 61.8125 24.597656 62.144531 C 28.535156 66.621094 34.402344 68.777344 41.175781 68.777344 C 56.179688 68.777344 68.914062 62.050781 74.550781 46.933594 C 78.546875 47.351562 82.382812 46.3125 84.128906 42.859375 C 81.34375 41.234375 77.765625 41.753906 75.707031 42.804688 L 81.167969 27.097656 L 59.839844 40.890625 L 53.027344 40.890625 L 53.027344 27.097656 Z M 32.585938 27.097656 "/></clipPath><clipPath id="7339b4da54"><path d="M 33 41 L 40 41 L 40 48 L 33 48 Z M 33 41 "/></clipPath><clipPath id="18e3b86e5f"><path d="M 32.585938 27.097656 L 32.585938 40.890625 L 26.070312 40.890625 L 26.070312 47.789062 L 20.613281 47.789062 L 20.550781 48.390625 C 20.210938 52.144531 20.859375 55.613281 22.347656 58.574219 L 22.847656 59.484375 C 23.144531 60.027344 23.5 60.539062 23.867188 61.039062 C 24.234375 61.539062 24.363281 61.8125 24.597656 62.144531 C 28.535156 66.621094 34.402344 68.777344 41.175781 68.777344 C 56.179688 68.777344 68.914062 62.050781 74.550781 46.933594 C 78.546875 47.351562 82.382812 46.3125 84.128906 42.859375 C 81.34375 41.234375 77.765625 41.753906 75.707031 42.804688 L 81.167969 27.097656 L 59.839844 40.890625 L 53.027344 40.890625 L 53.027344 27.097656 Z M 32.585938 27.097656 "/></clipPath><clipPath id="8003473c3f"><path d="M 33 34 L 39 34 L 39 40 L 33 40 Z M 33 34 "/></clipPath><clipPath id="6f46d87691"><path d="M 32.585938 27.097656 L 32.585938 40.890625 L 26.070312 40.890625 L 26.070312 47.789062 L 20.613281 47.789062 L 20.550781 48.390625 C 20.210938 52.144531 20.859375 55.613281 22.347656 58.574219 L 22.847656 59.484375 C 23.144531 60.027344 23.5 60.539062 23.867188 61.039062 C 24.234375 61.539062 24.363281 61.8125 24.597656 62.144531 C 28.535156 66.621094 34.402344 68.777344 41.175781 68.777344 C 56.179688 68.777344 68.914062 62.050781 74.550781 46.933594 C 78.546875 47.351562 82.382812 46.3125 84.128906 42.859375 C 81.34375 41.234375 77.765625 41.753906 75.707031 42.804688 L 81.167969 27.097656 L 59.839844 40.890625 L 53.027344 40.890625 L 53.027344 27.097656 Z M 32.585938 27.097656 "/></clipPath><clipPath id="25a41a7356"><path d="M 33 34 L 39 34 L 39 41 L 33 41 Z M 33 34 "/></clipPath><clipPath id="300b5a8cd0"><path d="M 32.585938 27.097656 L 32.585938 40.890625 L 26.070312 40.890625 L 26.070312 47.789062 L 20.613281 47.789062 L 20.550781 48.390625 C 20.210938 52.144531 20.859375 55.613281 22.347656 58.574219 L 22.847656 59.484375 C 23.144531 60.027344 23.5 60.539062 23.867188 61.039062 C 24.234375 61.539062 24.363281 61.8125 24.597656 62.144531 C 28.535156 66.621094 34.402344 68.777344 41.175781 68.777344 C 56.179688 68.777344 68.914062 62.050781 74.550781 46.933594 C 78.546875 47.351562 82.382812 46.3125 84.128906 42.859375 C 81.34375 41.234375 77.765625 41.753906 75.707031 42.804688 L 81.167969 27.097656 L 59.839844 40.890625 L 53.027344 40.890625 L 53.027344 27.097656 Z M 32.585938 27.097656 "/></clipPath><clipPath id="b5acf9c9e0"><path d="M 33 41 L 39 41 L 39 47 L 33 47 Z M 33 41 "/></clipPath><clipPath id="e073ecd24d"><path d="M 32.585938 27.097656 L 32.585938 40.890625 L 26.070312 40.890625 L 26.070312 47.789062 L 20.613281 47.789062 L 20.550781 48.390625 C 20.210938 52.144531 20.859375 55.613281 22.347656 58.574219 L 22.847656 59.484375 C 23.144531 60.027344 23.5 60.539062 23.867188 61.039062 C 24.234375 61.539062 24.363281 61.8125 24.597656 62.144531 C 28.535156 66.621094 34.402344 68.777344 41.175781 68.777344 C 56.179688 68.777344 68.914062 62.050781 74.550781 46.933594 C 78.546875 47.351562 82.382812 46.3125 84.128906 42.859375 C 81.34375 41.234375 77.765625 41.753906 75.707031 42.804688 L 81.167969 27.097656 L 59.839844 40.890625 L 53.027344 40.890625 L 53.027344 27.097656 Z M 32.585938 27.097656 "/></clipPath><clipPath id="c3a810e664"><path d="M 33 41 L 39 41 L 39 48 L 33 48 Z M 33 41 "/></clipPath><clipPath id="951c49ccd5"><path d="M 32.585938 27.097656 L 32.585938 40.890625 L 26.070312 40.890625 L 26.070312 47.789062 L 20.613281 47.789062 L 20.550781 48.390625 C 20.210938 52.144531 20.859375 55.613281 22.347656 58.574219 L 22.847656 59.484375 C 23.144531 60.027344 23.5 60.539062 23.867188 61.039062 C 24.234375 61.539062 24.363281 61.8125 24.597656 62.144531 C 28.535156 66.621094 34.402344 68.777344 41.175781 68.777344 C 56.179688 68.777344 68.914062 62.050781 74.550781 46.933594 C 78.546875 47.351562 82.382812 46.3125 84.128906 42.859375 C 81.34375 41.234375 77.765625 41.753906 75.707031 42.804688 L 81.167969 27.097656 L 59.839844 40.890625 L 53.027344 40.890625 L 53.027344 27.097656 Z M 32.585938 27.097656 "/></clipPath><clipPath id="58bc648ee9"><path d="M 39 41 L 46 41 L 46 48 L 39 48 Z M 39 41 "/></clipPath><clipPath id="47b8da7550"><path d="M 32.585938 27.097656 L 32.585938 40.890625 L 26.070312 40.890625 L 26.070312 47.789062 L 20.613281 47.789062 L 20.550781 48.390625 C 20.210938 52.144531 20.859375 55.613281 22.347656 58.574219 L 22.847656 59.484375 C 23.144531 60.027344 23.5 60.539062 23.867188 61.039062 C 24.234375 61.539062 24.363281 61.8125 24.597656 62.144531 C 28.535156 66.621094 34.402344 68.777344 41.175781 68.777344 C 56.179688 68.777344 68.914062 62.050781 74.550781 46.933594 C 78.546875 47.351562 82.382812 46.3125 84.128906 42.859375 C 81.34375 41.234375 77.765625 41.753906 75.707031 42.804688 L 81.167969 27.097656 L 59.839844 40.890625 L 53.027344 40.890625 L 53.027344 27.097656 Z M 32.585938 27.097656 "/></clipPath><clipPath id="cd4d9fab22"><path d="M 39 34 L 46 34 L 46 41 L 39 41 Z M 39 34 "/></clipPath><clipPath id="789f187691"><path d="M 32.585938 27.097656 L 32.585938 40.890625 L 26.070312 40.890625 L 26.070312 47.789062 L 20.613281 47.789062 L 20.550781 48.390625 C 20.210938 52.144531 20.859375 55.613281 22.347656 58.574219 L 22.847656 59.484375 C 23.144531 60.027344 23.5 60.539062 23.867188 61.039062 C 24.234375 61.539062 24.363281 61.8125 24.597656 62.144531 C 28.535156 66.621094 34.402344 68.777344 41.175781 68.777344 C 56.179688 68.777344 68.914062 62.050781 74.550781 46.933594 C 78.546875 47.351562 82.382812 46.3125 84.128906 42.859375 C 81.34375 41.234375 77.765625 41.753906 75.707031 42.804688 L 81.167969 27.097656 L 59.839844 40.890625 L 53.027344 40.890625 L 53.027344 27.097656 Z M 32.585938 27.097656 "/></clipPath><clipPath id="80b803b6a3"><path d="M 40 41 L 46 41 L 46 47 L 40 47 Z M 40 41 "/></clipPath><clipPath id="30502f610b"><path d="M 32.585938 27.097656 L 32.585938 40.890625 L 26.070312 40.890625 L 26.070312 47.789062 L 20.613281 47.789062 L 20.550781 48.390625 C 20.210938 52.144531 20.859375 55.613281 22.347656 58.574219 L 22.847656 59.484375 C 23.144531 60.027344 23.5 60.539062 23.867188 61.039062 C 24.234375 61.539062 24.363281 61.8125 24.597656 62.144531 C 28.535156 66.621094 34.402344 68.777344 41.175781 68.777344 C 56.179688 68.777344 68.914062 62.050781 74.550781 46.933594 C 78.546875 47.351562 82.382812 46.3125 84.128906 42.859375 C 81.34375 41.234375 77.765625 41.753906 75.707031 42.804688 L 81.167969 27.097656 L 59.839844 40.890625 L 53.027344 40.890625 L 53.027344 27.097656 Z M 32.585938 27.097656 "/></clipPath><clipPath id="5c142c8d0c"><path d="M 40 41 L 46 41 L 46 48 L 40 48 Z M 40 41 "/></clipPath><clipPath id="e14435163b"><path d="M 32.585938 27.097656 L 32.585938 40.890625 L 26.070312 40.890625 L 26.070312 47.789062 L 20.613281 47.789062 L 20.550781 48.390625 C 20.210938 52.144531 20.859375 55.613281 22.347656 58.574219 L 22.847656 59.484375 C 23.144531 60.027344 23.5 60.539062 23.867188 61.039062 C 24.234375 61.539062 24.363281 61.8125 24.597656 62.144531 C 28.535156 66.621094 34.402344 68.777344 41.175781 68.777344 C 56.179688 68.777344 68.914062 62.050781 74.550781 46.933594 C 78.546875 47.351562 82.382812 46.3125 84.128906 42.859375 C 81.34375 41.234375 77.765625 41.753906 75.707031 42.804688 L 81.167969 27.097656 L 59.839844 40.890625 L 53.027344 40.890625 L 53.027344 27.097656 Z M 32.585938 27.097656 "/></clipPath><clipPath id="13a8e76352"><path d="M 40 34 L 46 34 L 46 40 L 40 40 Z M 40 34 "/></clipPath><clipPath id="3c3d724284"><path d="M 32.585938 27.097656 L 32.585938 40.890625 L 26.070312 40.890625 L 26.070312 47.789062 L 20.613281 47.789062 L 20.550781 48.390625 C 20.210938 52.144531 20.859375 55.613281 22.347656 58.574219 L 22.847656 59.484375 C 23.144531 60.027344 23.5 60.539062 23.867188 61.039062 C 24.234375 61.539062 24.363281 61.8125 24.597656 62.144531 C 28.535156 66.621094 34.402344 68.777344 41.175781 68.777344 C 56.179688 68.777344 68.914062 62.050781 74.550781 46.933594 C 78.546875 47.351562 82.382812 46.3125 84.128906 42.859375 C 81.34375 41.234375 77.765625 41.753906 75.707031 42.804688 L 81.167969 27.097656 L 59.839844 40.890625 L 53.027344 40.890625 L 53.027344 27.097656 Z M 32.585938 27.097656 "/></clipPath><clipPath id="e2f8d9dc7b"><path d="M 40 34 L 46 34 L 46 41 L 40 41 Z M 40 34 "/></clipPath><clipPath id="d666de415e"><path d="M 32.585938 27.097656 L 32.585938 40.890625 L 26.070312 40.890625 L 26.070312 47.789062 L 20.613281 47.789062 L 20.550781 48.390625 C 20.210938 52.144531 20.859375 55.613281 22.347656 58.574219 L 22.847656 59.484375 C 23.144531 60.027344 23.5 60.539062 23.867188 61.039062 C 24.234375 61.539062 24.363281 61.8125 24.597656 62.144531 C 28.535156 66.621094 34.402344 68.777344 41.175781 68.777344 C 56.179688 68.777344 68.914062 62.050781 74.550781 46.933594 C 78.546875 47.351562 82.382812 46.3125 84.128906 42.859375 C 81.34375 41.234375 77.765625 41.753906 75.707031 42.804688 L 81.167969 27.097656 L 59.839844 40.890625 L 53.027344 40.890625 L 53.027344 27.097656 Z M 32.585938 27.097656 "/></clipPath><clipPath id="ab84d57337"><path d="M 46 34 L 53 34 L 53 41 L 46 41 Z M 46 34 "/></clipPath><clipPath id="424bbd2543"><path d="M 32.585938 27.097656 L 32.585938 40.890625 L 26.070312 40.890625 L 26.070312 47.789062 L 20.613281 47.789062 L 20.550781 48.390625 C 20.210938 52.144531 20.859375 55.613281 22.347656 58.574219 L 22.847656 59.484375 C 23.144531 60.027344 23.5 60.539062 23.867188 61.039062 C 24.234375 61.539062 24.363281 61.8125 24.597656 62.144531 C 28.535156 66.621094 34.402344 68.777344 41.175781 68.777344 C 56.179688 68.777344 68.914062 62.050781 74.550781 46.933594 C 78.546875 47.351562 82.382812 46.3125 84.128906 42.859375 C 81.34375 41.234375 77.765625 41.753906 75.707031 42.804688 L 81.167969 27.097656 L 59.839844 40.890625 L 53.027344 40.890625 L 53.027344 27.097656 Z M 32.585938 27.097656 "/></clipPath><clipPath id="b07fe03098"><path d="M 46 41 L 53 41 L 53 48 L 46 48 Z M 46 41 "/></clipPath><clipPath id="5736742610"><path d="M 32.585938 27.097656 L 32.585938 40.890625 L 26.070312 40.890625 L 26.070312 47.789062 L 20.613281 47.789062 L 20.550781 48.390625 C 20.210938 52.144531 20.859375 55.613281 22.347656 58.574219 L 22.847656 59.484375 C 23.144531 60.027344 23.5 60.539062 23.867188 61.039062 C 24.234375 61.539062 24.363281 61.8125 24.597656 62.144531 C 28.535156 66.621094 34.402344 68.777344 41.175781 68.777344 C 56.179688 68.777344 68.914062 62.050781 74.550781 46.933594 C 78.546875 47.351562 82.382812 46.3125 84.128906 42.859375 C 81.34375 41.234375 77.765625 41.753906 75.707031 42.804688 L 81.167969 27.097656 L 59.839844 40.890625 L 53.027344 40.890625 L 53.027344 27.097656 Z M 32.585938 27.097656 "/></clipPath><clipPath id="04ce72c63c"><path d="M 47 34 L 52 34 L 52 40 L 47 40 Z M 47 34 "/></clipPath><clipPath id="2fc9aa0410"><path d="M 32.585938 27.097656 L 32.585938 40.890625 L 26.070312 40.890625 L 26.070312 47.789062 L 20.613281 47.789062 L 20.550781 48.390625 C 20.210938 52.144531 20.859375 55.613281 22.347656 58.574219 L 22.847656 59.484375 C 23.144531 60.027344 23.5 60.539062 23.867188 61.039062 C 24.234375 61.539062 24.363281 61.8125 24.597656 62.144531 C 28.535156 66.621094 34.402344 68.777344 41.175781 68.777344 C 56.179688 68.777344 68.914062 62.050781 74.550781 46.933594 C 78.546875 47.351562 82.382812 46.3125 84.128906 42.859375 C 81.34375 41.234375 77.765625 41.753906 75.707031 42.804688 L 81.167969 27.097656 L 59.839844 40.890625 L 53.027344 40.890625 L 53.027344 27.097656 Z M 32.585938 27.097656 "/></clipPath><clipPath id="29039d969e"><path d="M 47 34 L 53 34 L 53 41 L 47 41 Z M 47 34 "/></clipPath><clipPath id="f0e40d0e35"><path d="M 32.585938 27.097656 L 32.585938 40.890625 L 26.070312 40.890625 L 26.070312 47.789062 L 20.613281 47.789062 L 20.550781 48.390625 C 20.210938 52.144531 20.859375 55.613281 22.347656 58.574219 L 22.847656 59.484375 C 23.144531 60.027344 23.5 60.539062 23.867188 61.039062 C 24.234375 61.539062 24.363281 61.8125 24.597656 62.144531 C 28.535156 66.621094 34.402344 68.777344 41.175781 68.777344 C 56.179688 68.777344 68.914062 62.050781 74.550781 46.933594 C 78.546875 47.351562 82.382812 46.3125 84.128906 42.859375 C 81.34375 41.234375 77.765625 41.753906 75.707031 42.804688 L 81.167969 27.097656 L 59.839844 40.890625 L 53.027344 40.890625 L 53.027344 27.097656 Z M 32.585938 27.097656 "/></clipPath><clipPath id="67317ec865"><path d="M 47 41 L 52 41 L 52 47 L 47 47 Z M 47 41 "/></clipPath><clipPath id="0ecc257b41"><path d="M 32.585938 27.097656 L 32.585938 40.890625 L 26.070312 40.890625 L 26.070312 47.789062 L 20.613281 47.789062 L 20.550781 48.390625 C 20.210938 52.144531 20.859375 55.613281 22.347656 58.574219 L 22.847656 59.484375 C 23.144531 60.027344 23.5 60.539062 23.867188 61.039062 C 24.234375 61.539062 24.363281 61.8125 24.597656 62.144531 C 28.535156 66.621094 34.402344 68.777344 41.175781 68.777344 C 56.179688 68.777344 68.914062 62.050781 74.550781 46.933594 C 78.546875 47.351562 82.382812 46.3125 84.128906 42.859375 C 81.34375 41.234375 77.765625 41.753906 75.707031 42.804688 L 81.167969 27.097656 L 59.839844 40.890625 L 53.027344 40.890625 L 53.027344 27.097656 Z M 32.585938 27.097656 "/></clipPath><clipPath id="c79c766da9"><path d="M 47 41 L 53 41 L 53 48 L 47 48 Z M 47 41 "/></clipPath><clipPath id="ebb7542966"><path d="M 32.585938 27.097656 L 32.585938 40.890625 L 26.070312 40.890625 L 26.070312 47.789062 L 20.613281 47.789062 L 20.550781 48.390625 C 20.210938 52.144531 20.859375 55.613281 22.347656 58.574219 L 22.847656 59.484375 C 23.144531 60.027344 23.5 60.539062 23.867188 61.039062 C 24.234375 61.539062 24.363281 61.8125 24.597656 62.144531 C 28.535156 66.621094 34.402344 68.777344 41.175781 68.777344 C 56.179688 68.777344 68.914062 62.050781 74.550781 46.933594 C 78.546875 47.351562 82.382812 46.3125 84.128906 42.859375 C 81.34375 41.234375 77.765625 41.753906 75.707031 42.804688 L 81.167969 27.097656 L 59.839844 40.890625 L 53.027344 40.890625 L 53.027344 27.097656 Z M 32.585938 27.097656 "/></clipPath><clipPath id="cc7706cc56"><path d="M 53 41 L 60 41 L 60 48 L 53 48 Z M 53 41 "/></clipPath><clipPath id="9c9fef3e74"><path d="M 32.585938 27.097656 L 32.585938 40.890625 L 26.070312 40.890625 L 26.070312 47.789062 L 20.613281 47.789062 L 20.550781 48.390625 C 20.210938 52.144531 20.859375 55.613281 22.347656 58.574219 L 22.847656 59.484375 C 23.144531 60.027344 23.5 60.539062 23.867188 61.039062 C 24.234375 61.539062 24.363281 61.8125 24.597656 62.144531 C 28.535156 66.621094 34.402344 68.777344 41.175781 68.777344 C 56.179688 68.777344 68.914062 62.050781 74.550781 46.933594 C 78.546875 47.351562 82.382812 46.3125 84.128906 42.859375 C 81.34375 41.234375 77.765625 41.753906 75.707031 42.804688 L 81.167969 27.097656 L 59.839844 40.890625 L 53.027344 40.890625 L 53.027344 27.097656 Z M 32.585938 27.097656 "/></clipPath><clipPath id="dc6f943ebc"><path d="M 53 34 L 60 34 L 60 41 L 53 41 Z M 53 34 "/></clipPath><clipPath id="3b40d3301d"><path d="M 32.585938 27.097656 L 32.585938 40.890625 L 26.070312 40.890625 L 26.070312 47.789062 L 20.613281 47.789062 L 20.550781 48.390625 C 20.210938 52.144531 20.859375 55.613281 22.347656 58.574219 L 22.847656 59.484375 C 23.144531 60.027344 23.5 60.539062 23.867188 61.039062 C 24.234375 61.539062 24.363281 61.8125 24.597656 62.144531 C 28.535156 66.621094 34.402344 68.777344 41.175781 68.777344 C 56.179688 68.777344 68.914062 62.050781 74.550781 46.933594 C 78.546875 47.351562 82.382812 46.3125 84.128906 42.859375 C 81.34375 41.234375 77.765625 41.753906 75.707031 42.804688 L 81.167969 27.097656 L 59.839844 40.890625 L 53.027344 40.890625 L 53.027344 27.097656 Z M 32.585938 27.097656 "/></clipPath><clipPath id="fc300809bc"><path d="M 54 41 L 59 41 L 59 47 L 54 47 Z M 54 41 "/></clipPath><clipPath id="b31847beae"><path d="M 32.585938 27.097656 L 32.585938 40.890625 L 26.070312 40.890625 L 26.070312 47.789062 L 20.613281 47.789062 L 20.550781 48.390625 C 20.210938 52.144531 20.859375 55.613281 22.347656 58.574219 L 22.847656 59.484375 C 23.144531 60.027344 23.5 60.539062 23.867188 61.039062 C 24.234375 61.539062 24.363281 61.8125 24.597656 62.144531 C 28.535156 66.621094 34.402344 68.777344 41.175781 68.777344 C 56.179688 68.777344 68.914062 62.050781 74.550781 46.933594 C 78.546875 47.351562 82.382812 46.3125 84.128906 42.859375 C 81.34375 41.234375 77.765625 41.753906 75.707031 42.804688 L 81.167969 27.097656 L 59.839844 40.890625 L 53.027344 40.890625 L 53.027344 27.097656 Z M 32.585938 27.097656 "/></clipPath><clipPath id="106f14c773"><path d="M 54 41 L 59 41 L 59 48 L 54 48 Z M 54 41 "/></clipPath><clipPath id="7a86a2fc79"><path d="M 32.585938 27.097656 L 32.585938 40.890625 L 26.070312 40.890625 L 26.070312 47.789062 L 20.613281 47.789062 L 20.550781 48.390625 C 20.210938 52.144531 20.859375 55.613281 22.347656 58.574219 L 22.847656 59.484375 C 23.144531 60.027344 23.5 60.539062 23.867188 61.039062 C 24.234375 61.539062 24.363281 61.8125 24.597656 62.144531 C 28.535156 66.621094 34.402344 68.777344 41.175781 68.777344 C 56.179688 68.777344 68.914062 62.050781 74.550781 46.933594 C 78.546875 47.351562 82.382812 46.3125 84.128906 42.859375 C 81.34375 41.234375 77.765625 41.753906 75.707031 42.804688 L 81.167969 27.097656 L 59.839844 40.890625 L 53.027344 40.890625 L 53.027344 27.097656 Z M 32.585938 27.097656 "/></clipPath><clipPath id="893fb4c406"><path d="M 54 34 L 59 34 L 59 40 L 54 40 Z M 54 34 "/></clipPath><clipPath id="f2233a2ed0"><path d="M 32.585938 27.097656 L 32.585938 40.890625 L 26.070312 40.890625 L 26.070312 47.789062 L 20.613281 47.789062 L 20.550781 48.390625 C 20.210938 52.144531 20.859375 55.613281 22.347656 58.574219 L 22.847656 59.484375 C 23.144531 60.027344 23.5 60.539062 23.867188 61.039062 C 24.234375 61.539062 24.363281 61.8125 24.597656 62.144531 C 28.535156 66.621094 34.402344 68.777344 41.175781 68.777344 C 56.179688 68.777344 68.914062 62.050781 74.550781 46.933594 C 78.546875 47.351562 82.382812 46.3125 84.128906 42.859375 C 81.34375 41.234375 77.765625 41.753906 75.707031 42.804688 L 81.167969 27.097656 L 59.839844 40.890625 L 53.027344 40.890625 L 53.027344 27.097656 Z M 32.585938 27.097656 "/></clipPath><clipPath id="29c40346bf"><path d="M 54 34 L 59 34 L 59 41 L 54 41 Z M 54 34 "/></clipPath><clipPath id="be1ac98fb7"><path d="M 32.585938 27.097656 L 32.585938 40.890625 L 26.070312 40.890625 L 26.070312 47.789062 L 20.613281 47.789062 L 20.550781 48.390625 C 20.210938 52.144531 20.859375 55.613281 22.347656 58.574219 L 22.847656 59.484375 C 23.144531 60.027344 23.5 60.539062 23.867188 61.039062 C 24.234375 61.539062 24.363281 61.8125 24.597656 62.144531 C 28.535156 66.621094 34.402344 68.777344 41.175781 68.777344 C 56.179688 68.777344 68.914062 62.050781 74.550781 46.933594 C 78.546875 47.351562 82.382812 46.3125 84.128906 42.859375 C 81.34375 41.234375 77.765625 41.753906 75.707031 42.804688 L 81.167969 27.097656 L 59.839844 40.890625 L 53.027344 40.890625 L 53.027344 27.097656 Z M 32.585938 27.097656 "/></clipPath><clipPath id="10b3fdc377"><path d="M 20.441406 35 L 84.128906 35 L 84.128906 68.78125 L 20.441406 68.78125 Z M 20.441406 35 "/></clipPath><clipPath id="c506b3d4ae"><path d="M 32.585938 27.097656 L 32.585938 40.890625 L 26.070312 40.890625 L 26.070312 47.789062 L 20.613281 47.789062 L 20.550781 48.390625 C 20.210938 52.144531 20.859375 55.613281 22.347656 58.574219 L 22.847656 59.484375 C 23.144531 60.027344 23.5 60.539062 23.867188 61.039062 C 24.234375 61.539062 24.363281 61.8125 24.597656 62.144531 C 28.535156 66.621094 34.402344 68.777344 41.175781 68.777344 C 56.179688 68.777344 68.914062 62.050781 74.550781 46.933594 C 78.546875 47.351562 82.382812 46.3125 84.128906 42.859375 C 81.34375 41.234375 77.765625 41.753906 75.707031 42.804688 L 81.167969 27.097656 L 59.839844 40.890625 L 53.027344 40.890625 L 53.027344 27.097656 Z M 32.585938 27.097656 "/></clipPath><clipPath id="a8c5cf3be1"><path d="M 20.441406 53 L 84.128906 53 L 84.128906 68.78125 L 20.441406 68.78125 Z M 20.441406 53 "/></clipPath><clipPath id="d9ec352e4f"><path d="M 32.585938 27.097656 L 32.585938 40.890625 L 26.070312 40.890625 L 26.070312 47.789062 L 20.613281 47.789062 L 20.550781 48.390625 C 20.210938 52.144531 20.859375 55.613281 22.347656 58.574219 L 22.847656 59.484375 C 23.144531 60.027344 23.5 60.539062 23.867188 61.039062 C 24.234375 61.539062 24.363281 61.8125 24.597656 62.144531 C 28.535156 66.621094 34.402344 68.777344 41.175781 68.777344 C 56.179688 68.777344 68.914062 62.050781 74.550781 46.933594 C 78.546875 47.351562 82.382812 46.3125 84.128906 42.859375 C 81.34375 41.234375 77.765625 41.753906 75.707031 42.804688 L 81.167969 27.097656 L 59.839844 40.890625 L 53.027344 40.890625 L 53.027344 27.097656 Z M 32.585938 27.097656 "/></clipPath><clipPath id="49a3d2a67f"><path d="M 23 61 L 44 61 L 44 68.78125 L 23 68.78125 Z M 23 61 "/></clipPath><clipPath id="a3a5b05577"><path d="M 32.585938 27.097656 L 32.585938 40.890625 L 26.070312 40.890625 L 26.070312 47.789062 L 20.613281 47.789062 L 20.550781 48.390625 C 20.210938 52.144531 20.859375 55.613281 22.347656 58.574219 L 22.847656 59.484375 C 23.144531 60.027344 23.5 60.539062 23.867188 61.039062 C 24.234375 61.539062 24.363281 61.8125 24.597656 62.144531 C 28.535156 66.621094 34.402344 68.777344 41.175781 68.777344 C 56.179688 68.777344 68.914062 62.050781 74.550781 46.933594 C 78.546875 47.351562 82.382812 46.3125 84.128906 42.859375 C 81.34375 41.234375 77.765625 41.753906 75.707031 42.804688 L 81.167969 27.097656 L 59.839844 40.890625 L 53.027344 40.890625 L 53.027344 27.097656 Z M 32.585938 27.097656 "/></clipPath><clipPath id="97243d1f59"><path d="M 20.441406 41 L 84.128906 41 L 84.128906 68.78125 L 20.441406 68.78125 Z M 20.441406 41 "/></clipPath><clipPath id="54432744d5"><path d="M 32.585938 27.097656 L 32.585938 40.890625 L 26.070312 40.890625 L 26.070312 47.789062 L 20.613281 47.789062 L 20.550781 48.390625 C 20.210938 52.144531 20.859375 55.613281 22.347656 58.574219 L 22.847656 59.484375 C 23.144531 60.027344 23.5 60.539062 23.867188 61.039062 C 24.234375 61.539062 24.363281 61.8125 24.597656 62.144531 C 28.535156 66.621094 34.402344 68.777344 41.175781 68.777344 C 56.179688 68.777344 68.914062 62.050781 74.550781 46.933594 C 78.546875 47.351562 82.382812 46.3125 84.128906 42.859375 C 81.34375 41.234375 77.765625 41.753906 75.707031 42.804688 L 81.167969 27.097656 L 59.839844 40.890625 L 53.027344 40.890625 L 53.027344 27.097656 Z M 32.585938 27.097656 "/></clipPath></defs><g id="94ca83c8ea"><g clip-rule="nonzero" clip-path="url(#7cc768b48e)"><path style=" stroke:none;fill-rule:nonzero;fill:#394d54;fill-opacity:1;" d="M 53.761719 40.210938 L 60.535156 40.210938 L 60.535156 47.222656 L 63.960938 47.222656 C 65.570312 47.214844 67.140625 46.945312 68.667969 46.421875 C 69.402344 46.167969 70.226562 45.816406 70.953125 45.375 C 69.996094 44.113281 69.511719 42.519531 69.347656 40.941406 C 69.152344 38.804688 69.582031 36.019531 71.011719 34.34375 L 71.722656 33.511719 L 72.574219 34.203125 C 74.710938 35.941406 76.507812 38.367188 76.824219 41.136719 C 79.394531 40.371094 82.417969 40.550781 84.683594 41.875 L 85.617188 42.421875 L 85.125 43.390625 C 83.222656 47.171875 79.210938 48.347656 75.292969 48.136719 C 69.429688 62.925781 56.660156 69.925781 41.179688 69.925781 C 33.179688 69.925781 25.84375 66.898438 21.667969 59.714844 C 21.421875 59.269531 21.210938 58.800781 20.988281 58.34375 C 19.578125 55.183594 19.109375 51.71875 19.425781 48.277344 L 19.523438 47.242188 L 25.296875 47.242188 L 25.296875 40.21875 L 32.070312 40.21875 L 32.070312 33.359375 L 45.617188 33.359375 L 45.617188 26.503906 L 53.746094 26.503906 L 53.746094 40.21875 "/></g><g clip-rule="nonzero" clip-path="url(#3495bb6b4b)"><g clip-rule="nonzero" clip-path="url(#fcf6be2081)"><path style=" stroke:none;fill-rule:nonzero;fill:#20c2ef;fill-opacity:1;" d="M 46.761719 27.640625 L 52.632812 27.640625 L 52.632812 33.582031 L 46.761719 33.582031 Z M 46.761719 27.640625 "/></g></g><g clip-rule="nonzero" clip-path="url(#988c6c2360)"><g clip-rule="nonzero" clip-path="url(#4cfbc6348c)"><path style=" stroke:none;fill-rule:nonzero;fill:#000000;fill-opacity:1;" d="M 47.484375 33.089844 L 47.484375 28.136719 M 48.363281 33.089844 L 48.363281 28.136719 M 49.253906 33.089844 L 49.253906 28.136719 M 50.140625 33.089844 L 50.140625 28.136719 M 51.03125 33.089844 L 51.03125 28.136719 M 51.910156 33.089844 L 51.910156 28.136719 "/></g></g><g clip-rule="nonzero" clip-path="url(#2ce0c4ff50)"><g clip-rule="nonzero" clip-path="url(#024924581f)"><path style="fill:none;stroke-width:1.56;stroke-linecap:butt;stroke-linejoin:miter;stroke:#394d54;stroke-opacity:1;stroke-miterlimit:4;" d="M 126.294212 21.98039 L 126.294212 5.462664 M 129.261199 21.98039 L 129.261199 5.462664 M 132.267746 21.98039 L 132.267746 5.462664 M 135.261106 21.98039 L 135.261106 5.462664 M 138.267654 21.98039 L 138.267654 5.462664 M 141.234641 21.98039 L 141.234641 5.462664 " transform="matrix(0.296229,0,0,0.299867,10.072427,26.498645)"/></g></g><g clip-rule="nonzero" clip-path="url(#bc11103a65)"><g clip-rule="nonzero" clip-path="url(#7504eb73d9)"><path style=" stroke:none;fill-rule:nonzero;fill:#00acd3;fill-opacity:1;" d="M 53.535156 33.585938 L 59.40625 33.585938 L 59.40625 27.644531 L 53.535156 27.644531 Z M 53.535156 33.585938 "/></g></g><g clip-rule="nonzero" clip-path="url(#e4fec895c2)"><g clip-rule="nonzero" clip-path="url(#018360a586)"><path style=" stroke:none;fill-rule:nonzero;fill:#000000;fill-opacity:1;" d="M 54.257812 28.136719 L 54.257812 33.089844 M 55.136719 28.136719 L 55.136719 33.089844 M 56.027344 28.136719 L 56.027344 33.089844 M 56.914062 28.136719 L 56.914062 33.089844 M 57.804688 28.136719 L 57.804688 33.089844 M 58.683594 28.136719 L 58.683594 33.089844 "/></g></g><g clip-rule="nonzero" clip-path="url(#300cbc51fc)"><g clip-rule="nonzero" clip-path="url(#ad40cf212d)"><path style="fill:none;stroke-width:1.56;stroke-linecap:butt;stroke-linejoin:miter;stroke:#394d54;stroke-opacity:1;stroke-miterlimit:4;" d="M 126.293793 21.976035 L 126.293793 5.458308 M 129.26078 21.976035 L 129.26078 5.458308 M 132.267327 21.976035 L 132.267327 5.458308 M 135.260687 21.976035 L 135.260687 5.458308 M 138.267234 21.976035 L 138.267234 5.458308 M 141.234222 21.976035 L 141.234222 5.458308 " transform="matrix(0.296229,0,0,-0.299867,16.845988,34.726612)"/></g></g><g clip-rule="nonzero" clip-path="url(#c8081be892)"><g clip-rule="nonzero" clip-path="url(#b57f8d28f8)"><path style=" stroke:none;fill-rule:nonzero;fill:#00acd3;fill-opacity:1;" d="M 19.667969 34.496094 L 25.539062 34.496094 L 25.539062 40.4375 L 19.667969 40.4375 Z M 19.667969 34.496094 "/></g></g><g clip-rule="nonzero" clip-path="url(#331fa57b25)"><g clip-rule="nonzero" clip-path="url(#5ba41aa449)"><path style=" stroke:none;fill-rule:nonzero;fill:#20c2ef;fill-opacity:1;" d="M 19.667969 41.355469 L 25.539062 41.355469 L 25.539062 47.296875 L 19.667969 47.296875 Z M 19.667969 41.355469 "/></g></g><g clip-rule="nonzero" clip-path="url(#75f2b25f64)"><g clip-rule="nonzero" clip-path="url(#955c434bc0)"><path style=" stroke:none;fill-rule:nonzero;fill:#000000;fill-opacity:1;" d="M 20.390625 39.945312 L 20.390625 34.992188 M 21.269531 39.945312 L 21.269531 34.992188 M 22.160156 39.945312 L 22.160156 34.992188 M 23.046875 39.945312 L 23.046875 34.992188 M 23.9375 39.945312 L 23.9375 34.992188 M 24.816406 39.945312 L 24.816406 34.992188 "/></g></g><g clip-rule="nonzero" clip-path="url(#d17aa754e0)"><g clip-rule="nonzero" clip-path="url(#1a8f681b8a)"><path style="fill:none;stroke-width:1.56;stroke-linecap:butt;stroke-linejoin:miter;stroke:#394d54;stroke-opacity:1;stroke-miterlimit:4;" d="M 126.295882 21.976074 L 126.295882 5.458348 M 129.26287 21.976074 L 129.26287 5.458348 M 132.269417 21.976074 L 132.269417 5.458348 M 135.262777 21.976074 L 135.262777 5.458348 M 138.269324 21.976074 L 138.269324 5.458348 M 141.236311 21.976074 L 141.236311 5.458348 " transform="matrix(0.296229,0,0,0.299867,-17.021818,33.355408)"/></g></g><g clip-rule="nonzero" clip-path="url(#dc20c16c99)"><g clip-rule="nonzero" clip-path="url(#617065ba58)"><path style=" stroke:none;fill-rule:nonzero;fill:#000000;fill-opacity:1;" d="M 20.390625 46.800781 L 20.390625 41.847656 M 21.269531 46.800781 L 21.269531 41.847656 M 22.160156 46.800781 L 22.160156 41.847656 M 23.046875 46.800781 L 23.046875 41.847656 M 23.9375 46.800781 L 23.9375 41.847656 M 24.816406 46.800781 L 24.816406 41.847656 "/></g></g><g clip-rule="nonzero" clip-path="url(#76b34a0380)"><g clip-rule="nonzero" clip-path="url(#4934562dfd)"><path style="fill:none;stroke-width:1.56;stroke-linecap:butt;stroke-linejoin:miter;stroke:#394d54;stroke-opacity:1;stroke-miterlimit:4;" d="M 126.295882 21.971752 L 126.295882 5.454026 M 129.26287 21.971752 L 129.26287 5.454026 M 132.269417 21.971752 L 132.269417 5.454026 M 135.262777 21.971752 L 135.262777 5.454026 M 138.269324 21.971752 L 138.269324 5.454026 M 141.236311 21.971752 L 141.236311 5.454026 " transform="matrix(0.296229,0,0,0.299867,-17.021818,40.212173)"/></g></g><g clip-rule="nonzero" clip-path="url(#e27417d40b)"><g clip-rule="nonzero" clip-path="url(#f3af012bad)"><path style=" stroke:none;fill-rule:nonzero;fill:#00acd3;fill-opacity:1;" d="M 26.441406 47.300781 L 32.3125 47.300781 L 32.3125 41.359375 L 26.441406 41.359375 Z M 26.441406 47.300781 "/></g></g><g clip-rule="nonzero" clip-path="url(#0dc144507d)"><g clip-rule="nonzero" clip-path="url(#e1106bd7a4)"><path style=" stroke:none;fill-rule:nonzero;fill:#20c2ef;fill-opacity:1;" d="M 26.441406 40.441406 L 32.3125 40.441406 L 32.3125 34.5 L 26.441406 34.5 Z M 26.441406 40.441406 "/></g></g><g clip-rule="nonzero" clip-path="url(#d96b50b64e)"><g clip-rule="nonzero" clip-path="url(#872e4726f8)"><path style=" stroke:none;fill-rule:nonzero;fill:#000000;fill-opacity:1;" d="M 27.164062 41.851562 L 27.164062 46.804688 M 28.042969 41.851562 L 28.042969 46.804688 M 28.933594 41.851562 L 28.933594 46.804688 M 29.820312 41.851562 L 29.820312 46.804688 M 30.710938 41.851562 L 30.710938 46.804688 M 31.589844 41.851562 L 31.589844 46.804688 "/></g></g><g clip-rule="nonzero" clip-path="url(#0c7e988958)"><g clip-rule="nonzero" clip-path="url(#c4105b4184)"><path style="fill:none;stroke-width:1.56;stroke-linecap:butt;stroke-linejoin:miter;stroke:#394d54;stroke-opacity:1;stroke-miterlimit:4;" d="M 126.295469 21.97165 L 126.295469 5.453923 M 129.262456 21.97165 L 129.262456 5.453923 M 132.269003 21.97165 L 132.269003 5.453923 M 135.262364 21.97165 L 135.262364 5.453923 M 138.268911 21.97165 L 138.268911 5.453923 M 141.235898 21.97165 L 141.235898 5.453923 " transform="matrix(0.296229,0,0,-0.299867,-10.248258,48.44014)"/></g></g><g clip-rule="nonzero" clip-path="url(#18cae36466)"><g clip-rule="nonzero" clip-path="url(#8fca8b162d)"><path style=" stroke:none;fill-rule:nonzero;fill:#000000;fill-opacity:1;" d="M 27.164062 34.992188 L 27.164062 39.945312 M 28.042969 34.992188 L 28.042969 39.945312 M 28.933594 34.992188 L 28.933594 39.945312 M 29.820312 34.992188 L 29.820312 39.945312 M 30.710938 34.992188 L 30.710938 39.945312 M 31.589844 34.992188 L 31.589844 39.945312 "/></g></g><g clip-rule="nonzero" clip-path="url(#7f40bb0aff)"><g clip-rule="nonzero" clip-path="url(#72a67c2a0f)"><path style="fill:none;stroke-width:1.56;stroke-linecap:butt;stroke-linejoin:miter;stroke:#394d54;stroke-opacity:1;stroke-miterlimit:4;" d="M 126.295469 21.980358 L 126.295469 5.462631 M 129.262456 21.980358 L 129.262456 5.462631 M 132.269003 21.980358 L 132.269003 5.462631 M 135.262364 21.980358 L 135.262364 5.462631 M 138.268911 21.980358 L 138.268911 5.462631 M 141.235898 21.980358 L 141.235898 5.462631 " transform="matrix(0.296229,0,0,-0.299867,-10.248258,41.583377)"/></g></g><g clip-rule="nonzero" clip-path="url(#94e2ce4458)"><g clip-rule="nonzero" clip-path="url(#a3180779a7)"><path style=" stroke:none;fill-rule:nonzero;fill:#00acd3;fill-opacity:1;" d="M 33.214844 34.496094 L 39.085938 34.496094 L 39.085938 40.4375 L 33.214844 40.4375 Z M 33.214844 34.496094 "/></g></g><g clip-rule="nonzero" clip-path="url(#7339b4da54)"><g clip-rule="nonzero" clip-path="url(#18e3b86e5f)"><path style=" stroke:none;fill-rule:nonzero;fill:#20c2ef;fill-opacity:1;" d="M 33.214844 41.355469 L 39.085938 41.355469 L 39.085938 47.296875 L 33.214844 47.296875 Z M 33.214844 41.355469 "/></g></g><g clip-rule="nonzero" clip-path="url(#8003473c3f)"><g clip-rule="nonzero" clip-path="url(#6f46d87691)"><path style=" stroke:none;fill-rule:nonzero;fill:#000000;fill-opacity:1;" d="M 33.9375 39.945312 L 33.9375 34.992188 M 34.816406 39.945312 L 34.816406 34.992188 M 35.707031 39.945312 L 35.707031 34.992188 M 36.59375 39.945312 L 36.59375 34.992188 M 37.484375 39.945312 L 37.484375 34.992188 M 38.363281 39.945312 L 38.363281 34.992188 "/></g></g><g clip-rule="nonzero" clip-path="url(#25a41a7356)"><g clip-rule="nonzero" clip-path="url(#300b5a8cd0)"><path style="fill:none;stroke-width:1.56;stroke-linecap:butt;stroke-linejoin:miter;stroke:#394d54;stroke-opacity:1;stroke-miterlimit:4;" d="M 126.295047 21.976074 L 126.295047 5.458348 M 129.262034 21.976074 L 129.262034 5.458348 M 132.268581 21.976074 L 132.268581 5.458348 M 135.261942 21.976074 L 135.261942 5.458348 M 138.268489 21.976074 L 138.268489 5.458348 M 141.235476 21.976074 L 141.235476 5.458348 " transform="matrix(0.296229,0,0,0.299867,-3.474696,33.355408)"/></g></g><g clip-rule="nonzero" clip-path="url(#b5acf9c9e0)"><g clip-rule="nonzero" clip-path="url(#e073ecd24d)"><path style=" stroke:none;fill-rule:nonzero;fill:#000000;fill-opacity:1;" d="M 33.9375 46.800781 L 33.9375 41.847656 M 34.816406 46.800781 L 34.816406 41.847656 M 35.707031 46.800781 L 35.707031 41.847656 M 36.59375 46.800781 L 36.59375 41.847656 M 37.484375 46.800781 L 37.484375 41.847656 M 38.363281 46.800781 L 38.363281 41.847656 "/></g></g><g clip-rule="nonzero" clip-path="url(#c3a810e664)"><g clip-rule="nonzero" clip-path="url(#951c49ccd5)"><path style="fill:none;stroke-width:1.56;stroke-linecap:butt;stroke-linejoin:miter;stroke:#394d54;stroke-opacity:1;stroke-miterlimit:4;" d="M 126.295047 21.971752 L 126.295047 5.454026 M 129.262034 21.971752 L 129.262034 5.454026 M 132.268581 21.971752 L 132.268581 5.454026 M 135.261942 21.971752 L 135.261942 5.454026 M 138.268489 21.971752 L 138.268489 5.454026 M 141.235476 21.971752 L 141.235476 5.454026 " transform="matrix(0.296229,0,0,0.299867,-3.474696,40.212173)"/></g></g><g clip-rule="nonzero" clip-path="url(#58bc648ee9)"><g clip-rule="nonzero" clip-path="url(#47b8da7550)"><path style=" stroke:none;fill-rule:nonzero;fill:#00acd3;fill-opacity:1;" d="M 39.988281 47.300781 L 45.859375 47.300781 L 45.859375 41.359375 L 39.988281 41.359375 Z M 39.988281 47.300781 "/></g></g><g clip-rule="nonzero" clip-path="url(#cd4d9fab22)"><g clip-rule="nonzero" clip-path="url(#789f187691)"><path style=" stroke:none;fill-rule:nonzero;fill:#20c2ef;fill-opacity:1;" d="M 39.988281 40.441406 L 45.859375 40.441406 L 45.859375 34.5 L 39.988281 34.5 Z M 39.988281 40.441406 "/></g></g><g clip-rule="nonzero" clip-path="url(#80b803b6a3)"><g clip-rule="nonzero" clip-path="url(#30502f610b)"><path style=" stroke:none;fill-rule:nonzero;fill:#000000;fill-opacity:1;" d="M 40.710938 41.851562 L 40.710938 46.804688 M 41.589844 41.851562 L 41.589844 46.804688 M 42.480469 41.851562 L 42.480469 46.804688 M 43.367188 41.851562 L 43.367188 46.804688 M 44.257812 41.851562 L 44.257812 46.804688 M 45.136719 41.851562 L 45.136719 46.804688 "/></g></g><g clip-rule="nonzero" clip-path="url(#5c142c8d0c)"><g clip-rule="nonzero" clip-path="url(#e14435163b)"><path style="fill:none;stroke-width:1.56;stroke-linecap:butt;stroke-linejoin:miter;stroke:#394d54;stroke-opacity:1;stroke-miterlimit:4;" d="M 126.29463 21.97165 L 126.29463 5.453923 M 129.261617 21.97165 L 129.261617 5.453923 M 132.268164 21.97165 L 132.268164 5.453923 M 135.261524 21.97165 L 135.261524 5.453923 M 138.268071 21.97165 L 138.268071 5.453923 M 141.235058 21.97165 L 141.235058 5.453923 " transform="matrix(0.296229,0,0,-0.299867,3.298866,48.44014)"/></g></g><g clip-rule="nonzero" clip-path="url(#13a8e76352)"><g clip-rule="nonzero" clip-path="url(#3c3d724284)"><path style=" stroke:none;fill-rule:nonzero;fill:#000000;fill-opacity:1;" d="M 40.710938 34.992188 L 40.710938 39.945312 M 41.589844 34.992188 L 41.589844 39.945312 M 42.480469 34.992188 L 42.480469 39.945312 M 43.367188 34.992188 L 43.367188 39.945312 M 44.257812 34.992188 L 44.257812 39.945312 M 45.136719 34.992188 L 45.136719 39.945312 "/></g></g><g clip-rule="nonzero" clip-path="url(#e2f8d9dc7b)"><g clip-rule="nonzero" clip-path="url(#d666de415e)"><path style="fill:none;stroke-width:1.56;stroke-linecap:butt;stroke-linejoin:miter;stroke:#394d54;stroke-opacity:1;stroke-miterlimit:4;" d="M 126.29463 21.980358 L 126.29463 5.462631 M 129.261617 21.980358 L 129.261617 5.462631 M 132.268164 21.980358 L 132.268164 5.462631 M 135.261524 21.980358 L 135.261524 5.462631 M 138.268071 21.980358 L 138.268071 5.462631 M 141.235058 21.980358 L 141.235058 5.462631 " transform="matrix(0.296229,0,0,-0.299867,3.298866,41.583377)"/></g></g><g clip-rule="nonzero" clip-path="url(#ab84d57337)"><g clip-rule="nonzero" clip-path="url(#424bbd2543)"><path style=" stroke:none;fill-rule:nonzero;fill:#00acd3;fill-opacity:1;" d="M 46.761719 34.496094 L 52.632812 34.496094 L 52.632812 40.4375 L 46.761719 40.4375 Z M 46.761719 34.496094 "/></g></g><g clip-rule="nonzero" clip-path="url(#b07fe03098)"><g clip-rule="nonzero" clip-path="url(#5736742610)"><path style=" stroke:none;fill-rule:nonzero;fill:#20c2ef;fill-opacity:1;" d="M 46.761719 41.355469 L 52.632812 41.355469 L 52.632812 47.296875 L 46.761719 47.296875 Z M 46.761719 41.355469 "/></g></g><g clip-rule="nonzero" clip-path="url(#04ce72c63c)"><g clip-rule="nonzero" clip-path="url(#2fc9aa0410)"><path style=" stroke:none;fill-rule:nonzero;fill:#000000;fill-opacity:1;" d="M 47.484375 39.945312 L 47.484375 34.992188 M 48.363281 39.945312 L 48.363281 34.992188 M 49.253906 39.945312 L 49.253906 34.992188 M 50.140625 39.945312 L 50.140625 34.992188 M 51.03125 39.945312 L 51.03125 34.992188 M 51.910156 39.945312 L 51.910156 34.992188 "/></g></g><g clip-rule="nonzero" clip-path="url(#29039d969e)"><g clip-rule="nonzero" clip-path="url(#f0e40d0e35)"><path style="fill:none;stroke-width:1.56;stroke-linecap:butt;stroke-linejoin:miter;stroke:#394d54;stroke-opacity:1;stroke-miterlimit:4;" d="M 126.294212 21.976074 L 126.294212 5.458348 M 129.261199 21.976074 L 129.261199 5.458348 M 132.267746 21.976074 L 132.267746 5.458348 M 135.261106 21.976074 L 135.261106 5.458348 M 138.267654 21.976074 L 138.267654 5.458348 M 141.234641 21.976074 L 141.234641 5.458348 " transform="matrix(0.296229,0,0,0.299867,10.072427,33.355408)"/></g></g><g clip-rule="nonzero" clip-path="url(#67317ec865)"><g clip-rule="nonzero" clip-path="url(#0ecc257b41)"><path style=" stroke:none;fill-rule:nonzero;fill:#000000;fill-opacity:1;" d="M 47.484375 46.800781 L 47.484375 41.847656 M 48.363281 46.800781 L 48.363281 41.847656 M 49.253906 46.800781 L 49.253906 41.847656 M 50.140625 46.800781 L 50.140625 41.847656 M 51.03125 46.800781 L 51.03125 41.847656 M 51.910156 46.800781 L 51.910156 41.847656 "/></g></g><g clip-rule="nonzero" clip-path="url(#c79c766da9)"><g clip-rule="nonzero" clip-path="url(#ebb7542966)"><path style="fill:none;stroke-width:1.56;stroke-linecap:butt;stroke-linejoin:miter;stroke:#394d54;stroke-opacity:1;stroke-miterlimit:4;" d="M 126.294212 21.971752 L 126.294212 5.454026 M 129.261199 21.971752 L 129.261199 5.454026 M 132.267746 21.971752 L 132.267746 5.454026 M 135.261106 21.971752 L 135.261106 5.454026 M 138.267654 21.971752 L 138.267654 5.454026 M 141.234641 21.971752 L 141.234641 5.454026 " transform="matrix(0.296229,0,0,0.299867,10.072427,40.212173)"/></g></g><g clip-rule="nonzero" clip-path="url(#cc7706cc56)"><g clip-rule="nonzero" clip-path="url(#9c9fef3e74)"><path style=" stroke:none;fill-rule:nonzero;fill:#00acd3;fill-opacity:1;" d="M 53.535156 47.300781 L 59.40625 47.300781 L 59.40625 41.359375 L 53.535156 41.359375 Z M 53.535156 47.300781 "/></g></g><g clip-rule="nonzero" clip-path="url(#dc6f943ebc)"><g clip-rule="nonzero" clip-path="url(#3b40d3301d)"><path style=" stroke:none;fill-rule:nonzero;fill:#20c2ef;fill-opacity:1;" d="M 53.535156 40.441406 L 59.40625 40.441406 L 59.40625 34.5 L 53.535156 34.5 Z M 53.535156 40.441406 "/></g></g><g clip-rule="nonzero" clip-path="url(#fc300809bc)"><g clip-rule="nonzero" clip-path="url(#b31847beae)"><path style=" stroke:none;fill-rule:nonzero;fill:#000000;fill-opacity:1;" d="M 54.257812 41.851562 L 54.257812 46.804688 M 55.136719 41.851562 L 55.136719 46.804688 M 56.027344 41.851562 L 56.027344 46.804688 M 56.914062 41.851562 L 56.914062 46.804688 M 57.804688 41.851562 L 57.804688 46.804688 M 58.683594 41.851562 L 58.683594 46.804688 "/></g></g><g clip-rule="nonzero" clip-path="url(#106f14c773)"><g clip-rule="nonzero" clip-path="url(#7a86a2fc79)"><path style="fill:none;stroke-width:1.56;stroke-linecap:butt;stroke-linejoin:miter;stroke:#394d54;stroke-opacity:1;stroke-miterlimit:4;" d="M 126.293793 21.97165 L 126.293793 5.453923 M 129.26078 21.97165 L 129.26078 5.453923 M 132.267327 21.97165 L 132.267327 5.453923 M 135.260687 21.97165 L 135.260687 5.453923 M 138.267234 21.97165 L 138.267234 5.453923 M 141.234222 21.97165 L 141.234222 5.453923 " transform="matrix(0.296229,0,0,-0.299867,16.845988,48.44014)"/></g></g><g clip-rule="nonzero" clip-path="url(#893fb4c406)"><g clip-rule="nonzero" clip-path="url(#f2233a2ed0)"><path style=" stroke:none;fill-rule:nonzero;fill:#000000;fill-opacity:1;" d="M 54.257812 34.992188 L 54.257812 39.945312 M 55.136719 34.992188 L 55.136719 39.945312 M 56.027344 34.992188 L 56.027344 39.945312 M 56.914062 34.992188 L 56.914062 39.945312 M 57.804688 34.992188 L 57.804688 39.945312 M 58.683594 34.992188 L 58.683594 39.945312 "/></g></g><g clip-rule="nonzero" clip-path="url(#29c40346bf)"><g clip-rule="nonzero" clip-path="url(#be1ac98fb7)"><path style="fill:none;stroke-width:1.56;stroke-linecap:butt;stroke-linejoin:miter;stroke:#394d54;stroke-opacity:1;stroke-miterlimit:4;" d="M 126.293793 21.980358 L 126.293793 5.462631 M 129.26078 21.980358 L 129.26078 5.462631 M 132.267327 21.980358 L 132.267327 5.462631 M 135.260687 21.980358 L 135.260687 5.462631 M 138.267234 21.980358 L 138.267234 5.462631 M 141.234222 21.980358 L 141.234222 5.462631 " transform="matrix(0.296229,0,0,-0.299867,16.845988,41.583377)"/></g></g><g clip-rule="nonzero" clip-path="url(#10b3fdc377)"><g clip-rule="nonzero" clip-path="url(#c506b3d4ae)"><path style=" stroke:none;fill-rule:nonzero;fill:#17b5eb;fill-opacity:1;" d="M 75.707031 42.804688 C 76.160156 39.234375 73.519531 36.425781 71.882812 35.09375 C 69.996094 37.304688 69.699219 43.09375 72.664062 45.53125 C 71.011719 47.015625 67.527344 48.363281 63.960938 48.363281 L 20.144531 48.363281 C 19.796875 52.132812 20.144531 70.277344 20.144531 70.277344 L 84.425781 70.277344 L 84.132812 42.863281 C 81.347656 41.238281 77.769531 41.757812 75.707031 42.804688 "/></g></g><g clip-rule="nonzero" clip-path="url(#a8c5cf3be1)"><g clip-rule="nonzero" clip-path="url(#d9ec352e4f)"><path style=" stroke:none;fill-rule:nonzero;fill:#000000;fill-opacity:0.17;" d="M 20.144531 53.1875 L 20.144531 70.277344 L 84.425781 70.277344 L 84.425781 53.1875 "/></g></g><g clip-rule="nonzero" clip-path="url(#49a3d2a67f)"><g clip-rule="nonzero" clip-path="url(#a3a5b05577)"><path style=" stroke:none;fill-rule:nonzero;fill:#d4edf1;fill-opacity:1;" d="M 43.023438 68.75 C 39.015625 66.824219 36.8125 64.203125 35.585938 61.34375 L 23.402344 61.882812 L 29.625 70.277344 L 43.023438 68.75 "/></g></g><g clip-rule="nonzero" clip-path="url(#97243d1f59)"><g clip-rule="nonzero" clip-path="url(#54432744d5)"><path style=" stroke:none;fill-rule:nonzero;fill:#000000;fill-opacity:0.085;" d="M 75.984375 42.671875 L 75.984375 42.683594 C 69.804688 50.75 60.941406 57.789062 51.425781 61.488281 C 42.9375 64.789062 35.535156 64.804688 30.429688 62.15625 C 29.878906 61.839844 29.339844 61.492188 28.800781 61.160156 C 25.054688 58.515625 22.949219 54.132812 23.125 48.363281 L 20.144531 48.363281 L 20.144531 70.277344 L 84.425781 70.277344 L 84.425781 41.492188 L 77.019531 41.492188 Z M 75.984375 42.671875 "/></g></g><path style="fill:none;stroke-width:0.628;stroke-linecap:round;stroke-linejoin:miter;stroke:#394d54;stroke-opacity:1;stroke-miterlimit:4;" d="M 11.496854 9.61377 C 14.112086 9.755694 16.902642 9.782154 19.337681 9.019614 " transform="matrix(1.604183,0,0,1.623888,5.146782,45.98206)"/><path style=" stroke:none;fill-rule:nonzero;fill:#d4edf1;fill-opacity:1;" d="M 40.335938 58.570312 C 40.335938 58.789062 40.296875 59 40.214844 59.199219 C 40.132812 59.398438 40.015625 59.578125 39.863281 59.730469 C 39.710938 59.882812 39.535156 60.003906 39.339844 60.085938 C 39.140625 60.167969 38.933594 60.210938 38.71875 60.210938 C 38.503906 60.210938 38.296875 60.167969 38.097656 60.085938 C 37.902344 60.003906 37.726562 59.882812 37.574219 59.730469 C 37.421875 59.578125 37.304688 59.398438 37.222656 59.199219 C 37.140625 59 37.097656 58.789062 37.097656 58.570312 C 37.097656 58.355469 37.140625 58.144531 37.222656 57.945312 C 37.304688 57.742188 37.421875 57.566406 37.574219 57.414062 C 37.726562 57.257812 37.902344 57.140625 38.097656 57.058594 C 38.296875 56.972656 38.503906 56.933594 38.71875 56.933594 C 38.933594 56.933594 39.140625 56.972656 39.339844 57.058594 C 39.535156 57.140625 39.710938 57.257812 39.863281 57.414062 C 40.015625 57.566406 40.132812 57.742188 40.214844 57.945312 C 40.296875 58.144531 40.335938 58.355469 40.335938 58.570312 Z M 40.335938 58.570312 "/><path style=" stroke:none;fill-rule:nonzero;fill:#394d54;fill-opacity:1;" d="M 39.15625 57.480469 C 39.015625 57.558594 38.917969 57.714844 38.917969 57.894531 C 38.917969 58.160156 39.128906 58.375 39.390625 58.375 C 39.570312 58.375 39.710938 58.273438 39.808594 58.125 C 39.867188 58.269531 39.894531 58.417969 39.898438 58.574219 C 39.898438 59.222656 39.375 59.746094 38.738281 59.746094 C 38.097656 59.746094 37.578125 59.222656 37.578125 58.574219 C 37.578125 57.925781 38.097656 57.398438 38.738281 57.398438 C 38.882812 57.398438 39.023438 57.425781 39.15625 57.480469 Z M 10.070312 53.53125 L 85.410156 53.53125 C 83.769531 53.109375 80.222656 52.558594 80.804688 50.367188 C 77.824219 53.859375 70.628906 52.800781 68.816406 51.09375 C 66.792969 54.0625 55.023438 52.933594 54.203125 50.605469 C 51.667969 53.617188 43.816406 53.617188 41.28125 50.605469 C 40.460938 52.917969 28.691406 54.050781 26.683594 51.09375 C 24.851562 52.800781 17.660156 53.863281 14.675781 50.367188 C 15.261719 52.542969 11.710938 53.128906 10.070312 53.53125 "/></g></svg>