<svg xmlns="http://www.w3.org/2000/svg" xmlns:xlink="http://www.w3.org/1999/xlink" width="128" zoomAndPan="magnify" viewBox="0 0 96 95.999999" height="128" preserveAspectRatio="xMidYMid meet" version="1.2"><defs><clipPath id="34e2330832"><path d="M 9.601562 25 L 57 25 L 57 81.5625 L 9.601562 81.5625 Z M 9.601562 25 "/></clipPath></defs><g id="7190ab6ca0"><path style=" stroke:none;fill-rule:evenodd;fill:#243942;fill-opacity:1;" d="M 40.585938 26.5625 L 52.015625 26.5625 C 52.945312 26.5625 53.832031 26.933594 54.492188 27.585938 C 55.148438 28.242188 55.515625 29.128906 55.515625 30.054688 L 55.515625 43.835938 C 48.335938 38.101562 42.828125 30.730469 40.585938 26.5625 Z M 40.585938 26.5625 "/><path style=" stroke:none;fill-rule:evenodd;fill:#3e5560;fill-opacity:1;" d="M 47.542969 28.027344 L 53.535156 28.027344 C 53.671875 28.027344 53.800781 28.082031 53.898438 28.175781 C 53.996094 28.273438 54.050781 28.40625 54.050781 28.539062 L 54.050781 35.640625 C 51.460938 33.046875 49.253906 30.382812 47.542969 28.027344 Z M 47.542969 28.027344 "/><path style=" stroke:none;fill-rule:evenodd;fill:#243942;fill-opacity:1;" d="M 70.136719 51.398438 C 70.191406 50.488281 70.59375 49.769531 71.230469 49.601562 C 71.761719 49.457031 72.347656 49.730469 72.816406 50.273438 C 71.648438 51.515625 71.832031 52.757812 73.46875 53.996094 L 73.472656 53.996094 C 73.296875 54.503906 72.96875 54.800781 72.648438 54.886719 C 72.121094 55.027344 71.550781 54.765625 71.085938 54.242188 C 70.976562 54.121094 70.875 53.984375 70.777344 53.835938 C 70.566406 53.507812 70.390625 53.117188 70.277344 52.6875 C 70.160156 52.265625 70.117188 51.847656 70.132812 51.464844 C 70.136719 51.441406 70.136719 51.421875 70.136719 51.398438 Z M 70.136719 51.398438 "/><path style=" stroke:none;fill-rule:evenodd;fill:#243942;fill-opacity:1;" d="M 72.28125 52.691406 C 72.480469 53.089844 72.828125 53.488281 73.320312 53.882812 C 73.335938 54.007812 73.347656 54.136719 73.359375 54.261719 C 73.171875 54.609375 72.90625 54.816406 72.648438 54.886719 C 72.609375 54.898438 72.574219 54.902344 72.535156 54.910156 L 71.84375 53.9375 C 71.699219 53.566406 71.636719 53.191406 71.710938 52.859375 C 71.832031 52.792969 71.964844 52.757812 72.070312 52.726562 C 72.136719 52.710938 72.207031 52.699219 72.28125 52.691406 Z M 72.28125 52.691406 "/><path style=" stroke:none;fill-rule:evenodd;fill:#243942;fill-opacity:1;" d="M 72.816406 50.273438 L 84.164062 48.332031 C 84.453125 48.28125 84.734375 48.464844 84.8125 48.75 L 84.910156 49.109375 C 84.984375 49.394531 84.832031 49.6875 84.558594 49.792969 L 73.46875 53.996094 C 71.832031 52.757812 71.648438 51.515625 72.816406 50.273438 Z M 72.816406 50.273438 "/><path style=" stroke:none;fill-rule:evenodd;fill:#3e5560;fill-opacity:1;" d="M 72.15625 52.1875 C 72.296875 52.082031 72.46875 51.988281 72.679688 51.90625 C 72.488281 51.980469 72.316406 52.074219 72.15625 52.1875 Z M 72.15625 52.1875 "/><path style=" stroke:none;fill-rule:evenodd;fill:#243942;fill-opacity:1;" d="M 55.515625 57.585938 L 55.515625 60.863281 C 55.515625 62.792969 53.949219 64.355469 52.015625 64.355469 L 36.351562 64.355469 C 34.421875 64.355469 32.855469 65.917969 32.855469 67.851562 L 32.855469 77.460938 C 32.855469 79.390625 31.289062 80.953125 29.355469 80.953125 L 13.691406 80.953125 C 12.765625 80.953125 11.875 80.585938 11.21875 79.933594 C 10.5625 79.277344 10.195312 78.390625 10.195312 77.460938 L 10.195312 30.054688 C 10.195312 29.128906 10.5625 28.242188 11.21875 27.585938 C 11.875 26.933594 12.765625 26.5625 13.691406 26.5625 L 21.125 26.5625 L 19.148438 27.703125 C 18.347656 28.164062 18.074219 29.1875 18.539062 29.988281 L 19.75 32.085938 L 19.242188 32.378906 C 18.859375 32.601562 18.578125 32.96875 18.460938 33.398438 C 18.347656 33.824219 18.40625 34.28125 18.628906 34.664062 L 19.515625 36.199219 C 19.738281 36.582031 20.105469 36.867188 20.535156 36.980469 C 20.964844 37.09375 21.421875 37.035156 21.804688 36.8125 L 22.4375 36.449219 C 27.183594 43.449219 37.75 56.679688 52.367188 57.519531 C 53.449219 57.582031 54.5 57.601562 55.515625 57.585938 Z M 55.515625 57.585938 "/><path style=" stroke:none;fill-rule:evenodd;fill:#3e5560;fill-opacity:1;" d="M 22.808594 38.488281 C 28.40625 46.230469 39.28125 58.148438 53.714844 58.976562 C 53.828125 58.980469 53.9375 58.988281 54.050781 58.992188 L 54.050781 59.347656 C 54.050781 59.632812 53.820312 59.863281 53.535156 59.863281 L 37.871094 59.863281 C 34.292969 59.863281 31.390625 62.757812 31.390625 66.332031 L 31.390625 75.945312 C 31.390625 76.230469 31.160156 76.460938 30.875 76.460938 L 15.210938 76.460938 C 15.074219 76.460938 14.941406 76.40625 14.847656 76.308594 C 14.75 76.214844 14.695312 76.082031 14.695312 75.945312 L 14.695312 28.539062 C 14.695312 28.40625 14.75 28.273438 14.847656 28.175781 C 14.941406 28.082031 15.074219 28.027344 15.210938 28.027344 L 16.863281 28.027344 C 16.917969 28.6875 17.117188 29.347656 17.472656 29.960938 L 17.527344 30.054688 C 17.34375 30.382812 17.199219 30.738281 17.097656 31.109375 C 16.777344 32.300781 16.945312 33.570312 17.566406 34.640625 L 18.449219 36.171875 C 19.070312 37.242188 20.085938 38.019531 21.28125 38.339844 C 21.78125 38.476562 22.296875 38.523438 22.808594 38.488281 Z M 22.808594 38.488281 "/><path style=" stroke:none;fill-rule:evenodd;fill:#004787;fill-opacity:1;" d="M 37.183594 27.257812 C 37.46875 27.09375 37.832031 27.191406 37.996094 27.476562 C 38.164062 27.761719 38.0625 28.125 37.777344 28.292969 L 22.105469 37.324219 C 21.585938 37.625 20.960938 37.707031 20.382812 37.554688 C 19.796875 37.398438 19.304688 37.015625 19 36.496094 L 18.117188 34.960938 C 17.8125 34.441406 17.730469 33.820312 17.886719 33.238281 C 18.042969 32.660156 18.425781 32.164062 18.945312 31.863281 L 19.453125 31.570312 C 19.738281 31.402344 20.105469 31.503906 20.269531 31.789062 C 20.433594 32.074219 20.335938 32.4375 20.050781 32.601562 L 19.542969 32.894531 C 19.292969 33.035156 19.113281 33.273438 19.039062 33.546875 C 18.964844 33.824219 19.003906 34.117188 19.148438 34.367188 L 20.035156 35.898438 C 20.179688 36.144531 20.414062 36.328125 20.691406 36.402344 C 20.964844 36.476562 21.261719 36.4375 21.507812 36.292969 Z M 26.480469 28.894531 C 26.195312 29.058594 25.832031 28.960938 25.667969 28.675781 C 25.503906 28.390625 25.601562 28.027344 25.886719 27.863281 L 39.75 19.871094 C 40.269531 19.570312 40.890625 19.488281 41.472656 19.644531 C 42.058594 19.796875 42.550781 20.179688 42.855469 20.703125 L 43.738281 22.234375 C 44.042969 22.757812 44.125 23.375 43.96875 23.957031 C 43.8125 24.535156 43.429688 25.03125 42.910156 25.332031 L 40.652344 26.632812 C 40.367188 26.796875 40.003906 26.699219 39.835938 26.414062 C 39.671875 26.132812 39.773438 25.765625 40.058594 25.601562 L 42.3125 24.300781 C 42.558594 24.160156 42.742188 23.921875 42.816406 23.648438 C 42.890625 23.371094 42.851562 23.078125 42.707031 22.828125 L 41.820312 21.296875 C 41.675781 21.050781 41.441406 20.867188 41.164062 20.792969 C 40.890625 20.71875 40.59375 20.757812 40.347656 20.902344 Z M 26.480469 28.894531 "/><path style=" stroke:none;fill-rule:evenodd;fill:#004787;fill-opacity:1;" d="M 20.265625 31.789062 C 20.433594 32.074219 20.332031 32.4375 20.046875 32.601562 C 19.765625 32.765625 19.398438 32.667969 19.234375 32.382812 L 18.019531 30.285156 C 17.390625 29.199219 17.765625 27.8125 18.851562 27.183594 L 29.75 20.902344 C 30.035156 20.738281 30.402344 20.835938 30.566406 21.121094 C 30.730469 21.40625 30.632812 21.769531 30.347656 21.933594 L 19.449219 28.214844 C 18.933594 28.515625 18.753906 29.171875 19.050781 29.6875 Z M 33.601562 20.058594 C 33.316406 20.222656 32.953125 20.125 32.785156 19.839844 C 32.621094 19.554688 32.722656 19.191406 33.003906 19.027344 L 35.734375 17.453125 C 36.824219 16.824219 38.210938 17.195312 38.839844 18.28125 L 40.054688 20.382812 C 40.21875 20.667969 40.121094 21.03125 39.835938 21.195312 C 39.550781 21.359375 39.183594 21.261719 39.019531 20.976562 L 37.804688 18.875 C 37.507812 18.359375 36.847656 18.1875 36.332031 18.484375 Z M 33.601562 20.058594 "/><path style=" stroke:none;fill-rule:evenodd;fill:#004787;fill-opacity:1;" d="M 22.398438 25.832031 C 22.5625 26.117188 22.464844 26.480469 22.179688 26.644531 C 21.894531 26.808594 21.53125 26.710938 21.363281 26.425781 L 20.390625 24.742188 C 19.761719 23.65625 20.132812 22.265625 21.222656 21.640625 L 25.433594 19.210938 C 25.71875 19.046875 26.085938 19.144531 26.25 19.429688 C 26.414062 19.714844 26.316406 20.078125 26.03125 20.242188 L 21.816406 22.671875 C 21.300781 22.96875 21.125 23.628906 21.421875 24.144531 Z M 28.308594 18.929688 C 28.023438 19.09375 27.660156 18.996094 27.496094 18.710938 C 27.332031 18.425781 27.429688 18.0625 27.714844 17.898438 L 29.742188 16.726562 C 30.828125 16.101562 32.21875 16.472656 32.847656 17.558594 L 33.824219 19.246094 C 33.988281 19.53125 33.890625 19.894531 33.605469 20.058594 C 33.320312 20.222656 32.953125 20.125 32.789062 19.839844 L 31.816406 18.15625 C 31.515625 17.640625 30.855469 17.460938 30.339844 17.757812 Z M 28.308594 18.929688 "/><path style=" stroke:none;fill-rule:evenodd;fill:#004787;fill-opacity:1;" d="M 23.902344 20.503906 C 24.167969 20.699219 24.222656 21.070312 24.027344 21.335938 C 23.832031 21.601562 23.460938 21.65625 23.195312 21.460938 C 22.828125 21.195312 22.511719 20.847656 22.269531 20.429688 C 21.328125 18.800781 21.886719 16.71875 23.515625 15.78125 C 25.144531 14.84375 27.230469 15.398438 28.171875 17.027344 C 28.414062 17.445312 28.554688 17.890625 28.605469 18.34375 C 28.640625 18.671875 28.40625 18.964844 28.078125 19.003906 C 27.75 19.039062 27.457031 18.804688 27.417969 18.476562 C 27.386719 18.183594 27.292969 17.890625 27.136719 17.621094 C 26.527344 16.566406 25.171875 16.203125 24.113281 16.8125 C 23.054688 17.421875 22.691406 18.773438 23.300781 19.832031 C 23.460938 20.101562 23.667969 20.328125 23.902344 20.503906 Z M 23.902344 20.503906 "/><path style=" stroke:none;fill-rule:evenodd;fill:#004787;fill-opacity:1;" d="M 39.820312 26.390625 C 39.671875 26.09375 39.789062 25.738281 40.082031 25.589844 C 40.375 25.4375 40.734375 25.554688 40.886719 25.847656 C 44.140625 32.222656 56.25 47.65625 70.269531 50.816406 C 70.589844 50.890625 70.792969 51.207031 70.71875 51.527344 C 70.648438 51.847656 70.328125 52.050781 70.007812 51.980469 C 55.617188 48.734375 43.160156 32.933594 39.820312 26.390625 Z M 55.503906 56.988281 C 55.835938 56.984375 56.109375 57.246094 56.113281 57.574219 C 56.117188 57.90625 55.855469 58.175781 55.523438 58.179688 C 54.496094 58.195312 53.429688 58.171875 52.332031 58.109375 C 37.503906 57.261719 26.757812 43.882812 21.945312 36.777344 C 21.761719 36.507812 21.832031 36.136719 22.105469 35.953125 C 22.378906 35.769531 22.746094 35.839844 22.933594 36.109375 C 27.609375 43.015625 37.992188 56.09375 52.402344 56.921875 C 53.46875 56.980469 54.503906 57.003906 55.503906 56.988281 Z M 55.503906 56.988281 "/><path style=" stroke:none;fill-rule:evenodd;fill:#004787;fill-opacity:1;" d="M 72.914062 53.796875 C 73.019531 53.488281 73.363281 53.324219 73.671875 53.429688 C 73.984375 53.539062 74.148438 53.878906 74.039062 54.191406 C 73.777344 54.929688 73.269531 55.335938 72.804688 55.460938 C 72.085938 55.652344 71.28125 55.355469 70.640625 54.636719 C 70.234375 54.183594 69.894531 53.5625 69.703125 52.84375 C 69.570312 52.355469 69.523438 51.878906 69.539062 51.4375 C 69.59375 50.191406 70.214844 49.253906 71.078125 49.023438 C 71.804688 48.828125 72.628906 49.140625 73.269531 49.882812 C 73.488281 50.128906 73.460938 50.503906 73.210938 50.722656 C 72.960938 50.9375 72.585938 50.910156 72.371094 50.664062 C 72.070312 50.316406 71.726562 50.082031 71.386719 50.175781 C 71.207031 50.222656 71.074219 50.363281 70.972656 50.539062 C 70.828125 50.792969 70.746094 51.121094 70.734375 51.484375 C 70.71875 51.816406 70.757812 52.171875 70.855469 52.535156 C 70.996094 53.058594 71.238281 53.511719 71.53125 53.84375 C 71.828125 54.175781 72.164062 54.398438 72.496094 54.308594 C 72.667969 54.261719 72.816406 54.074219 72.914062 53.796875 Z M 72.914062 53.796875 "/><g clip-rule="nonzero" clip-path="url(#34e2330832)"><path style=" stroke:none;fill-rule:evenodd;fill:#004787;fill-opacity:1;" d="M 40.585938 27.160156 C 40.257812 27.160156 39.988281 26.894531 39.988281 26.5625 C 39.988281 26.234375 40.257812 25.96875 40.585938 25.96875 L 52.015625 25.96875 C 53.101562 25.96875 54.144531 26.398438 54.910156 27.164062 C 55.679688 27.933594 56.113281 28.972656 56.113281 30.058594 L 56.113281 43.835938 C 56.113281 44.167969 55.84375 44.433594 55.515625 44.433594 C 55.1875 44.433594 54.917969 44.167969 54.917969 43.835938 L 54.917969 30.058594 C 54.917969 29.289062 54.613281 28.550781 54.070312 28.007812 C 53.523438 27.464844 52.785156 27.160156 52.015625 27.160156 Z M 54.917969 57.585938 C 54.917969 57.257812 55.1875 56.988281 55.515625 56.988281 C 55.84375 56.988281 56.113281 57.257812 56.113281 57.585938 L 56.113281 60.863281 C 56.113281 63.121094 54.277344 64.953125 52.015625 64.953125 L 36.351562 64.953125 C 34.75 64.953125 33.453125 66.25 33.453125 67.847656 L 33.453125 77.460938 C 33.453125 79.722656 31.617188 81.550781 29.355469 81.550781 L 13.695312 81.550781 C 12.609375 81.550781 11.566406 81.121094 10.796875 80.351562 C 10.03125 79.585938 9.597656 78.546875 9.597656 77.460938 L 9.597656 30.058594 C 9.597656 28.972656 10.03125 27.933594 10.796875 27.164062 C 11.566406 26.398438 12.609375 25.96875 13.695312 25.96875 L 21.125 25.96875 C 21.453125 25.96875 21.722656 26.234375 21.722656 26.5625 C 21.722656 26.894531 21.453125 27.160156 21.125 27.160156 L 13.695312 27.160156 C 12.921875 27.160156 12.1875 27.464844 11.640625 28.007812 C 11.097656 28.550781 10.789062 29.289062 10.789062 30.058594 L 10.789062 77.460938 C 10.789062 78.230469 11.097656 78.96875 11.640625 79.511719 C 12.1875 80.054688 12.921875 80.359375 13.695312 80.359375 L 29.355469 80.359375 C 30.960938 80.359375 32.257812 79.0625 32.257812 77.460938 L 32.257812 67.847656 C 32.257812 65.589844 34.09375 63.757812 36.351562 63.757812 L 52.015625 63.757812 C 53.621094 63.757812 54.917969 62.464844 54.917969 60.863281 Z M 54.917969 57.585938 "/></g><path style=" stroke:none;fill-rule:evenodd;fill:#004787;fill-opacity:1;" d="M 84.058594 47.746094 C 84.65625 47.644531 85.230469 48.011719 85.386719 48.59375 L 85.484375 48.957031 C 85.640625 49.535156 85.332031 50.136719 84.769531 50.351562 L 73.675781 54.554688 C 73.484375 54.628906 73.269531 54.597656 73.105469 54.472656 C 72.132812 53.734375 71.625 52.972656 71.5 52.234375 C 71.367188 51.449219 71.640625 50.648438 72.382812 49.867188 C 72.472656 49.773438 72.589844 49.707031 72.71875 49.6875 Z M 84.324219 49.246094 L 84.238281 48.925781 C 83.699219 49.015625 73.125 50.828125 73.121094 50.828125 C 72.777344 51.230469 72.609375 51.628906 72.675781 52.039062 C 72.75 52.472656 73.0625 52.890625 73.574219 53.320312 Z M 84.324219 49.246094 "/><path style=" stroke:none;fill-rule:evenodd;fill:#004787;fill-opacity:1;" d="M 70.5 53.308594 C 70.789062 53.15625 71.152344 53.269531 71.304688 53.558594 C 71.460938 53.851562 71.347656 54.210938 71.054688 54.363281 C 71.054688 54.363281 67.847656 56.042969 66.121094 56.375 C 65.796875 56.4375 65.484375 56.226562 65.421875 55.902344 C 65.359375 55.578125 65.570312 55.265625 65.894531 55.203125 C 67.507812 54.894531 70.5 53.308594 70.5 53.308594 Z M 70.5 53.308594 "/></g></svg>