<svg xmlns="http://www.w3.org/2000/svg" xmlns:xlink="http://www.w3.org/1999/xlink" width="128" zoomAndPan="magnify" viewBox="0 0 96 95.999999" height="128" preserveAspectRatio="xMidYMid meet" version="1.2"><g id="18b055d58b"><path style=" stroke:none;fill-rule:nonzero;fill:#2fc363;fill-opacity:1;" d="M 48.015625 12.601562 C 43.964844 12.601562 19.085938 26.753906 17.078125 30.226562 C 15.0625 33.695312 15.054688 62.007812 17.078125 65.472656 C 19.101562 68.941406 43.96875 83.097656 48.015625 83.097656 C 52.058594 83.097656 76.933594 68.929688 78.957031 65.472656 C 80.980469 62.019531 80.980469 33.664062 78.957031 30.226562 C 76.933594 26.789062 52.066406 12.601562 48.015625 12.601562 Z M 48.015625 12.601562 "/><path style=" stroke:none;fill-rule:nonzero;fill:#000000;fill-opacity:1;" d="M 48.015625 85.449219 C 43.105469 85.449219 17.664062 70.867188 15.21875 66.648438 C 12.785156 62.449219 12.78125 33.285156 15.214844 29.058594 C 17.648438 24.839844 43.089844 10.25 48.015625 10.25 C 52.902344 10.25 78.339844 24.828125 80.808594 29.042969 C 83.269531 33.25 83.273438 62.425781 80.808594 66.652344 C 78.355469 70.871094 52.914062 85.449219 48.015625 85.449219 Z M 48.015625 14.949219 C 44.3125 15.238281 21.308594 28.425781 19.296875 31.414062 C 17.722656 34.613281 17.722656 61.089844 19.320312 64.316406 C 21.3125 67.269531 44.414062 80.507812 48.039062 80.746094 C 51.609375 80.507812 74.714844 67.265625 76.742188 64.269531 C 78.3125 61.082031 78.316406 34.613281 76.714844 31.382812 C 74.707031 28.441406 51.695312 15.242188 48.015625 14.949219 Z M 48.015625 14.949219 "/><path style=" stroke:none;fill-rule:nonzero;fill:#000000;fill-opacity:1;" d="M 55.910156 50.199219 L 40.121094 50.199219 C 39.484375 50.199219 38.875 49.941406 38.433594 49.492188 C 37.988281 49.039062 37.746094 48.429688 37.761719 47.792969 C 37.789062 46.585938 37.796875 44.855469 37.800781 42.941406 C 37.8125 38.679688 37.828125 33.851562 38.078125 31.179688 C 38.203125 29.886719 39.367188 28.921875 40.648438 29.058594 C 41.949219 29.183594 42.902344 30.328125 42.78125 31.621094 C 42.546875 34.078125 42.53125 39 42.523438 42.953125 C 42.519531 43.851562 42.515625 44.714844 42.511719 45.496094 L 53.554688 45.496094 C 53.546875 41.867188 53.488281 38.210938 53.367188 34.605469 C 53.328125 33.3125 54.347656 32.226562 55.648438 32.183594 C 56.96875 32.101562 58.046875 33.160156 58.085938 34.457031 C 58.226562 38.785156 58.289062 43.183594 58.269531 47.527344 L 58.269531 47.851562 C 58.269531 49.148438 57.210938 50.199219 55.910156 50.199219 Z M 55.910156 50.199219 "/><path style=" stroke:none;fill-rule:nonzero;fill:#000000;fill-opacity:1;" d="M 55.867188 66.648438 C 54.5625 66.648438 53.507812 65.597656 53.507812 64.300781 C 53.507812 60.429688 53.59375 55.027344 53.648438 52.410156 C 53.625 52.128906 53.582031 51.609375 53.5625 50.199219 L 42.480469 50.265625 C 42.46875 53.847656 42.464844 56.675781 42.683594 61.046875 C 42.75 62.34375 41.746094 63.445312 40.445312 63.511719 C 39.125 63.566406 38.03125 62.578125 37.96875 61.285156 C 37.742188 56.785156 37.75 53.757812 37.761719 50.253906 L 37.761719 47.851562 C 37.761719 46.554688 38.820312 45.5 40.121094 45.5 L 55.910156 45.5 C 57.210938 45.5 58.269531 46.554688 58.269531 47.851562 C 58.269531 50.871094 58.328125 51.695312 58.351562 52.042969 C 58.355469 52.113281 58.371094 52.433594 58.371094 52.507812 C 58.316406 55.101562 58.226562 60.460938 58.226562 64.300781 C 58.226562 65.597656 57.171875 66.648438 55.867188 66.648438 Z M 55.867188 66.648438 "/><path style=" stroke:none;fill-rule:nonzero;fill:#000000;fill-opacity:1;" d="M 55.902344 72.910156 C 53.476562 72.910156 48.519531 66.226562 48.214844 65.449219 C 47.859375 64.539062 48.09375 63.296875 48.824219 62.644531 C 49.949219 61.699219 61.890625 61.6875 62.953125 62.640625 C 63.675781 63.289062 63.914062 64.527344 63.558594 65.4375 C 63.257812 66.214844 58.339844 72.910156 55.914062 72.910156 C 55.914062 72.910156 55.910156 72.910156 55.902344 72.910156 Z M 55.097656 66.652344 C 55.378906 66.949219 55.652344 67.234375 55.90625 67.492188 C 56.15625 67.234375 56.425781 66.949219 56.703125 66.652344 C 56.175781 66.648438 55.628906 66.648438 55.097656 66.652344 Z M 50.402344 64.386719 L 50.433594 64.386719 Z M 50.402344 64.386719 "/><path style=" stroke:none;fill-rule:nonzero;fill:#000000;fill-opacity:1;" d="M 40.082031 33.773438 C 36.839844 33.773438 33.613281 33.539062 33.082031 33.0625 C 32.359375 32.410156 32.121094 31.171875 32.476562 30.261719 C 32.777344 29.488281 37.695312 22.789062 40.117188 22.789062 C 40.121094 22.789062 40.128906 22.789062 40.132812 22.789062 C 42.558594 22.789062 47.515625 29.472656 47.820312 30.25 C 48.175781 31.164062 47.941406 32.402344 47.210938 33.054688 C 46.644531 33.53125 43.355469 33.773438 40.082031 33.773438 Z M 45.523438 31.328125 L 45.558594 31.328125 Z M 39.332031 29.050781 C 39.859375 29.050781 40.402344 29.050781 40.9375 29.050781 C 40.65625 28.75 40.382812 28.464844 40.128906 28.207031 C 39.878906 28.464844 39.609375 28.75 39.332031 29.050781 Z M 39.332031 29.050781 "/></g></svg>