<svg xmlns="http://www.w3.org/2000/svg" xmlns:xlink="http://www.w3.org/1999/xlink" width="128" zoomAndPan="magnify" viewBox="0 0 96 95.999999" height="128" preserveAspectRatio="xMidYMid meet" version="1.2"><defs><clipPath id="02fa3492c9"><path d="M 17 10 L 70 10 L 70 86.101562 L 17 86.101562 Z M 17 10 "/></clipPath></defs><g id="5672b6e6e6"><path style=" stroke:none;fill-rule:nonzero;fill:#b3b1b0;fill-opacity:1;" d="M 80.984375 55.609375 C 80.984375 53.265625 79.183594 51.355469 76.964844 51.355469 L 44.886719 51.355469 C 42.667969 51.355469 40.871094 53.265625 40.871094 55.609375 C 40.871094 57.957031 42.664062 59.867188 44.886719 59.867188 L 76.964844 59.867188 C 79.183594 59.867188 80.984375 57.960938 80.984375 55.609375 Z M 80.984375 55.609375 "/><g clip-rule="nonzero" clip-path="url(#02fa3492c9)"><path style=" stroke:none;fill-rule:nonzero;fill:#e7a41f;fill-opacity:1;" d="M 21.953125 67.722656 L 35.703125 81.511719 C 38.804688 84.605469 43.089844 86.101562 47.824219 86.101562 C 52.558594 86.101562 56.847656 84.480469 59.953125 81.378906 L 68.203125 73.042969 C 69.828125 71.417969 69.773438 68.726562 68.078125 67.035156 C 66.386719 65.34375 63.695312 65.285156 62.074219 66.910156 L 53.542969 75.152344 C 52.070312 76.628906 50.03125 77.246094 47.777344 77.246094 C 45.523438 77.246094 43.488281 76.628906 42.007812 75.152344 L 28.308594 61.359375 C 26.832031 59.882812 26.089844 57.726562 26.089844 55.472656 C 26.089844 53.21875 26.832031 51.183594 28.308594 49.707031 L 41.964844 35.859375 C 43.441406 34.382812 45.523438 33.820312 47.773438 33.820312 C 50.023438 33.820312 52.0625 34.4375 53.539062 35.914062 L 62.070312 44.152344 C 63.695312 45.78125 66.386719 45.722656 68.078125 44.03125 C 69.773438 42.335938 69.828125 39.648438 68.203125 38.023438 L 59.953125 29.6875 C 57.886719 27.648438 55.265625 26.160156 52.328125 25.484375 L 52.21875 25.460938 L 60.019531 17.550781 C 61.652344 15.925781 61.59375 13.230469 59.902344 11.539062 C 58.210938 9.851562 55.515625 9.796875 53.886719 11.421875 L 21.953125 43.347656 C 18.851562 46.453125 17.230469 50.734375 17.230469 55.472656 C 17.230469 60.207031 18.851562 64.625 21.953125 67.722656 Z M 21.953125 67.722656 "/></g><path style=" stroke:none;fill-rule:nonzero;fill:#070706;fill-opacity:1;" d="M 36.722656 82.351562 C 36.160156 82.042969 35.664062 81.660156 35.210938 81.210938 C 30.980469 76.996094 26.730469 72.800781 22.511719 68.574219 C 16.171875 62.226562 15.171875 52.96875 20.007812 45.433594 C 20.753906 44.269531 21.691406 43.242188 22.679688 42.261719 C 32.90625 32.101562 43.128906 21.9375 53.355469 11.777344 C 55.347656 9.800781 58.128906 9.71875 59.984375 11.566406 C 61.769531 13.347656 61.664062 16.164062 59.734375 18.097656 C 57.28125 20.550781 54.828125 22.996094 52.375 25.445312 C 52.242188 25.832031 51.925781 26.078125 51.65625 26.355469 C 48.90625 29.125 46.078125 31.820312 43.367188 34.628906 C 43.011719 34.996094 42.53125 35.21875 42.179688 35.59375 C 37.644531 40.09375 33.054688 44.539062 28.582031 49.097656 C 24.964844 52.789062 25.085938 58.386719 28.796875 62.144531 C 32.96875 66.367188 37.210938 70.523438 41.425781 74.707031 C 41.636719 74.917969 41.859375 75.125 42.074219 75.332031 C 43.566406 76.289062 43.585938 79.285156 42.65625 80.617188 C 41.632812 82.085938 40.296875 82.984375 38.410156 82.917969 C 37.773438 82.898438 37.25 82.644531 36.722656 82.351562 Z M 36.722656 82.351562 "/></g></svg>