<svg xmlns="http://www.w3.org/2000/svg" xmlns:xlink="http://www.w3.org/1999/xlink" width="128" zoomAndPan="magnify" viewBox="0 0 96 95.999999" height="128" preserveAspectRatio="xMidYMid meet" version="1.2"><defs><clipPath id="220e21ee06"><path d="M 9.601562 28 L 86 28 L 86 68 L 9.601562 68 Z M 9.601562 28 "/></clipPath></defs><g id="c3758cb4f6"><g clip-rule="nonzero" clip-path="url(#220e21ee06)"><path style=" stroke:none;fill-rule:evenodd;fill:#00678c;fill-opacity:1;" d="M 9.460938 64.257812 L 11.972656 64.257812 L 11.972656 54.339844 L 15.894531 62.984375 C 16.339844 64.023438 16.980469 64.410156 18.214844 64.410156 C 19.453125 64.410156 20.050781 64.023438 20.511719 62.984375 L 24.417969 54.339844 L 24.417969 64.257812 L 26.949219 64.257812 L 26.949219 54.339844 C 26.949219 53.378906 26.5625 52.917969 25.75 52.664062 C 23.835938 52.089844 22.558594 52.589844 21.980469 53.878906 L 18.132812 62.425781 L 14.421875 53.878906 C 13.863281 52.589844 12.566406 52.089844 10.632812 52.664062 C 9.839844 52.917969 9.457031 53.378906 9.457031 54.339844 L 9.453125 64.257812 Z M 29.039062 56.191406 L 31.570312 56.191406 L 31.570312 61.636719 C 31.554688 61.945312 31.667969 62.640625 33.046875 62.65625 C 33.761719 62.675781 38.496094 62.65625 38.535156 62.65625 L 38.535156 56.152344 L 41.066406 56.152344 L 41.066406 65.066406 C 41.066406 67.257812 38.335938 67.742188 37.066406 67.761719 L 29.101562 67.761719 L 29.101562 66.085938 L 37.085938 66.085938 C 38.707031 65.914062 38.515625 65.105469 38.515625 64.835938 L 38.515625 64.179688 L 33.160156 64.179688 C 30.667969 64.160156 29.0625 63.0625 29.042969 61.8125 L 29.042969 56.1875 Z M 83.351562 49.875 C 81.808594 49.835938 80.609375 49.988281 79.601562 50.414062 C 79.3125 50.53125 78.847656 50.53125 78.8125 50.894531 C 78.964844 51.046875 78.984375 51.300781 79.121094 51.511719 C 79.351562 51.898438 79.757812 52.417969 80.125 52.683594 C 80.53125 52.992188 80.9375 53.300781 81.363281 53.570312 C 82.117188 54.03125 82.964844 54.300781 83.699219 54.765625 C 84.125 55.035156 84.550781 55.382812 84.976562 55.671875 C 85.191406 55.824219 85.324219 56.074219 85.59375 56.171875 L 85.59375 56.113281 C 85.460938 55.941406 85.421875 55.691406 85.285156 55.496094 C 85.09375 55.304688 84.898438 55.128906 84.707031 54.9375 C 84.144531 54.1875 83.449219 53.53125 82.695312 52.992188 C 82.078125 52.570312 80.722656 51.992188 80.472656 51.28125 L 80.433594 51.242188 C 80.859375 51.203125 81.363281 51.050781 81.769531 50.933594 C 82.425781 50.761719 83.023438 50.800781 83.699219 50.625 C 84.011719 50.546875 84.320312 50.453125 84.628906 50.355469 L 84.628906 50.183594 C 84.28125 49.835938 84.03125 49.375 83.664062 49.046875 C 82.675781 48.199219 81.59375 47.371094 80.472656 46.679688 C 79.875 46.292969 79.101562 46.042969 78.460938 45.71875 C 78.230469 45.601562 77.84375 45.542969 77.707031 45.351562 C 77.359375 44.929688 77.167969 44.371094 76.917969 43.867188 C 76.355469 42.808594 75.8125 41.636719 75.332031 40.519531 C 74.984375 39.769531 74.769531 39.015625 74.347656 38.324219 C 72.355469 35.050781 70.191406 33.070312 66.863281 31.125 C 66.148438 30.71875 65.300781 30.546875 64.394531 30.335938 L 62.945312 30.257812 C 62.636719 30.121094 62.328125 29.757812 62.054688 29.582031 C 60.953125 28.890625 58.113281 27.386719 57.300781 29.371094 C 56.777344 30.621094 58.074219 31.855469 58.515625 32.488281 C 58.84375 32.933594 59.269531 33.433594 59.5 33.933594 C 59.628906 34.261719 59.675781 34.609375 59.808594 34.953125 C 60.117188 35.800781 60.410156 36.746094 60.816406 37.535156 C 61.03125 37.9375 61.257812 38.363281 61.53125 38.730469 C 61.683594 38.941406 61.953125 39.035156 62.011719 39.382812 C 61.742188 39.769531 61.722656 40.34375 61.566406 40.828125 C 60.871094 43.003906 61.144531 45.699219 62.128906 47.296875 C 62.4375 47.777344 63.167969 48.835938 64.160156 48.429688 C 65.027344 48.085938 64.835938 46.988281 65.085938 46.023438 C 65.144531 45.792969 65.105469 45.640625 65.222656 45.484375 L 65.222656 45.523438 L 66.011719 47.121094 C 66.613281 48.066406 67.65625 49.046875 68.527344 49.703125 C 68.988281 50.050781 69.355469 50.648438 69.9375 50.859375 L 69.9375 50.800781 L 69.898438 50.800781 C 69.78125 50.628906 69.609375 50.550781 69.453125 50.414062 C 69.105469 50.066406 68.71875 49.644531 68.449219 49.257812 C 67.636719 48.183594 66.921875 46.988281 66.285156 45.753906 C 65.976562 45.160156 65.703125 44.503906 65.453125 43.90625 C 65.335938 43.675781 65.335938 43.328125 65.144531 43.214844 C 64.851562 43.636719 64.429688 44.003906 64.214844 44.523438 C 63.847656 45.351562 63.808594 46.371094 63.675781 47.429688 C 63.597656 47.449219 63.632812 47.429688 63.597656 47.46875 C 62.980469 47.316406 62.765625 46.679688 62.535156 46.140625 C 61.953125 44.773438 61.855469 42.578125 62.359375 41 C 62.496094 40.597656 63.074219 39.324219 62.84375 38.941406 C 62.726562 38.574219 62.339844 38.363281 62.128906 38.074219 C 61.875 37.707031 61.605469 37.246094 61.433594 36.84375 C 60.96875 35.765625 60.738281 34.570312 60.234375 33.492188 C 60 32.992188 59.597656 32.472656 59.265625 32.011719 C 58.898438 31.488281 58.496094 31.125 58.203125 30.507812 C 58.109375 30.296875 57.972656 29.949219 58.128906 29.71875 C 58.164062 29.566406 58.242188 29.507812 58.398438 29.46875 C 58.648438 29.257812 59.363281 29.527344 59.617188 29.640625 C 60.332031 29.929688 60.929688 30.199219 61.527344 30.601562 C 61.800781 30.796875 62.089844 31.160156 62.4375 31.257812 L 62.84375 31.257812 C 63.460938 31.394531 64.15625 31.296875 64.738281 31.46875 C 65.761719 31.796875 66.691406 32.277344 67.519531 32.800781 C 70.054688 34.398438 72.140625 36.667969 73.550781 39.382812 C 73.785156 39.828125 73.878906 40.230469 74.09375 40.691406 C 74.5 41.636719 75.003906 42.597656 75.40625 43.523438 C 75.8125 44.429688 76.199219 45.351562 76.78125 46.105469 C 77.070312 46.507812 78.230469 46.71875 78.75 46.933594 C 79.136719 47.105469 79.738281 47.257812 80.085938 47.472656 C 80.742188 47.875 81.398438 48.335938 82.015625 48.78125 C 82.328125 49.011719 83.292969 49.492188 83.351562 49.875 Z M 63.640625 33.144531 C 63.375 33.140625 63.109375 33.171875 62.847656 33.242188 L 62.847656 33.277344 L 62.886719 33.277344 C 63.042969 33.585938 63.3125 33.800781 63.507812 34.070312 L 63.949219 34.992188 L 63.988281 34.953125 C 64.261719 34.761719 64.394531 34.453125 64.394531 33.992188 C 64.28125 33.855469 64.261719 33.722656 64.164062 33.585938 C 64.046875 33.394531 63.796875 33.296875 63.640625 33.144531 Z M 63.640625 33.144531 "/></g><path style=" stroke:none;fill-rule:evenodd;fill:#ce8b2c;fill-opacity:1;" d="M 42.996094 64.257812 L 50.261719 64.257812 C 51.113281 64.257812 51.925781 64.082031 52.582031 63.773438 C 53.683594 63.273438 54.207031 62.601562 54.207031 61.714844 L 54.207031 59.867188 C 54.207031 59.15625 53.609375 58.480469 52.410156 58.019531 C 51.789062 57.789062 51.019531 57.652344 50.265625 57.652344 L 47.210938 57.652344 C 46.183594 57.652344 45.703125 57.34375 45.566406 56.671875 C 45.546875 56.59375 45.546875 56.519531 45.546875 56.441406 L 45.546875 55.304688 C 45.546875 55.246094 45.546875 55.171875 45.566406 55.09375 C 45.703125 54.574219 45.972656 54.4375 46.867188 54.34375 L 54.308594 54.34375 L 54.308594 52.667969 L 47.234375 52.667969 C 46.207031 52.667969 45.667969 52.726562 45.183594 52.878906 C 43.695312 53.339844 43.039062 54.074219 43.039062 55.363281 L 43.039062 56.828125 C 43.039062 57.960938 44.3125 58.925781 46.480469 59.15625 C 46.710938 59.175781 46.960938 59.175781 47.214844 59.175781 L 49.824219 59.175781 C 49.917969 59.175781 50.015625 59.175781 50.09375 59.195312 C 50.886719 59.269531 51.234375 59.40625 51.464844 59.695312 C 51.621094 59.847656 51.660156 59.984375 51.660156 60.15625 L 51.660156 61.621094 C 51.660156 61.792969 51.542969 62.023438 51.3125 62.214844 C 51.078125 62.40625 50.710938 62.542969 50.226562 62.5625 C 50.132812 62.5625 50.074219 62.582031 49.976562 62.582031 L 42.996094 62.582031 Z M 69.941406 61.351562 C 69.941406 63.0625 71.238281 64.023438 73.824219 64.21875 C 74.078125 64.238281 74.308594 64.257812 74.558594 64.257812 L 81.132812 64.257812 L 81.132812 62.582031 L 74.503906 62.582031 C 73.03125 62.582031 72.472656 62.214844 72.472656 61.332031 L 72.472656 52.667969 L 69.933594 52.667969 L 69.933594 61.351562 Z M 55.808594 61.425781 L 55.808594 55.457031 C 55.808594 53.9375 56.890625 53.011719 59 52.722656 C 59.230469 52.703125 59.464844 52.683594 59.675781 52.683594 L 64.46875 52.683594 C 64.71875 52.683594 64.933594 52.703125 65.183594 52.722656 C 67.292969 53.011719 68.355469 53.9375 68.355469 55.457031 L 68.355469 61.425781 C 68.355469 62.65625 67.910156 63.3125 66.867188 63.757812 L 69.339844 65.988281 L 66.421875 65.988281 L 64.410156 64.179688 L 62.382812 64.296875 L 59.675781 64.296875 C 59.175781 64.292969 58.6875 64.230469 58.207031 64.101562 C 56.601562 63.660156 55.808594 62.8125 55.808594 61.425781 Z M 58.535156 61.292969 C 58.535156 61.367188 58.578125 61.445312 58.59375 61.542969 C 58.730469 62.234375 59.386719 62.621094 60.390625 62.621094 L 62.671875 62.621094 L 60.585938 60.734375 L 63.503906 60.734375 L 65.339844 62.390625 C 65.6875 62.195312 65.898438 61.925781 65.976562 61.582031 C 65.996094 61.503906 65.996094 61.40625 65.996094 61.332031 L 65.996094 55.613281 C 65.996094 55.535156 65.996094 55.457031 65.976562 55.382812 C 65.84375 54.726562 65.183594 54.363281 64.199219 54.363281 L 60.390625 54.363281 C 59.269531 54.363281 58.535156 54.84375 58.535156 55.613281 Z M 58.535156 61.292969 "/></g></svg>