<svg xmlns="http://www.w3.org/2000/svg" xmlns:xlink="http://www.w3.org/1999/xlink" width="128" zoomAndPan="magnify" viewBox="0 0 96 95.999999" height="128" preserveAspectRatio="xMidYMid meet" version="1.2"><defs><clipPath id="2ade8b9a8c"><path d="M 27.601562 25.945312 L 34.460938 25.945312 L 34.460938 90.351562 L 27.601562 90.351562 Z M 27.601562 25.945312 "/></clipPath><clipPath id="eb9a63a880"><path d="M 39.035156 12.929688 L 45.917969 12.929688 L 45.917969 30.230469 L 39.035156 30.230469 Z M 39.035156 12.929688 "/></clipPath><clipPath id="e1d3d907cd"><path d="M 39.035156 51.050781 L 45.917969 51.050781 L 45.917969 72.390625 L 39.035156 72.390625 Z M 39.035156 51.050781 "/></clipPath><clipPath id="25e06dd418"><path d="M 38.269531 36.5625 L 45.917969 36.5625 L 45.917969 44.71875 L 38.269531 44.71875 Z M 38.269531 36.5625 "/></clipPath><clipPath id="35cfba8ce5"><path d="M 50.203125 25.890625 L 57.089844 25.890625 L 57.089844 47.234375 L 50.203125 47.234375 Z M 50.203125 25.890625 "/></clipPath><clipPath id="723ae7044f"><path d="M 50.203125 52.492188 L 57.851562 52.492188 L 57.851562 60.648438 L 50.203125 60.648438 Z M 50.203125 52.492188 "/></clipPath><clipPath id="f29bb2ba40"><path d="M 50.203125 67.078125 L 57.089844 67.078125 L 57.089844 83.21875 L 50.203125 83.21875 Z M 50.203125 67.078125 "/></clipPath><clipPath id="8e9e4ee723"><path d="M 62.898438 5.648438 L 68.398438 5.648438 L 68.398438 72.390625 L 62.898438 72.390625 Z M 62.898438 5.648438 "/></clipPath></defs><g id="a542b87410"><g clip-rule="nonzero" clip-path="url(#2ade8b9a8c)"><path style=" stroke:none;fill-rule:nonzero;fill:#ffffff;fill-opacity:1;" d="M 27.601562 25.945312 L 34.460938 25.945312 L 34.460938 90.363281 L 27.601562 90.363281 Z M 27.601562 25.945312 "/></g><g clip-rule="nonzero" clip-path="url(#eb9a63a880)"><path style=" stroke:none;fill-rule:nonzero;fill:#ffffff;fill-opacity:1;" d="M 39.035156 12.929688 L 45.917969 12.929688 L 45.917969 30.21875 L 39.035156 30.21875 Z M 39.035156 12.929688 "/></g><g clip-rule="nonzero" clip-path="url(#e1d3d907cd)"><path style=" stroke:none;fill-rule:nonzero;fill:#ffffff;fill-opacity:1;" d="M 39.035156 51.050781 L 45.917969 51.050781 L 45.917969 72.398438 L 39.035156 72.398438 Z M 39.035156 51.050781 "/></g><g clip-rule="nonzero" clip-path="url(#25e06dd418)"><path style=" stroke:none;fill-rule:nonzero;fill:#ffca00;fill-opacity:1;" d="M 38.269531 36.5625 L 45.917969 36.5625 L 45.917969 44.714844 L 38.269531 44.714844 Z M 38.269531 36.5625 "/></g><g clip-rule="nonzero" clip-path="url(#35cfba8ce5)"><path style=" stroke:none;fill-rule:nonzero;fill:#ffffff;fill-opacity:1;" d="M 50.203125 25.890625 L 57.089844 25.890625 L 57.089844 47.242188 L 50.203125 47.242188 Z M 50.203125 25.890625 "/></g><g clip-rule="nonzero" clip-path="url(#723ae7044f)"><path style=" stroke:none;fill-rule:nonzero;fill:#e70488;fill-opacity:1;" d="M 50.203125 52.492188 L 57.851562 52.492188 L 57.851562 60.644531 L 50.203125 60.644531 Z M 50.203125 52.492188 "/></g><g clip-rule="nonzero" clip-path="url(#f29bb2ba40)"><path style=" stroke:none;fill-rule:nonzero;fill:#ffffff;fill-opacity:1;" d="M 50.203125 67.078125 L 57.089844 67.078125 L 57.089844 83.214844 L 50.203125 83.214844 Z M 50.203125 67.078125 "/></g><g clip-rule="nonzero" clip-path="url(#8e9e4ee723)"><path style=" stroke:none;fill-rule:nonzero;fill:#ffffff;fill-opacity:1;" d="M 62.898438 5.648438 L 68.398438 5.648438 L 68.398438 72.402344 L 62.898438 72.402344 Z M 62.898438 5.648438 "/></g></g></svg>